<?xml version="1.0" encoding="utf-8"?>
<!-- Generator: Adobe Illustrator 25.0.1, SVG Export Plug-In . SVG Version: 6.00 Build 0)  -->
<svg version="1.1" id="Layer_1" xmlns="http://www.w3.org/2000/svg" xmlns:xlink="http://www.w3.org/1999/xlink" x="0px" y="0px"
	 viewBox="0 0 294 362" style="enable-background:new 0 0 294 362;" xml:space="preserve">
<style type="text/css">
	.st0{fill:none;stroke:#FFFFFF;stroke-miterlimit:10;}
</style>
<path class="st0" d="M268.9,5.2L4.9,20.6l19.5,335.4l264-15.3L268.9,5.2z M21.8,39.6l232.6-13.5l0.7,11.4l-72,4.1l-0.1-2.6
	c-0.2-3.3-3-5.8-6.3-5.6l-1.6,0.1c-3.3,0.2-5.8,3-5.6,6.3l0.1,2.6l-2.5,0.1l-0.1-2.6c-0.2-3.3-3-5.8-6.3-5.6l-1.6,0.1
	c-3.3,0.2-5.8,3-5.6,6.3l0.1,2.6l-2.9,0.2l-0.1-2.6c-0.2-3.3-3-5.8-6.3-5.6l-1.6,0.1c-3.3,0.2-5.8,3-5.6,6.3l0.1,2.6l-2.5,0.1
	l-0.1-2.6c-0.2-3.3-3-5.8-6.3-5.6l-1.6,0.1c-3.3,0.2-5.8,3-5.6,6.3l0.2,2.6l-2.5,0.1l-0.2-2.6c-0.2-3.3-3-5.8-6.3-5.6l-1.6,0.1
	c-3.3,0.2-5.8,3-5.6,6.3l0.2,2.6l-2.5,0.1l-0.2-2.6c-0.2-3.3-3-5.8-6.3-5.6l-1.6,0.1c-3.3,0.2-5.8,3-5.6,6.3l0.2,2.6l-2.5,0.1
	l-0.2-2.6c-0.2-3.3-3-5.8-6.3-5.6L78.6,39c-3.3,0.2-5.8,3-5.6,6.3l0.2,2.6l-2.5,0.1l-0.2-2.6c-0.2-3.3-3-5.8-6.3-5.6l-1.6,0.1
	c-3.3,0.2-5.8,3-5.6,6.3l0.2,2.6L54.6,49l-0.2-2.6c-0.2-3.3-3-5.8-6.3-5.6l-1.6,0.1c-3.3,0.2-5.8,3-5.6,6.3l0.2,2.6l-2.5,0.1
	l-0.2-2.6c-0.2-3.3-3-5.8-6.3-5.6l-1.6,0.1c-3.3,0.2-5.8,3-5.6,6.3l0.1,2.6l-2.7,0.2L21.8,39.6z M22.6,54.7l2.7-0.2l0.2,3.6
	c0.2,3.3,3,5.8,6.3,5.6l1.6-0.1c3.3-0.2,5.8-3,5.6-6.3l-0.2-3.6l2.5-0.1l0.2,3.6c0.2,3.3,3,5.8,6.3,5.6l1.6-0.1
	c3.3-0.2,5.8-3,5.6-6.3l-0.2-3.6l2.5-0.1l0.2,3.6c0.2,3.3,3,5.8,6.3,5.6l1.6-0.1c3.3-0.2,5.8-3,5.6-6.3L70.8,52l2.5-0.1l0.2,3.6
	c0.2,3.3,3,5.8,6.3,5.6l1.6-0.1c3.3-0.2,5.8-3,5.6-6.3L86.8,51l2.5-0.1l0.2,3.6c0.2,3.3,3,5.8,6.3,5.6l1.6-0.1
	c3.3-0.2,5.8-3,5.6-6.3l-0.2-3.6l2.5-0.1l0.2,3.6c0.2,3.3,3,5.8,6.3,5.6l1.6-0.1c3.3-0.2,5.8-3,5.6-6.3l-0.2-3.6l2.5-0.1l0.2,3.6
	c0.2,3.3,3,5.8,6.3,5.6l1.6-0.1c3.3-0.2,5.8-3,5.6-6.3l-0.2-3.6l2.5-0.1l0.2,3.6c0.2,3.3,3,5.8,6.3,5.6l1.6-0.1
	c3.3-0.2,5.8-3,5.6-6.3l-0.2-3.6l2.9-0.2l0.2,3.6c0.2,3.3,3,5.8,6.3,5.6l1.6-0.1c3.3-0.2,5.8-3,5.6-6.3l-0.2-3.6l2.5-0.1l0.2,3.6
	c0.2,3.3,3,5.8,6.3,5.6l1.6-0.1c3.3-0.2,5.8-3,5.6-6.3l-0.2-3.6l72-4.1l1.4,23.5l-71.9,4.1l-0.2-3.2c-0.2-3.3-3-5.8-6.3-5.6
	l-1.6,0.1c-3.3,0.2-5.8,3-5.6,6.3l0.2,3.2l-2.5,0.1l-0.2-3.2c-0.2-3.3-3-5.8-6.3-5.6l-1.6,0.1c-3.3,0.2-5.8,3-5.6,6.3l0.2,3.2
	l-2.9,0.2l-0.2-3.2c-0.2-3.3-3-5.8-6.3-5.6l-1.6,0.1c-3.3,0.2-5.8,3-5.6,6.3l0.2,3.2l-2.5,0.1l-0.2-3.2c-0.2-3.3-3-5.8-6.3-5.6
	l-1.6,0.1c-3.3,0.2-5.8,3-5.6,6.3l0.2,3.2l-2.5,0.1l-0.2-3.2c-0.2-3.3-3-5.8-6.3-5.6l-1.6,0.1c-3.3,0.2-5.8,3-5.6,6.3l0.2,3.2
	l-2.5,0.1l-0.2-3.2c-0.2-3.3-3-5.8-6.3-5.6l-1.6,0.1c-3.3,0.2-5.8,3-5.6,6.3l0.2,3.2l-2.5,0.1l-0.2-3.2c-0.2-3.3-3-5.8-6.3-5.6
	l-1.6,0.1c-3.3,0.2-5.8,3-5.6,6.3l0.2,3.2l-2.5,0.1l-0.2-3.2c-0.2-3.3-3-5.8-6.3-5.6l-1.6,0.1c-3.3,0.2-5.8,3-5.6,6.3l0.2,3.2
	l-2.5,0.1l-0.2-3.2c-0.2-3.3-3-5.8-6.3-5.6l-1.6,0.1c-3.3,0.2-5.8,3-5.6,6.3l0.2,3.2l-2.5,0.1l-0.2-3.2c-0.2-3.3-3-5.8-6.3-5.6
	l-1.6,0.1c-3.3,0.2-5.8,3-5.6,6.3l0.2,3.2L24,78.2L22.6,54.7z M24.2,82.1l2.8-0.2l0.2,3c0.2,3.3,3,5.8,6.3,5.6l1.6-0.1
	c3.3-0.2,5.8-3,5.6-6.3l-0.2-3L43,81l0.2,3c0.2,3.3,3,5.8,6.3,5.6l1.6-0.1c3.3-0.2,5.8-3,5.6-6.3l-0.2-3l2.5-0.1l0.2,3
	c0.2,3.3,3,5.8,6.3,5.6l1.6-0.1c3.3-0.2,5.8-3,5.6-6.3l-0.2-3l2.5-0.1l0.2,3c0.2,3.3,3,5.8,6.3,5.6l1.6-0.1c3.3-0.2,5.8-3,5.6-6.3
	l-0.2-3l2.5-0.1l0.2,3c0.2,3.3,3,5.8,6.3,5.6l1.6-0.1c3.3-0.2,5.8-3,5.6-6.3l-0.2-3l2.5-0.1l0.2,3c0.2,3.3,3,5.8,6.3,5.6l1.6-0.1
	c3.3-0.2,5.8-3,5.6-6.3l-0.2-3l2.5-0.1l0.2,3c0.2,3.3,3,5.8,6.3,5.6l1.6-0.1c3.3-0.2,5.8-3,5.6-6.3l-0.2-3l2.5-0.1l0.2,3
	c0.2,3.3,3,5.8,6.3,5.6l1.6-0.1c3.3-0.2,5.8-3,5.6-6.3l-0.2-3l2.9-0.2l0.2,3c0.2,3.3,3,5.8,6.3,5.6l1.6-0.1c3.3-0.2,5.8-3,5.6-6.3
	l-0.2-3l2.5-0.1l0.2,3c0.2,3.3,3,5.8,6.3,5.6l1.6-0.1c3.3-0.2,5.8-3,5.6-6.3l-0.2-3l71.9-4.1l1.4,23.5l-72.1,4.1l-0.2-3.1
	c-0.2-3.3-3-5.8-6.3-5.6l-1.6,0.1c-3.3,0.2-5.8,3-5.6,6.3l0.2,3.1l-2.5,0.1l-0.2-3.1c-0.2-3.3-3-5.8-6.3-5.6l-1.6,0.1
	c-3.3,0.2-5.8,3-5.6,6.3l0.2,3.1l-2.9,0.2l-0.2-3.1c-0.2-3.3-3-5.8-6.3-5.6l-1.6,0.1c-3.3,0.2-5.8,3-5.6,6.3l0.2,3.1l-2.5,0.1
	l-0.2-3.1c-0.2-3.3-3-5.8-6.3-5.6l-1.6,0.1c-3.3,0.2-5.8,3-5.6,6.3l0.2,3.1l-2.5,0.1l-0.2-3.1c-0.2-3.3-3-5.8-6.3-5.6l-1.6,0.1
	c-3.3,0.2-5.8,3-5.6,6.3l0.2,3.1l-2.5,0.1l-0.2-3.1c-0.2-3.3-3-5.8-6.3-5.6l-1.6,0.1c-3.3,0.2-5.8,3-5.6,6.3l0.2,3.1l-2.5,0.1
	l-0.2-3.1c-0.2-3.3-3-5.8-6.3-5.6l-1.6,0.1c-3.3,0.2-5.8,3-5.6,6.3l0.2,3.1l-2.5,0.1l-0.2-3.1c-0.2-3.3-3-5.8-6.3-5.6l-1.6,0.1
	c-3.3,0.2-5.8,3-5.6,6.3l0.2,3.1l-2.5,0.1l-0.2-3.1c-0.2-3.3-3-5.8-6.3-5.6l-1.6,0.1c-3.3,0.2-5.8,3-5.6,6.3l0.2,3.1l-2.5,0.1
	l-0.2-3.1c-0.2-3.3-3-5.8-6.3-5.6l-1.6,0.1c-3.3,0.2-5.8,3-5.6,6.3l0.2,3.1l-2.6,0.2L24.2,82.1z M25.8,109.5l2.6-0.2l0.2,3.1
	c0.2,3.3,3,5.8,6.3,5.6l1.6-0.1c3.3-0.2,5.8-3,5.6-6.3l-0.2-3.1l2.5-0.1l0.2,3.1c0.2,3.3,3,5.8,6.3,5.6l1.6-0.1
	c3.3-0.2,5.8-3,5.6-6.3l-0.2-3.1l2.5-0.1l0.2,3.1c0.2,3.3,3,5.8,6.3,5.6l1.6-0.1c3.3-0.2,5.8-3,5.6-6.3l-0.2-3.1l2.5-0.1l0.2,3.1
	c0.2,3.3,3,5.8,6.3,5.6l1.6-0.1c3.3-0.2,5.8-3,5.6-6.3l-0.2-3.1l2.5-0.1l0.2,3.1c0.2,3.3,3,5.8,6.3,5.6l1.6-0.1
	c3.3-0.2,5.8-3,5.6-6.3l-0.2-3.1l2.5-0.1l0.2,3.1c0.2,3.3,3,5.8,6.3,5.6l1.6-0.1c3.3-0.2,5.8-3,5.6-6.3L122,104l2.5-0.1l0.2,3.1
	c0.2,3.3,3,5.8,6.3,5.6l1.6-0.1c3.3-0.2,5.8-3,5.6-6.3l-0.2-3.1l2.5-0.1l0.2,3.1c0.2,3.3,3,5.8,6.3,5.6l1.6-0.1
	c3.3-0.2,5.8-3,5.6-6.3l-0.2-3.1l2.9-0.2l0.2,3.1c0.2,3.3,3,5.8,6.3,5.6l1.6-0.1c3.3-0.2,5.8-3,5.6-6.3l-0.2-3.1l2.5-0.1l0.2,3.1
	c0.2,3.3,3,5.8,6.3,5.6l1.6-0.1c3.3-0.2,5.8-3,5.6-6.3l-0.2-3.1l72.1-4.1l1.4,24.3l-72.1,4.1l-0.2-2.9c-0.2-3.3-3-5.8-6.3-5.6
	l-1.6,0.1c-3.3,0.2-5.8,3-5.6,6.3l0.2,2.9l-2.5,0.1l-0.2-2.9c-0.2-3.3-3-5.8-6.3-5.6l-1.6,0.1c-3.3,0.2-5.8,3-5.6,6.3l0.2,2.9
	l-2.9,0.2l-0.2-2.9c-0.2-3.3-3-5.8-6.3-5.6l-1.6,0.1c-3.3,0.2-5.8,3-5.6,6.3l0.2,2.9l-2.5,0.1l-0.2-2.9c-0.2-3.3-3-5.8-6.3-5.6
	l-1.6,0.1c-3.3,0.2-5.8,3-5.6,6.3l0.2,2.9l-2.5,0.1l-0.2-2.9c-0.2-3.3-3-5.8-6.3-5.6l-1.6,0.1c-3.3,0.2-5.8,3-5.6,6.3l0.2,2.9
	l-2.5,0.1l-0.2-2.9c-0.2-3.3-3-5.8-6.3-5.6l-1.6,0.1c-3.3,0.2-5.8,3-5.6,6.3l0.2,2.9l-2.5,0.1l-0.2-2.9c-0.2-3.3-3-5.8-6.3-5.6
	l-1.6,0.1c-3.3,0.2-5.8,3-5.6,6.3l0.2,2.9l-2.5,0.1l-0.2-2.9c-0.2-3.3-3-5.8-6.3-5.6l-1.6,0.1c-3.3,0.2-5.8,3-5.6,6.3l0.2,2.9
	l-2.5,0.1l-0.2-2.9c-0.2-3.3-3-5.8-6.3-5.6l-1.6,0.1c-3.3,0.2-5.8,3-5.6,6.3l0.2,2.9l-2.5,0.1l-0.2-2.9c-0.2-3.3-3-5.8-6.3-5.6
	l-1.6,0.1c-3.3,0.2-5.8,3-5.6,6.3l0.2,2.9l-2.6,0.1L25.8,109.5z M27.5,137.7l2.6-0.1l0.2,3.3c0.2,3.3,3,5.8,6.3,5.6l1.6-0.1
	c3.3-0.2,5.8-3,5.6-6.3l-0.2-3.3l2.5-0.1l0.2,3.3c0.2,3.3,3,5.8,6.3,5.6l1.6-0.1c3.3-0.2,5.8-3,5.6-6.3l-0.2-3.3l2.5-0.1l0.2,3.3
	c0.2,3.3,3,5.8,6.3,5.6l1.6-0.1c3.3-0.2,5.8-3,5.6-6.3l-0.2-3.3l2.5-0.1l0.2,3.3c0.2,3.3,3,5.8,6.3,5.6l1.6-0.1
	c3.3-0.2,5.8-3,5.6-6.3l-0.2-3.3l2.5-0.1l0.2,3.3c0.2,3.3,3,5.8,6.3,5.6l1.6-0.1c3.3-0.2,5.8-3,5.6-6.3l-0.2-3.3l2.5-0.1l0.2,3.3
	c0.2,3.3,3,5.8,6.3,5.6l1.6-0.1c3.3-0.2,5.8-3,5.6-6.3l-0.2-3.3l2.5-0.1l0.2,3.3c0.2,3.3,3,5.8,6.3,5.6l1.6-0.1
	c3.3-0.2,5.8-3,5.6-6.3l-0.2-3.3l2.5-0.1l0.2,3.3c0.2,3.3,3,5.8,6.3,5.6l1.6-0.1c3.3-0.2,5.8-3,5.6-6.3l-0.2-3.3l2.9-0.2l0.2,3.3
	c0.2,3.3,3,5.8,6.3,5.6l1.6-0.1c3.3-0.2,5.8-3,5.6-6.3l-0.2-3.3l2.5-0.1l0.2,3.3c0.2,3.3,3,5.8,6.3,5.6l1.6-0.1
	c3.3-0.2,5.8-3,5.6-6.3l-0.2-3.3l72.1-4.1l1.4,24.4l-72.4,4.1l-0.2-3.1c-0.2-3.3-3-5.8-6.3-5.6l-1.6,0.1c-3.3,0.2-5.8,3-5.6,6.3
	l0.2,3.1l-2.5,0.1l-0.2-3.1c-0.2-3.3-3-5.8-6.3-5.6l-1.6,0.1c-3.3,0.2-5.8,3-5.6,6.3l0.2,3.1l-2.9,0.2l-0.2-3.1
	c-0.2-3.3-3-5.8-6.3-5.6l-1.6,0.1c-3.3,0.2-5.8,3-5.6,6.3l0.2,3.1l-2.5,0.1l-0.2-3.1c-0.2-3.3-3-5.8-6.3-5.6l-1.6,0.1
	c-3.3,0.2-5.8,3-5.6,6.3l0.2,3.1l-2.5,0.1l-0.2-3.1c-0.2-3.3-3-5.8-6.3-5.6l-1.6,0.1c-3.3,0.2-5.8,3-5.6,6.3l0.2,3.1l-2.5,0.1
	l-0.2-3.1c-0.2-3.3-3-5.8-6.3-5.6l-1.6,0.1c-3.3,0.2-5.8,3-5.6,6.3l0.2,3.1l-2.5,0.1l-0.2-3.1c-0.2-3.3-3-5.8-6.3-5.6l-1.6,0.1
	c-3.3,0.2-5.8,3-5.6,6.3l0.2,3.1l-2.5,0.1l-0.2-3.1c-0.2-3.3-3-5.8-6.3-5.6l-1.6,0.1c-3.3,0.2-5.8,3-5.6,6.3l0.2,3.1l-2.5,0.1
	l-0.2-3.1c-0.2-3.3-3-5.8-6.3-5.6l-1.6,0.1c-3.3,0.2-5.8,3-5.6,6.3l0.2,3.1l-2.5,0.1l-0.2-3.1c-0.2-3.3-3-5.8-6.3-5.6l-1.6,0.1
	c-3.3,0.2-5.8,3-5.6,6.3l0.2,3.1l-2.3,0.1L27.5,137.7z M29.1,165.9l2.3-0.1l0.2,3.1c0.2,3.3,3,5.8,6.3,5.6l1.6-0.1
	c3.3-0.2,5.8-3,5.6-6.3l-0.2-3.1l2.5-0.1l0.2,3.1c0.2,3.3,3,5.8,6.3,5.6l1.6-0.1c3.3-0.2,5.8-3,5.6-6.3l-0.2-3.1l2.5-0.1l0.2,3.1
	c0.2,3.3,3,5.8,6.3,5.6l1.6-0.1c3.3-0.2,5.8-3,5.6-6.3l-0.2-3.1l2.5-0.1l0.2,3.1c0.2,3.3,3,5.8,6.3,5.6l1.6-0.1
	c3.3-0.2,5.8-3,5.6-6.3l-0.2-3.1l2.5-0.1l0.2,3.1c0.2,3.3,3,5.8,6.3,5.6l1.6-0.1c3.3-0.2,5.8-3,5.6-6.3l-0.2-3.1l2.5-0.1l0.2,3.1
	c0.2,3.3,3,5.8,6.3,5.6l1.6-0.1c3.3-0.2,5.8-3,5.6-6.3l-0.2-3.1l2.5-0.1l0.2,3.1c0.2,3.3,3,5.8,6.3,5.6l1.6-0.1
	c3.3-0.2,5.8-3,5.6-6.3l-0.2-3.1l2.5-0.1l0.2,3.1c0.2,3.3,3,5.8,6.3,5.6l1.6-0.1c3.3-0.2,5.8-3,5.6-6.3l-0.2-3.1l2.9-0.2l0.2,3.1
	c0.2,3.3,3,5.8,6.3,5.6l1.6-0.1c3.3-0.2,5.8-3,5.6-6.3l-0.2-3.1l2.5-0.1l0.2,3.1c0.2,3.3,3,5.8,6.3,5.6l1.6-0.1
	c3.3-0.2,5.8-3,5.6-6.3l-0.2-3.1l72.4-4.1l1.5,25.2l-72.5,4.1l-0.2-3.5c-0.2-3.3-3-5.8-6.3-5.6l-1.6,0.1c-3.3,0.2-5.8,3-5.6,6.3
	l0.2,3.5l-2.5,0.1l-0.2-3.5c-0.2-3.3-3-5.8-6.3-5.6l-1.6,0.1c-3.3,0.2-5.8,3-5.6,6.3l0.2,3.5l-2.9,0.2l-0.2-3.5
	c-0.2-3.3-3-5.8-6.3-5.6l-1.6,0.1c-3.3,0.2-5.8,3-5.6,6.3l0.2,3.5l-2.5,0.1l-0.2-3.5c-0.2-3.3-3-5.8-6.3-5.6l-1.6,0.1
	c-3.3,0.2-5.8,3-5.6,6.3l0.2,3.5l-2.5,0.1l-0.2-3.5c-0.2-3.3-3-5.8-6.3-5.6l-1.6,0.1c-3.3,0.2-5.8,3-5.6,6.3l0.2,3.5l-2.5,0.1
	l-0.2-3.5c-0.2-3.3-3-5.8-6.3-5.6l-1.6,0.1c-3.3,0.2-5.8,3-5.6,6.3l0.2,3.5l-2.5,0.1l-0.2-3.5c-0.2-3.3-3-5.8-6.3-5.6l-1.6,0.1
	c-3.3,0.2-5.8,3-5.6,6.3l0.2,3.5l-2.5,0.1l-0.2-3.5c-0.2-3.3-3-5.8-6.3-5.6l-1.6,0.1c-3.3,0.2-5.8,3-5.6,6.3l0.2,3.5l-2.5,0.1
	l-0.2-3.5c-0.2-3.3-3-5.8-6.3-5.6l-1.6,0.1c-3.3,0.2-5.8,3-5.6,6.3l0.2,3.5l-2.5,0.1l-0.2-3.5c-0.2-3.3-3-5.8-6.3-5.6l-1.6,0.1
	c-3.3,0.2-5.8,3-5.6,6.3l0.2,3.5l-2.2,0.1L29.1,165.9z M30.8,195l2.2-0.1l0.2,2.7c0.2,3.3,3,5.8,6.3,5.6l1.6-0.1
	c3.3-0.2,5.8-3,5.6-6.3l-0.2-2.7l2.5-0.1l0.2,2.7c0.2,3.3,3,5.8,6.3,5.6l1.6-0.1c3.3-0.2,5.8-3,5.6-6.3l-0.2-2.7L65,193l0.2,2.7
	c0.2,3.3,3,5.8,6.3,5.6l1.6-0.1c3.3-0.2,5.8-3,5.6-6.3l-0.2-2.7l2.5-0.1l0.2,2.7c0.2,3.3,3,5.8,6.3,5.6l1.6-0.1
	c3.3-0.2,5.8-3,5.6-6.3l-0.2-2.7l2.5-0.1l0.2,2.7c0.2,3.3,3,5.8,6.3,5.6l1.6-0.1c3.3-0.2,5.8-3,5.6-6.3l-0.2-2.7l2.5-0.1l0.2,2.7
	c0.2,3.3,3,5.8,6.3,5.6l1.6-0.1c3.3-0.2,5.8-3,5.6-6.3l-0.2-2.7l2.5-0.1l0.1,2.7c0.2,3.3,3,5.8,6.3,5.6l1.6-0.1
	c3.3-0.2,5.8-3,5.6-6.3l-0.1-2.7l2.5-0.1l0.1,2.7c0.2,3.3,3,5.8,6.3,5.6l1.6-0.1c3.3-0.2,5.8-3,5.6-6.3l-0.1-2.7l2.9-0.2l0.1,2.7
	c0.2,3.3,3,5.8,6.3,5.6l1.6-0.1c3.3-0.2,5.8-3,5.6-6.3l-0.1-2.7l2.5-0.1l0.1,2.7c0.2,3.3,3,5.8,6.3,5.6l1.6-0.1
	c3.3-0.2,5.8-3,5.6-6.3l-0.1-2.7l72.5-4.1l1.4,23.5l-72,4.1l-0.2-3.1c-0.2-3.3-3-5.8-6.3-5.6l-1.6,0.1c-3.3,0.2-5.8,3-5.6,6.3
	l0.2,3.1l-2.5,0.1l-0.2-3.1c-0.2-3.3-3-5.8-6.3-5.6l-1.6,0.1c-3.3,0.2-5.8,3-5.6,6.3l0.2,3.1l-2.9,0.2l-0.2-3.1
	c-0.2-3.3-3-5.8-6.3-5.6l-1.6,0.1c-3.3,0.2-5.8,3-5.6,6.3l0.2,3.1l-2.5,0.1l-0.2-3.1c-0.2-3.3-3-5.8-6.3-5.6l-1.6,0.1
	c-3.3,0.2-5.8,3-5.6,6.3l0.2,3.1l-2.5,0.1l-0.2-3.1c-0.2-3.3-3-5.8-6.3-5.6l-1.6,0.1c-3.3,0.2-5.8,3-5.6,6.3l0.2,3.1l-2.5,0.1
	l-0.2-3.1c-0.2-3.3-3-5.8-6.3-5.6l-1.6,0.1c-3.3,0.2-5.8,3-5.6,6.3l0.2,3.1l-2.5,0.1l-0.2-3.1c-0.2-3.3-3-5.8-6.3-5.6l-1.6,0.1
	c-3.3,0.2-5.8,3-5.6,6.3l0.2,3.1l-2.5,0.1l-0.2-3.1c-0.2-3.3-3-5.8-6.3-5.6l-1.6,0.1c-3.3,0.2-5.8,3-5.6,6.3l0.2,3.1l-2.5,0.1
	l-0.2-3.1c-0.2-3.3-3-5.8-6.3-5.6l-1.6,0.1c-3.3,0.2-5.8,3-5.6,6.3l0.2,3.1l-2.5,0.1l-0.2-3.1c-0.2-3.3-3-5.8-6.3-5.6l-1.6,0.1
	c-3.3,0.2-5.8,3-5.6,6.3l0.2,3.1l-2.7,0.1L30.8,195z M32.4,222.4l2.7-0.1l0.2,3.1c0.2,3.3,3,5.8,6.3,5.6l1.6-0.1
	c3.3-0.2,5.8-3,5.6-6.3l-0.2-3.1l2.5-0.1l0.2,3.1c0.2,3.3,3,5.8,6.3,5.6l1.6-0.1c3.3-0.2,5.8-3,5.6-6.3l-0.2-3.1l2.5-0.1l0.2,3.1
	c0.2,3.3,3,5.8,6.3,5.6l1.6-0.1c3.3-0.2,5.8-3,5.6-6.3l-0.2-3.1l2.5-0.1l0.2,3.1c0.2,3.3,3,5.8,6.3,5.6l1.6-0.1
	c3.3-0.2,5.8-3,5.6-6.3l-0.2-3.1l2.5-0.1l0.2,3.1c0.2,3.3,3,5.8,6.3,5.6l1.6-0.1c3.3-0.2,5.8-3,5.6-6.3l-0.2-3.1l2.5-0.1l0.2,3.1
	c0.2,3.3,3,5.8,6.3,5.6l1.6-0.1c3.3-0.2,5.8-3,5.6-6.3l-0.2-3.1l2.5-0.1l0.2,3.1c0.2,3.3,3,5.8,6.3,5.6l1.6-0.1
	c3.3-0.2,5.8-3,5.6-6.3l-0.2-3.1l2.5-0.1l0.2,3.1c0.2,3.3,3,5.8,6.3,5.6l1.6-0.1c3.3-0.2,5.8-3,5.6-6.3l-0.2-3.1l2.9-0.2l0.2,3.1
	c0.2,3.3,3,5.8,6.3,5.6l1.6-0.1c3.3-0.2,5.8-3,5.6-6.3l-0.2-3.1l2.5-0.1l0.2,3.1c0.2,3.3,3,5.8,6.3,5.6l1.6-0.1
	c3.3-0.2,5.8-3,5.6-6.3l-0.2-3.1l72.1-4.1l1.3,22.8l-168.6,9.6l-0.2-3.1c-0.2-3.3-3-5.8-6.3-5.6l-1.6,0.1c-3.3,0.2-5.8,3-5.6,6.3
	l0.2,3.1l-2.5,0.1l-0.2-3.1c-0.2-3.3-3-5.8-6.3-5.6l-1.6,0.1c-3.3,0.2-5.8,3-5.6,6.3l0.2,3.1l-2.5,0.1l-0.2-3.1
	c-0.2-3.3-3-5.8-6.3-5.6l-1.6,0.1c-3.3,0.2-5.8,3-5.6,6.3l0.2,3.1l-2.5,0.1l-0.2-3.1c-0.2-3.3-3-5.8-6.3-5.6l-1.6,0.1
	c-3.3,0.2-5.8,3-5.6,6.3l0.2,3.1l-2.5,0.1L32.4,222.4z M33.9,249l2.5-0.1l0.2,3.1c0.2,3.3,3,5.8,6.3,5.6l1.6-0.1
	c3.3-0.2,5.8-3,5.6-6.3l-0.2-3.1l2.5-0.1l0.2,3.1c0.2,3.3,3,5.8,6.3,5.6l1.6-0.1c3.3-0.2,5.8-3,5.6-6.3l-0.2-3.1l2.5-0.1l0.2,3.1
	c0.2,3.3,3,5.8,6.3,5.6l1.6-0.1c3.3-0.2,5.8-3,5.6-6.3l-0.2-3.1l2.5-0.1l0.2,3.1c0.2,3.3,3,5.8,6.3,5.6l1.6-0.1
	c3.3-0.2,5.8-3,5.6-6.3l-0.2-3.1l168.6-9.6l1.2,21l-72.4,4.1l-0.2-3c-0.2-3.3-3-5.8-6.3-5.6l-1.6,0.1c-3.3,0.2-5.8,3-5.6,6.3l0.2,3
	l-2.5,0.1l-0.2-3c-0.2-3.3-3-5.8-6.3-5.6l-1.6,0.1c-3.3,0.2-5.8,3-5.6,6.3l0.2,3l-2.9,0.2l-0.2-3c-0.2-3.3-3-5.8-6.3-5.6l-1.6,0.1
	c-3.3,0.2-5.8,3-5.6,6.3l0.2,3l-2.5,0.1l-0.2-3c-0.2-3.3-3-5.8-6.3-5.6l-1.6,0.1c-3.3,0.2-5.8,3-5.6,6.3l0.2,3l-2.5,0.1l-0.2-3
	c-0.2-3.3-3-5.8-6.3-5.6l-1.6,0.1c-3.3,0.2-5.8,3-5.6,6.3l0.2,3l-2.5,0.1l-0.2-3c-0.2-3.3-3-5.8-6.3-5.6l-1.6,0.1
	c-3.3,0.2-5.8,3-5.6,6.3l0.2,3l-2.5,0.1l-0.2-3c-0.2-3.3-3-5.8-6.3-5.6l-1.6,0.1c-3.3,0.2-5.8,3-5.6,6.3l0.2,3l-2.5,0.1l-0.2-3
	c-0.2-3.3-3-5.8-6.3-5.6l-1.6,0.1c-3.3,0.2-5.8,3-5.6,6.3l0.2,3l-2.5,0.1l-0.2-3c-0.2-3.3-3-5.8-6.3-5.6l-1.6,0.1
	c-3.3,0.2-5.8,3-5.6,6.3l0.2,3l-2.5,0.1l-0.2-3c-0.2-3.3-3-5.8-6.3-5.6l-1.6,0.1c-3.3,0.2-5.8,3-5.6,6.3l0.2,3l-2.3,0.1L33.9,249z
	 M35.3,273.9l2.3-0.1l0.2,3.2c0.2,3.3,3,5.8,6.3,5.6l1.6-0.1c3.3-0.2,5.8-3,5.6-6.3l-0.2-3.2l2.5-0.1l0.2,3.2c0.2,3.3,3,5.8,6.3,5.6
	l1.6-0.1c3.3-0.2,5.8-3,5.6-6.3l-0.2-3.2l2.5-0.1l0.2,3.2c0.2,3.3,3,5.8,6.3,5.6l1.6-0.1c3.3-0.2,5.8-3,5.6-6.3l-0.2-3.2l2.5-0.1
	l0.2,3.2c0.2,3.3,3,5.8,6.3,5.6l1.6-0.1c3.3-0.2,5.8-3,5.6-6.3l-0.2-3.2l2.5-0.1l0.2,3.2c0.2,3.3,3,5.8,6.3,5.6l1.6-0.1
	c3.3-0.2,5.8-3,5.6-6.3l-0.2-3.2l2.5-0.1l0.2,3.2c0.2,3.3,3,5.8,6.3,5.6l1.6-0.1c3.3-0.2,5.8-3,5.6-6.3l-0.2-3.2l2.5-0.1l0.2,3.2
	c0.2,3.3,3,5.8,6.3,5.6l1.6-0.1c3.3-0.2,5.8-3,5.6-6.3l-0.2-3.2l2.5-0.1l0.2,3.2c0.2,3.3,3,5.8,6.3,5.6l1.6-0.1
	c3.3-0.2,5.8-3,5.6-6.3l-0.2-3.2l2.9-0.2l0.2,3.2c0.2,3.3,3,5.8,6.3,5.6l1.6-0.1c3.3-0.2,5.8-3,5.6-6.3l-0.2-3.2l2.5-0.1l0.2,3.2
	c0.2,3.3,3,5.8,6.3,5.6l1.6-0.1c3.3-0.2,5.8-3,5.6-6.3l-0.2-3.2l72.4-4.1l1.2,21l-72.6,4.1l-0.2-3.2c-0.2-3.3-3-5.8-6.3-5.6
	l-1.6,0.1c-3.3,0.2-5.8,3-5.6,6.3l0.2,3.2l-2.5,0.1l-0.2-3.2c-0.2-3.3-3-5.8-6.3-5.6l-1.6,0.1c-3.3,0.2-5.8,3-5.6,6.3l0.2,3.2
	l-2.9,0.2l-0.2-3.2c-0.2-3.3-3-5.8-6.3-5.6l-1.6,0.1c-3.3,0.2-5.8,3-5.6,6.3l0.2,3.2l-2.5,0.1l-0.2-3.2c-0.2-3.3-3-5.8-6.3-5.6
	l-1.6,0.1c-3.3,0.2-5.8,3-5.6,6.3l0.2,3.2l-2.5,0.1l-0.2-3.2c-0.2-3.3-3-5.8-6.3-5.6l-1.6,0.1c-3.3,0.2-5.8,3-5.6,6.3l0.2,3.2
	l-2.5,0.1l-0.2-3.2c-0.2-3.3-3-5.8-6.3-5.6l-1.6,0.1c-3.3,0.2-5.8,3-5.6,6.3l0.2,3.2l-2.5,0.1l-0.2-3.2c-0.2-3.3-3-5.8-6.3-5.6
	l-1.6,0.1c-3.3,0.2-5.8,3-5.6,6.3l0.2,3.2l-2.5,0.1L84,289c-0.2-3.3-3-5.8-6.3-5.6l-1.6,0.1c-3.3,0.2-5.8,3-5.6,6.3l0.2,3.2
	l-2.5,0.1l-0.2-3.2c-0.2-3.3-3-5.8-6.3-5.6l-1.6,0.1c-3.3,0.2-5.8,3-5.6,6.3l0.2,3.2l-2.5,0.1l-0.2-3.2c-0.2-3.3-3-5.8-6.3-5.6
	l-1.6,0.1c-3.3,0.2-5.8,3-5.6,6.3l0.2,3.2l-2.2,0.1L35.3,273.9z M36.8,298.7l2.2-0.1l0.2,3c0.2,3.3,3,5.8,6.3,5.6l1.6-0.1
	c3.3-0.2,5.8-3,5.6-6.3l-0.2-3l2.5-0.1l0.2,3c0.2,3.3,3,5.8,6.3,5.6l1.6-0.1c3.3-0.2,5.8-3,5.6-6.3l-0.2-3l2.5-0.1l0.2,3
	c0.2,3.3,3,5.8,6.3,5.6l1.6-0.1c3.3-0.2,5.8-3,5.6-6.3l-0.2-3l2.5-0.1l0.2,3c0.2,3.3,3,5.8,6.3,5.6l1.6-0.1c3.3-0.2,5.8-3,5.6-6.3
	l-0.2-3l2.5-0.1l0.2,3c0.2,3.3,3,5.8,6.3,5.6l1.6-0.1c3.3-0.2,5.8-3,5.6-6.3l-0.2-3l2.5-0.1l0.2,3c0.2,3.3,3,5.8,6.3,5.6l1.6-0.1
	c3.3-0.2,5.8-3,5.6-6.3l-0.2-3l2.5-0.1l0.2,3c0.2,3.3,3,5.8,6.3,5.6l1.6-0.1c3.3-0.2,5.8-3,5.6-6.3l-0.2-3l2.5-0.1l0.2,3
	c0.2,3.3,3,5.8,6.3,5.6l1.6-0.1c3.3-0.2,5.8-3,5.6-6.3l-0.2-3l2.9-0.2l0.2,3c0.2,3.3,3,5.8,6.3,5.6l1.6-0.1c3.3-0.2,5.8-3,5.6-6.3
	l-0.2-3l2.5-0.1l0.2,3c0.2,3.3,3,5.8,6.3,5.6l1.6-0.1c3.3-0.2,5.8-3,5.6-6.3l-0.2-3l72.6-4.1l1.2,21l-72.2,4.1l-0.2-3.3
	c-0.2-3.3-3-5.8-6.3-5.6l-1.6,0.1c-3.3,0.2-5.8,3-5.6,6.3l0.2,3.3l-2.5,0.1l-0.2-3.3c-0.2-3.3-3-5.8-6.3-5.6l-1.6,0.1
	c-3.3,0.2-5.8,3-5.6,6.3l0.2,3.3l-2.9,0.2l-0.2-3.3c-0.2-3.3-3-5.8-6.3-5.6l-1.6,0.1c-3.3,0.2-5.8,3-5.6,6.3l0.2,3.3l-2.5,0.1
	l-0.2-3.3c-0.2-3.3-3-5.8-6.3-5.6l-1.6,0.1c-3.3,0.2-5.8,3-5.6,6.3l0.2,3.3l-2.5,0.1l-0.2-3.3c-0.2-3.3-3-5.8-6.3-5.6l-1.6,0.1
	c-3.3,0.2-5.8,3-5.6,6.3l0.2,3.3l-2.5,0.1l-0.2-3.3c-0.2-3.3-3-5.8-6.3-5.6l-1.6,0.1c-3.3,0.2-5.8,3-5.6,6.3l0.2,3.3l-2.5,0.1
	l-0.2-3.3c-0.2-3.3-3-5.8-6.3-5.6l-1.6,0.1c-3.3,0.2-5.8,3-5.6,6.3l0.2,3.3L86,317l-0.2-3.3c-0.2-3.3-3-5.8-6.3-5.6l-1.6,0.1
	c-3.3,0.2-5.8,3-5.6,6.3l0.2,3.3l-2.5,0.1l-0.2-3.3c-0.2-3.3-3-5.8-6.3-5.6l-1.6,0.1c-3.3,0.2-5.8,3-5.6,6.3l0.2,3.3l-2.5,0.1
	l-0.2-3.3c-0.2-3.3-3-5.8-6.3-5.6L46,310c-3.3,0.2-5.8,3-5.6,6.3l0.2,3.3l-2.5,0.1L36.8,298.7z M38.9,335l-0.7-11.4l2.5-0.1l0.2,2.9
	c0.2,3.3,3,5.8,6.3,5.6l1.6-0.1c3.3-0.2,5.8-3,5.6-6.3l-0.2-2.9l2.5-0.1l0.2,2.9c0.2,3.3,3,5.8,6.3,5.6l1.6-0.1
	c3.3-0.2,5.8-3,5.6-6.3l-0.2-2.9l2.5-0.1l0.2,2.9c0.2,3.3,3,5.8,6.3,5.6l1.6-0.1c3.3-0.2,5.8-3,5.6-6.3l-0.2-2.9l2.5-0.1l0.2,2.9
	c0.2,3.3,3,5.8,6.3,5.6l1.6-0.1c3.3-0.2,5.8-3,5.6-6.3l-0.2-2.9l2.5-0.1l0.2,2.9c0.2,3.3,3,5.8,6.3,5.6l1.6-0.1
	c3.3-0.2,5.8-3,5.6-6.3l-0.2-2.9l2.5-0.1l0.2,2.9c0.2,3.3,3,5.8,6.3,5.6l1.6-0.1c3.3-0.2,5.8-3,5.6-6.3l-0.2-2.9l2.5-0.1l0.2,2.9
	c0.2,3.3,3,5.8,6.3,5.6l1.6-0.1c3.3-0.2,5.8-3,5.6-6.3l-0.2-2.9l2.5-0.1l0.2,2.9c0.2,3.3,3,5.8,6.3,5.6l1.6-0.1
	c3.3-0.2,5.8-3,5.6-6.3l-0.2-2.9l2.9-0.2l0.2,2.9c0.2,3.3,3,5.8,6.3,5.6l1.6-0.1c3.3-0.2,5.8-3,5.6-6.3l-0.2-2.9l2.5-0.1l0.2,2.9
	c0.2,3.3,3,5.8,6.3,5.6l1.6-0.1c3.3-0.2,5.8-3,5.6-6.3l-0.2-2.9l72.2-4.1l0.6,11.2L38.9,335z"/>
</svg>
