<?xml version="1.0" encoding="utf-8"?>
<!-- Generator: Adobe Illustrator 25.0.1, SVG Export Plug-In . SVG Version: 6.00 Build 0)  -->
<svg version="1.1" id="Layer_1" xmlns="http://www.w3.org/2000/svg" xmlns:xlink="http://www.w3.org/1999/xlink" x="0px" y="0px"
	 viewBox="0 0 310 221" style="enable-background:new 0 0 310 221;" xml:space="preserve">
<style type="text/css">
	.st0{fill:none;stroke:#FFFFFF;stroke-miterlimit:10;}
</style>
<g>
	<path class="st0" d="M2.1,39.5l25.2,179.1c0,0,118.6-37.6,143.9-12.7c0,0,34.1-33.8,136.5-12.6l-37.1-183c0,0-79.9-24.4-128.8,10
		C141.8,20.3,88.1-15.4,2.1,39.5z"/>
	<path class="st0" d="M11.9,47.6l23.5,158.4c0,0,84.3-33.3,134.7-15.9c0,0,44.6-38.2,124.7-9.5L261,19.9c0,0-54.6-23.6-115.3,9.6
		C145.7,29.5,76.5-3.4,11.9,47.6z"/>
	<path class="st0" d="M20.8,51.9c0-0.6,55.6-31.7,114.8-14.4"/>
	<path class="st0" d="M23.6,61.7c0-0.6,55.6-31.7,114.8-14.4"/>
	<path class="st0" d="M23.6,71.5c0-0.6,55.6-31.7,114.8-14.4"/>
	<path class="st0" d="M25.8,81.3c0-0.6,55.6-31.7,114.8-14.4"/>
	<path class="st0" d="M154.9,38.3c0-0.6,50.9-29.4,102.9-9.6"/>
	<path class="st0" d="M157.3,46.5c0-0.6,50.9-29.4,102.9-9.6"/>
</g>
</svg>
