<?xml version="1.0" encoding="utf-8"?>
<!-- Generator: Adobe Illustrator 25.0.1, SVG Export Plug-In . SVG Version: 6.00 Build 0)  -->
<svg version="1.1" id="Layer_1" xmlns="http://www.w3.org/2000/svg" xmlns:xlink="http://www.w3.org/1999/xlink" x="0px" y="0px"
	 viewBox="0 0 202 221" style="enable-background:new 0 0 202 221;" xml:space="preserve">
<style type="text/css">
	.st0{fill:none;stroke:#FFFFFF;stroke-miterlimit:10;}
</style>
<path class="st0" d="M196.6,5.2l-10.3,1c0,0,14.7,77.8-72.3,88.6l-0.8-8.4c70.3-7.5,61-79,61-79l-10.3,1c0,0,6.7,59.8-51.4,69.2
	l0,0.4l-0.8-8.6c45.1-9.7,39.8-59.7,39.8-59.7l-9.4,0.9c0,0,3,41.9-31.4,48.7l-4.3-45.3l-12.6,1.2L98,60.4
	c-35.2,0-40.1-41.9-40.1-41.9l-9.4,0.9c0,0,4.1,50.3,50.4,51.1l0.8,8.2c-57.2,3.6-63.7-58.1-63.7-58.1l-10.3,1
	c0,0,4.6,71.7,74.8,65.9l0.8,8.4c-78.2,9.5-87.8-73.2-87.8-73.2l-10.3,1c0,0,4.4,90,99,82l9.9,103.1l-16,7.8l29.2-2.8l0,0l16-1.5
	l-16.6-4.6L115,104.6C209.6,94.6,196.6,5.2,196.6,5.2z"/>
</svg>
