<?xml version="1.0" encoding="utf-8"?>
<!-- Generator: Adobe Illustrator 25.0.1, SVG Export Plug-In . SVG Version: 6.00 Build 0)  -->
<svg version="1.1" id="Layer_1" xmlns="http://www.w3.org/2000/svg" xmlns:xlink="http://www.w3.org/1999/xlink" x="0px" y="0px"
	 viewBox="0 0 736 399" style="enable-background:new 0 0 736 399;" xml:space="preserve">
<style type="text/css">
	.st0{fill:none;stroke:#FFFFFF;stroke-miterlimit:10;}
</style>
<g>
	<path class="st0" d="M709.2,394.9H25.9c-11.4,0-20.6-9.2-20.6-20.6V132.9c0-11.4,9.2-20.6,20.6-20.6h683.3
		c11.4,0,20.6,9.2,20.6,20.6v241.4C729.9,385.7,720.6,394.9,709.2,394.9z"/>
	<path class="st0" d="M706.4,112.2H28.8c-13,0-23.5-10.5-23.5-23.5V28c0-13,10.5-23.5,23.5-23.5h677.6c13,0,23.5,10.5,23.5,23.5
		v60.7C729.9,101.7,719.4,112.2,706.4,112.2z"/>
	<path class="st0" d="M368.9,75.5c3-0.6,5.3-3.3,5.3-6.5c0-3.7-3-6.6-6.6-6.6c-3.7,0-6.6,3-6.6,6.6c0,3.2,2.3,5.9,5.3,6.5l-2,5.8
		l-3.3,9.5h3.3h3.3l0,0h3.3h3.3l-3.3-9.5L368.9,75.5z"/>
</g>
</svg>
