<?xml version="1.0" encoding="utf-8"?>
<!-- Generator: Adobe Illustrator 25.0.1, SVG Export Plug-In . SVG Version: 6.00 Build 0)  -->
<svg version="1.1" id="Layer_1" xmlns="http://www.w3.org/2000/svg" xmlns:xlink="http://www.w3.org/1999/xlink" x="0px" y="0px"
	 viewBox="0 0 46.6 86.5" style="enable-background:new 0 0 46.6 86.5;" xml:space="preserve">
<style type="text/css">
	.st0{fill:none;stroke:#FFFFFF;stroke-miterlimit:10;}
</style>
<g>
	<path class="st0" d="M45.7,23.7c0-12.9-10.8-23.2-23.9-22.4C10.5,2,1.4,11.3,0.9,22.6c-0.2,4.2,0.7,8.1,2.5,11.5
		c4.3,8.2,6.4,17.4,6.4,26.6v6.2h27.1v-7.3c0-9,2.4-17.7,6.5-25.8C44.8,30.8,45.7,27.4,45.7,23.7z"/>
	<path class="st0" d="M35.2,84.7H11.8l-2-17.3c0-0.2,0.1-0.4,0.4-0.4h26.1c0.3,0,0.5,0.2,0.5,0.5L35.2,84.7z"/>
	<line class="st0" x1="10.3" y1="71.9" x2="36.6" y2="68.7"/>
	<line class="st0" x1="10.3" y1="75.2" x2="36.6" y2="71.9"/>
	<line class="st0" x1="10.9" y1="78.4" x2="36.2" y2="75.2"/>
	<line class="st0" x1="11.2" y1="81.6" x2="36" y2="78.4"/>
	<line class="st0" x1="11.6" y1="84.7" x2="35.6" y2="81.4"/>
	<polyline class="st0" points="20.6,57.3 14.6,31.5 19.1,34.4 19.1,29.4 27.6,29.4 27.6,34 32.6,30.8 25.9,57.3 	"/>
	<rect x="20.5" y="56.9" class="st0" width="5.5" height="10"/>
</g>
</svg>
