<?xml version="1.0" encoding="utf-8"?>
<!-- Generator: Adobe Illustrator 25.0.1, SVG Export Plug-In . SVG Version: 6.00 Build 0)  -->
<svg version="1.1" id="Layer_1" xmlns="http://www.w3.org/2000/svg" xmlns:xlink="http://www.w3.org/1999/xlink" x="0px" y="0px"
	 viewBox="0 0 224 530" style="enable-background:new 0 0 224 530;" xml:space="preserve">
<style type="text/css">
	.st0{fill:none;stroke:#FFFFFF;stroke-miterlimit:10;}
</style>
<path class="st0" d="M1.6,4.6h14.7c0,0,29.8,17,77,18.5c5.3,0.2,10.3,0.1,15.1-0.2l-2.1-8.3l11.9-0.8l2.1,7.9
	c29.3-4.1,44.1-15.3,44.1-15.3v12.5c0,0-13.7,10.4-40.9,14.8l20.2,74.8c48.7-4.5,68.4,91.1,68.4,91.1l-95.4,23.6
	c0,0-25.4-95.6,14.7-111.9l-19.9-76.2c-5.6,0.4-11.7,0.6-18.2,0.4c-37.2-1.2-63.5-11.9-73-16.5l136,497.6l65.3-0.8v10.3H74.3v-9.6
	h67.9L1.6,4.6z"/>
</svg>
