<?xml version="1.0" encoding="utf-8"?>
<!-- Generator: Adobe Illustrator 25.0.1, SVG Export Plug-In . SVG Version: 6.00 Build 0)  -->
<svg version="1.1" id="Layer_1" xmlns="http://www.w3.org/2000/svg" xmlns:xlink="http://www.w3.org/1999/xlink" x="0px" y="0px"
	 viewBox="0 0 182 394" style="enable-background:new 0 0 182 394;" xml:space="preserve">
<style type="text/css">
	.st0{fill:none;stroke:#FFFFFF;stroke-miterlimit:10;}
</style>
<g>
	<path class="st0" d="M178,135.8c4.9-56.8-22.8-106.7-63.7-119.2c-0.8-6.7-6.2-12.1-13.2-12.7c-7-0.6-13.2,3.8-15.2,10.2
		C43.5,19.4,7.6,63.7,2.6,120.5c-5.1,58.1,24,109,66.5,120L58.2,365.6c-2.2,2.3-3.7,5.3-4,8.8c-0.7,8,5.2,15.1,13.2,15.8
		s15.1-5.2,15.8-13.2c0.3-3.4-0.6-6.6-2.4-9.3l10.9-125.1C135.5,239,172.9,193.9,178,135.8z M82.3,219.9
		c-35.8-3.1-61.2-46.6-56.8-97c4.4-50.5,37-88.9,72.8-85.8c35.8,3.1,61.2,46.6,56.8,97C150.7,184.6,118.1,223,82.3,219.9z"/>
	<line class="st0" x1="24.9" y1="129.8" x2="140.5" y2="65.8"/>
	<line class="st0" x1="36.4" y1="184.8" x2="155.3" y2="114.8"/>
</g>
</svg>
