<?xml version="1.0" encoding="utf-8"?>
<!-- Generator: Adobe Illustrator 25.0.1, SVG Export Plug-In . SVG Version: 6.00 Build 0)  -->
<svg version="1.1" id="Layer_1" xmlns="http://www.w3.org/2000/svg" xmlns:xlink="http://www.w3.org/1999/xlink" x="0px" y="0px"
	 viewBox="0 0 255 189" style="enable-background:new 0 0 255 189;" xml:space="preserve">
<style type="text/css">
	.st0{fill:none;stroke:#FFFFFF;stroke-miterlimit:10;}
</style>
<g>
	<polygon class="st0" points="2,2.4 44.2,187.1 252.4,187.1 211.9,2.4 	"/>
	<polygon class="st0" points="28.5,20 47,102 212.4,106 199.3,20.4 	"/>
	<path class="st0" d="M51.6,122.3c0,0-1.6,42.4,14.8,3.6c0,0,4.6,35.5,15.8,0.7c0,0,5.6,35.5,17.1-4.3c0,0,5.3,42.4,20,0
		c0,0,9.8,41.7,22.3,2c0,0,7.9,40.7,22.7-2c0,0,7.2,42.7,20.7,0c0,0,13.2,31,17.7,0c0,0,8.6,36.8,13.8,0"/>
</g>
</svg>
