<?xml version="1.0" encoding="utf-8"?>
<!-- Generator: Adobe Illustrator 25.0.1, SVG Export Plug-In . SVG Version: 6.00 Build 0)  -->
<svg version="1.1" id="Layer_1" xmlns="http://www.w3.org/2000/svg" xmlns:xlink="http://www.w3.org/1999/xlink" x="0px" y="0px"
	 viewBox="0 0 592 1246" style="enable-background:new 0 0 592 1246;" xml:space="preserve">
<style type="text/css">
	.st0{fill:none;stroke:#FFFFFF;stroke-miterlimit:10;}
</style>
<path class="st0" d="M424.5,1112.2l50-50.9l-16.5-27.9l-34.8-225.2l-24.8-45.6l37.4-213.8l-36.6-137.8l57.4-149.7l36.5,160.8
	l-19.5,179.7l-30.3,40.7l21.9,38.9l40.6-55.3L531.9,422l-19.8-125.4l-0.9-70.3l-95.4-28.6l14.1-44.5l-11.2-2l-1.7-12.4l-19.8-5.9
	l-19,55.8l-62.4-16.4l-37.8,19.8l-115.3,22L116.5,78.2L137,15.8L104,14.2L82.5,78.1l50.6,184.7l175.1-34.2l-28.2,33.9l22.3,31.4
	l-9.6,102.2l-67.4,118.6L206,768.5l13.2,61l2.2,240.2l-74.2,28.9l-132.7-6.5l-5.5,111.5l570.5,28l5.5-111.5L424.5,1112.2z
	 M263.9,1104.4l-4.2-46.7l25.4-203.8l-7.7-77.3l52.4-231l5.2,228l23.8,44.4l63.1,234.6l-19.1,35.8l-32.4,21.1L263.9,1104.4z"/>
</svg>
