<?xml version="1.0" encoding="utf-8"?>
<!-- Generator: Adobe Illustrator 25.0.1, SVG Export Plug-In . SVG Version: 6.00 Build 0)  -->
<svg version="1.1" id="Layer_1" xmlns="http://www.w3.org/2000/svg" xmlns:xlink="http://www.w3.org/1999/xlink" x="0px" y="0px"
	 viewBox="0 0 259 208" style="enable-background:new 0 0 259 208;" xml:space="preserve">
<style type="text/css">
	.st0{fill:none;stroke:#FFFFFF;stroke-miterlimit:10;}
</style>
<path class="st0" d="M7.7,108.9l29-0.5l-3.4,51.9l37.7,46.4L218,186.5l25-55.6l-16.7-42L258,33.8l-10.3-16.2l-35.1,36.7l-13.4-33.8
	L129.4,30l8.9-10.9L118.7,1.4L104,19.8l12.5,12L41,42.2l-2.3,34.4l-19-8.1L0.9,86.4L7.7,108.9z M10.6,92.7C9.8,86.6,14,81,20.1,80.2
	s11.7,3.4,12.5,9.5c0.8,6.1-3.4,11.7-9.5,12.5C17,103,11.4,98.8,10.6,92.7z"/>
</svg>
