<?xml version="1.0" encoding="utf-8"?>
<!-- Generator: Adobe Illustrator 25.0.1, SVG Export Plug-In . SVG Version: 6.00 Build 0)  -->
<svg version="1.1" id="Layer_1" xmlns="http://www.w3.org/2000/svg" xmlns:xlink="http://www.w3.org/1999/xlink" x="0px" y="0px"
	 viewBox="0 0 501 381" style="enable-background:new 0 0 501 381;" xml:space="preserve">
<style type="text/css">
	.st0{fill:none;stroke:#FFFFFF;stroke-miterlimit:10;}
</style>
<g>
	<g>
		<path class="st0" d="M223.7,359.6"/>
		<path class="st0" d="M251.2,121.1l29.4,215.3c0,0,6.7,35.9-25.9,40.2c0,0-27.2,4.9-31.1-16.9c0,0-0.6-3.5,2.8-4.3
			c3.8-0.8,4.4,3,4.4,3c2.1,13.1,22.7,10.9,22.7,10.9c23.8-4.1,19.8-31.7,19.8-31.7l-29.4-215.3"/>
		<path class="st0" d="M5.6,153.5c0,0,197.9-282.7,490.3-70.5c0,0-45.4-31.2-78,17.4c0,0-52.3-42.3-87.3,14c0,0-45.4-38.7-82.7,10.4
			c0,0-50.3-36.4-88,9.4c0,0-45.6-37.1-78.4,9.4C81.6,143.6,48.7,108.4,5.6,153.5z"/>
	</g>
	<path class="st0" d="M159.9,134.2c0,0-0.2-46.5,7.7-107.8"/>
	<path class="st0" d="M81.2,143.7c0,0,14.4-59.8,32.8-89.8"/>
	<path class="st0" d="M247.9,124.8c0,0-7.9-82.2-15.1-117"/>
	<path class="st0" d="M330.5,114.4c0,0-8.1-51.4-30.3-109.4"/>
	<path class="st0" d="M418,100.4c0,0-7.3-32.7-37.3-79"/>
</g>
</svg>
