<?xml version="1.0" encoding="utf-8"?>
<!-- Generator: Adobe Illustrator 25.0.1, SVG Export Plug-In . SVG Version: 6.00 Build 0)  -->
<svg version="1.1" xmlns="http://www.w3.org/2000/svg" xmlns:xlink="http://www.w3.org/1999/xlink" x="0px" y="0px"
	 viewBox="0 0 1920 192" style="enable-background:new 0 0 1920 192;" xml:space="preserve">
<g id="Layer_1">
	<path d="M741.2,154c6-7.8,12.5-6.8,16.9-3.9l-2.5,3.2c-4.5-2.8-9-1.7-12.2,2.4c-3.7,4.8-2.5,10.8,4.5,16.2c7,5.4,13.1,5,16.8,0.2
		c3.2-4.2,3.1-8.8-0.8-12.4l2.5-3.2c3.9,3.6,6.6,9.6,0.6,17.4c-5.9,7.6-14.1,7.3-21.7,1.5C737.7,169.5,735.3,161.6,741.2,154z"/>
	<path d="M753.9,138.7l7,5.4c3.8,2.9,7.5,3.6,11.4-1.5c2.9-3.8,2.8-7.6,1.3-8.7l-10.1-7.8l2.5-3.2l24.7,19l-2.5,3.2l-11.6-8.9
		c0,0,1.1,4.5-2.6,9.2c-4.7,6.1-10,6.3-14.9,2.5l-7.8-6L753.9,138.7z"/>
	<path d="M768.1,120.2l14.1-18.3l2.5,1.9l-11.6,15l8.4,6.4l9.5-12.4l2.5,1.9l-9.5,12.4l8.9,6.9l11.6-15l2.5,1.9l-14.1,18.3
		L768.1,120.2z"/>
	<path d="M785.8,102.3l-2.5-1.9l16-20.7l2.5,1.9l-6.7,8.8l22.3,17.1l-2.5,3.2l-22.3-17.1L785.8,102.3z"/>
	<path d="M803.2,74.6l10.8,8.3l5.6-7.2c3.4-4.4,7.9-6.3,12.8-2.5c4.9,3.8,4.4,8.8,1,13.2l-8.1,10.5l-24.7-19L803.2,74.6z
		 M830.9,84.7c2-2.7,2-5.7-1.1-8.1c-2.9-2.2-5.8-1.5-7.9,1.2l-5.4,7l8.9,6.9L830.9,84.7z M819,54l24.7,19l-2.5,3.2l-24.7-19L819,54z
		"/>
	<path d="M842.8,58.6c0.5,5.3,4.1,8.2,9.4,8.2c5.7,0,9.7-4.1,10-12.2h-16.5v-3.1h16.5c-0.5-7.6-4.5-11.5-10-11.5
		c-5.3,0-8.9,2.9-9.4,8.2h-4.1c0.5-5.3,3.6-11,13.4-11c9.6,0,14.4,6.7,14.4,16.3c0,9.6-4.8,16.3-14.4,16.3c-9.8,0-13-5.8-13.4-11
		H842.8z"/>
	<path d="M868.5,40.8v-3.1h26.2v3.1h-11v28.1h-4.1V40.8H868.5z"/>
	<path d="M896.6,53.3c0-9.4,5.3-16.3,15.1-16.3s15.1,7,15.1,16.3c0,9.4-5.3,16.3-15.1,16.3S896.6,62.7,896.6,53.3z M911.7,66.8
		c6,0,10.8-4.3,10.8-13.4c0-9.1-4.8-13.4-10.8-13.4s-10.8,4.3-10.8,13.4C900.9,62.4,905.7,66.8,911.7,66.8z"/>
	<path d="M873,73.2l10.6,19.7l9.1-19.7h4.6l-12,25.2c-2.4,5.1-5,6.2-8.2,6.2c-1.4,0-2.9-0.2-2.9-0.2v-3.5c0,0,1,0.1,2.4,0.1
		c1.7,0,3.4-0.2,5-3.8l-13.2-24H873z"/>
	<path d="M903.2,73.2v13.7H920V73.2h4.1v31.2H920V90h-16.8v14.4h-4.1V73.2H903.2z"/>
	<path d="M931.5,73.2v25.9l17-25.9h4.3v31.2h-4.1V78.5l-17,25.9h-4.3V73.2H931.5z"/>
	<path d="M956.2,104.4V73.2h4.1v16.1l15.1-16.1h4.7l-12,12.6l12.7,18.6h-4.9l-10.4-15.9l-5.1,5.3v10.6H956.2z"/>
	<path d="M993.7,73.2h4.8l12,31.2h-4.3L1003,96h-13.9l-3.1,8.4h-4.3L993.7,73.2z M1001.9,92.9l-5.8-15.6l-5.8,15.6H1001.9z"/>
	<path d="M1011,101c0,0,0.5,0.1,1.2,0.1c3.4,0,6-2.5,6-18.1v-9.8h20.4v31.2h-4.1V76.4H1022v7.2c0,15.8-2.9,21.1-8.9,21.1
		c-1.2,0-2.2-0.2-2.2-0.2V101z"/>
	<path d="M1041.9,104.4V73.2h4.1v13.7h10.3c5.5,0,9.8,2.4,9.8,8.6c0,6.2-4.3,8.9-9.8,8.9H1041.9z M1056.1,101.3
		c3.4,0,5.8-1.9,5.8-5.8c0-3.6-2.4-5.5-5.8-5.5H1046v11.3H1056.1z"/>
	<path d="M1073.4,73.2v13.7h16.8V73.2h4.1v31.2h-4.1V90h-16.8v14.4h-4.1V73.2H1073.4z"/>
	<path d="M1097.1,88.8c0-9.4,5.3-16.3,15.1-16.3s15.1,7,15.1,16.3c0,9.4-5.3,16.3-15.1,16.3S1097.1,98.2,1097.1,88.8z M1112.2,102.3
		c6,0,10.8-4.3,10.8-13.4c0-9.1-4.8-13.4-10.8-13.4s-10.8,4.3-10.8,13.4C1101.4,98,1106.2,102.3,1112.2,102.3z"/>
	<path d="M969.4,110.8c9.8,0,13,5.8,13.4,11h-4.1c-0.5-5.3-4.1-8.2-9.4-8.2c-6,0-10.1,4.6-10.1,13.4c0,8.9,4.1,13.4,10.1,13.4
		c5.3,0,8.9-2.9,9.4-8.2h4.1c-0.5,5.3-3.6,11-13.4,11c-9.6,0-14.4-6.7-14.4-16.3C955,117.5,959.8,110.8,969.4,110.8z"/>
	<path d="M984.8,114.6v-3.1h26.2v3.1h-11v28.1h-4.1v-28.1H984.8z"/>
	<path d="M1017.4,111.5v25.9l17-25.9h4.3v31.2h-4.1v-25.9l-17,25.9h-4.3v-31.2H1017.4z"/>
	<path d="M1040.7,139.3c0,0,0.5,0.1,1.2,0.1c3.4,0,6-2.5,6-18.1v-9.8h20.4v31.2h-4.1v-28.1h-12.5v7.2c0,15.8-2.9,21.1-8.9,21.1
		c-1.2,0-2.2-0.2-2.2-0.2V139.3z"/>
	<path d="M1071.7,142.7v-31.2h4.1v13.7h10.3c5.5,0,9.8,2.4,9.8,8.6c0,6.2-4.3,8.9-9.8,8.9H1071.7z M1085.8,139.6
		c3.4,0,5.8-1.9,5.8-5.8c0-3.6-2.4-5.5-5.8-5.5h-10.1v11.3H1085.8z"/>
	<path d="M1103.1,111.5v13.7h16.8v-13.7h4.1v31.2h-4.1v-14.4h-16.8v14.4h-4.1v-31.2H1103.1z"/>
	<path d="M1126.9,127.1c0-9.4,5.3-16.3,15.1-16.3s15.1,7,15.1,16.3c0,9.4-5.3,16.3-15.1,16.3S1126.9,136.5,1126.9,127.1z
		 M1142,140.5c6,0,10.8-4.3,10.8-13.4c0-9.1-4.8-13.4-10.8-13.4c-6,0-10.8,4.3-10.8,13.4C1131.2,136.2,1136,140.5,1142,140.5z"/>
	<path d="M1008.8,149V175l17-25.9h4.3v31.2h-4.1v-25.9l-17,25.9h-4.3V149H1008.8z"/>
	<path d="M1053.7,149h4.8l12,31.2h-4.3l-3.1-8.4h-13.9l-3.1,8.4h-4.3L1053.7,149z M1061.9,168.7l-5.8-15.6l-5.8,15.6H1061.9z"/>
	<path d="M1075.5,149l10.6,19.7l9.1-19.7h4.6l-12,25.2c-2.4,5.1-5,6.2-8.2,6.2c-1.4,0-2.9-0.2-2.9-0.2v-3.5c0,0,1,0.1,2.4,0.1
		c1.7,0,3.4-0.2,5-3.8l-13.2-24H1075.5z"/>
	<path d="M1100.7,152.2V149h26.2v3.1h-11v28.1h-4.1v-28.1H1100.7z"/>
	<path d="M1129.3,149h23v3.1h-19v10.6h15.6v3.1h-15.6v11.3h19v3.1h-23V149z"/>
	<path d="M1159.3,149v13.7h16.8V149h4.1v31.2h-4.1v-14.4h-16.8v14.4h-4.1V149H1159.3z"/>
	<path d="M1182.6,152.2V149h26.2v3.1h-11v28.1h-4.1v-28.1H1182.6z"/>
	<path d="M1215.2,149V175l17-25.9h4.3v31.2h-4.1v-25.9l-17,25.9h-4.3V149H1215.2z"/>
	<path d="M1243.5,149v8.9c0,4.8,1.7,8.2,8.2,8.2c4.8,0,7.7-2.4,7.7-4.3V149h4.1v31.2h-4.1v-14.6c0,0-2.9,3.6-8.9,3.6
		c-7.7,0-11-4.1-11-10.3V149H1243.5z"/>
	<path d="M1270.9,149v13.7h16.8V149h4.1v31.2h-4.1v-14.4h-16.8v14.4h-4.1V149H1270.9z"/>
	<path d="M1294.6,164.6c0-9.4,5.3-16.3,15.1-16.3s15.1,7,15.1,16.3c0,9.4-5.3,16.3-15.1,16.3S1294.6,174,1294.6,164.6z
		 M1309.8,178.1c6,0,10.8-4.3,10.8-13.4c0-9.1-4.8-13.4-10.8-13.4c-6,0-10.8,4.3-10.8,13.4C1299,173.8,1303.8,178.1,1309.8,178.1z"
		/>
	<path d="M1569.8,74.8v25.9l17-25.9h4.3V106h-4.1V80.1l-17,25.9h-4.3V74.8H1569.8z"/>
	<path d="M1597.6,96.6c0,4.3,2.9,7.2,8.4,7.2c5.8,0,8.4-2.9,8.4-6.5c0-4.6-3.6-5.8-7.9-5.8h-5.3v-3.1h5.3c4.6,0,7.2-2.4,7.2-6
		c0-2.6-1.9-5.5-7.7-5.5c-6.2,0-7.9,3.6-7.9,6.5h-4.1c0-4.3,3.4-9.4,12-9.4s11.8,4.3,11.8,8.4c0,6.2-6,7.2-6,7.2v0.2
		c0,0,7,0.5,7,7.4c0,5.5-5,9.4-12.7,9.4c-7.9,0-12.5-3.8-12.5-10.1H1597.6z"/>
	<path d="M1620.2,106l9-14c-4.7-0.5-8.1-3-8.1-8.5c0-6.2,4.8-8.6,9.8-8.6h14.9V106h-4.1V92.1h-8.3l-8.7,13.9H1620.2z M1631.2,89
		h10.6v-11h-10.6c-3.4,0-5.8,1.7-5.8,5.5S1627.9,89,1631.2,89z"/>
	<path d="M1649.2,106V74.8h4.1v28.1h11.7V74.8h4v28.1h11.7V74.8h4.1v28.1h4.3v10.3h-4.1V106H1649.2z"/>
	<path d="M1695.3,74.8v13.7h16.8V74.8h4.1V106h-4.1V91.6h-16.8V106h-4.1V74.8H1695.3z"/>
	<path d="M1719.1,90.4c0-9.4,5.3-16.3,15.1-16.3s15.1,7,15.1,16.3c0,9.4-5.3,16.3-15.1,16.3S1719.1,99.8,1719.1,90.4z M1734.2,103.8
		c6,0,10.8-4.3,10.8-13.4c0-9.1-4.8-13.4-10.8-13.4c-6,0-10.8,4.3-10.8,13.4C1723.4,99.5,1728.2,103.8,1734.2,103.8z"/>
	<path d="M1752.2,74.8h23v3.1h-19v10.6h15.6v3.1h-15.6v11.3h19v3.1h-23V74.8z"/>
	<path d="M1541.8,110.2h23.3v3.1h-19.2v10.6h10.8c5.5,0,9.8,2.4,9.8,8.6c0,6.2-4.3,8.9-9.8,8.9h-14.9V110.2z M1556.5,138.2
		c3.4,0,5.8-1.9,5.8-5.8c0-3.6-2.4-5.5-5.8-5.5h-10.6v11.3H1556.5z"/>
	<path d="M1569.7,110.2h23v3.1h-19v10.6h15.6v3.1h-15.6v11.3h19v3.1h-23V110.2z"/>
	<path d="M1594.2,138c0,0,0.5,0.1,1.2,0.1c3.4,0,6-2.5,6-18.1v-9.8h20.4v31.2h-4.1v-28.1h-12.5v7.2c0,15.8-2.9,21.1-8.9,21.1
		c-1.2,0-2.2-0.2-2.2-0.2V138z"/>
	<path d="M1624.6,125.8c0-9.4,5.3-16.3,15.1-16.3s15.1,7,15.1,16.3c0,9.4-5.3,16.3-15.1,16.3S1624.6,135.1,1624.6,125.8z
		 M1639.8,139.2c6,0,10.8-4.3,10.8-13.4c0-9.1-4.8-13.4-10.8-13.4c-6,0-10.8,4.3-10.8,13.4C1629,134.9,1633.8,139.2,1639.8,139.2z"
		/>
	<path d="M1657.8,110.2h23v3.1h-19v10.6h15.6v3.1h-15.6v11.3h19v3.1h-23V110.2z"/>
	<path d="M1471.6,184.3V174h1c3.4,0,6.2-6,6.2-20.6v-7.4h20.2V174h4.3v10.3h-4.1v-7.2h-23.5v7.2H1471.6z M1494.9,174v-25h-12.2v4.8
		c0,11.2-1.7,18-4.6,20.2H1494.9z"/>
	<path d="M1505.5,145.9h23v3.1h-19v10.6h15.6v3.1h-15.6V174h19v3.1h-23V145.9z"/>
	<path d="M1531.4,177.1v-31.2h14.2c5.5,0,10.1,2.6,10.1,8.6s-4.6,8.6-10.1,8.6h-10.1v13.9H1531.4z M1535.5,160.1h9.8
		c3.4,0,6-1.7,6-5.5s-2.6-5.5-6-5.5h-9.8V160.1z"/>
	<path d="M1558.3,145.9h23v3.1h-19v10.6h15.6v3.1h-15.6V174h19v3.1h-23V145.9z"/>
	<path d="M1584.2,177.1v-31.2h14.2c5.8,0,9.8,2.2,9.8,7.9c0,5.8-5.3,7-5.3,7v0.2c0,0,6.2,1.2,6.2,7.4c0,6.2-4.3,8.6-10.8,8.6H1584.2
		z M1588.3,149v10.6h10.1c3.4,0,5.8-1.7,5.8-5.5c0-3.6-2.4-5-5.8-5H1588.3z M1598.4,174c3.8,0,6.5-1.7,6.5-5.5s-2.9-5.8-6.5-5.8
		h-10.1V174H1598.4z"/>
	<path d="M1611.3,161.5c0-9.4,5.3-16.3,15.1-16.3s15.1,7,15.1,16.3c0,9.4-5.3,16.3-15.1,16.3S1611.3,170.9,1611.3,161.5z
		 M1626.4,175c6,0,10.8-4.3,10.8-13.4c0-9.1-4.8-13.4-10.8-13.4c-6,0-10.8,4.3-10.8,13.4C1615.6,170.6,1620.4,175,1626.4,175z"/>
</g>
<g id="Layer_2">
</g>
</svg>
