<?xml version="1.0" encoding="utf-8"?>
<!-- Generator: Adobe Illustrator 25.0.1, SVG Export Plug-In . SVG Version: 6.00 Build 0)  -->
<svg version="1.1" xmlns="http://www.w3.org/2000/svg" xmlns:xlink="http://www.w3.org/1999/xlink" x="0px" y="0px"
	 viewBox="0 0 1920 192" style="enable-background:new 0 0 1920 192;" xml:space="preserve">
<g id="Layer_1">
	<g>
		<path d="M117.3,153v-3.1h26.2v3.1h-11v28.1h-4.1V153H117.3z"/>
		<path d="M145.4,165.5c0-9.4,5.3-16.3,15.1-16.3s15.1,7,15.1,16.3c0,9.4-5.3,16.3-15.1,16.3S145.4,174.8,145.4,165.5z M160.5,178.9
			c6,0,10.8-4.3,10.8-13.4c0-9.1-4.8-13.4-10.8-13.4s-10.8,4.3-10.8,13.4C149.7,174.6,154.5,178.9,160.5,178.9z"/>
		<path d="M178.5,149.9h25v31.2h-4.1V153h-16.8v28.1h-4.1V149.9z"/>
		<path d="M206.3,165.5c0-9.4,5.3-16.3,15.1-16.3s15.1,7,15.1,16.3c0,9.4-5.3,16.3-15.1,16.3S206.3,174.8,206.3,165.5z M221.4,178.9
			c6,0,10.8-4.3,10.8-13.4c0-9.1-4.8-13.4-10.8-13.4s-10.8,4.3-10.8,13.4C210.6,174.6,215.4,178.9,221.4,178.9z"/>
		<path d="M239.4,181.1v-31.2h14.2c5.5,0,10.1,2.6,10.1,8.6s-4.6,8.6-10.1,8.6h-10.1v13.9H239.4z M243.5,164h9.8c3.4,0,6-1.7,6-5.5
			s-2.6-5.5-6-5.5h-9.8V164z"/>
		<path d="M280.4,150.2l4.9,12.8l15.7-6l-4.9-12.8l3.8-1.5l11.2,29.1l-3.8,1.5l-5.1-13.4l-15.7,6l5.1,13.4l-3.8,1.5l-11.2-29.1
			L280.4,150.2z"/>
		<path d="M303.1,141.6l21.5-8.2l1.1,2.9L308,143l3.8,9.9l14.6-5.6l1.1,2.9l-14.6,5.6l4,10.5l17.7-6.8l1.1,2.9l-21.5,8.2
			L303.1,141.6z"/>
		<path d="M338,151.6c1.5,4,5.3,5.7,10.4,3.7c5.4-2.1,6.8-5.7,5.5-9.1c-1.6-4.3-5.4-4.1-9.5-2.5l-4.9,1.9l-1.1-2.9l4.9-1.9
			c4.3-1.6,5.9-4.8,4.6-8.2c-0.9-2.5-3.8-4.5-9.1-2.4c-5.8,2.2-6.1,6.2-5.1,8.9l-3.8,1.5c-1.5-4-0.2-9.9,7.9-13
			c8.1-3.1,12.5-0.2,14,3.6c2.2,5.8-3,8.9-3,8.9l0.1,0.2c0,0,6.7-2,9.2,4.5c2,5.2-1.4,10.5-8.5,13.3c-7.4,2.8-13,0.9-15.3-5
			L338,151.6z"/>
		<path d="M362.2,118.9l4.5-1.7l22.4,24.8l-4,1.5l-5.9-6.7l-13,5l0.1,9l-4,1.5L362.2,118.9z M376.9,134.4l-11-12.5l0.2,16.7
			L376.9,134.4z"/>
		<path d="M379.7,112.2l5.8-2.2l18.9,21.1l0-28.3l5.8-2.2l11.2,29.1l-3.8,1.5l-9.6-25.1l0,28.8l-3.6,1.4l-19.3-21.4l9.6,25.1
			l-3.8,1.5L379.7,112.2z"/>
		<path d="M413.3,99.4l21.5-8.2L436,94l-17.7,6.8l3.8,9.9l14.6-5.6l1.1,2.9l-14.6,5.6l4,10.5l17.7-6.8l1.1,2.9l-21.5,8.2L413.3,99.4
			z"/>
		<path d="M441.4,88.6l4.9,12.8l15.7-6l-4.9-12.8l3.8-1.5l11.2,29.1l-3.8,1.5l-5.1-13.4l-15.7,6l5.1,13.4l-3.8,1.5l-11.2-29.1
			L441.4,88.6z"/>
		<path d="M467.8,78.5l9.3,24.2l6.6-30.3l4-1.5l11.2,29.1l-3.8,1.5l-9.3-24.2l-6.6,30.3l-4,1.5L464,80L467.8,78.5z"/>
		<path d="M490.9,69.7l5.8-2.2l18.9,21.1l0-28.3l5.8-2.2l11.2,29.1l-3.8,1.5l-9.6-25.1l0,28.8l-3.6,1.4l-19.3-21.4l9.6,25.1
			l-3.8,1.5L490.9,69.7z"/>
		<path d="M534.4,53l4.5-1.7l22.4,24.8l-4,1.5l-5.9-6.7l-13,5l0.1,9l-4,1.5L534.4,53z M549.1,68.5l-11-12.5l0.2,16.7L549.1,68.5z"/>
		<path d="M561.9,75.9l3.4-16.3c-4.5,1.2-8.6,0.1-10.6-5.1c-2.2-5.8,1.4-9.8,6.1-11.6l13.9-5.3l11.2,29.1l-3.8,1.5l-5-13l-7.8,3
			l-3.2,16.1L561.9,75.9z M566.1,56l9.9-3.8L572,41.9l-9.9,3.8c-3.1,1.2-4.8,3.6-3.4,7.2C560.1,56.5,563,57.2,566.1,56z"/>
		<path d="M474.4,144.9v-31.2h14.2c5.8,0,9.8,2.2,9.8,7.9c0,5.8-5.3,7-5.3,7v0.2c0,0,6.2,1.2,6.2,7.4c0,6.2-4.3,8.6-10.8,8.6H474.4z
			 M478.5,116.8v10.6h10.1c3.4,0,5.8-1.7,5.8-5.5c0-3.6-2.4-5-5.8-5H478.5z M488.6,141.8c3.8,0,6.5-1.7,6.5-5.5s-2.9-5.8-6.5-5.8
			h-10.1v11.3H488.6z"/>
		<path d="M502,113.7h23v3.1h-19v10.6h15.6v3.1h-15.6v11.3h19v3.1h-23V113.7z"/>
		<path d="M527.9,144.9v-31.2h4.1v28.1h11.7v-28.1h4v28.1h11.7v-28.1h4.1v28.1h4.3v10.3h-4.1v-7.2H527.9z"/>
		<path d="M569.9,144.9v-31.2h4.1v13.7h10.3c5.5,0,9.8,2.4,9.8,8.6c0,6.2-4.3,8.9-9.8,8.9H569.9z M584.1,141.8
			c3.4,0,5.8-1.9,5.8-5.8c0-3.6-2.4-5.5-5.8-5.5H574v11.3H584.1z"/>
		<path d="M606.9,144.9v-31.2h14.2c5.8,0,9.8,2.2,9.8,7.9c0,5.8-5.3,7-5.3,7v0.2c0,0,6.2,1.2,6.2,7.4c0,6.2-4.3,8.6-10.8,8.6H606.9z
			 M611,116.8v10.6h10.1c3.4,0,5.8-1.7,5.8-5.5c0-3.6-2.4-5-5.8-5H611z M621.1,141.8c3.8,0,6.5-1.7,6.5-5.5s-2.9-5.8-6.5-5.8H611
			v11.3H621.1z"/>
		<path d="M465.3,168.2l-11.7-15.1h5l8.9,12.4l8.9-12.4h5l-11.7,15.1l12.1,16.1h-5l-9.4-13.2l-9.4,13.2h-5L465.3,168.2z"/>
		<path d="M483.8,168.7c0-9.4,5.3-16.3,15.1-16.3c9.8,0,15.1,7,15.1,16.3c0,9.4-5.3,16.3-15.1,16.3C489.1,185,483.8,178,483.8,168.7
			z M498.9,182.1c6,0,10.8-4.3,10.8-13.4c0-9.1-4.8-13.4-10.8-13.4c-6,0-10.8,4.3-10.8,13.4C488.1,177.8,492.9,182.1,498.9,182.1z"
			/>
		<path d="M520.1,174.9c0,4.3,2.9,7.2,8.4,7.2c5.8,0,8.4-2.9,8.4-6.5c0-4.6-3.6-5.8-7.9-5.8h-5.3v-3.1h5.3c4.6,0,7.2-2.4,7.2-6
			c0-2.6-1.9-5.5-7.7-5.5c-6.2,0-7.9,3.6-7.9,6.5h-4.1c0-4.3,3.4-9.4,12-9.4s11.8,4.3,11.8,8.4c0,6.2-6,7.2-6,7.2v0.2
			c0,0,7,0.5,7,7.4c0,5.5-5,9.4-12.7,9.4c-7.9,0-12.5-3.8-12.5-10.1H520.1z"/>
		<path d="M542.6,184.3l9-14c-4.7-0.5-8.1-3-8.1-8.5c0-6.2,4.8-8.6,9.8-8.6h14.9v31.2h-4.1v-13.9h-8.3l-8.7,13.9H542.6z
			 M553.7,167.2h10.6v-11h-10.6c-3.4,0-5.8,1.7-5.8,5.5S550.3,167.2,553.7,167.2z"/>
		<path d="M571.7,184.3v-31.2h4.1V179l17-25.9h4.3v31.2H593v-25.9l-17,25.9H571.7z M580.3,147.1c0,1.9,1,3.6,4.1,3.6
			s4.1-1.7,4.1-3.6h3.8c0,2.2-1.2,6-7.9,6s-7.9-3.8-7.9-6H580.3z"/>
		<path d="M614.4,152.4c9.8,0,13,5.8,13.4,11h-4.1c-0.5-5.3-4.1-8.2-9.4-8.2c-6,0-10.1,4.6-10.1,13.4c0,8.9,4.1,13.4,10.1,13.4
			c5.3,0,8.9-2.9,9.4-8.2h4.1c-0.5,5.3-3.6,11-13.4,11c-9.6,0-14.4-6.7-14.4-16.3C600,159.1,604.8,152.4,614.4,152.4z"/>
		<path d="M629.7,156.2v-3.1h26.2v3.1h-11v28.1h-4.1v-28.1H629.7z"/>
		<path d="M658.3,184.3v-31.2h14.2c5.8,0,9.8,2.2,9.8,7.9c0,5.8-5.3,7-5.3,7v0.2c0,0,6.2,1.2,6.2,7.4c0,6.2-4.3,8.6-10.8,8.6H658.3z
			 M662.4,156.2v10.6h10.1c3.4,0,5.8-1.7,5.8-5.5c0-3.6-2.4-5-5.8-5H662.4z M672.5,181.2c3.8,0,6.5-1.7,6.5-5.5s-2.9-5.8-6.5-5.8
			h-10.1v11.3H672.5z"/>
		<path d="M685.9,153.1h23v3.1h-19v10.6h15.6v3.1H690v11.3h19v3.1h-23V153.1z"/>
		<path d="M1600.2,86.7l6.2-1l14,24.5l5.9-27.6l6.2-1l4.8,30.8l-4,0.6l-4.2-26.6l-6,28.2l-3.8,0.6l-14.4-25l4.2,26.6l-4,0.6
			L1600.2,86.7z"/>
		<path d="M1637.7,96.7c-1.4-9.2,2.7-16.9,12.4-18.5c9.7-1.5,16,4.5,17.5,13.8c1.4,9.2-2.7,16.9-12.4,18.5
			C1645.5,112,1639.2,105.9,1637.7,96.7z M1654.7,107.6c5.9-0.9,10-5.9,8.6-14.9c-1.4-9-6.8-12.5-12.7-11.6
			c-5.9,0.9-10,5.9-8.6,14.9C1643.4,105,1648.8,108.5,1654.7,107.6z"/>
		<path d="M1672.9,107l-4.8-30.8l4-0.6l4.3,27.7l11.5-1.8l-4.3-27.7l4-0.6l4.3,27.7l11.5-1.8l-4.3-27.7l4-0.6l4.3,27.7l4.3-0.7
			l1.6,10.2l-4,0.6l-1.1-7.1L1672.9,107z"/>
		<path d="M1713.6,69l2.1,13.5l16.6-2.6l-2.1-13.5l4-0.6l4.8,30.8l-4,0.6l-2.2-14.2l-16.6,2.6l2.2,14.2l-4,0.6l-4.8-30.8L1713.6,69z
			"/>
		<path d="M1741.5,64.6l2.1,13.5l9-1.4c5.5-0.9,10.1,0.9,11.1,7c1,6.2-2.9,9.4-8.4,10.3l-13,2l-4.8-30.8L1741.5,64.6z M1754.7,91
			c3.3-0.5,5.4-2.8,4.8-6.6c-0.6-3.6-3.2-5.1-6.5-4.6l-8.8,1.4l1.7,11.1L1754.7,91z M1767.2,60.6l4.8,30.8l-4,0.6l-4.8-30.8
			L1767.2,60.6z"/>
		<path d="M1775.3,90.9l-4.8-30.8l4-0.6l4,25.6l12.8-28.2l4.3-0.7l4.8,30.8l-4,0.6l-4-25.6l-12.8,28.2L1775.3,90.9z M1778.1,52.8
			c0.3,1.9,1.5,3.4,4.6,2.9c3.1-0.5,3.8-2.3,3.5-4.2l3.8-0.6c0.3,2.1-0.3,6.1-6.9,7.2c-6.6,1-8.4-2.6-8.8-4.7L1778.1,52.8z"/>
		<path d="M1713.4,110.9v25.9l17-25.9h4.3v31.2h-4.1v-25.9l-17,25.9h-4.3v-31.2H1713.4z"/>
		<path d="M1623.9,160.7c0-9.4,5.3-16.3,15.1-16.3s15.1,7,15.1,16.3c0,9.4-5.3,16.3-15.1,16.3S1623.9,170,1623.9,160.7z M1639,174.1
			c6,0,10.8-4.3,10.8-13.4c0-9.1-4.8-13.4-10.8-13.4c-6,0-10.8,4.3-10.8,13.4C1628.2,169.8,1633,174.1,1639,174.1z"/>
		<path d="M1670.9,144.4c9.8,0,13,5.8,13.4,11h-4.1c-0.5-5.3-4.1-8.2-9.4-8.2c-6,0-10.1,4.6-10.1,13.4c0,8.9,4.1,13.4,10.1,13.4
			c5.3,0,8.9-2.9,9.4-8.2h4.1c-0.5,5.3-3.6,11-13.4,11c-9.6,0-14.4-6.7-14.4-16.3C1656.5,151.1,1661.3,144.4,1670.9,144.4z"/>
		<path d="M1686.3,148.2v-3.1h26.2v3.1h-11v28.1h-4.1v-28.1H1686.3z"/>
		<path d="M1714.8,176.3v-31.2h14.2c5.5,0,10.1,2.6,10.1,8.6s-4.6,8.6-10.1,8.6h-10.1v13.9H1714.8z M1718.9,159.2h9.8
			c3.4,0,6-1.7,6-5.5s-2.6-5.5-6-5.5h-9.8V159.2z"/>
		<path d="M1745.8,145.1v13.7h9.1c5.5,0,9.8,2.4,9.8,8.6c0,6.2-4.3,8.9-9.8,8.9h-13.2v-31.2H1745.8z M1754.7,173.2
			c3.4,0,5.8-1.9,5.8-5.8c0-3.6-2.4-5.5-5.8-5.5h-8.9v11.3H1754.7z M1771.7,145.1v31.2h-4.1v-31.2H1771.7z"/>
		<path d="M1775,176.3v-31.2h4.1V171l17-25.9h4.3v31.2h-4.1v-25.9l-17,25.9H1775z M1783.7,139.1c0,1.9,1,3.6,4.1,3.6
			s4.1-1.7,4.1-3.6h3.8c0,2.2-1.2,6-7.9,6s-7.9-3.8-7.9-6H1783.7z"/>
	</g>
</g>
<g id="Layer_2">
</g>
</svg>
