<?xml version="1.0" encoding="utf-8"?>
<!-- Generator: Adobe Illustrator 25.0.1, SVG Export Plug-In . SVG Version: 6.00 Build 0)  -->
<svg version="1.1" xmlns="http://www.w3.org/2000/svg" xmlns:xlink="http://www.w3.org/1999/xlink" x="0px" y="0px"
	 viewBox="0 0 1920 192" style="enable-background:new 0 0 1920 192;" xml:space="preserve">
<g id="Layer_1">
	<g>
		<path d="M842.9,58.2c9.8,0,13,5.8,13.4,11h-4.1c-0.5-5.3-4.1-8.2-9.4-8.2c-6,0-10.1,4.6-10.1,13.4S836.9,88,842.9,88
			c5.3,0,8.9-2.9,9.4-8.2h4.1c-0.5,5.3-3.6,11-13.4,11c-9.6,0-14.4-6.7-14.4-16.3S833.3,58.2,842.9,58.2z"/>
		<path d="M862.3,58.9l10.6,19.7l9.1-19.7h4.6l-12,25.2c-2.4,5.1-5,6.2-8.2,6.2c-1.4,0-2.9-0.2-2.9-0.2v-3.5c0,0,1,0.1,2.4,0.1
			c1.7,0,3.4-0.2,5-3.8l-13.2-24H862.3z"/>
		<path d="M888.5,58.9h6.2l10.1,26.4l10.1-26.4h6.2v31.2H917V63.2l-10.3,26.9h-3.8l-10.3-26.9v26.9h-4.1V58.9z"/>
		<path d="M924.5,90.1V58.9h4.1V75l15.1-16.1h4.7l-12,12.6l12.7,18.6H944l-10.4-15.9l-5.1,5.3v10.6H924.5z"/>
		<path d="M961.9,58.9h4.8l12,31.2h-4.3l-3.1-8.4h-13.9l-3.1,8.4h-4.3L961.9,58.9z M970.1,78.6L964.3,63l-5.8,15.6H970.1z"/>
		<path d="M993.8,58.9v8.9c0,4.8,1.7,8.2,8.2,8.2c4.8,0,7.7-2.4,7.7-4.3V58.9h4.1v31.2h-4.1V75.5c0,0-2.9,3.6-8.9,3.6
			c-7.7,0-11-4.1-11-10.3v-9.8H993.8z"/>
		<path d="M1017.1,58.9h23V62h-19v10.6h15.6v3.1h-15.6V87h19v3.1h-23V58.9z"/>
		<path d="M1043,90.1V58.9h14.2c5.5,0,10.1,2.6,10.1,8.6c0,6-4.6,8.6-10.1,8.6h-10.1v13.9H1043z M1047.1,73.1h9.8c3.4,0,6-1.7,6-5.5
			c0-3.8-2.6-5.5-6-5.5h-9.8V73.1z"/>
		<path d="M1069.9,58.9h23V62h-19v10.6h15.6v3.1H1074V87h19v3.1h-23V58.9z"/>
		<path d="M1098.9,80.8c0,4.3,2.9,7.2,8.4,7.2c5.8,0,8.4-2.9,8.4-6.5c0-4.6-3.6-5.8-7.9-5.8h-5.3v-3.1h5.3c4.6,0,7.2-2.4,7.2-6
			c0-2.6-1.9-5.5-7.7-5.5c-6.2,0-7.9,3.6-7.9,6.5h-4.1c0-4.3,3.4-9.4,12-9.4s11.8,4.3,11.8,8.4c0,6.2-6,7.2-6,7.2V74
			c0,0,7,0.5,7,7.4c0,5.5-5,9.4-12.7,9.4c-7.9,0-12.5-3.8-12.5-10.1H1098.9z"/>
		<path d="M688.7,107.3h25v31.2h-4.1v-28.1h-16.8v28.1h-4.1V107.3z"/>
		<path d="M715.5,135.1c0,0,0.5,0.1,1.2,0.1c3.4,0,6-2.5,6-18.1v-9.8h20.4v31.2h-4.1v-28.1h-12.5v7.2c0,15.8-2.9,21.1-8.9,21.1
			c-1.2,0-2.2-0.2-2.2-0.2V135.1z"/>
		<path d="M746.5,107.3h23v3.1h-19V121h15.6v3.1h-15.6v11.3h19v3.1h-23V107.3z"/>
		<path d="M776,107.3v8.9c0,4.8,1.7,8.2,8.2,8.2c4.8,0,7.7-2.4,7.7-4.3v-12.7h4.1v31.2h-4.1v-14.6c0,0-2.9,3.6-8.9,3.6
			c-7.7,0-11-4.1-11-10.3v-9.8H776z"/>
		<path d="M798.8,122.9c0-9.4,5.3-16.3,15.1-16.3s15.1,7,15.1,16.3c0,9.4-5.3,16.3-15.1,16.3S798.8,132.3,798.8,122.9z M813.9,136.3
			c6,0,10.8-4.3,10.8-13.4c0-9.1-4.8-13.4-10.8-13.4c-6,0-10.8,4.3-10.8,13.4C803.1,132,807.9,136.3,813.9,136.3z"/>
		<path d="M841.5,107.3h25v31.2h-4.1v-28.1h-16.8v28.1h-4.1V107.3z"/>
		<path d="M869.4,122.9c0-9.4,5.3-16.3,15.1-16.3s15.1,7,15.1,16.3c0,9.4-5.3,16.3-15.1,16.3S869.4,132.3,869.4,122.9z M884.5,136.3
			c6,0,10.8-4.3,10.8-13.4c0-9.1-4.8-13.4-10.8-13.4c-6,0-10.8,4.3-10.8,13.4C873.7,132,878.5,136.3,884.5,136.3z"/>
		<path d="M916.4,106.6c9.8,0,13,5.8,13.4,11h-4.1c-0.5-5.3-4.1-8.2-9.4-8.2c-6,0-10.1,4.6-10.1,13.4s4.1,13.4,10.1,13.4
			c5.3,0,8.9-2.9,9.4-8.2h4.1c-0.5,5.3-3.6,11-13.4,11c-9.6,0-14.4-6.7-14.4-16.3S906.8,106.6,916.4,106.6z"/>
		<path d="M931.3,135.1c0,0,0.5,0.1,1.2,0.1c3.4,0,6-2.5,6-18.1v-9.8h20.4v31.2h-4.1v-28.1h-12.5v7.2c0,15.8-2.9,21.1-8.9,21.1
			c-1.2,0-2.2-0.2-2.2-0.2V135.1z"/>
		<path d="M962.3,107.3h23v3.1h-19V121h15.6v3.1h-15.6v11.3h19v3.1h-23V107.3z"/>
		<path d="M987,145.7v-10.3h1c3.4,0,6.2-6,6.2-20.6v-7.4h20.2v28.1h4.3v10.3h-4.1v-7.2h-23.5v7.2H987z M1010.3,135.4v-25H998v4.8
			c0,11.2-1.7,18-4.6,20.2H1010.3z"/>
		<path d="M1024.9,107.3V121h16.8v-13.7h4.1v31.2h-4.1v-14.4h-16.8v14.4h-4.1v-31.2H1024.9z"/>
		<path d="M1053.2,107.3v25.9l17-25.9h4.3v31.2h-4.1v-25.9l-17,25.9h-4.3v-31.2H1053.2z"/>
		<path d="M1077.9,138.5v-31.2h4.1v25.9l17-25.9h4.3v31.2h-4.1v-25.9l-17,25.9H1077.9z M1086.6,101.3c0,1.9,1,3.6,4.1,3.6
			s4.1-1.7,4.1-3.6h3.8c0,2.2-1.2,6-7.9,6s-7.9-3.8-7.9-6H1086.6z"/>
		<path d="M1116.3,107.3h25v31.2h-4.1v-28.1h-16.8v28.1h-4.1V107.3z"/>
		<path d="M1148.7,107.3v25.9l17-25.9h4.3v31.2h-4.1v-25.9l-17,25.9h-4.3v-31.2H1148.7z"/>
		<path d="M1187.4,106.6c9.8,0,13,5.8,13.4,11h-4.1c-0.5-5.3-4.1-8.2-9.4-8.2c-6,0-10.1,4.6-10.1,13.4s4.1,13.4,10.1,13.4
			c5.3,0,8.9-2.9,9.4-8.2h4.1c-0.5,5.3-3.6,11-13.4,11c-9.6,0-14.4-6.7-14.4-16.3S1177.8,106.6,1187.4,106.6z"/>
		<path d="M1203.7,138.5v-31.2h4.1v16.1l15.1-16.1h4.7l-12,12.6l12.7,18.6h-4.9l-10.4-15.9l-5.1,5.3v10.6H1203.7z"/>
		<path d="M590.7,149h6.2l10.1,26.4l10.1-26.4h6.2v31.2h-4.1v-26.9L609,180.2h-3.8l-10.3-26.9v26.9h-4.1V149z"/>
		<path d="M626.3,164.6c0-9.4,5.3-16.3,15.1-16.3s15.1,7,15.1,16.3c0,9.4-5.3,16.3-15.1,16.3S626.3,173.9,626.3,164.6z M641.4,178
			c6,0,10.8-4.3,10.8-13.4c0-9.1-4.8-13.4-10.8-13.4c-6,0-10.8,4.3-10.8,13.4C630.6,173.7,635.4,178,641.4,178z"/>
		<path d="M658.2,187.4V177h1c3.4,0,6.2-6,6.2-20.6V149h20.2V177h4.3v10.3h-4.1v-7.2h-23.5v7.2H658.2z M681.5,177v-25h-12.2v4.8
			c0,11.2-1.7,18-4.6,20.2H681.5z"/>
		<path d="M696.1,149v13.7h9.1c5.5,0,9.8,2.4,9.8,8.6s-4.3,8.9-9.8,8.9H692V149H696.1z M705,177c3.4,0,5.8-1.9,5.8-5.8
			c0-3.6-2.4-5.5-5.8-5.5h-8.9V177H705z M722,149v31.2h-4.1V149H722z"/>
		<path d="M745.5,149h4.8l12,31.2H758l-3.1-8.4H741l-3.1,8.4h-4.3L745.5,149z M753.7,168.6l-5.8-15.6l-5.8,15.6H753.7z"/>
		<path d="M764.3,149h4.1V177h16.3V149h4.1V177h4.3v10.3H789v-7.2h-24.7V149z"/>
		<path d="M794.3,152.1V149h26.2v3.1h-11v28.1h-4.1v-28.1H794.3z"/>
		<path d="M822.8,149h23v3.1h-19v10.6h15.6v3.1h-15.6V177h19v3.1h-23V149z"/>
		<path d="M848.7,180.2V149h4.1V165l15.1-16.1h4.7l-12,12.6l12.7,18.6h-4.9l-10.4-15.9l-5.1,5.3v10.6H848.7z"/>
		<path d="M889.5,148.2c9.8,0,13,5.8,13.4,11h-4.1c-0.5-5.3-4.1-8.2-9.4-8.2c-6,0-10.1,4.6-10.1,13.4s4.1,13.4,10.1,13.4
			c5.3,0,8.9-2.9,9.4-8.2h4.1c-0.5,5.3-3.6,11-13.4,11c-9.6,0-14.4-6.7-14.4-16.3S879.9,148.2,889.5,148.2z"/>
		<path d="M905.9,180.2V149h4.1V165l15.1-16.1h4.7l-12,12.6l12.7,18.6h-4.9L915,164.3l-5.1,5.3v10.6H905.9z"/>
		<path d="M936.8,149v25.9l17-25.9h4.3v31.2h-4.1v-25.9l-17,25.9h-4.3V149H936.8z"/>
		<path d="M961.5,180.2V149h4.1v25.9l17-25.9h4.3v31.2h-4.1v-25.9l-17,25.9H961.5z M970.2,143c0,1.9,1,3.6,4.1,3.6s4.1-1.7,4.1-3.6
			h3.8c0,2.2-1.2,6-7.9,6s-7.9-3.8-7.9-6H970.2z"/>
		<path d="M999.2,164.6c0-7,4.6-11.5,14.2-11.5V149h4.1v4.1c9.6,0,14.2,4.6,14.2,11.5c0,7-4.6,11.5-14.2,11.5v4.1h-4.1v-4.1
			C1003.8,176.1,999.2,171.5,999.2,164.6z M1003.5,164.6c0,6.2,3.8,8.4,9.8,8.4v-16.8C1007.4,156.2,1003.5,158.3,1003.5,164.6z
			 M1017.5,173c6,0,9.8-2.2,9.8-8.4c0-6.2-3.8-8.4-9.8-8.4V173z"/>
		<path d="M1034.2,149h23v3.1h-19v10.6h15.6v3.1h-15.6V177h19v3.1h-23V149z"/>
		<path d="M1060.2,180.2V149h4.1V177h11.7V149h4V177h11.7V149h4.1v31.2H1060.2z"/>
		<path d="M1103.1,149v13.7h16.8V149h4.1v31.2h-4.1v-14.4h-16.8v14.4h-4.1V149H1103.1z"/>
		<path d="M1137,180.2V149h14.2c5.8,0,9.8,2.2,9.8,7.9s-5.3,7-5.3,7v0.2c0,0,6.2,1.2,6.2,7.4s-4.3,8.6-10.8,8.6H1137z M1141,152.1
			v10.6h10.1c3.4,0,5.8-1.7,5.8-5.5c0-3.6-2.4-5-5.8-5H1141z M1151.1,177c3.8,0,6.5-1.7,6.5-5.5c0-3.8-2.9-5.8-6.5-5.8H1141V177
			H1151.1z"/>
		<path d="M1164.6,149h23v3.1h-19v10.6h15.6v3.1h-15.6V177h19v3.1h-23V149z"/>
		<path d="M1190.5,180.2V149h14.2c5.5,0,10.1,2.6,10.1,8.6c0,6-4.6,8.6-10.1,8.6h-10.1v13.9H1190.5z M1194.6,163.1h9.8
			c3.4,0,6-1.7,6-5.5c0-3.8-2.6-5.5-6-5.5h-9.8V163.1z"/>
		<path d="M1221.4,149v13.7h16.8V149h4.1v31.2h-4.1v-14.4h-16.8v14.4h-4.1V149H1221.4z"/>
		<path d="M1248.8,149l10.6,19.7l9.1-19.7h4.6l-12,25.2c-2.4,5.1-5,6.2-8.2,6.2c-1.4,0-2.9-0.2-2.9-0.2v-3.5c0,0,1,0.1,2.4,0.1
			c1.7,0,3.4-0.2,5-3.8l-13.2-24H1248.8z"/>
		<path d="M1273.5,176.7c0,0,0.5,0.1,1.2,0.1c3.4,0,6-2.5,6-18.1V149h20.4v31.2h-4.1v-28.1h-12.5v7.2c0,15.8-2.9,21.1-8.9,21.1
			c-1.2,0-2.2-0.2-2.2-0.2V176.7z"/>
		<path d="M1318.4,148.2c9.8,0,13,5.8,13.4,11h-4.1c-0.5-5.3-4.1-8.2-9.4-8.2c-6,0-10.1,4.6-10.1,13.4s4.1,13.4,10.1,13.4
			c5.3,0,8.9-2.9,9.4-8.2h4.1c-0.5,5.3-3.6,11-13.4,11c-9.6,0-14.4-6.7-14.4-16.3S1308.8,148.2,1318.4,148.2z"/>
		<path d="M1333.5,180.2l9-14c-4.7-0.5-8.1-3-8.1-8.5c0-6.2,4.8-8.6,9.8-8.6h14.9v31.2h-4.1v-13.9h-8.3l-8.7,13.9H1333.5z
			 M1344.6,163.1h10.6v-11h-10.6c-3.4,0-5.8,1.7-5.8,5.5C1338.8,161.4,1341.2,163.1,1344.6,163.1z"/>
	</g>
</g>
<g id="Layer_2">
</g>
</svg>
