<?xml version="1.0" encoding="utf-8"?>
<!-- Generator: Adobe Illustrator 25.0.1, SVG Export Plug-In . SVG Version: 6.00 Build 0)  -->
<svg version="1.1" xmlns="http://www.w3.org/2000/svg" xmlns:xlink="http://www.w3.org/1999/xlink" x="0px" y="0px"
	 viewBox="0 0 1920 192" style="enable-background:new 0 0 1920 192;" xml:space="preserve">
<g id="Layer_1">
	<path d="M63,152l23.2-1.8l0.2,3.1l-19.1,1.5l0.8,10.5l10.8-0.8c5.5-0.4,10,1.6,10.5,7.9c0.5,6.2-3.6,9.2-9.1,9.6l-14.8,1.2L63,152z
		 M79.8,178.9c3.4-0.3,5.6-2.4,5.3-6.2c-0.3-3.6-2.8-5.3-6.2-5.1l-10.5,0.8l0.9,11.2L79.8,178.9z"/>
	<path d="M101.3,149.1l4.8-0.4l14.4,30.2l-4.3,0.3l-3.8-8.1l-13.9,1.1l-2.5,8.6l-4.3,0.3L101.3,149.1z M111,168l-7-15.2l-4.6,16.1
		L111,168z"/>
	<path d="M133.8,145.8c9.8-0.8,13.4,4.7,14.3,10l-4.1,0.3c-0.9-5.2-4.7-7.8-10-7.4c-6,0.5-9.7,5.3-9,14.2
		c0.7,8.9,5.1,13.1,11.1,12.6c5.3-0.4,8.6-3.6,8.7-8.9l4.1-0.3c-0.1,5.3-2.7,11.3-12.5,12.1c-9.6,0.7-14.9-5.6-15.6-15.2
		C119.9,153.6,124.2,146.5,133.8,145.8z"/>
	<path d="M152.5,176.4l-2.4-31.1l4.1-0.3l1.2,16l13.8-17.2l4.6-0.4l-11,13.5l14.1,17.6l-4.9,0.4l-11.6-15l-4.7,5.7l0.8,10.5
		L152.5,176.4z"/>
	<path d="M176.9,143.2l23-1.8l0.2,3.1l-18.9,1.5l0.8,10.5l15.6-1.2l0.2,3.1l-15.6,1.2l0.9,11.2l18.9-1.5l0.2,3.1l-23,1.8
		L176.9,143.2z"/>
	<path d="M202,144.3l-0.2-3.1l26.1-2l0.2,3.1l-11,0.9l2.2,28l-4.1,0.3l-2.2-28L202,144.3z"/>
	<path d="M230.2,139l23.2-1.8l0.2,3.1l-19.1,1.5l0.8,10.5l10.8-0.8c5.5-0.4,10,1.6,10.5,7.9c0.5,6.2-3.6,9.2-9.1,9.6l-14.8,1.2
		L230.2,139z M247,165.9c3.4-0.3,5.6-2.4,5.3-6.2c-0.3-3.6-2.8-5.3-6.2-5.1l-10.5,0.8l0.9,11.2L247,165.9z"/>
	<path d="M258.7,152.4c-0.7-9.3,4-16.7,13.8-17.4c9.8-0.8,15.6,5.8,16.3,15.1c0.7,9.3-4,16.7-13.8,17.4S259.4,161.8,258.7,152.4z
		 M274.8,164.7c6-0.5,10.4-5.1,9.7-14.2c-0.7-9.1-5.8-13-11.8-12.6c-6,0.5-10.4,5.1-9.7,14.2C263.7,161.2,268.9,165.1,274.8,164.7z"
		/>
	<path d="M291.3,162.1c0,0,0.5,0.1,1.2,0c3.4-0.3,5.8-3,4.6-18.5l-0.8-9.8l20.3-1.6l2.4,31.1l-4.1,0.3l-2.2-28l-12.4,1l0.6,7.2
		c1.2,15.8-1.2,21.3-7.2,21.7c-1.2,0.1-2.2-0.1-2.2-0.1L291.3,162.1z"/>
	<path d="M322.4,163.1L320,132l4.1-0.3l1.1,13.6l10.3-0.8c5.5-0.4,10,1.6,10.5,7.9c0.5,6.2-3.6,9.2-9.1,9.6L322.4,163.1z
		 M336.3,158.9c3.3-0.3,5.6-2.4,5.3-6.2c-0.3-3.6-2.8-5.3-6.2-5.1l-10.1,0.8l0.9,11.2L336.3,158.9z"/>
	<path d="M351.3,129.6l1.1,13.6l16.8-1.3l-1.1-13.6l4.1-0.3l2.4,31.1l-4.1,0.3l-1.1-14.4l-16.8,1.3l1.1,14.4l-4.1,0.3l-2.4-31.1
		L351.3,129.6z"/>
	<path d="M379.5,127.4l1.1,13.6l9.1-0.7c5.5-0.4,10,1.6,10.5,7.9c0.5,6.2-3.6,9.2-9.1,9.6l-13.2,1l-2.4-31.1L379.5,127.4z
		 M390.6,154.7c3.4-0.3,5.6-2.4,5.3-6.2c-0.3-3.6-2.8-5.3-6.2-5.1l-8.9,0.7l0.9,11.2L390.6,154.7z M405.4,125.4l2.4,31.1l-4.1,0.3
		l-2.4-31.1L405.4,125.4z"/>
	<path d="M411.2,156.2l-2.4-31.1l4.1-0.3l2,25.8l15-27.2l4.3-0.3l2.4,31.1l-4.1,0.3l-2-25.8l-15,27.2L411.2,156.2z M416.9,118.5
		c0.1,1.9,1.2,3.5,4.3,3.3c3.1-0.2,3.9-2,3.8-3.9l3.8-0.3c0.2,2.2-0.7,6.1-7.4,6.6c-6.7,0.5-8.2-3.2-8.4-5.4L416.9,118.5z"/>
	<path d="M418.4,157.2h6.2l10.1,26.4l10.1-26.4h6.2v31.2H447v-26.9l-10.3,26.9h-3.8l-10.3-26.9v26.9h-4.1V157.2z"/>
	<path d="M453.2,188.4l9-14c-4.7-0.5-8.1-3-8.1-8.5c0-6.2,4.8-8.6,9.8-8.6h14.9v31.2h-4.1v-13.9h-8.3l-8.7,13.9H453.2z M464.2,171.3
		h10.6v-11h-10.6c-3.4,0-5.8,1.7-5.8,5.5C458.5,169.6,460.9,171.3,464.2,171.3z"/>
	<path d="M485.8,157.2v8.9c0,4.8,1.7,8.2,8.2,8.2c4.8,0,7.7-2.4,7.7-4.3v-12.7h4.1v31.2h-4.1v-14.6c0,0-2.9,3.6-8.9,3.6
		c-7.7,0-11-4.1-11-10.3v-9.8H485.8z"/>
	<path d="M582.9,135.2c0-9.4,5.3-16.3,15.1-16.3s15.1,7,15.1,16.3c0,9.4-5.3,16.3-15.1,16.3S582.9,144.6,582.9,135.2z M598.1,148.7
		c6,0,10.8-4.3,10.8-13.4c0-9.1-4.8-13.4-10.8-13.4c-6,0-10.8,4.3-10.8,13.4C587.3,144.4,592.1,148.7,598.1,148.7z"/>
	<path d="M619.7,119.6v8.9c0,4.8,1.7,8.2,8.2,8.2c4.8,0,7.7-2.4,7.7-4.3v-12.7h4.1v31.2h-4.1v-14.6c0,0-2.9,3.6-8.9,3.6
		c-7.7,0-11-4.1-11-10.3v-9.8H619.7z"/>
	<path d="M642.9,119.6h23v3.1h-19v10.6h15.6v3.1H647v11.3h19v3.1h-23V119.6z"/>
	<path d="M672.9,119.6v13.7h16.8v-13.7h4.1v31.2h-4.1v-14.4h-16.8v14.4h-4.1v-31.2H672.9z"/>
	<path d="M697.2,150.8v-31.2h4.1v13.7h10.3c5.5,0,9.8,2.4,9.8,8.6s-4.3,8.9-9.8,8.9H697.2z M711.3,147.7c3.4,0,5.8-1.9,5.8-5.8
		c0-3.6-2.4-5.5-5.8-5.5h-10.1v11.3H711.3z"/>
	<path d="M585.7,157.6l10.6,19.7l9.1-19.7h4.6l-12,25.2c-2.4,5.1-5,6.2-8.2,6.2c-1.4,0-2.9-0.2-2.9-0.2v-3.5c0,0,1,0.1,2.4,0.1
		c1.7,0,3.4-0.2,5-3.8l-13.2-24H585.7z"/>
	<path d="M611.9,157.6h25v31.2h-4.1v-28.1h-16.8v28.1h-4.1V157.6z"/>
	<path d="M640.2,188.8v-31.2h14.2c5.5,0,10.1,2.6,10.1,8.6c0,6-4.6,8.6-10.1,8.6h-10.1v13.9H640.2z M644.3,171.7h9.8
		c3.4,0,6-1.7,6-5.5c0-3.8-2.6-5.5-6-5.5h-9.8V171.7z"/>
	<path d="M670.2,157.6l10.6,19.7l9.1-19.7h4.6l-12,25.2c-2.4,5.1-5,6.2-8.2,6.2c-1.4,0-2.9-0.2-2.9-0.2v-3.5c0,0,1,0.1,2.4,0.1
		c1.7,0,3.4-0.2,5-3.8l-13.2-24H670.2z"/>
	<path d="M696.3,188.8v-31.2h21.6v3.1h-17.5v28.1H696.3z"/>
	<path d="M724.4,157.6v25.9l17-25.9h4.3v31.2h-4.1v-25.9l-17,25.9h-4.3v-31.2H724.4z"/>
	<path d="M749.1,188.8v-31.2h4.1v25.9l17-25.9h4.3v31.2h-4.1v-25.9l-17,25.9H749.1z M757.8,151.6c0,1.9,1,3.6,4.1,3.6
		s4.1-1.7,4.1-3.6h3.8c0,2.2-1.2,6-7.9,6s-7.9-3.8-7.9-6H757.8z"/>
	<path d="M784.5,164l13.5,22.1l1-31l3.7-2.3l16.3,26.6l-3.5,2.1L802,159.4l-1,31l-3.7,2.3L781,166.1L784.5,164z"/>
	<path d="M813.7,146l21.3-13l16.3,26.6l-3.5,2.1l-14.7-23.9l-14.3,8.8l14.7,23.9l-3.5,2.1L813.7,146z"/>
	<path d="M854.2,157.9l-16.3-26.6l12.1-7.4c4.7-2.9,10-3,13.1,2.1c3.1,5.1,0.6,9.7-4.1,12.6l-8.6,5.3l7.3,11.9L854.2,157.9z
		 M848.8,141.2l8.4-5.1c2.9-1.8,4.2-4.6,2.2-7.8c-2-3.3-5.1-3.3-8-1.6l-8.4,5.1L848.8,141.2z"/>
	<path d="M864.3,115.1l7.1,11.7l7.8-4.8c4.7-2.9,9.6-3.1,12.9,2.2c3.3,5.3,1,9.8-3.8,12.7l-11.3,6.9l-16.3-26.6L864.3,115.1z
		 M886.5,134.4c2.9-1.8,3.9-4.6,1.9-7.9c-1.9-3.1-4.9-3.5-7.8-1.7l-7.6,4.6l5.9,9.6L886.5,134.4z M886.4,101.5l16.3,26.6l-3.5,2.1
		l-16.3-26.6L886.4,101.5z"/>
	<path d="M905.6,126.4l-16.3-26.6l18.4-11.3l1.6,2.7l-14.9,9.2l14.7,23.9L905.6,126.4z"/>
	<path d="M912.4,85.6l19.3,11.2l-2.5-21.5l3.9-2.4l2.9,27.8c0.6,5.6-1,8-3.7,9.6c-1.2,0.8-2.6,1.3-2.6,1.3l-1.8-3
		c0,0,0.9-0.4,2.1-1.1c1.4-0.9,2.8-1.9,2.3-5.9L908.5,88L912.4,85.6z"/>
	<path d="M937.8,70.1l4.6,7.6c2.5,4.1,5.7,6.1,11.2,2.7c4.1-2.5,5.3-6.1,4.3-7.7l-6.6-10.8l3.5-2.1l16.3,26.6l-3.5,2.1l-7.6-12.5
		c0,0-0.6,4.6-5.7,7.7c-6.5,4-11.5,2.3-14.8-3l-5.1-8.4L937.8,70.1z"/>
	<path d="M961.1,55.8l13.5,22.1l1-31l3.7-2.3l16.3,26.6l-3.5,2.1l-13.5-22.1l-1,31l-3.7,2.3l-16.3-26.6L961.1,55.8z"/>
	<path d="M998.5,69.5l-16.3-26.6l3.5-2.1l13.5,22.1l1-31l3.7-2.3l16.3,26.6l-3.5,2.1l-13.5-22.1l-1,31L998.5,69.5z M986.4,33.2
		c1,1.6,2.7,2.6,5.4,0.9c2.7-1.6,2.6-3.6,1.6-5.2l3.3-2c1.1,1.8,2.1,5.7-3.6,9.3c-5.7,3.5-8.8,0.9-9.9-1L986.4,33.2z"/>
	<path d="M861.5,154h4.8l12,31.2h-4.3l-3.1-8.4h-13.9l-3.1,8.4h-4.3L861.5,154z M869.7,173.7l-5.8-15.6l-5.8,15.6H869.7z"/>
	<path d="M889.8,154h23v3.1h-19v10.6h15.6v3.1h-15.6v11.3h19v3.1h-23V154z"/>
	<path d="M915.7,185.2V154h4.1v28.1h11.7V154h4v28.1h11.7V154h4.1v28.1h4.3v10.3h-4.1v-7.2H915.7z"/>
	<path d="M957.7,154h23v3.1h-19v10.6h15.6v3.1h-15.6v11.3h19v3.1h-23V154z"/>
	<path d="M992.7,169.6c0-9.4,5.3-16.3,15.1-16.3s15.1,7,15.1,16.3c0,9.4-5.3,16.3-15.1,16.3S992.7,178.9,992.7,169.6z M1007.9,183
		c6,0,10.8-4.3,10.8-13.4c0-9.1-4.8-13.4-10.8-13.4c-6,0-10.8,4.3-10.8,13.4C997.1,178.7,1001.9,183,1007.9,183z"/>
	<path d="M1029.5,154v8.9c0,4.8,1.7,8.2,8.2,8.2c4.8,0,7.7-2.4,7.7-4.3V154h4.1v31.2h-4.1v-14.6c0,0-2.9,3.6-8.9,3.6
		c-7.7,0-11-4.1-11-10.3V154H1029.5z"/>
	<path d="M1052.7,154h23v3.1h-19v10.6h15.6v3.1h-15.6v11.3h19v3.1h-23V154z"/>
	<path d="M1082.7,154v13.7h16.8V154h4.1v31.2h-4.1v-14.4h-16.8v14.4h-4.1V154H1082.7z"/>
	<path d="M1107,185.2V154h4.1v13.7h10.3c5.5,0,9.8,2.4,9.8,8.6s-4.3,8.9-9.8,8.9H1107z M1121.1,182.1c3.4,0,5.8-1.9,5.8-5.8
		c0-3.6-2.4-5.5-5.8-5.5h-10.1v11.3H1121.1z"/>
	<path d="M1143.5,169.6c0-9.4,5.3-16.3,15.1-16.3s15.1,7,15.1,16.3c0,9.4-5.3,16.3-15.1,16.3S1143.5,178.9,1143.5,169.6z
		 M1158.6,183c6,0,10.8-4.3,10.8-13.4c0-9.1-4.8-13.4-10.8-13.4c-6,0-10.8,4.3-10.8,13.4C1147.8,178.7,1152.6,183,1158.6,183z"/>
	<path d="M1176.6,185.2V154h14.2c5.5,0,10.1,2.6,10.1,8.6c0,6-4.6,8.6-10.1,8.6h-10.1v13.9H1176.6z M1180.7,168.1h9.8
		c3.4,0,6-1.7,6-5.5c0-3.8-2.6-5.5-6-5.5h-9.8V168.1z"/>
	<path d="M1214,154h4.8l12,31.2h-4.3l-3.1-8.4h-13.9l-3.1,8.4h-4.3L1214,154z M1222.2,173.7l-5.8-15.6l-5.8,15.6H1222.2z"/>
	<path d="M1236.8,154v13.7h16.8V154h4.1v31.2h-4.1v-14.4h-16.8v14.4h-4.1V154H1236.8z"/>
	<path d="M1260.1,185.2l14.2-16.6l-14.2-14.6h4.8l13,13.9V154h4.1v13.9l13-13.9h4.8l-14.2,14.6l14.2,16.6h-5.3l-12.5-15.4v15.4h-4.1
		v-15.4l-12.5,15.4H1260.1z"/>
	<path d="M1302.1,154h23v3.1h-19v10.6h15.6v3.1h-15.6v11.3h19v3.1h-23V154z"/>
	<path d="M1328,185.2V154h14.2c5.8,0,9.8,2.2,9.8,7.9s-5.3,7-5.3,7v0.2c0,0,6.2,1.2,6.2,7.4s-4.3,8.6-10.8,8.6H1328z M1332.1,157.1
		v10.6h10.1c3.4,0,5.8-1.7,5.8-5.5c0-3.6-2.4-5-5.8-5H1332.1z M1342.2,182.1c3.8,0,6.5-1.7,6.5-5.5c0-3.8-2.9-5.8-6.5-5.8h-10.1
		v11.3H1342.2z"/>
	<path d="M1359.7,154v13.7h9.1c5.5,0,9.8,2.4,9.8,8.6s-4.3,8.9-9.8,8.9h-13.2V154H1359.7z M1368.6,182.1c3.4,0,5.8-1.9,5.8-5.8
		c0-3.6-2.4-5.5-5.8-5.5h-8.9v11.3H1368.6z M1385.6,154v31.2h-4.1V154H1385.6z"/>
	<path d="M1389,185.2V154h4.1v25.9l17-25.9h4.3v31.2h-4.1v-25.9l-17,25.9H1389z M1397.6,148c0,1.9,1,3.6,4.1,3.6s4.1-1.7,4.1-3.6
		h3.8c0,2.2-1.2,6-7.9,6s-7.9-3.8-7.9-6H1397.6z"/>
	<path d="M1528.4,113.8h4.8l12,31.2h-4.3l-3.1-8.4h-13.9l-3.1,8.4h-4.3L1528.4,113.8z M1536.6,133.5l-5.8-15.6l-5.8,15.6H1536.6z"/>
	<path d="M1560.3,113.8v8.9c0,4.8,1.7,8.2,8.2,8.2c4.8,0,7.7-2.4,7.7-4.3v-12.7h4.1V145h-4.1v-14.6c0,0-2.9,3.6-8.9,3.6
		c-7.7,0-11-4.1-11-10.3v-9.8H1560.3z"/>
	<path d="M1582.7,116.9v-3.1h26.2v3.1h-11V145h-4.1v-28.1H1582.7z"/>
	<path d="M1610.7,129.4c0-9.4,5.3-16.3,15.1-16.3s15.1,7,15.1,16.3c0,9.4-5.3,16.3-15.1,16.3S1610.7,138.8,1610.7,129.4z
		 M1625.9,142.9c6,0,10.8-4.3,10.8-13.4c0-9.1-4.8-13.4-10.8-13.4c-6,0-10.8,4.3-10.8,13.4C1615.1,138.5,1619.9,142.9,1625.9,142.9z
		"/>
	<path d="M1653.5,113.8h23v3.1h-19v10.6h15.6v3.1h-15.6v11.3h19v3.1h-23V113.8z"/>
	<path d="M1679.4,145v-31.2h4.1v28.1h11.7v-28.1h4v28.1h11.7v-28.1h4.1v28.1h4.3v10.3h-4.1V145H1679.4z"/>
	<path d="M1721.4,113.8h23v3.1h-19v10.6h15.6v3.1h-15.6v11.3h19v3.1h-23V113.8z"/>
	<path d="M1503.7,153.4V167h16.8v-13.7h4.1v31.2h-4.1v-14.4h-16.8v14.4h-4.1v-31.2H1503.7z"/>
	<path d="M1531.1,153.4l10.6,19.7l9.1-19.7h4.6l-12,25.2c-2.4,5.1-5,6.2-8.2,6.2c-1.4,0-2.9-0.2-2.9-0.2v-3.5c0,0,1,0.1,2.4,0.1
		c1.7,0,3.4-0.2,5-3.8l-13.2-24H1531.1z"/>
	<path d="M1556.3,184.6l14.2-16.6l-14.2-14.6h4.8l13,13.9v-13.9h4.1v13.9l13-13.9h4.8l-14.2,14.6l14.2,16.6h-5.3l-12.5-15.4v15.4
		h-4.1v-15.4l-12.5,15.4H1556.3z"/>
	<path d="M1602.3,153.4V167h16.8v-13.7h4.1v31.2h-4.1v-14.4h-16.8v14.4h-4.1v-31.2H1602.3z"/>
	<path d="M1626.1,169c0-9.4,5.3-16.3,15.1-16.3s15.1,7,15.1,16.3c0,9.4-5.3,16.3-15.1,16.3S1626.1,178.3,1626.1,169z M1641.2,182.4
		c6,0,10.8-4.3,10.8-13.4c0-9.1-4.8-13.4-10.8-13.4c-6,0-10.8,4.3-10.8,13.4C1630.4,178.1,1635.2,182.4,1641.2,182.4z"/>
	<path d="M1668.3,169c0-9.4,5.3-16.3,15.1-16.3s15.1,7,15.1,16.3c0,9.4-5.3,16.3-15.1,16.3S1668.3,178.3,1668.3,169z M1683.5,182.4
		c6,0,10.8-4.3,10.8-13.4c0-9.1-4.8-13.4-10.8-13.4c-6,0-10.8,4.3-10.8,13.4C1672.7,178.1,1677.5,182.4,1683.5,182.4z"/>
	<path d="M1700.5,156.5v-3.1h26.2v3.1h-11v28.1h-4.1v-28.1H1700.5z"/>
	<path d="M1738.7,153.4h6.2l10.1,26.4l10.1-26.4h6.2v31.2h-4.1v-26.9l-10.3,26.9h-3.8l-10.3-26.9v26.9h-4.1V153.4z"/>
	<path d="M1773.5,184.6l9-14c-4.7-0.5-8.1-3-8.1-8.5c0-6.2,4.8-8.6,9.8-8.6h14.9v31.2h-4.1v-13.9h-8.3l-8.7,13.9H1773.5z
		 M1784.5,167.5h10.6v-11h-10.6c-3.4,0-5.8,1.7-5.8,5.5C1778.7,165.8,1781.1,167.5,1784.5,167.5z"/>
	<path d="M1806.1,153.4v8.9c0,4.8,1.7,8.2,8.2,8.2c4.8,0,7.7-2.4,7.7-4.3v-12.7h4.1v31.2h-4.1v-14.6c0,0-2.9,3.6-8.9,3.6
		c-7.7,0-11-4.1-11-10.3v-9.8H1806.1z"/>
	<path d="M1839.9,153.4h4.8l12,31.2h-4.3l-3.1-8.4h-13.9l-3.1,8.4h-4.3L1839.9,153.4z M1848.1,173l-5.8-15.6l-5.8,15.6H1848.1z"/>
</g>
<g id="Layer_2">
</g>
</svg>
