<?xml version="1.0" encoding="utf-8"?>
<!-- Generator: Adobe Illustrator 25.0.1, SVG Export Plug-In . SVG Version: 6.00 Build 0)  -->
<svg version="1.1" xmlns="http://www.w3.org/2000/svg" xmlns:xlink="http://www.w3.org/1999/xlink" x="0px" y="0px"
	 viewBox="0 0 1920 192" style="enable-background:new 0 0 1920 192;" xml:space="preserve">
<g id="Layer_1">
	<path d="M62.1,153.1l21.8-12.2l15.3,27.2l-3.6,2l-13.7-24.5l-14.7,8.2l13.7,24.5l-3.6,2L62.1,153.1z"/>
	<path d="M86.8,139.2l20.1-11.3l1.5,2.7L91.9,140l5.2,9.2l13.6-7.6l1.5,2.7l-13.6,7.6l5.5,9.8l16.5-9.3l1.5,2.7L102,166.4
		L86.8,139.2z"/>
	<path d="M124.6,153.8l-15.3-27.2l12.3-6.9c4.8-2.7,10.1-2.6,13,2.6c2.9,5.2,0.3,9.8-4.6,12.5l-8.8,4.9l6.8,12.1L124.6,153.8z
		 M119.9,136.9l8.6-4.8c2.9-1.6,4.4-4.4,2.5-7.8c-1.9-3.3-5-3.5-7.9-1.9l-8.6,4.8L119.9,136.9z"/>
	<path d="M144.6,106c8.6-4.8,14.1-1.3,17.1,3.1l-3.6,2c-3-4.4-7.6-5.1-12.2-2.5c-5.2,2.9-6.6,8.9-2.2,16.7s10.1,9.7,15.4,6.8
		c4.6-2.6,6.3-6.9,4.2-11.7l3.6-2c2.2,4.8,2.3,11.4-6.3,16.2c-8.4,4.7-15.8,1.2-20.5-7.2C135.3,118.9,136.2,110.7,144.6,106z"/>
	<path d="M162.7,96.6l12.7,22.6l2.2-30.9l3.8-2.1l15.3,27.2l-3.6,2l-12.7-22.6l-2.2,30.9l-3.8,2.1l-15.3-27.2L162.7,96.6z"/>
	<path d="M202.1,118.6l-5.1-9l0.8-0.5c2.9-1.6,2.5-8.3-4.7-21.1l-3.6-6.5l17.6-9.9l13.7,24.5l3.8-2.1l5.1,9l-3.6,2l-3.5-6.3
		l-20.5,11.5l3.5,6.3L202.1,118.6z M217.3,98.2l-12.2-21.8l-10.7,6l2.3,4.2c5.5,9.8,7.3,16.5,5.9,19.8L217.3,98.2z"/>
	<path d="M224.6,61.1c8.6-4.8,14.1-1.3,17.1,3.1l-3.6,2c-3-4.4-7.6-5.1-12.2-2.5c-5.2,2.9-6.6,8.9-2.2,16.7s10.1,9.7,15.4,6.8
		c4.6-2.6,6.3-6.9,4.2-11.7l3.6-2c2.2,4.8,2.3,11.4-6.3,16.2c-8.4,4.7-15.8,1.2-20.5-7.2C215.3,74,216.2,65.8,224.6,61.1z"/>
	<path d="M254.4,80.9l-15.3-27.2l3.6-2l7.9,14l5.3-21.4l4.1-2.3l-4.4,16.9l20.2,10l-4.3,2.4l-16.9-8.8l-1.8,7.1L258,79L254.4,80.9z"
		/>
	<path d="M266.1,38.6l12.7,22.6l2.2-30.9l3.8-2.1L300,55.3l-3.6,2l-12.7-22.6l-2.2,30.9l-3.8,2.1l-15.3-27.2L266.1,38.6z"/>
	<path d="M303,53.7l-15.3-27.2l3.6-2l12.7,22.6l2.2-30.9l3.8-2.1l15.3,27.2l-3.6,2l-12.7-22.6l-2.2,30.9L303,53.7z M292.3,17
		c0.9,1.7,2.6,2.7,5.3,1.1c2.7-1.5,2.7-3.5,1.8-5.1l3.3-1.9c1.1,1.9,1.9,5.8-4,9.1c-5.9,3.3-8.8,0.5-9.8-1.4L292.3,17z"/>
	<path d="M314.6,78.7V47.5h4.1v16.1l15.1-16.1h4.7l-12,12.6l12.7,18.6h-4.9l-10.4-15.9l-5.1,5.3v10.6H314.6z"/>
	<path d="M341,63.1c0-9.4,5.3-16.3,15.1-16.3s15.1,7,15.1,16.3c0,9.4-5.3,16.3-15.1,16.3S341,72.5,341,63.1z M356.1,76.5
		c6,0,10.8-4.3,10.8-13.4c0-9.1-4.8-13.4-10.8-13.4s-10.8,4.3-10.8,13.4C345.3,72.2,350.1,76.5,356.1,76.5z"/>
	<path d="M374.1,78.7V47.5h14.2c5.8,0,9.8,2.2,9.8,7.9s-5.3,7-5.3,7v0.2c0,0,6.2,1.2,6.2,7.4s-4.3,8.6-10.8,8.6H374.1z M378.2,50.6
		v10.6h10.1c3.4,0,5.8-1.7,5.8-5.5c0-3.6-2.4-5-5.8-5H378.2z M388.3,75.6c3.8,0,6.5-1.7,6.5-5.5c0-3.8-2.9-5.8-6.5-5.8h-10.1v11.3
		H388.3z"/>
	<path d="M401.7,47.5h23v3.1h-19v10.6h15.6v3.1h-15.6v11.3h19v3.1h-23V47.5z"/>
	<path d="M427.6,78.7V47.5h14.2c5.5,0,10.1,2.6,10.1,8.6c0,6-4.6,8.6-10.1,8.6h-10.1v13.9H427.6z M431.7,61.7h9.8c3.4,0,6-1.7,6-5.5
		c0-3.8-2.6-5.5-6-5.5h-9.8V61.7z"/>
	<path d="M306,113.8V82.6h14.2c5.5,0,10.1,2.6,10.1,8.6c0,6-4.6,8.6-10.1,8.6h-10.1v13.9H306z M310.1,96.8h9.8c3.4,0,6-1.7,6-5.5
		c0-3.8-2.6-5.5-6-5.5h-9.8V96.8z"/>
	<path d="M336,82.6l10.6,19.7l9.1-19.7h4.6l-12,25.2c-2.4,5.1-5,6.2-8.2,6.2c-1.4,0-2.9-0.2-2.9-0.2v-3.5c0,0,1,0.1,2.4,0.1
		c1.7,0,3.4-0.2,5-3.8l-13.2-24H336z"/>
	<path d="M365.7,82.6v8.9c0,4.8,1.7,8.2,8.2,8.2c4.8,0,7.7-2.4,7.7-4.3V82.6h4.1v31.2h-4.1V99.2c0,0-2.9,3.6-8.9,3.6
		c-7.7,0-11-4.1-11-10.3v-9.8H365.7z"/>
	<path d="M393.1,82.6v13.7h16.8V82.6h4.1v31.2h-4.1V99.4h-16.8v14.4H389V82.6H393.1z"/>
	<path d="M416.9,98.2c0-9.4,5.3-16.3,15.1-16.3s15.1,7,15.1,16.3c0,9.4-5.3,16.3-15.1,16.3S416.9,107.6,416.9,98.2z M432,111.7
		c6,0,10.8-4.3,10.8-13.4c0-9.1-4.8-13.4-10.8-13.4c-6,0-10.8,4.3-10.8,13.4C421.2,107.4,426,111.7,432,111.7z"/>
	<path d="M450,113.8V82.6h4.1v25.9l17-25.9h4.3v31.2h-4.1V87.9l-17,25.9H450z M458.6,76.6c0,1.9,1,3.6,4.1,3.6s4.1-1.7,4.1-3.6h3.8
		c0,2.2-1.2,6-7.9,6s-7.9-3.8-7.9-6H458.6z"/>
	<path d="M300.9,147.3v-31.2h14.2c5.5,0,10.1,2.6,10.1,8.6c0,6-4.6,8.6-10.1,8.6H305v13.9H300.9z M305,130.3h9.8c3.4,0,6-1.7,6-5.5
		c0-3.8-2.6-5.5-6-5.5H305V130.3z"/>
	<path d="M338.4,116.1h4.8l12,31.2h-4.3l-3.1-8.4h-13.9l-3.1,8.4h-4.3L338.4,116.1z M346.6,135.8l-5.8-15.6l-5.8,15.6H346.6z"/>
	<path d="M357.1,116.1h23.3v3.1h-19.2v10.6H372c5.5,0,9.8,2.4,9.8,8.6s-4.3,8.9-9.8,8.9h-14.9V116.1z M371.7,144.2
		c3.4,0,5.8-1.9,5.8-5.8c0-3.6-2.4-5.5-5.8-5.5h-10.6v11.3H371.7z"/>
	<path d="M384.4,131.7c0-9.4,5.3-16.3,15.1-16.3s15.1,7,15.1,16.3c0,9.4-5.3,16.3-15.1,16.3S384.4,141.1,384.4,131.7z M399.6,145.2
		c6,0,10.8-4.3,10.8-13.4c0-9.1-4.8-13.4-10.8-13.4c-6,0-10.8,4.3-10.8,13.4C388.8,140.9,393.6,145.2,399.6,145.2z"/>
	<path d="M416.6,119.3v-3.1h26.2v3.1h-11v28.1h-4.1v-28.1H416.6z"/>
	<path d="M449.2,116.1v13.7h9.1c5.5,0,9.8,2.4,9.8,8.6s-4.3,8.9-9.8,8.9h-13.2v-31.2H449.2z M458.1,144.2c3.4,0,5.8-1.9,5.8-5.8
		c0-3.6-2.4-5.5-5.8-5.5h-8.9v11.3H458.1z M475.2,116.1v31.2h-4.1v-31.2H475.2z"/>
	<path d="M303.1,148.2c9.8,0,13,5.8,13.4,11h-4.1c-0.5-5.3-4.1-8.2-9.4-8.2c-6,0-10.1,4.6-10.1,13.4s4.1,13.4,10.1,13.4
		c5.3,0,8.9-2.9,9.4-8.2h4.1c-0.5,5.3-3.6,11-13.4,11c-9.6,0-14.4-6.7-14.4-16.3S293.5,148.2,303.1,148.2z"/>
	<path d="M328.5,164.5c0-9.4,5.3-16.3,15.1-16.3s15.1,7,15.1,16.3c0,9.4-5.3,16.3-15.1,16.3S328.5,173.9,328.5,164.5z M343.6,178
		c6,0,10.8-4.3,10.8-13.4c0-9.1-4.8-13.4-10.8-13.4c-6,0-10.8,4.3-10.8,13.4C332.8,173.6,337.6,178,343.6,178z"/>
	<path d="M361.6,180.1v-31.2h21.6v3.1h-17.5v28.1H361.6z"/>
	<path d="M385.6,180.1v-31.2h14.2c5.5,0,10.1,2.6,10.1,8.6c0,6-4.6,8.6-10.1,8.6h-10.1v13.9H385.6z M389.7,163.1h9.8
		c3.4,0,6-1.7,6-5.5c0-3.8-2.6-5.5-6-5.5h-9.8V163.1z"/>
	<path d="M412,164.5c0-9.4,5.3-16.3,15.1-16.3s15.1,7,15.1,16.3c0,9.4-5.3,16.3-15.1,16.3S412,173.9,412,164.5z M427.1,178
		c6,0,10.8-4.3,10.8-13.4c0-9.1-4.8-13.4-10.8-13.4c-6,0-10.8,4.3-10.8,13.4C416.3,173.6,421.1,178,427.1,178z"/>
	<path d="M445.1,148.9h6.2l10.1,26.4l10.1-26.4h6.2v31.2h-4.1v-26.9l-10.3,26.9h-3.8l-10.3-26.9v26.9h-4.1V148.9z"/>
	<path d="M485.2,148.9v13.7H502v-13.7h4.1v31.2H502v-14.4h-16.8v14.4h-4.1v-31.2H485.2z"/>
	<path d="M509,164.5c0-9.4,5.3-16.3,15.1-16.3s15.1,7,15.1,16.3c0,9.4-5.3,16.3-15.1,16.3S509,173.9,509,164.5z M524.1,178
		c6,0,10.8-4.3,10.8-13.4c0-9.1-4.8-13.4-10.8-13.4c-6,0-10.8,4.3-10.8,13.4C513.3,173.6,518.1,178,524.1,178z"/>
	<path d="M542.1,180.1v-31.2h4.1v25.9l17-25.9h4.3v31.2h-4.1v-25.9l-17,25.9H542.1z M550.7,142.9c0,1.9,1,3.6,4.1,3.6
		s4.1-1.7,4.1-3.6h3.8c0,2.2-1.2,6-7.9,6s-7.9-3.8-7.9-6H550.7z"/>
	<path d="M584.6,148.9v25.9l17-25.9h4.3v31.2h-4.1v-25.9l-17,25.9h-4.3v-31.2H584.6z"/>
	<path d="M623.2,148.2c9.8,0,13,5.8,13.4,11h-4.1c-0.5-5.3-4.1-8.2-9.4-8.2c-6,0-10.1,4.6-10.1,13.4s4.1,13.4,10.1,13.4
		c5.3,0,8.9-2.9,9.4-8.2h4.1c-0.5,5.3-3.6,11-13.4,11c-9.6,0-14.4-6.7-14.4-16.3S613.6,148.2,623.2,148.2z"/>
	<path d="M638.6,152v-3.1h26.2v3.1h-11v28.1h-4.1V152H638.6z"/>
	<path d="M666.7,164.5c0-9.4,5.3-16.3,15.1-16.3s15.1,7,15.1,16.3c0,9.4-5.3,16.3-15.1,16.3S666.7,173.9,666.7,164.5z M681.8,178
		c6,0,10.8-4.3,10.8-13.4c0-9.1-4.8-13.4-10.8-13.4c-6,0-10.8,4.3-10.8,13.4C671,173.6,675.8,178,681.8,178z"/>
	<path d="M699.8,180.1v-31.2h14.2c5.5,0,10.1,2.6,10.1,8.6c0,6-4.6,8.6-10.1,8.6h-10.1v13.9H699.8z M703.9,163.1h9.8
		c3.4,0,6-1.7,6-5.5c0-3.8-2.6-5.5-6-5.5h-9.8V163.1z"/>
	<path d="M730.7,148.9v25.9l17-25.9h4.3v31.2H748v-25.9l-17,25.9h-4.3v-31.2H730.7z"/>
	<path d="M755.5,148.9h23v3.1h-19v10.6h15.6v3.1h-15.6V177h19v3.1h-23V148.9z"/>
	<path d="M781.4,180.1v-31.2h4.1v25.9l17-25.9h4.3v31.2h-4.1v-25.9l-17,25.9H781.4z M790,142.9c0,1.9,1,3.6,4.1,3.6s4.1-1.7,4.1-3.6
		h3.8c0,2.2-1.2,6-7.9,6s-7.9-3.8-7.9-6H790z"/>
	<path d="M1401.7,56.3l-13.4,22.2l28-13.4l3.7,2.2L1404,94l-3.5-2.1l13.4-22.2l-28,13.4l-3.7-2.2l16.1-26.7L1401.7,56.3z"/>
	<path d="M1422.9,69l5.3,3.2l-5,27.8l22.2-17.4l5.3,3.2l-16.1,26.7l-3.5-2.1l13.8-23l-22.7,17.7l-3.3-2l5-28.4l-13.8,23l-3.5-2.1
		L1422.9,69z"/>
	<path d="M1453.8,87.5l19.8,11.9l-1.6,2.7l-16.3-9.8l-5.4,9.1l13.4,8l-1.6,2.7l-13.4-8l-5.8,9.7l16.3,9.8l-1.6,2.7l-19.8-11.9
		L1453.8,87.5z"/>
	<path d="M1476,100.9l19.8,11.9l-1.6,2.7l-16.3-9.8l-5.4,9.1l13.4,8l-1.6,2.7l-13.4-8l-5.8,9.7l16.3,9.8l-1.6,2.7l-19.8-11.9
		L1476,100.9z"/>
	<path d="M1495.8,116.4l1.6-2.7l22.4,13.5l-1.6,2.7l-9.5-5.7l-14.5,24.1l-3.5-2.1l14.5-24.1L1495.8,116.4z"/>
	<path d="M1180.1,149.4l1.8,13.6l16.7-2.2l-1.8-13.6l4-0.5l4.1,30.9l-4,0.5l-1.9-14.3l-16.7,2.2l1.9,14.3l-4,0.5L1176,150
		L1180.1,149.4z"/>
	<path d="M1204.1,146.2l22.8-3l0.4,3.1l-18.8,2.5l1.4,10.5l15.5-2.1l0.4,3.1l-15.5,2.1l1.5,11.2l18.8-2.5l0.4,3.1l-22.8,3
		L1204.1,146.2z"/>
	<path d="M1231.4,158.3c-1.2-9.3,3.1-16.9,12.8-18.2c9.8-1.3,15.9,4.9,17.1,14.2c1.2,9.3-3.1,16.9-12.8,18.2
		C1238.8,173.8,1232.6,167.6,1231.4,158.3z M1248.1,169.7c5.9-0.8,10.1-5.7,8.9-14.8c-1.2-9-6.5-12.7-12.5-11.9
		c-5.9,0.8-10.1,5.7-8.9,14.8C1236.9,166.8,1242.2,170.5,1248.1,169.7z"/>
	<path d="M1262.1,138.5l23.1-3.1l0.4,3.1l-19,2.5l1.4,10.5l10.7-1.4c5.5-0.7,10.1,1.1,10.9,7.3c0.8,6.2-3.1,9.4-8.6,10.1l-14.8,2
		L1262.1,138.5z M1280.4,164.4c3.3-0.4,5.5-2.7,4.9-6.5c-0.5-3.6-3.1-5.2-6.4-4.7l-10.5,1.4l1.5,11.2L1280.4,164.4z"/>
	<path d="M1293.8,134.3l1.8,13.6l9-1.2c5.5-0.7,10.1,1.1,10.9,7.3c0.8,6.2-3.1,9.4-8.6,10.1l-13.1,1.7l-4.1-30.9L1293.8,134.3z
		 M1306.3,160.9c3.3-0.4,5.5-2.7,4.9-6.5c-0.5-3.6-3.1-5.2-6.4-4.7l-8.8,1.2l1.5,11.2L1306.3,160.9z M1319.5,130.9l4.1,30.9l-4,0.5
		l-4.1-30.9L1319.5,130.9z"/>
	<path d="M1326.4,129.9l1.2,8.8c0.6,4.8,2.7,7.9,9.2,7c4.8-0.6,7.3-3.4,7-5.3l-1.7-12.6l4-0.5l4.1,30.9l-4,0.5l-1.9-14.5
		c0,0-2.4,3.9-8.3,4.7c-7.6,1-11.5-2.6-12.3-8.8l-1.3-9.8L1326.4,129.9z"/>
	<path d="M1353.5,126.3l1.8,13.6l16.7-2.2l-1.8-13.6l4-0.5l4.1,30.9l-4,0.5l-1.9-14.3l-16.7,2.2l1.9,14.3l-4,0.5l-4.1-30.9
		L1353.5,126.3z"/>
	<path d="M1381.6,122.6l1.8,13.6l9-1.2c5.5-0.7,10.1,1.1,10.9,7.3c0.8,6.2-3.1,9.4-8.6,10.1l-13.1,1.7l-4.1-30.9L1381.6,122.6z
		 M1394.1,149.2c3.3-0.4,5.5-2.7,4.9-6.5c-0.5-3.6-3.1-5.2-6.4-4.7l-8.8,1.2l1.5,11.2L1394.1,149.2z M1407.3,119.2l4.1,30.9l-4,0.5
		l-4.1-30.9L1407.3,119.2z"/>
	<path d="M1410.6,118.7l22.8-3l0.4,3.1l-18.8,2.5l1.4,10.5l15.5-2.1l0.4,3.1l-15.5,2.1l1.5,11.2l18.8-2.5l0.4,3.1l-22.8,3
		L1410.6,118.7z"/>
	<path d="M1435.3,149l10.6,19.7l9.1-19.7h4.6l-12,25.2c-2.4,5.1-5,6.2-8.2,6.2c-1.4,0-2.9-0.2-2.9-0.2v-3.5c0,0,1,0.1,2.4,0.1
		c1.7,0,3.4-0.2,5-3.8l-13.2-24H1435.3z"/>
	<path d="M1464.6,170.9c0,4.3,2.9,7.2,8.4,7.2c5.8,0,8.4-2.9,8.4-6.5c0-4.6-3.6-5.8-7.9-5.8h-5.3v-3.1h5.3c4.6,0,7.2-2.4,7.2-6
		c0-2.6-1.9-5.5-7.7-5.5c-6.2,0-7.9,3.6-7.9,6.5h-4.1c0-4.3,3.4-9.4,12-9.4s11.8,4.3,11.8,8.4c0,6.2-6,7.2-6,7.2v0.2
		c0,0,7,0.5,7,7.4c0,5.5-5,9.4-12.7,9.4c-7.9,0-12.5-3.8-12.5-10.1H1464.6z"/>
	<path d="M1487.9,164.6c0-9.4,5.3-16.3,15.1-16.3s15.1,7,15.1,16.3c0,9.4-5.3,16.3-15.1,16.3S1487.9,174,1487.9,164.6z M1503,178.1
		c6,0,10.8-4.3,10.8-13.4c0-9.1-4.8-13.4-10.8-13.4c-6,0-10.8,4.3-10.8,13.4C1492.2,173.7,1497,178.1,1503,178.1z"/>
	<path d="M1521,180.2V149h14.2c5.5,0,10.1,2.6,10.1,8.6c0,6-4.6,8.6-10.1,8.6h-10.1v13.9H1521z M1525.1,163.2h9.8c3.4,0,6-1.7,6-5.5
		c0-3.8-2.6-5.5-6-5.5h-9.8V163.2z"/>
	<path d="M1552,149v13.7h9.1c5.5,0,9.8,2.4,9.8,8.6s-4.3,8.9-9.8,8.9h-13.2V149H1552z M1560.8,177.1c3.4,0,5.8-1.9,5.8-5.8
		c0-3.6-2.4-5.5-5.8-5.5h-8.9v11.3H1560.8z M1577.9,149v31.2h-4.1V149H1577.9z"/>
</g>
<g id="Layer_2">
</g>
</svg>
