<?xml version="1.0" encoding="utf-8"?>
<!-- Generator: Adobe Illustrator 25.0.1, SVG Export Plug-In . SVG Version: 6.00 Build 0)  -->
<svg version="1.1" xmlns="http://www.w3.org/2000/svg" xmlns:xlink="http://www.w3.org/1999/xlink" x="0px" y="0px"
	 viewBox="0 0 1920 192" style="enable-background:new 0 0 1920 192;" xml:space="preserve">
<g id="Layer_1">
	<g>
		<path d="M72.8,169.3l-9.3-29.8l3.9-1.2l4.8,15.3l9.6-19.9l4.4-1.4L78.5,148l17.7,14l-4.7,1.5l-14.7-12l-3.3,6.6l3.2,10.1
			L72.8,169.3z"/>
		<path d="M93,130.2l4.1,13.1l16-5l-4.1-13.1l3.9-1.2l9.3,29.8l-3.9,1.2l-4.3-13.7l-16,5l4.3,13.7l-3.9,1.2l-9.3-29.8L93,130.2z"/>
		<path d="M120,121.8l7.7,24.7l8.5-29.8l4.1-1.3l9.3,29.8l-3.9,1.2l-7.7-24.7l-8.5,29.8l-4.1,1.3l-9.3-29.8L120,121.8z"/>
		<path d="M152.9,144.2l-9.3-29.8l20.6-6.5l0.9,3l-16.7,5.2l8.4,26.8L152.9,144.2z"/>
		<path d="M176.6,104l4.6-1.4l20.8,26.2l-4.1,1.3l-5.5-7.1l-13.3,4.2l-0.5,8.9l-4.1,1.3L176.6,104z M190.3,120.4l-10.2-13.2
			l-0.9,16.7L190.3,120.4z"/>
		<path d="M181.3,169l-3.1-31l4.1-0.4l1.6,16l13.4-17.5l4.6-0.5l-10.7,13.7l14.5,17.3l-4.9,0.5l-11.9-14.8l-4.5,5.8l1.1,10.5
			L181.3,169z"/>
		<path d="M206,150.9c-0.9-9.3,3.6-16.8,13.4-17.7s15.7,5.4,16.7,14.7c0.9,9.3-3.6,16.8-13.4,17.7
			C212.9,166.6,206.9,160.2,206,150.9z M222.4,162.8c6-0.6,10.3-5.4,9.4-14.5c-0.9-9.1-6.1-12.9-12.1-12.3c-6,0.6-10.3,5.4-9.4,14.5
			C211.2,159.5,216.4,163.4,222.4,162.8z"/>
		<path d="M236.8,135.3l-0.3-3.1l26-2.6l0.3,3.1l-11,1.1l2.8,27.9l-4.1,0.4l-2.8-27.9L236.8,135.3z"/>
		<path d="M265.9,144.9c-0.9-9.3,3.6-16.8,13.4-17.7s15.7,5.4,16.7,14.7c0.9,9.3-3.6,16.8-13.4,17.7
			C272.8,160.6,266.9,154.2,265.9,144.9z M282.3,156.8c6-0.6,10.3-5.4,9.4-14.5c-0.9-9.1-6.1-12.9-12.1-12.3
			c-6,0.6-10.3,5.4-9.4,14.5C271.1,153.5,276.4,157.4,282.3,156.8z"/>
		<path d="M300.4,157.1l-3.1-31l14.1-1.4c5.5-0.6,10.3,1.6,10.9,7.6c0.6,6-3.7,9.1-9.2,9.6l-10,1l1.4,13.9L300.4,157.1z
			 M302.8,139.7l9.8-1c3.3-0.3,5.8-2.3,5.4-6.1c-0.4-3.8-3.2-5.2-6.5-4.9l-9.8,1L302.8,139.7z"/>
		<path d="M327.2,123.1l12.5,18.5l7.1-20.5l4.5-0.5l-9.4,26.3c-1.9,5.3-4.4,6.7-7.5,7c-1.4,0.1-2.9,0-2.9,0l-0.3-3.5
			c0,0,1,0,2.4-0.1c1.7-0.2,3.3-0.5,4.6-4.3l-15.5-22.6L327.2,123.1z"/>
		<path d="M353.2,120.5l4.1-0.4l1.4,13.6l5.1-0.5c-0.2-8,3.8-14.9,12.8-15.8c9.8-1,15.1,6,16,14.8c0.9,8.8-2.9,16.7-12.7,17.7
			c-9.4,0.9-14.6-5.3-15.8-13.6l-5,0.5l1.4,14.3l-4.1,0.4L353.2,120.5z M368.1,134.6c0.9,8.6,5.4,13,11.4,12.4
			c6-0.6,9.6-5.8,8.7-14.4s-5.4-13-11.4-12.4C370.9,120.9,367.3,126,368.1,134.6z"/>
		<path d="M406,153.8l-1-10.3l1-0.1c3.3-0.3,5.6-6.6,4.2-21.2l-0.7-7.4l20.1-2l2.8,27.9l4.3-0.4l1,10.3l-4.1,0.4l-0.7-7.2l-23.4,2.3
			l0.7,7.2L406,153.8z M428.1,141.2l-2.5-24.8l-12.2,1.2l0.5,4.8c1.1,11.1,0.1,18.1-2.5,20.5L428.1,141.2z"/>
		<path d="M436.9,127.8c-0.9-9.3,3.6-16.8,13.4-17.7c9.8-1,15.7,5.4,16.7,14.7c0.9,9.3-3.6,16.8-13.4,17.7
			C443.8,143.5,437.9,137.1,436.9,127.8z M453.3,139.6c6-0.6,10.3-5.4,9.4-14.5c-0.9-9.1-6.1-12.9-12.1-12.3
			c-6,0.6-10.3,5.4-9.4,14.5C442.1,136.4,447.3,140.2,453.3,139.6z"/>
		<path d="M469.7,136.7c0,0,0.5,0.1,1.2,0c3.3-0.3,5.7-3.1,4.2-18.6l-1-9.8l20.3-2l3.1,31l-4.1,0.4l-2.8-27.9l-12.4,1.2l0.7,7.2
			c1.6,15.8-0.8,21.3-6.7,21.9c-1.2,0.1-2.2,0-2.2,0L469.7,136.7z"/>
		<path d="M499.8,137.1l12.4-17.9l-15.6-13.2l4.8-0.5l14.3,12.6l-1.4-13.9l4.1-0.4l1.4,13.9l11.5-15.1l4.8-0.5l-12.6,16l15.7,15.1
			l-5.3,0.5l-14-14l1.5,15.3l-4.1,0.4l-1.5-15.3l-10.9,16.5L499.8,137.1z"/>
		<path d="M538.5,101.9l22.9-2.3l0.3,3.1l-18.9,1.9l1.1,10.5l15.5-1.6l0.3,3.1l-15.5,1.6l1.1,11.2l18.9-1.9l0.3,3.1l-22.9,2.3
			L538.5,101.9z"/>
		<path d="M568.4,98.9l1.4,13.6l16.7-1.7l-1.4-13.6l4.1-0.4l3.1,31l-4.1,0.4l-1.4-14.3l-16.7,1.7l1.4,14.3l-4.1,0.4l-3.1-31
			L568.4,98.9z"/>
		<path d="M542,135.4l24.8-2.5l3.1,31l-4.1,0.4l-2.8-27.9l-16.7,1.7l2.8,27.9l-4.1,0.4L542,135.4z"/>
		<path d="M573.3,163.6l-3.1-31l14.1-1.4c5.5-0.6,10.3,1.6,10.9,7.6c0.6,6-3.7,9.1-9.2,9.6l-10,1l1.4,13.9L573.3,163.6z
			 M575.7,146.3l9.8-1c3.3-0.3,5.8-2.3,5.4-6.1c-0.4-3.8-3.2-5.2-6.5-4.9l-9.8,1L575.7,146.3z"/>
		<path d="M598,145.5c-0.9-9.3,3.6-16.8,13.4-17.8c9.8-1,15.7,5.4,16.7,14.7c0.9,9.3-3.6,16.8-13.4,17.8
			C604.9,161.2,599,154.8,598,145.5z M614.4,157.3c6-0.6,10.3-5.4,9.4-14.5c-0.9-9.1-6.1-12.9-12.1-12.3c-6,0.6-10.3,5.4-9.4,14.5
			C603.2,154.1,608.4,157.9,614.4,157.3z"/>
		<path d="M633,126.3l0.9,8.8c0.5,4.8,2.5,8,8.9,7.3c4.8-0.5,7.4-3.2,7.2-5.1l-1.3-12.7l4.1-0.4l3.1,31l-4.1,0.4l-1.5-14.6
			c0,0-2.5,3.9-8.5,4.5c-7.6,0.8-11.4-3-12-9.2l-1-9.8L633,126.3z"/>
		<path d="M660.2,123.6l2.6,25.8l14.4-27.5l4.3-0.4l3.1,31l-4.1,0.4l-2.6-25.8l-14.4,27.5l-4.3,0.4l-3.1-31L660.2,123.6z"/>
		<path d="M684.2,124.3l-0.3-3.1l26-2.6l0.3,3.1l-11,1.1l2.8,27.9l-4.1,0.4l-2.8-27.9L684.2,124.3z"/>
		<path d="M722.8,117.3l4.8-0.5l15.1,29.8l-4.3,0.4l-3.9-8l-13.9,1.4l-2.3,8.7l-4.3,0.4L722.8,117.3z M732.9,136l-7.3-15l-4.2,16.2
			L732.9,136z"/>
		<path d="M740.8,118.6l-0.3-3.1l26-2.6l0.3,3.1l-11,1.1l2.8,27.9l-4.1,0.4l-2.8-27.9L740.8,118.6z"/>
		<path d="M772,143.7l-3.1-31l4.1-0.4l1.4,13.6l10.3-1c5.5-0.6,10,1.4,10.7,7.6c0.6,6.2-3.4,9.3-8.9,9.8L772,143.7z M785.8,139.2
			c3.3-0.3,5.5-2.5,5.2-6.3c-0.4-3.6-2.9-5.3-6.3-4.9l-10,1l1.1,11.2L785.8,139.2z"/>
		<path d="M808.8,140l-3.1-31l4.1-0.4l1.6,16l13.4-17.5l4.6-0.5l-10.7,13.7l14.5,17.3l-4.9,0.5l-12-14.8l-4.5,5.8l1.1,10.5
			L808.8,140z"/>
		<path d="M842.9,105.2l4.8-0.5l15.1,29.8l-4.3,0.4l-3.9-8l-13.9,1.4l-2.3,8.7l-4.3,0.4L842.9,105.2z M853,124l-7.3-15l-4.2,16.2
			L853,124z"/>
		<path d="M863.7,134.5l12.4-17.9l-15.6-13.2l4.8-0.5l14.3,12.6l-1.4-13.9l4.1-0.4l1.4,13.9l11.5-15.1l4.8-0.5l-12.6,16l15.7,15.1
			l-5.3,0.5l-14-14l1.5,15.3l-4.1,0.4l-1.5-15.3l-10.9,16.5L863.7,134.5z"/>
		<path d="M905,137.6l-1-10.3l1-0.1c3.3-0.3,5.6-6.6,4.1-21.2l-0.7-7.4l20.1-2l2.8,27.9l4.3-0.4l1,10.3l-4.1,0.4l-0.7-7.2l-23.4,2.4
			l0.7,7.2L905,137.6z M927.1,125l-2.5-24.8l-12.2,1.2l0.5,4.8c1.1,11.1,0.1,18.1-2.5,20.5L927.1,125z"/>
		<path d="M938.9,95.6l1.4,13.6l9.1-0.9c5.5-0.6,10,1.4,10.7,7.6c0.6,6.2-3.4,9.3-8.9,9.8L938,127l-3.1-31L938.9,95.6z M950.5,122.6
			c3.3-0.3,5.5-2.5,5.2-6.3c-0.4-3.6-2.9-5.3-6.3-4.9l-8.8,0.9l1.1,11.2L950.5,122.6z M964.7,93l3.1,31l-4.1,0.4l-3.1-31L964.7,93z"
			/>
		<path d="M971.1,123.7l-3.1-31l4.1-0.4l2.6,25.8L989,90.5l4.3-0.4l3.1,31l-4.1,0.4l-2.6-25.8l-14.4,27.5L971.1,123.7z M976,85.8
			c0.2,1.9,1.3,3.5,4.4,3.2c3.1-0.3,3.9-2.1,3.7-4l3.8-0.4c0.2,2.1-0.6,6.1-7.3,6.8c-6.7,0.7-8.3-3-8.5-5.2L976,85.8z"/>
		<path d="M947.2,134.3c9.6-2.2,13.9,2.7,15.6,7.7l-4,0.9c-1.7-5-5.8-7-11-5.8c-5.8,1.4-8.8,6.7-6.8,15.4c2,8.7,7,12.2,12.8,10.8
			c5.1-1.2,8-4.8,7.3-10.1l4-0.9c0.7,5.3-1,11.6-10.6,13.8c-9.4,2.2-15.5-3.3-17.7-12.7C934.6,144.1,937.8,136.5,947.2,134.3z"/>
		<path d="M973.5,129l4.7-1.1l18.7,27.7l-4.2,1l-4.9-7.5l-13.6,3.1l-1.1,8.9l-4.2,1L973.5,129z M985.9,146.3l-9.2-13.9l-2.1,16.6
			L985.9,146.3z"/>
		<path d="M991.7,124.8l6.1-1.4l15.8,23.5l3.9-28l6.1-1.4l7,30.4l-4,0.9l-6.1-26.2l-4,28.5l-3.7,0.9l-16.1-23.9l6.1,26.2l-4,0.9
			L991.7,124.8z"/>
		<path d="M1030.8,115.7l3.1,13.3l8.9-2.1c5.4-1.2,10.1,0.1,11.5,6.2s-2.2,9.6-7.6,10.9l-12.9,3l-7-30.4L1030.8,115.7z
			 M1045.8,141.1c3.3-0.8,5.2-3.2,4.3-6.9c-0.8-3.5-3.6-4.8-6.9-4.1l-8.7,2l2.5,11L1045.8,141.1z M1056,109.9l7,30.4l-4,0.9l-7-30.4
			L1056,109.9z"/>
		<path d="M1059.3,109.2l22.4-5.2l0.7,3l-18.5,4.3l2.4,10.3l15.2-3.5l0.7,3l-15.2,3.5l2.5,11l18.5-4.3l0.7,3l-22.4,5.2L1059.3,109.2
			z"/>
		<path d="M1093.9,101.2l6.1-1.4l15.8,23.5l3.9-28l6.1-1.4l7,30.4l-4,0.9l-6.1-26.2l-4,28.5l-3.7,0.9l-16.1-23.9l6.1,26.2l-4,0.9
			L1093.9,101.2z"/>
		<path d="M1132,92.3l14.8,16.8l4.4-21.2l4.4-1l-6,27.3c-1.2,5.5-3.5,7.2-6.5,7.9c-1.4,0.3-2.9,0.4-2.9,0.4l-0.8-3.4
			c0,0,1-0.1,2.4-0.4c1.6-0.4,3.2-0.9,4-4.9l-18.3-20.4L1132,92.3z"/>
		<path d="M1165,124.1l-2.3-10.1l0.9-0.2c3.3-0.8,4.7-7.3,1.4-21.5l-1.7-7.3l19.6-4.5l6.3,27.4l4.2-1l2.3,10.1l-4,0.9l-1.6-7
			l-22.9,5.3l1.6,7L1165,124.1z M1185.4,108.8l-5.6-24.3l-11.9,2.8l1.1,4.7c2.5,10.9,2.4,17.9,0.1,20.7L1185.4,108.8z"/>
		<path d="M1196.4,109.5l-7-30.4l13.8-3.2c5.4-1.2,10.4,0.3,11.8,6.1c1.4,5.8-2.5,9.4-7.9,10.7l-9.8,2.3l3.1,13.6L1196.4,109.5z
			 M1196.5,92l9.6-2.2c3.3-0.8,5.5-3,4.6-6.7c-0.9-3.7-3.8-4.8-7.1-4l-9.6,2.2L1196.5,92z"/>
		<path d="M1219.5,72.1l3.1,13.3l8.9-2.1c5.4-1.2,10.1,0.1,11.5,6.2s-2.2,9.6-7.6,10.9l-12.9,3l-7-30.4L1219.5,72.1z M1234.5,97.5
			c3.3-0.8,5.2-3.2,4.3-6.9c-0.8-3.5-3.6-4.8-6.9-4.1l-8.7,2l2.5,11L1234.5,97.5z M1244.8,66.3l7,30.4l-4,0.9l-7-30.4L1244.8,66.3z"
			/>
		<path d="M1248,65.5l22.5-5.2l0.7,3l-18.5,4.3l2.4,10.3l15.2-3.5l0.7,3l-15.2,3.5l2.5,11l18.5-4.3l0.7,3l-22.5,5.2L1248,65.5z"/>
		<path d="M1282.6,57.5l6.1-1.4l15.8,23.5l3.9-28l6.1-1.4l7,30.4l-4,0.9l-6.1-26.2l-4,28.5l-3.7,0.9l-16.1-23.9l6.1,26.2l-4,0.9
			L1282.6,57.5z"/>
		<path d="M1321.7,48.5l3.1,13.3l8.9-2.1c5.4-1.2,10.1,0.1,11.5,6.2s-2.2,9.6-7.6,10.9l-12.9,3l-7-30.4L1321.7,48.5z M1336.7,73.9
			c3.3-0.8,5.2-3.2,4.3-6.9c-0.8-3.5-3.6-4.8-6.9-4.1l-8.7,2l2.5,11L1336.7,73.9z M1346.9,42.7l7,30.4l-4,0.9l-7-30.4L1346.9,42.7z"
			/>
		<path d="M1363.6,38.1c9.6-2.2,13.9,2.7,15.6,7.7l-4,0.9c-1.7-5-5.8-7-11-5.8c-5.8,1.4-8.8,6.7-6.8,15.4s7,12.2,12.8,10.8
			c5.1-1.2,8-4.8,7.3-10.1l4-0.9c0.7,5.3-1,11.6-10.6,13.8c-9.4,2.2-15.5-3.3-17.7-12.7C1351.1,47.9,1354.3,40.2,1363.6,38.1z"/>
		<path d="M1384.5,62.5c0,0,0.5,0,1.2-0.1c3.3-0.8,5.3-3.8,1.8-19l-2.2-9.6l19.9-4.6l7,30.4l-4,0.9l-6.3-27.4l-12.2,2.8l1.6,7
			c3.6,15.4,1.9,21.2-3.9,22.6c-1.2,0.3-2.2,0.3-2.2,0.3L1384.5,62.5z"/>
		<path d="M1412.4,27.5l5.8,25.3l10.8-29.1l4.2-1l7,30.4l-4,0.9l-5.8-25.3l-10.8,29.1l-4.2,1l-7-30.4L1412.4,27.5z"/>
		<path d="M1160.3,136l7.2,24.9l9.2-29.6l4.2-1.2l8.6,30l-3.9,1.1l-7.2-24.9l-9.2,29.6l-4.2,1.2l-8.6-30L1160.3,136z"/>
		<path d="M1197.1,141.6c-2.6-9,0.6-17.1,10-19.9s16.5,2.5,19,11.5c2.6,9-0.6,17.1-10,19.9S1199.7,150.6,1197.1,141.6z
			 M1215.4,150.4c5.8-1.7,9.2-7.1,6.7-15.9c-2.5-8.8-8.3-11.6-14.1-9.9c-5.8,1.7-9.2,7.1-6.7,15.9
			C1203.8,149.2,1209.6,152,1215.4,150.4z"/>
		<path d="M1224.6,120.7l-0.9-3l25.1-7.2l0.9,3l-10.6,3.1l7.8,27l-3.9,1.1l-7.8-27L1224.6,120.7z"/>
		<path d="M1259.8,139.8l-8.6-30l13.6-3.9c5.5-1.6,10.1-0.6,11.6,4.9c1.6,5.5-3.2,8.1-3.2,8.1l0.1,0.2c0,0,6.3-0.6,8.1,5.4
			c1.7,6-1.8,9.5-8,11.3L1259.8,139.8z M1256,111.7l2.9,10.1l9.7-2.8c3.2-0.9,5.1-3.2,4-6.9c-1-3.5-3.7-4.2-6.9-3.3L1256,111.7z
			 M1272.6,132.9c3.7-1.1,5.8-3.4,4.7-7.1c-1.1-3.7-4.4-4.7-7.8-3.7l-9.7,2.8l3.1,10.8L1272.6,132.9z"/>
		<path d="M1277.7,102.2l22.1-6.4l0.9,3l-18.2,5.2l2.9,10.1l15-4.3l0.9,3l-15,4.3l3.1,10.8l18.2-5.2l0.9,3l-22.1,6.4L1277.7,102.2z"
			/>
		<path d="M1302.6,98.3l-0.9-3l25.1-7.2l0.9,3l-10.6,3.1l7.8,27l-3.9,1.1l-7.8-27L1302.6,98.3z"/>
		<path d="M1333.1,86.3l3.8,13.1l8.8-2.5c5.3-1.5,10.1-0.4,11.8,5.6s-1.7,9.7-7,11.3l-12.7,3.6l-8.6-30L1333.1,86.3z M1349.4,110.8
			c3.2-0.9,5-3.4,3.9-7.1c-1-3.5-3.8-4.6-7.1-3.7l-8.5,2.5l3.1,10.8L1349.4,110.8z M1358,79.1l8.6,30l-3.9,1.1l-8.6-30L1358,79.1z"
			/>
		<path d="M1374.4,74.4l3.8,13.1l16.1-4.6l-3.8-13.1l3.9-1.1l8.6,30l-3.9,1.1l-4-13.8l-16.1,4.6l4,13.8l-3.9,1.1l-8.6-30
			L1374.4,74.4z"/>
		<path d="M1407.8,64.8l4.6-1.3l20.2,26.7l-4.2,1.2l-5.3-7.2l-13.4,3.8l-0.7,8.9l-4.2,1.2L1407.8,64.8z M1421.1,81.4l-9.9-13.4
			l-1.3,16.6L1421.1,81.4z"/>
		<path d="M1443.6,86.9l-8.6-30l13.6-3.9c5.5-1.6,10.1-0.6,11.6,4.9s-3.2,8.1-3.2,8.1l0.1,0.2c0,0,6.3-0.6,8.1,5.4s-1.8,9.5-8,11.3
			L1443.6,86.9z M1439.8,58.8l2.9,10.1l9.7-2.8c3.2-0.9,5.1-3.2,4-6.9c-1-3.5-3.7-4.2-6.9-3.3L1439.8,58.8z M1456.4,80
			c3.7-1.1,5.8-3.4,4.7-7.1c-1.1-3.7-4.4-4.7-7.8-3.7l-9.7,2.8l3.1,10.8L1456.4,80z"/>
		<path d="M1474.7,44.8c9.5-2.7,14,2,16,6.9l-3.9,1.1c-1.9-4.9-6.2-6.7-11.3-5.3c-5.8,1.7-8.4,7.2-6,15.7s7.6,11.8,13.4,10.1
			c5.1-1.5,7.7-5.2,6.7-10.4l3.9-1.1c1,5.2-0.4,11.6-9.9,14.3c-9.2,2.7-15.7-2.5-18.4-11.7S1465.5,47.4,1474.7,44.8z"/>
		<path d="M1490.6,41l22.1-6.4l0.9,3l-18.2,5.2l2.9,10.1l15-4.3l0.9,3l-15,4.3l3.1,10.8l18.2-5.2l0.9,3l-22.1,6.4L1490.6,41z"/>
		<path d="M1287,167.2l-6.9-30.4l13.8-3.1c5.6-1.3,10.1-0.1,11.3,5.6c1.3,5.6-3.6,8-3.6,8l0.1,0.2c0,0,6.4-0.2,7.7,5.9
			c1.4,6.1-2.3,9.4-8.6,10.8L1287,167.2z M1284.8,138.9l2.3,10.3l9.8-2.2c3.3-0.7,5.2-2.9,4.4-6.7c-0.8-3.5-3.5-4.4-6.7-3.6
			L1284.8,138.9z M1300.1,161.1c3.7-0.8,6-3.1,5.1-6.8c-0.8-3.7-4.1-5-7.6-4.2l-9.8,2.2l2.5,11L1300.1,161.1z"/>
		<path d="M1310,146c-2.1-9.1,1.6-17.1,11.2-19.3c9.6-2.2,16.3,3.5,18.3,12.6c2.1,9.1-1.6,17.1-11.2,19.3
			C1318.8,160.8,1312.1,155.2,1310,146z M1327.7,155.8c5.9-1.3,9.6-6.6,7.6-15.5c-2-8.9-7.6-12.1-13.5-10.7
			c-5.9,1.3-9.6,6.6-7.6,15.5C1316.2,154,1321.9,157.1,1327.7,155.8z"/>
		<path d="M1338.9,123.5l24.3-5.5l6.9,30.4l-4,0.9l-6.2-27.4l-16.4,3.7l6.2,27.4l-4,0.9L1338.9,123.5z"/>
		<path d="M1373.4,147.7l-6.9-30.4l13.8-3.1c5.4-1.2,10.4,0.4,11.7,6.2c1.3,5.9-2.5,9.4-7.9,10.6l-9.8,2.2l3.1,13.6L1373.4,147.7z
			 M1373.6,130.2l9.6-2.2c3.3-0.7,5.5-3,4.6-6.7c-0.8-3.7-3.8-4.8-7.1-4.1l-9.6,2.2L1373.6,130.2z"/>
		<path d="M1395.7,126.7c-2.1-9.1,1.6-17.1,11.2-19.3c9.6-2.2,16.3,3.5,18.3,12.6c2.1,9.1-1.6,17.1-11.2,19.3
			C1404.4,141.4,1397.8,135.8,1395.7,126.7z M1413.4,136.4c5.9-1.3,9.6-6.6,7.6-15.5c-2-8.9-7.6-12.1-13.5-10.7
			c-5.9,1.3-9.6,6.6-7.6,15.5C1401.9,134.6,1407.6,137.8,1413.4,136.4z"/>
		<path d="M1438,100.4c9.6-2.2,13.9,2.8,15.5,7.8l-4,0.9c-1.6-5-5.8-7.1-10.9-5.9c-5.9,1.3-8.8,6.7-6.9,15.3s6.9,12.2,12.8,10.9
			c5.2-1.2,8-4.8,7.3-10l4-0.9c0.7,5.3-1.1,11.6-10.7,13.7c-9.4,2.1-15.5-3.4-17.6-12.7C1425.4,110.1,1428.6,102.5,1438,100.4z"/>
		<path d="M1458,96.6l3,13.3l8.9-2c5.4-1.2,10.1,0.2,11.5,6.3c1.4,6.1-2.3,9.6-7.6,10.8l-12.9,2.9l-6.9-30.4L1458,96.6z M1472.9,122
			c3.3-0.7,5.2-3.1,4.3-6.9c-0.8-3.5-3.6-4.9-6.8-4.1l-8.7,2l2.5,11L1472.9,122z M1483.3,90.9l6.9,30.4l-4,0.9l-6.9-30.4
			L1483.3,90.9z"/>
		<path d="M1433.3,135.9c9.8,0,13,5.8,13.4,11h-4.1c-0.5-5.3-4.1-8.2-9.4-8.2c-6,0-10.1,4.6-10.1,13.4s4.1,13.4,10.1,13.4
			c5.3,0,8.9-2.9,9.4-8.2h4.1c-0.5,5.3-3.6,11-13.4,11c-9.6,0-14.4-6.7-14.4-16.3S1423.7,135.9,1433.3,135.9z"/>
		<path d="M1449.6,167.8v-31.2h4.1v16.1l15.1-16.1h4.7l-12,12.6l12.7,18.6h-4.9l-10.4-15.9l-5.1,5.3v10.6H1449.6z"/>
		<path d="M1476.5,167.8v-31.2h14.2c5.5,0,10.1,2.6,10.1,8.6c0,6-4.6,8.6-10.1,8.6h-10.1v13.9H1476.5z M1480.6,150.8h9.8
			c3.4,0,6-1.7,6-5.5c0-3.8-2.6-5.5-6-5.5h-9.8V150.8z"/>
		<path d="M1507.5,136.6v13.7h9.1c5.5,0,9.8,2.4,9.8,8.6s-4.3,8.9-9.8,8.9h-13.2v-31.2H1507.5z M1516.4,164.7c3.4,0,5.8-1.9,5.8-5.8
			c0-3.6-2.4-5.5-5.8-5.5h-8.9v11.3H1516.4z M1533.4,136.6v31.2h-4.1v-31.2H1533.4z"/>
		<path d="M1535.8,139.7v-3.1h26.2v3.1h-11v28.1h-4.1v-28.1H1535.8z"/>
		<path d="M1568.4,136.6v13.7h9.1c5.5,0,9.8,2.4,9.8,8.6s-4.3,8.9-9.8,8.9h-13.2v-31.2H1568.4z M1577.3,164.7c3.4,0,5.8-1.9,5.8-5.8
			c0-3.6-2.4-5.5-5.8-5.5h-8.9v11.3H1577.3z M1594.4,136.6v31.2h-4.1v-31.2H1594.4z"/>
		<path d="M1777.1,139.5v-3.1h26.2v3.1h-11v28.1h-4.1v-28.1H1777.1z"/>
		<path d="M1808.8,136.4l10.6,19.7l9.1-19.7h4.6l-12,25.2c-2.4,5.1-5,6.2-8.2,6.2c-1.4,0-2.9-0.2-2.9-0.2v-3.5c0,0,1,0.1,2.4,0.1
			c1.7,0,3.4-0.2,5-3.8l-13.2-24H1808.8z"/>
		<path d="M1834,139.5v-3.1h26.2v3.1h-11v28.1h-4.1v-28.1H1834z"/>
	</g>
</g>
<g id="Layer_2">
</g>
</svg>
