<?xml version="1.0" encoding="utf-8"?>
<!-- Generator: Adobe Illustrator 25.0.1, SVG Export Plug-In . SVG Version: 6.00 Build 0)  -->
<svg version="1.1" xmlns="http://www.w3.org/2000/svg" xmlns:xlink="http://www.w3.org/1999/xlink" x="0px" y="0px"
	 viewBox="0 0 1920 192" style="enable-background:new 0 0 1920 192;" xml:space="preserve">
<g id="Layer_1">
	<path d="M370.3,154.9v-3.1h26.2v3.1h-11V183h-4.1v-28.1H370.3z"/>
	<path d="M409.4,151.8h4.8l12,31.2h-4.3l-3.1-8.4h-13.9l-3.1,8.4h-4.3L409.4,151.8z M417.7,171.4l-5.8-15.6l-5.8,15.6H417.7z"/>
	<path d="M428.2,183v-31.2h14.2c5.5,0,10.1,2.6,10.1,8.6s-4.6,8.6-10.1,8.6h-10.1V183H428.2z M432.2,165.9h9.8c3.4,0,6-1.7,6-5.5
		s-2.6-5.5-6-5.5h-9.8V165.9z"/>
	<path d="M455,151.8h23v3.1h-19v10.6h15.6v3.1h-15.6v11.3h19v3.1h-23V151.8z"/>
	<path d="M479.5,179.5c0,0,0.5,0.1,1.2,0.1c3.4,0,6-2.5,6-18.1v-9.8h20.4V183H503v-28.1h-12.5v7.2c0,15.8-2.9,21.1-8.9,21.1
		c-1.2,0-2.2-0.2-2.2-0.2V179.5z"/>
	<path d="M510.5,183v-31.2h4.1v16.1l15.1-16.1h4.7l-12,12.6L535,183h-4.9l-10.4-15.9l-5.1,5.3V183H510.5z"/>
	<path d="M547.9,151.8h4.8l12,31.2h-4.3l-3.1-8.4h-13.9l-3.1,8.4h-4.3L547.9,151.8z M556.1,171.4l-5.8-15.6l-5.8,15.6H556.1z"/>
	<path d="M590.2,151c9.8,0,13,5.8,13.4,11h-4.1c-0.5-5.3-4.1-8.2-9.4-8.2c-6,0-10.1,4.6-10.1,13.4c0,8.9,4.1,13.4,10.1,13.4
		c5.3,0,8.9-2.9,9.4-8.2h4.1c-0.5,5.3-3.6,11-13.4,11c-9.6,0-14.4-6.7-14.4-16.3C575.8,157.8,580.6,151,590.2,151z"/>
	<path d="M616.1,183v-31.2h14.2c5.5,0,10.1,2.6,10.1,8.6s-4.6,8.6-10.1,8.6h-10.1V183H616.1z M620.2,165.9h9.8c3.4,0,6-1.7,6-5.5
		s-2.6-5.5-6-5.5h-9.8V165.9z"/>
	<path d="M642.5,167.4c0-9.4,5.3-16.3,15.1-16.3s15.1,7,15.1,16.3s-5.3,16.3-15.1,16.3S642.5,176.7,642.5,167.4z M657.6,180.8
		c6,0,10.8-4.3,10.8-13.4c0-9.1-4.8-13.4-10.8-13.4c-6,0-10.8,4.3-10.8,13.4C646.8,176.5,651.6,180.8,657.6,180.8z"/>
	<path d="M689.5,151c9.8,0,13,5.8,13.4,11h-4.1c-0.5-5.3-4.1-8.2-9.4-8.2c-6,0-10.1,4.6-10.1,13.4c0,8.9,4.1,13.4,10.1,13.4
		c5.3,0,8.9-2.9,9.4-8.2h4.1c-0.5,5.3-3.6,11-13.4,11c-9.6,0-14.4-6.7-14.4-16.3C675.1,157.8,679.9,151,689.5,151z"/>
	<path d="M705.8,151.8h25V183h-4.1v-28.1h-16.8V183h-4.1V151.8z"/>
	<path d="M734.2,183v-31.2h4.1v13.7h10.3c5.5,0,9.8,2.4,9.8,8.6c0,6.2-4.3,8.9-9.8,8.9H734.2z M748.3,179.8c3.4,0,5.8-1.9,5.8-5.8
		c0-3.6-2.4-5.5-5.8-5.5h-10.1v11.3H748.3z"/>
	<path d="M761.5,151.8h4.1v13.7h5.1c0.6-8,5.2-14.4,14.4-14.4c9.8,0,14.4,7.4,14.4,16.3c0,8.9-4.6,16.3-14.4,16.3
		c-9.4,0-14-6.8-14.4-15.1h-5V183h-4.1V151.8z M775,167.4c0,8.6,4.1,13.4,10.1,13.4c6,0,10.1-4.8,10.1-13.4
		c0-8.6-4.1-13.4-10.1-13.4C779,153.9,775,158.7,775,167.4z"/>
	<path d="M1343,143.2l4.5-1.6l21.8,25.3l-4.1,1.5l-5.8-6.9l-13.1,4.7l-0.1,9l-4.1,1.5L1343,143.2z M1357.4,158.9l-10.8-12.8
		l-0.2,16.7L1357.4,158.9z"/>
	<path d="M1365.3,151.8c-2.4-6.6,0.4-12.4,9.4-15.6l-1.4-3.8l3.8-1.4l1.4,3.8c9-3.2,14.9-0.5,17.2,6.1c2.4,6.6-0.4,12.4-9.4,15.6
		l1.4,3.8l-3.8,1.4l-1.4-3.8C1373.4,161.1,1367.6,158.3,1365.3,151.8z M1369.3,150.3c2.1,5.9,6.5,6.6,12.1,4.6l-5.7-15.8
		C1370.1,141.1,1367.2,144.5,1369.3,150.3z M1385.3,153.5c5.6-2,8.5-5.4,6.4-11.2c-2.1-5.9-6.5-6.6-12.1-4.6L1385.3,153.5z"/>
	<path d="M1403.5,154.6l-10.5-29.4l13.3-4.8c5.2-1.9,10.4-0.9,12.4,4.7c2,5.6-1.4,9.7-6.6,11.5l-9.5,3.4l4.7,13.1L1403.5,154.6z
		 M1401.6,137.2l9.3-3.3c3.2-1.1,5.1-3.6,3.8-7.2s-4.4-4.3-7.5-3.2l-9.3,3.3L1401.6,137.2z"/>
	<path d="M1422.1,114.8l8.8,24.4l7.3-30.2l4.1-1.5l10.5,29.4l-3.8,1.4l-8.8-24.4l-7.3,30.2l-4.1,1.5l-10.5-29.4L1422.1,114.8z"/>
	<path d="M1455.9,135.8l-10.5-29.4l3.8-1.4l5.4,15.1l8.8-20.2l4.4-1.6l-7.1,15.9l18.2,13.2l-4.6,1.7l-15.2-11.4l-3,6.7l3.6,9.9
		L1455.9,135.8z"/>
	<path d="M1480.6,93.8l4.5-1.6l21.8,25.3l-4.1,1.5l-5.8-6.9l-13.1,4.7l-0.1,9l-4.1,1.5L1480.6,93.8z M1495,109.5l-10.8-12.8
		l-0.2,16.7L1495,109.5z"/>
	<path d="M1502.1,86.1l4.6,12.9l15.8-5.7l-4.6-12.9l3.8-1.4l10.5,29.4l-3.8,1.4l-4.9-13.6l-15.8,5.7l4.9,13.6l-3.8,1.4l-10.5-29.4
		L1502.1,86.1z"/>
	<path d="M1537.7,72.5c9.3-3.3,14.1,1,16.4,5.8l-3.8,1.4c-2.2-4.8-6.6-6.3-11.6-4.5c-5.6,2-7.9,7.7-4.9,16.1c3,8.4,8.4,11.3,14,9.2
		c5-1.8,7.4-5.7,6.1-10.8l3.8-1.4c1.3,5.1,0.3,11.6-8.9,14.9c-9,3.2-15.8-1.5-19.1-10.5C1526.4,83.7,1528.7,75.7,1537.7,72.5z"/>
	<path d="M1563.9,97l-10.5-29.4l3.8-1.4l5.4,15.1l8.8-20.2l4.4-1.6l-7.1,15.9l18.2,13.2l-4.6,1.7L1567.1,79l-3,6.7l3.6,9.9
		L1563.9,97z"/>
	<path d="M1582.5,57.2l8.8,24.4l7.3-30.2l4.1-1.5l10.5,29.4l-3.8,1.4l-8.8-24.4l-7.3,30.2l-4.1,1.5l-10.5-29.4L1582.5,57.2z"/>
	<path d="M1621.4,59.3L1605.3,49l4.7-1.7l12.6,8.7l4.2-14.7l4.7-1.7l-5.9,18.2l16.9,11l-4.7,1.7l-13.3-9.2l-4.4,15.5l-4.7,1.7
		L1621.4,59.3z"/>
	<path d="M1647,68.3l22.1,11.6l-14.5,27.6l-3.6-1.9l13.1-24.8l-14.9-7.8l-13.1,24.8l-3.6-1.9L1647,68.3z"/>
	<path d="M1657.9,105.4c0,0,0.4,0.4,1,0.7c3,1.6,6.5,0.6,13.7-13.2l4.6-8.7l18.1,9.5l-14.5,27.6l-3.6-1.9l13.1-24.8l-11-5.8
		l-3.4,6.4c-7.4,14-12.4,17.3-17.7,14.5c-1.1-0.6-1.8-1.2-1.8-1.2L1657.9,105.4z"/>
	<path d="M1698.2,95.2l20.4,10.7l-1.5,2.8l-16.8-8.8l-4.9,9.3l13.8,7.3l-1.5,2.8L1694,112l-5.3,10l16.8,8.8l-1.5,2.8l-20.4-10.7
		L1698.2,95.2z"/>
	<path d="M1721.1,107.3l5.5,2.9l-3.4,28.1l21.2-18.7l5.5,2.9l-14.5,27.6l-3.6-1.9l12.5-23.8l-21.7,19l-3.4-1.8l3.4-28.6l-12.5,23.8
		l-3.6-1.9L1721.1,107.3z"/>
	<path d="M1753,124.1l20.4,10.7l-1.5,2.8l-16.8-8.8l-4.9,9.3l13.8,7.3l-1.5,2.8l-13.8-7.3l-5.3,10l16.8,8.8l-1.5,2.8l-20.4-10.7
		L1753,124.1z"/>
	<path d="M1779.5,138.1l-6.4,12.1l14.9,7.8l6.4-12.1l3.6,1.9l-14.5,27.6l-3.6-1.9l6.7-12.7l-14.9-7.8l-6.7,12.7l-3.6-1.9l14.5-27.6
		L1779.5,138.1z"/>
	<path d="M58.9,52.5l28.5-12.8l8.9,19.7l-2.8,1.3l-7.2-16L60.5,56.2L58.9,52.5z"/>
	<path d="M71.2,71.6c0,0,0.1,0.5,0.4,1.2c1.4,3.1,4.7,4.4,19-2l9-4l8.4,18.6L79.5,98.2l-1.7-3.7L103.4,83l-5.1-11.4l-6.6,3
		c-14.4,6.5-20.4,6-22.9,0.6C68.3,74,68.1,73,68.1,73L71.2,71.6z"/>
	<path d="M111,92.2l-23.6,10.6l30.6,4.9l1.8,3.9l-28.5,12.8l-1.7-3.7l23.6-10.6l-30.6-4.9l-1.8-3.9l28.5-12.8L111,92.2z"/>
	<path d="M122.8,118.4l-12.5,5.6l6.9,15.3l12.5-5.6l1.7,3.7l-28.5,12.8l-1.7-3.7l13.1-5.9l-6.9-15.3l-13.1,5.9l-1.7-3.7l28.5-12.8
		L122.8,118.4z"/>
	<path d="M137.1,150.2l2,4.4l-23.5,23.8l-1.8-3.9l6.4-6.3l-5.7-12.7l-8.9,0.6l-1.8-3.9L137.1,150.2z M122.5,165.7l11.9-11.7
		l-16.7,1.1L122.5,165.7z"/>
	<path d="M110.1,80.9l12.3-20.6l-4.9-2.9l1.1-1.9l0.2,0.1c4.1,2.5,7.1,1.2,8.8-0.6l2.1,1.2l-16,26.8L110.1,80.9z"/>
	<path d="M123.4,72.3c5.8-9.7,12.8-13,20.4-8.5c7.2,4.3,7.2,10.4,5.1,13.9l-3.5-2.1c1.5-2.5,1.5-6.7-3.1-9.4
		c-5.1-3-10.4-0.3-14.6,6.1l0.2,0.1c0,0,5.1-2.9,10.8,0.6c6.4,3.8,7.9,10.3,4.8,15.4c-3.4,5.8-10.5,6.9-16.5,3.3
		C120.3,87.8,118.1,81.1,123.4,72.3z M125.3,77.9c-2.8,4.7-0.7,9.1,3,11.3s8.6,2,11.4-2.7s0.7-9.1-3-11.3
		C133,73,128.2,73.2,125.3,77.9z"/>
	<path d="M144.1,91.9l1.4-2.3l24.4-9.5l4.1,2.5l-10.3,17.3l4.7,2.8l-1.6,2.7l-4.7-2.8l-4.1,6.8l-3.5-2.1l4.1-6.8L144.1,91.9z
		 M149.3,91.3l10.8,6.5l8.3-13.9L149.3,91.3z"/>
	<path d="M195.2,111.7c-5.8,9.7-12.8,13-20.4,8.5c-7.2-4.3-7.2-10.4-5.1-13.9l3.5,2.1c-1.5,2.5-1.5,6.7,3.1,9.4
		c5.1,3,10.4,0.3,14.6-6.1l-0.2-0.1c0,0-5.1,2.9-10.8-0.6c-6.4-3.8-7.9-10.3-4.8-15.4c3.4-5.8,10.5-6.9,16.5-3.3
		C198.2,96.2,200.4,102.8,195.2,111.7z M193.2,106.1c2.8-4.7,0.7-9.1-3-11.3c-3.7-2.2-8.6-2-11.4,2.7c-2.8,4.7-0.7,9.1,3,11.3
		S190.4,110.8,193.2,106.1z"/>
	<path d="M197.1,132.7l16-26.8l18.6,11.1l-1.6,2.7l-15.1-9l-14.4,24.1L197.1,132.7z"/>
	<path d="M225.3,131.4c4.8-8,12.9-11.3,21.3-6.3s9.4,13.7,4.6,21.8c-4.8,8-12.9,11.3-21.3,6.3C221.5,148.1,220.5,139.4,225.3,131.4z
		 M231.4,150.6c5.2,3.1,11.5,1.8,16.2-6c4.7-7.8,2.8-14-2.4-17.1c-5.2-3.1-11.5-1.8-16.2,6C224.4,141.4,226.3,147.6,231.4,150.6z"/>
	<path d="M241.1,167.3l5.3-8.9l0.8,0.5c2.9,1.7,8.4-2,15.9-14.5l3.8-6.4l17.3,10.3l-14.4,24.1l3.7,2.2l-5.3,8.9l-3.5-2.1l3.7-6.2
		l-20.2-12l-3.7,6.2L241.1,167.3z M266.4,170.3l12.8-21.4l-10.5-6.3l-2.5,4.1c-5.7,9.6-10.7,14.6-14.2,15L266.4,170.3z"/>
</g>
<g id="Layer_2">
</g>
</svg>
