<?xml version="1.0" encoding="utf-8"?>
<!-- Generator: Adobe Illustrator 25.0.1, SVG Export Plug-In . SVG Version: 6.00 Build 0)  -->
<svg version="1.1" xmlns="http://www.w3.org/2000/svg" xmlns:xlink="http://www.w3.org/1999/xlink" x="0px" y="0px"
	 viewBox="0 0 1920 192" style="enable-background:new 0 0 1920 192;" xml:space="preserve">
<g id="Layer_1">
	<path d="M479.6,28.9l21.4,8.5l-1.1,2.9l-17.6-7l-3.9,9.8l14.5,5.7l-1.1,2.9L477.2,46l-4.2,10.5l17.6,7l-1.1,2.9l-21.4-8.5
		L479.6,28.9z"/>
	<path d="M492.2,67.5l11.5-29l13.2,5.2c5.4,2.1,8.4,5.6,6.2,11c-2.1,5.4-7.5,4.5-7.5,4.5l-0.1,0.2c0,0,5.4,3.4,3.1,9.2
		c-2.3,5.8-7.2,6.4-13.2,4.1L492.2,67.5z M506.4,42.9l-3.9,9.8l9.4,3.7c3.1,1.2,6,0.6,7.4-3c1.3-3.3-0.4-5.6-3.5-6.8L506.4,42.9z
		 M506.5,69.8c3.6,1.4,6.6,0.8,8.1-2.7s-0.6-6.4-3.9-7.7l-9.4-3.7l-4.2,10.5L506.5,69.8z"/>
	<path d="M517.9,77.6l11.5-29l13.2,5.2c5.1,2,8.4,6.2,6.2,11.7c-2.2,5.6-7.4,6.4-12.6,4.3l-9.4-3.7l-5.1,12.9L517.9,77.6z
		 M527.9,63.3l9.1,3.6c3.1,1.2,6.2,0.6,7.6-2.9c1.4-3.6-0.4-6.1-3.5-7.3L532,53L527.9,63.3z"/>
	<path d="M554.4,58.5l21.4,8.5l-1.1,2.9l-17.6-7l-3.9,9.8l14.5,5.7l-1.1,2.9L552,75.6l-4.2,10.5l17.6,7l-1.1,2.9l-21.4-8.5
		L554.4,58.5z"/>
	<path d="M567,97.1l11.5-29l3.8,1.5l-9.5,24.1l25.4-17.8l4,1.6l-11.5,29l-3.8-1.5l9.5-24.1L571,98.7L567,97.1z M588.7,65.7
		c-0.7,1.8-0.4,3.7,2.5,4.8c2.9,1.1,4.4-0.1,5.1-1.8l3.6,1.4c-0.8,2-3.3,5.1-9.6,2.7c-6.2-2.5-6-6.5-5.2-8.5L588.7,65.7z"/>
	<path d="M618.4,83.1c9.1,3.6,9.9,10.1,8.4,15.2l-3.8-1.5c1.5-5.1-0.8-9.1-5.7-11c-5.6-2.2-11.1,0.5-14.3,8.8
		c-3.3,8.3-1.2,14,4.4,16.2c4.9,1.9,9.3,0.6,11.7-4.1l3.8,1.5c-2.4,4.7-7.4,8.9-16.6,5.3c-8.9-3.5-10.9-11.5-7.4-20.5
		C602.6,84.1,609.5,79.6,618.4,83.1z"/>
	<path d="M621.9,118.8l11.5-29l3.8,1.5l-5.9,15l20-9.4l4.3,1.7l-15.8,7.3l4.9,22l-4.6-1.8l-3.8-18.6l-6.7,3.1l-3.9,9.8L621.9,118.8z
		"/>
	<path d="M662.1,101.2l-9.5,24.1l25.4-17.8l4,1.6l-11.5,29l-3.8-1.5l9.5-24.1l-25.4,17.8l-4-1.6l11.5-29L662.1,101.2z"/>
	<path d="M673.6,139.3l11.5-29l3.8,1.5l-9.5,24.1l25.4-17.8l4,1.6l-11.5,29l-3.8-1.5L703,123l-25.4,17.8L673.6,139.3z M695.4,107.9
		c-0.7,1.8-0.4,3.7,2.5,4.8c2.9,1.1,4.4-0.1,5.1-1.8l3.6,1.4c-0.8,2-3.3,5.1-9.6,2.7s-6-6.5-5.2-8.5L695.4,107.9z"/>
	<path d="M328.6,149.8l24.8-2.9l3.6,31l-4.1,0.5l-3.3-27.9l-16.7,2l3.3,27.9l-4.1,0.5L328.6,149.8z"/>
	<path d="M358,162c-1.1-9.3,3.3-16.8,13.1-18s15.8,5.2,16.9,14.4c1.1,9.3-3.3,16.8-13.1,18S359.1,171.3,358,162z M374.6,173.6
		c6-0.7,10.2-5.5,9.2-14.6c-1.1-9.1-6.3-12.8-12.3-12.1c-6,0.7-10.2,5.5-9.2,14.6C363.4,170.6,368.7,174.3,374.6,173.6z"/>
	<path d="M392.4,181l-1.2-10.3l1-0.1c3.3-0.4,5.5-6.7,3.8-21.2l-0.9-7.4l20-2.3l3.3,27.9l4.3-0.5l1.2,10.3l-4.1,0.5l-0.8-7.2
		l-23.4,2.7l0.8,7.2L392.4,181z M414.3,168l-2.9-24.8l-12.2,1.4l0.6,4.8c1.3,11.1,0.4,18.1-2.2,20.6L414.3,168z"/>
	<path d="M435.3,136.5c9.8-1.1,13.5,4.2,14.6,9.4l-4.1,0.5c-1.1-5.2-5-7.6-10.2-7c-6,0.7-9.5,5.7-8.4,14.5c1,8.8,5.6,12.9,11.6,12.2
		c5.2-0.6,8.5-3.9,8.3-9.2l4.1-0.5c0.1,5.3-2.3,11.4-12.1,12.5c-9.5,1.1-15.1-5-16.2-14.5C421.8,144.9,425.7,137.7,435.3,136.5z"/>
	<path d="M455.2,166.4l-3.6-31l14.1-1.6c5.7-0.7,10,1,10.7,6.7c0.7,5.7-4.4,7.5-4.4,7.5l0,0.2c0,0,6.3,0.5,7.1,6.7
		c0.7,6.2-3.3,9.1-9.7,9.8L455.2,166.4z M456,138l1.2,10.5l10-1.2c3.3-0.4,5.5-2.3,5.1-6.2c-0.4-3.6-3-4.7-6.3-4.3L456,138z
		 M468.9,161.6c3.8-0.4,6.2-2.4,5.8-6.2s-3.5-5.4-7.1-5l-10,1.2l1.3,11.2L468.9,161.6z"/>
	<path d="M479,132.1l22.9-2.7l0.4,3.1l-18.8,2.2l1.2,10.5l15.5-1.8l0.4,3.1l-15.5,1.8l1.3,11.2l18.8-2.2l0.4,3.1l-22.9,2.7
		L479,132.1z"/>
	<path d="M508.3,128.7l1,8.8c0.6,4.8,2.6,7.9,9.1,7.2c4.8-0.6,7.3-3.3,7.1-5.2l-1.5-12.6l4.1-0.5l3.6,31l-4.1,0.5l-1.7-14.5
		c0,0-2.4,3.9-8.4,4.6c-7.6,0.9-11.4-2.8-12.2-9l-1.1-9.8L508.3,128.7z"/>
	<path d="M535.5,125.5l1.6,13.6l16.7-2l-1.6-13.6l4.1-0.5l3.6,31l-4.1,0.5l-1.7-14.3l-16.7,2l1.7,14.3l-4.1,0.5l-3.6-31L535.5,125.5
		z"/>
	<path d="M563.6,122.2l3,25.7l13.9-27.7l4.3-0.5l3.6,31l-4.1,0.5l-3-25.7l-13.9,27.7l-4.3,0.5l-3.6-31L563.6,122.2z"/>
	<path d="M591.8,150.3l-3.6-31l4.1-0.5l1.9,16l13.1-17.7l4.6-0.5l-10.5,13.9l14.8,17l-4.9,0.6L599,133.5l-4.4,5.9l1.2,10.5
		L591.8,150.3z"/>
	<path d="M591.5,151h6.2l10.1,26.4l10.1-26.4h6.2v31.2h-4.1v-26.9l-10.3,26.9h-3.8l-10.3-26.9v26.9h-4.1V151z"/>
	<path d="M627.5,151h23v3.1h-19v10.6h15.6v3.1h-15.6v11.3h19v3.1h-23V151z"/>
	<path d="M657.5,151v13.7h16.8V151h4.1v31.2h-4.1v-14.4h-16.8v14.4h-4.1V151H657.5z"/>
	<path d="M681.3,166.6c0-9.4,5.3-16.3,15.1-16.3s15.1,7,15.1,16.3s-5.3,16.3-15.1,16.3S681.3,175.9,681.3,166.6z M696.4,180
		c6,0,10.8-4.3,10.8-13.4c0-9.1-4.8-13.4-10.8-13.4c-6,0-10.8,4.3-10.8,13.4C685.6,175.7,690.4,180,696.4,180z"/>
	<path d="M714.4,182.2V151h14.2c5.5,0,10.1,2.6,10.1,8.6s-4.6,8.6-10.1,8.6h-10.1v13.9H714.4z M718.5,165.1h9.8c3.4,0,6-1.7,6-5.5
		s-2.6-5.5-6-5.5h-9.8V165.1z"/>
	<path d="M751.8,151h4.8l12,31.2h-4.3l-3.1-8.4h-13.9l-3.1,8.4h-4.3L751.8,151z M760.1,170.7l-5.8-15.6l-5.8,15.6H760.1z"/>
	<path d="M1146.8,72.8c-0.6,4.3,1.8,7.5,7.3,8.3c5.7,0.8,8.7-1.6,9.3-5.2c0.7-4.5-2.7-6.2-7-6.8l-5.2-0.8l0.5-3.1l5.2,0.8
		c4.5,0.7,7.5-1.3,8-4.9c0.4-2.6-1.1-5.7-6.8-6.6c-6.2-0.9-8.4,2.4-8.8,5.3l-4-0.6c0.6-4.3,4.7-8.8,13.2-7.5s11,6,10.4,10
		c-0.9,6.2-7,6.3-7,6.3l0,0.2c0,0,6.8,1.5,5.8,8.4c-0.8,5.5-6.3,8.5-13.9,7.4c-7.8-1.1-11.8-5.6-10.9-11.8L1146.8,72.8z"/>
	<path d="M1170.7,70c1.4-9.3,7.6-15.4,17.3-14c9.7,1.4,14,9.1,12.6,18.3s-7.6,15.4-17.3,14C1173.6,86.9,1169.3,79.2,1170.7,70z
		 M1183.7,85.5c5.9,0.9,11.3-2.7,12.6-11.7c1.3-9-2.8-14-8.7-14.9c-5.9-0.9-11.3,2.7-12.6,11.7C1173.7,79.6,1177.8,84.6,1183.7,85.5
		z"/>
	<path d="M1200.3,86.6c0,0,0.5,0.2,1.2,0.3c3.3,0.5,6.3-1.6,8.6-17l1.4-9.7l20.2,3l-4.5,30.9l-4-0.6l4.1-27.8l-12.3-1.8l-1,7.1
		c-2.3,15.7-5.9,20.5-11.8,19.6c-1.2-0.2-2.1-0.6-2.1-0.6L1200.3,86.6z"/>
	<path d="M1232.2,79c1.4-9.3,7.6-15.4,17.3-14c9.7,1.4,14,9.1,12.6,18.3s-7.6,15.4-17.3,14C1235.1,95.9,1230.9,88.2,1232.2,79z
		 M1245.2,94.5c5.9,0.9,11.3-2.7,12.6-11.7c1.3-9-2.8-14-8.7-14.9c-5.9-0.9-11.3,2.7-12.6,11.7C1235.2,88.6,1239.3,93.6,1245.2,94.5
		z"/>
	<path d="M1265.8,71.3l0.5-3.1l25.9,3.8l-0.5,3.1l-10.9-1.6l-4.1,27.8l-4-0.6l4.1-27.8L1265.8,71.3z"/>
	<path d="M1291.8,87.7c1.4-9.3,7.6-15.4,17.3-14c9.7,1.4,14,9.1,12.6,18.3s-7.6,15.4-17.3,14C1294.7,104.6,1290.5,97,1291.8,87.7z
		 M1304.8,103.2c5.9,0.9,11.3-2.7,12.6-11.7c1.3-9-2.8-14-8.7-14.9c-5.9-0.9-11.3,2.7-12.6,11.7
		C1294.8,97.3,1298.9,102.3,1304.8,103.2z"/>
	<path d="M1008.6,180.2l-13.2-28.3l3.7-1.7l6.8,14.6l6.9-21l4.2-2l-5.6,16.5l19.4,11.5l-4.4,2.1l-16.2-10l-2.3,7l4.5,9.6
		L1008.6,180.2z"/>
	<path d="M1032.9,168.8l-13.2-28.3l12.8-6c5-2.3,10.2-1.9,12.8,3.6c2.5,5.4-0.5,9.8-5.5,12.1l-9.1,4.3l5.9,12.6L1032.9,168.8z
		 M1029.4,151.6l8.9-4.2c3-1.4,4.7-4.1,3.1-7.5c-1.6-3.5-4.7-3.9-7.8-2.5l-8.9,4.2L1029.4,151.6z"/>
	<path d="M1053.6,124.6l4.3-2l24.1,23.2l-3.9,1.8l-6.4-6.3l-12.6,5.9l0.7,8.9l-3.9,1.8L1053.6,124.6z M1069.4,139l-11.9-11.7
		l1.4,16.6L1069.4,139z"/>
	<path d="M1083.8,145l-13.2-28.3l3.7-1.7l11,23.5l4.4-30.7l3.9-1.8l13.2,28.3l-3.7,1.7l-11-23.5l-4.4,30.7L1083.8,145z
		 M1075.8,107.6c0.8,1.7,2.4,2.9,5.2,1.5c2.8-1.3,3-3.3,2.2-5l3.5-1.6c0.9,2,1.5,5.9-4.6,8.8s-8.8-0.1-9.7-2.1L1075.8,107.6z"/>
	<path d="M1100.3,102.8l5.8,12.4l15.2-7.1l-5.8-12.4l3.7-1.7l13.2,28.3l-3.7,1.7l-6.1-13l-15.2,7.1l6.1,13l-3.7,1.7l-13.2-28.3
		L1100.3,102.8z"/>
	<path d="M1122.3,92.5l20.9-9.8l1.3,2.8l-17.2,8l4.5,9.6l14.1-6.6l1.3,2.8l-14.1,6.6l4.8,10.2l17.2-8l1.3,2.8l-20.9,9.8L1122.3,92.5
		z"/>
	<path d="M1149.9,144.2v-10.3h1c3.4,0,6.2-6,6.2-20.6v-7.4h20.2v28.1h4.3v10.3h-4.1V137H1154v7.2H1149.9z M1173.2,133.9v-25h-12.2
		v4.8c0,11.2-1.7,18-4.6,20.2H1173.2z"/>
	<path d="M1183.7,137v-31.2h14.2c5.5,0,10.1,2.6,10.1,8.6s-4.6,8.6-10.1,8.6h-10.1V137H1183.7z M1187.8,119.9h9.8c3.4,0,6-1.7,6-5.5
		s-2.6-5.5-6-5.5h-9.8V119.9z"/>
	<path d="M1210.6,105.8h23v3.1h-19v10.6h15.6v3.1h-15.6v11.3h19v3.1h-23V105.8z"/>
	<path d="M1236.5,137v-31.2h14.2c5.8,0,9.8,2.2,9.8,7.9c0,5.8-5.3,7-5.3,7v0.2c0,0,6.2,1.2,6.2,7.4c0,6.2-4.3,8.6-10.8,8.6H1236.5z
		 M1240.6,108.9v10.6h10.1c3.4,0,5.8-1.7,5.8-5.5c0-3.6-2.4-5-5.8-5H1240.6z M1250.7,133.9c3.8,0,6.5-1.7,6.5-5.5
		c0-3.8-2.9-5.8-6.5-5.8h-10.1v11.3H1250.7z"/>
	<path d="M1268.2,105.8v13.7h16.8v-13.7h4.1V137h-4.1v-14.4h-16.8V137h-4.1v-31.2H1268.2z"/>
	<path d="M1296.5,105.8v13.7h9.1c5.5,0,9.8,2.4,9.8,8.6c0,6.2-4.3,8.9-9.8,8.9h-13.2v-31.2H1296.5z M1305.4,133.9
		c3.4,0,5.8-1.9,5.8-5.8c0-3.6-2.4-5.5-5.8-5.5h-8.9v11.3H1305.4z M1322.5,105.8V137h-4.1v-31.2H1322.5z"/>
	<path d="M1325.8,137v-31.2h4.1v25.9l17-25.9h4.3V137h-4.1v-25.9l-17,25.9H1325.8z M1334.5,99.8c0,1.9,1,3.6,4.1,3.6
		s4.1-1.7,4.1-3.6h3.8c0,2.2-1.2,6-7.9,6s-7.9-3.8-7.9-6H1334.5z"/>
	<path d="M1139.3,145.4v25.9l17-25.9h4.3v31.2h-4.1v-25.9l-17,25.9h-4.3v-31.2H1139.3z"/>
	<path d="M1221.8,145.4h4.1v28.1h16.3v-28.1h4.1v28.1h4.3v10.3h-4.1v-7.2h-24.7V145.4z"/>
	<path d="M1252.7,145.4h23v3.1h-19v10.6h15.6v3.1h-15.6v11.3h19v3.1h-23V145.4z"/>
	<path d="M1282.7,145.4v13.7h16.8v-13.7h4.1v31.2h-4.1v-14.4h-16.8v14.4h-4.1v-31.2H1282.7z"/>
	<path d="M1311.1,145.4v13.7h16.8v-13.7h4.1v31.2h-4.1v-14.4h-16.8v14.4h-4.1v-31.2H1311.1z"/>
	<path d="M1339.4,145.4v13.7h9.1c5.5,0,9.8,2.4,9.8,8.6c0,6.2-4.3,8.9-9.8,8.9h-13.2v-31.2H1339.4z M1348.3,173.5
		c3.4,0,5.8-1.9,5.8-5.8c0-3.6-2.4-5.5-5.8-5.5h-8.9v11.3H1348.3z M1365.3,145.4v31.2h-4.1v-31.2H1365.3z"/>
	<path d="M1368.7,176.6v-31.2h4.1v25.9l17-25.9h4.3v31.2h-4.1v-25.9l-17,25.9H1368.7z M1377.3,139.4c0,1.9,1,3.6,4.1,3.6
		s4.1-1.7,4.1-3.6h3.8c0,2.2-1.2,6-7.9,6s-7.9-3.8-7.9-6H1377.3z"/>
	<path d="M1406.1,148.6v-3.1h26.2v3.1h-11v28.1h-4.1v-28.1H1406.1z"/>
	<path d="M1434.2,161c0-9.4,5.3-16.3,15.1-16.3s15.1,7,15.1,16.3s-5.3,16.3-15.1,16.3S1434.2,170.4,1434.2,161z M1449.3,174.5
		c6,0,10.8-4.3,10.8-13.4c0-9.1-4.8-13.4-10.8-13.4c-6,0-10.8,4.3-10.8,13.4C1438.5,170.2,1443.3,174.5,1449.3,174.5z"/>
	<path d="M1467.3,176.6v-31.2h14.2c5.8,0,9.8,2.2,9.8,7.9c0,5.8-5.3,7-5.3,7v0.2c0,0,6.2,1.2,6.2,7.4c0,6.2-4.3,8.6-10.8,8.6H1467.3
		z M1471.4,148.6v10.6h10.1c3.4,0,5.8-1.7,5.8-5.5c0-3.6-2.4-5-5.8-5H1471.4z M1481.5,173.5c3.8,0,6.5-1.7,6.5-5.5s-2.9-5.8-6.5-5.8
		h-10.1v11.3H1481.5z"/>
	<path d="M1505.5,145.4h4.8l12,31.2h-4.3l-3.1-8.4h-13.9l-3.1,8.4h-4.3L1505.5,145.4z M1513.7,165.1l-5.8-15.6l-5.8,15.6H1513.7z"/>
	<path d="M1524.2,176.6v-31.2h14.2c5.5,0,10.1,2.6,10.1,8.6s-4.6,8.6-10.1,8.6h-10.1v13.9H1524.2z M1528.3,159.6h9.8
		c3.4,0,6-1.7,6-5.5s-2.6-5.5-6-5.5h-9.8V159.6z"/>
</g>
<g id="Layer_2">
</g>
</svg>
