<?xml version="1.0" encoding="utf-8"?>
<!-- Generator: Adobe Illustrator 25.0.1, SVG Export Plug-In . SVG Version: 6.00 Build 0)  -->
<svg version="1.1" xmlns="http://www.w3.org/2000/svg" xmlns:xlink="http://www.w3.org/1999/xlink" x="0px" y="0px"
	 viewBox="0 0 1920 192" style="enable-background:new 0 0 1920 192;" xml:space="preserve">
<g id="Layer_1">
	<path d="M80.7,64.1c9.8,0,13,5.8,13.4,11h-4.1C89.6,69.9,86,67,80.7,67c-6,0-10.1,4.6-10.1,13.4s4.1,13.4,10.1,13.4
		c5.3,0,8.9-2.9,9.4-8.2h4.1c-0.5,5.3-3.6,11-13.4,11c-9.6,0-14.4-6.7-14.4-16.3S71.1,64.1,80.7,64.1z"/>
	<path d="M96.1,68v-3.1h26.2V68h-11v28.1h-4.1V68H96.1z"/>
	<path d="M135.2,64.9h4.8l12,31.2h-4.3l-3.1-8.4h-13.9l-3.1,8.4h-4.3L135.2,64.9z M143.4,84.5l-5.8-15.6l-5.8,15.6H143.4z"/>
	<path d="M153.9,96.1V64.9h14.2c5.5,0,10.1,2.6,10.1,8.6c0,6-4.6,8.6-10.1,8.6H158v13.9H153.9z M158,79h9.8c3.4,0,6-1.7,6-5.5
		c0-3.8-2.6-5.5-6-5.5H158V79z"/>
	<path d="M184.9,64.9v13.7h9.1c5.5,0,9.8,2.4,9.8,8.6s-4.3,8.9-9.8,8.9h-13.2V64.9H184.9z M193.8,92.9c3.4,0,5.8-1.9,5.8-5.8
		c0-3.6-2.4-5.5-5.8-5.5h-8.9v11.3H193.8z M210.8,64.9v31.2h-4.1V64.9H210.8z"/>
	<path d="M214.2,96.1V64.9h4.1v25.9l17-25.9h4.3v31.2h-4.1V70.1l-17,25.9H214.2z M222.8,58.9c0,1.9,1,3.6,4.1,3.6s4.1-1.7,4.1-3.6
		h3.8c0,2.2-1.2,6-7.9,6s-7.9-3.8-7.9-6H222.8z"/>
	<path d="M77.7,107.1V104h26.2v3.1h-11v28.1h-4.1v-28.1H77.7z"/>
	<path d="M105.1,135.2l9-14c-4.7-0.5-8.1-3-8.1-8.5c0-6.2,4.8-8.6,9.8-8.6h14.9v31.2h-4.1v-13.9h-8.3l-8.7,13.9H105.1z M116.1,118.1
		h10.6v-11h-10.6c-3.4,0-5.8,1.7-5.8,5.5C110.4,116.5,112.8,118.1,116.1,118.1z"/>
	<path d="M133.2,135.2l14.2-16.6L133.2,104h4.8l13,13.9V104h4.1v13.9l13-13.9h4.8l-14.2,14.6l14.2,16.6h-5.3L155,119.8v15.4h-4.1
		v-15.4l-12.5,15.4H133.2z"/>
	<path d="M175.2,104h23v3.1h-19v10.6h15.6v3.1h-15.6v11.3h19v3.1h-23V104z"/>
	<path d="M199.7,131.8c0,0,0.5,0.1,1.2,0.1c3.4,0,6-2.5,6-18.1V104h20.4v31.2h-4.1v-28.1h-12.5v7.2c0,15.8-2.9,21.1-8.9,21.1
		c-1.2,0-2.2-0.2-2.2-0.2V131.8z"/>
	<path d="M234.7,104v13.7h9.1c5.5,0,9.8,2.4,9.8,8.6c0,6.2-4.3,8.9-9.8,8.9h-13.2V104H234.7z M243.6,132.1c3.4,0,5.8-1.9,5.8-5.8
		c0-3.6-2.4-5.5-5.8-5.5h-8.9v11.3H243.6z M260.6,104v31.2h-4.1V104H260.6z"/>
	<path d="M264,135.2V104h4.1v25.9l17-25.9h4.3v31.2h-4.1v-25.9l-17,25.9H264z M272.6,98c0,1.9,1,3.6,4.1,3.6s4.1-1.7,4.1-3.6h3.8
		c0,2.2-1.2,6-7.9,6s-7.9-3.8-7.9-6H272.6z"/>
	<path d="M113.7,142.4c9.8,0,13,5.8,13.4,11h-4.1c-0.5-5.3-4.1-8.2-9.4-8.2c-6,0-10.1,4.6-10.1,13.4s4.1,13.4,10.1,13.4
		c5.3,0,8.9-2.9,9.4-8.2h4.1c-0.5,5.3-3.6,11-13.4,11c-9.6,0-14.4-6.7-14.4-16.3S104.1,142.4,113.7,142.4z"/>
	<path d="M133.2,143.1l10.6,19.7l9.1-19.7h4.6l-12,25.2c-2.4,5.1-5,6.2-8.2,6.2c-1.4,0-2.9-0.2-2.9-0.2v-3.5c0,0,1,0.1,2.4,0.1
		c1.7,0,3.4-0.2,5-3.8l-13.2-24H133.2z"/>
	<path d="M163.4,143.1v13.7h16.8v-13.7h4.1v31.2h-4.1v-14.4h-16.8v14.4h-4.1v-31.2H163.4z"/>
	<path d="M186.5,181.5v-10.3h1c3.4,0,6.2-6,6.2-20.6v-7.4h20.2v28.1h4.3v10.3h-4.1v-7.2h-23.5v7.2H186.5z M209.7,171.2v-25h-12.2
		v4.8c0,11.2-1.7,18-4.6,20.2H209.7z"/>
	<path d="M223.4,143.1l10.6,19.7l9.1-19.7h4.6l-12,25.2c-2.4,5.1-5,6.2-8.2,6.2c-1.4,0-2.9-0.2-2.9-0.2v-3.5c0,0,1,0.1,2.4,0.1
		c1.7,0,3.4-0.2,5-3.8l-13.2-24H223.4z"/>
	<path d="M249.6,174.3v-31.2h4.1v16.1l15.1-16.1h4.7l-12,12.6l12.7,18.6h-4.9l-10.4-15.9l-5.1,5.3v10.6H249.6z"/>
	<path d="M420.3,177.9v-31.2h14.2c5.8,0,9.8,2.2,9.8,7.9s-5.3,7-5.3,7v0.2c0,0,6.2,1.2,6.2,7.4s-4.3,8.6-10.8,8.6H420.3z
		 M424.4,149.8v10.6h10.1c3.4,0,5.8-1.7,5.8-5.5c0-3.6-2.4-5-5.8-5H424.4z M434.5,174.8c3.8,0,6.5-1.7,6.5-5.5
		c0-3.8-2.9-5.8-6.5-5.8h-10.1v11.3H434.5z"/>
	<path d="M447.4,162.3c0-9.4,5.3-16.3,15.1-16.3s15.1,7,15.1,16.3c0,9.4-5.3,16.3-15.1,16.3S447.4,171.7,447.4,162.3z M462.6,175.7
		c6,0,10.8-4.3,10.8-13.4c0-9.1-4.8-13.4-10.8-13.4c-6,0-10.8,4.3-10.8,13.4C451.8,171.4,456.6,175.7,462.6,175.7z"/>
	<path d="M483.7,168.5c0,4.3,2.9,7.2,8.4,7.2c5.8,0,8.4-2.9,8.4-6.5c0-4.6-3.6-5.8-7.9-5.8h-5.3v-3.1h5.3c4.6,0,7.2-2.4,7.2-6
		c0-2.6-1.9-5.5-7.7-5.5c-6.2,0-7.9,3.6-7.9,6.5h-4.1c0-4.3,3.4-9.4,12-9.4s11.8,4.3,11.8,8.4c0,6.2-6,7.2-6,7.2v0.2
		c0,0,7,0.5,7,7.4c0,5.5-5,9.4-12.7,9.4c-7.9,0-12.5-3.8-12.5-10.1H483.7z"/>
	<path d="M507.4,146.7h6.2l10.1,26.4l10.1-26.4h6.2v31.2H536V151l-10.3,26.9h-3.8L511.5,151v26.9h-4.1V146.7z"/>
	<path d="M543,162.3c0-9.4,5.3-16.3,15.1-16.3s15.1,7,15.1,16.3c0,9.4-5.3,16.3-15.1,16.3S543,171.7,543,162.3z M558.1,175.7
		c6,0,10.8-4.3,10.8-13.4c0-9.1-4.8-13.4-10.8-13.4c-6,0-10.8,4.3-10.8,13.4C547.3,171.4,552.1,175.7,558.1,175.7z"/>
	<path d="M575.1,177.9l14.2-16.6l-14.2-14.6h4.8l13,13.9v-13.9h4.1v13.9l13-13.9h4.8l-14.2,14.6l14.2,16.6h-5.3L597,162.5v15.4h-4.1
		v-15.4l-12.5,15.4H575.1z"/>
	<path d="M621.2,146.7v13.7H638v-13.7h4.1v31.2H638v-14.4h-16.8v14.4h-4.1v-31.2H621.2z"/>
	<path d="M645,162.3c0-9.4,5.3-16.3,15.1-16.3s15.1,7,15.1,16.3c0,9.4-5.3,16.3-15.1,16.3S645,171.7,645,162.3z M660.1,175.7
		c6,0,10.8-4.3,10.8-13.4c0-9.1-4.8-13.4-10.8-13.4c-6,0-10.8,4.3-10.8,13.4C649.3,171.4,654.1,175.7,660.1,175.7z"/>
	<path d="M738,169.5c-3.7-8.6-1.5-17.1,7.5-20.9c9.1-3.8,16.6,0.5,20.3,9.1c3.7,8.6,1.5,17.1-7.5,20.9
		C749.2,182.5,741.6,178.1,738,169.5z M757.1,176c5.5-2.3,8.3-8.2,4.7-16.6c-3.6-8.4-9.7-10.5-15.2-8.2c-5.5,2.3-8.3,8.2-4.7,16.6
		C745.5,176.2,751.6,178.3,757.1,176z"/>
	<path d="M766.1,140.6l5.3,12.6l15.5-6.6l-5.3-12.6l3.8-1.6l12.2,28.7l-3.8,1.6l-5.6-13.3l-15.5,6.6l5.6,13.3l-3.8,1.6l-12.2-28.7
		L766.1,140.6z"/>
	<path d="M797.6,130.6l-1.2-2.9l24.1-10.2l1.2,2.9l-10.2,4.3l11,25.9l-3.8,1.6l-11-25.9L797.6,130.6z"/>
	<path d="M832.4,112.5l4.4-1.9l23.2,24l-4,1.7l-6.2-6.5l-12.8,5.4l0.4,9l-4,1.7L832.4,112.5z M847.6,127.4l-11.5-12.1l0.8,16.7
		L847.6,127.4z"/>
	<path d="M853.4,103.6l10.1,23.9l5.6-30.5l4-1.7l12.2,28.7l-3.8,1.6l-10.1-23.9l-5.6,30.5l-4,1.7l-12.2-28.7L853.4,103.6z"/>
	<path d="M876.5,97.2l-1.2-2.9l24.1-10.2l1.2,2.9l-10.2,4.3l11,25.9l-3.8,1.6l-11-25.9L876.5,97.2z"/>
	<path d="M858.6,139.5v8.9c0,4.8,1.7,8.2,8.2,8.2c4.8,0,7.7-2.4,7.7-4.3v-12.7h4.1v31.2h-4.1v-14.6c0,0-2.9,3.6-8.9,3.6
		c-7.7,0-11-4.1-11-10.3v-9.8H858.6z"/>
	<path d="M880.9,142.6v-3.1h26.2v3.1h-11v28.1h-4.1v-28.1H880.9z"/>
	<path d="M909,155.1c0-9.4,5.3-16.3,15.1-16.3s15.1,7,15.1,16.3c0,9.4-5.3,16.3-15.1,16.3S909,164.5,909,155.1z M924.1,168.5
		c6,0,10.8-4.3,10.8-13.4c0-9.1-4.8-13.4-10.8-13.4c-6,0-10.8,4.3-10.8,13.4C913.3,164.2,918.1,168.5,924.1,168.5z"/>
	<path d="M959.6,156.5h-19.2v-2.9h19.2V156.5z"/>
	<path d="M960.3,142.6v-3.1h26.2v3.1h-11v28.1h-4.1v-28.1H960.3z"/>
	<path d="M988.4,155.1c0-9.4,5.3-16.3,15.1-16.3s15.1,7,15.1,16.3c0,9.4-5.3,16.3-15.1,16.3S988.4,164.5,988.4,155.1z M1003.5,168.5
		c6,0,10.8-4.3,10.8-13.4c0-9.1-4.8-13.4-10.8-13.4c-6,0-10.8,4.3-10.8,13.4C992.7,164.2,997.5,168.5,1003.5,168.5z"/>
	<path d="M1035.2,139.5v13.7h16.8v-13.7h4.1v31.2h-4.1v-14.4h-16.8v14.4h-4.1v-31.2H1035.2z"/>
	<path d="M1059.5,139.5h23v3.1h-19v10.6h15.6v3.1h-15.6v11.3h19v3.1h-23V139.5z"/>
	<path d="M1084.9,155.1c0-9.4,5.3-16.3,15.1-16.3s15.1,7,15.1,16.3c0,9.4-5.3,16.3-15.1,16.3S1084.9,164.5,1084.9,155.1z
		 M1100,168.5c6,0,10.8-4.3,10.8-13.4c0-9.1-4.8-13.4-10.8-13.4c-6,0-10.8,4.3-10.8,13.4C1089.2,164.2,1094,168.5,1100,168.5z"/>
	<path d="M1118,139.5h23.3v3.1h-19.2v10.6h10.8c5.5,0,9.8,2.4,9.8,8.6s-4.3,8.9-9.8,8.9H1118V139.5z M1132.7,167.6
		c3.4,0,5.8-1.9,5.8-5.8c0-3.6-2.4-5.5-5.8-5.5h-10.6v11.3H1132.7z"/>
	<path d="M1145.9,170.7v-31.2h14.2c5.5,0,10.1,2.6,10.1,8.6c0,6-4.6,8.6-10.1,8.6h-10.1v13.9H1145.9z M1149.9,153.7h9.8
		c3.4,0,6-1.7,6-5.5c0-3.8-2.6-5.5-6-5.5h-9.8V153.7z"/>
	<path d="M1183.3,139.5h4.8l12,31.2h-4.3l-3.1-8.4h-13.9l-3.1,8.4h-4.3L1183.3,139.5z M1191.5,159.2l-5.8-15.6l-5.8,15.6H1191.5z"/>
	<path d="M1205.1,161.3c0,4.3,2.9,7.2,8.4,7.2c5.8,0,8.4-2.9,8.4-6.5c0-4.6-3.6-5.8-7.9-5.8h-5.3v-3.1h5.3c4.6,0,7.2-2.4,7.2-6
		c0-2.6-1.9-5.5-7.7-5.5c-6.2,0-7.9,3.6-7.9,6.5h-4.1c0-4.3,3.4-9.4,12-9.4s11.8,4.3,11.8,8.4c0,6.2-6,7.2-6,7.2v0.2
		c0,0,7,0.5,7,7.4c0,5.5-5,9.4-12.7,9.4c-7.9,0-12.5-3.8-12.5-10.1H1205.1z"/>
	<path d="M1233,139.5v25.9l17-25.9h4.3v31.2h-4.1v-25.9l-17,25.9h-4.3v-31.2H1233z"/>
	<path d="M1257.7,139.5h6.2l10.1,26.4l10.1-26.4h6.2v31.2h-4.1v-26.9l-10.3,26.9h-3.8l-10.3-26.9v26.9h-4.1V139.5z"/>
	<path d="M1293.2,155.1c0-9.4,5.3-16.3,15.1-16.3s15.1,7,15.1,16.3c0,9.4-5.3,16.3-15.1,16.3S1293.2,164.5,1293.2,155.1z
		 M1308.3,168.5c6,0,10.8-4.3,10.8-13.4c0-9.1-4.8-13.4-10.8-13.4c-6,0-10.8,4.3-10.8,13.4C1297.5,164.2,1302.3,168.5,1308.3,168.5z
		"/>
	<path d="M1326.3,139.5h23v3.1h-19v10.6h15.6v3.1h-15.6v11.3h19v3.1h-23V139.5z"/>
	<path d="M1446.8,105.1v13.7h16.8v-13.7h4.1v31.2h-4.1v-14.4h-16.8v14.4h-4.1v-31.2H1446.8z"/>
	<path d="M1474.2,105.1l10.6,19.7l9.1-19.7h4.6l-12,25.2c-2.4,5.1-5,6.2-8.2,6.2c-1.4,0-2.9-0.2-2.9-0.2v-3.5c0,0,1,0.1,2.4,0.1
		c1.7,0,3.4-0.2,5-3.8l-13.2-24H1474.2z"/>
	<path d="M1499.4,136.3l14.2-16.6l-14.2-14.6h4.8l13,13.9v-13.9h4.1V119l13-13.9h4.8l-14.2,14.6l14.2,16.6h-5.3l-12.5-15.4v15.4
		h-4.1V121l-12.5,15.4H1499.4z"/>
	<path d="M1545.4,105.1v13.7h16.8v-13.7h4.1v31.2h-4.1v-14.4h-16.8v14.4h-4.1v-31.2H1545.4z"/>
	<path d="M1569.2,120.7c0-9.4,5.3-16.3,15.1-16.3s15.1,7,15.1,16.3c0,9.4-5.3,16.3-15.1,16.3S1569.2,130.1,1569.2,120.7z
		 M1584.3,134.2c6,0,10.8-4.3,10.8-13.4c0-9.1-4.8-13.4-10.8-13.4c-6,0-10.8,4.3-10.8,13.4C1573.5,129.8,1578.3,134.2,1584.3,134.2z
		"/>
	<path d="M1610.5,132.9c0,0,0.5,0.1,1.2,0.1c3.4,0,6-2.5,6-18.1v-9.8h20.4v31.2h-4.1v-28.1h-12.5v7.2c0,15.8-2.9,21.1-8.9,21.1
		c-1.2,0-2.2-0.2-2.2-0.2V132.9z"/>
	<path d="M1645.5,105.1V131l17-25.9h4.3v31.2h-4.1v-25.9l-17,25.9h-4.3v-31.2H1645.5z"/>
	<path d="M1670.2,136.3v-31.2h4.1v28.1h11.7v-28.1h4v28.1h11.7v-28.1h4.1v31.2H1670.2z"/>
	<path d="M1709.1,136.3v-31.2h4.1v13.7h10.3c5.5,0,9.8,2.4,9.8,8.6c0,6.2-4.3,8.9-9.8,8.9H1709.1z M1723.3,133.2
		c3.4,0,5.8-1.9,5.8-5.8c0-3.6-2.4-5.5-5.8-5.5h-10.1v11.3H1723.3z"/>
	<path d="M1447.6,158.3c0-9.4,5.3-16.3,15.1-16.3s15.1,7,15.1,16.3c0,9.4-5.3,16.3-15.1,16.3S1447.6,167.6,1447.6,158.3z
		 M1462.8,171.7c6,0,10.8-4.3,10.8-13.4c0-9.1-4.8-13.4-10.8-13.4c-6,0-10.8,4.3-10.8,13.4C1452,167.4,1456.8,171.7,1462.8,171.7z"
		/>
	<path d="M1479.8,145.8v-3.1h26.2v3.1h-11v28.1h-4.1v-28.1H1479.8z"/>
	<path d="M1508.4,173.9v-31.2h4.1v16.1l15.1-16.1h4.7l-12,12.6l12.7,18.6h-4.9l-10.4-15.9l-5.1,5.3v10.6H1508.4z"/>
	<path d="M1535.2,173.9v-31.2h14.2c5.5,0,10.1,2.6,10.1,8.6c0,6-4.6,8.6-10.1,8.6h-10.1v13.9H1535.2z M1539.3,156.8h9.8
		c3.4,0,6-1.7,6-5.5c0-3.8-2.6-5.5-6-5.5h-9.8V156.8z"/>
	<path d="M1566.2,142.7v13.7h9.1c5.5,0,9.8,2.4,9.8,8.6s-4.3,8.9-9.8,8.9h-13.2v-31.2H1566.2z M1575.1,170.8c3.4,0,5.8-1.9,5.8-5.8
		c0-3.6-2.4-5.5-5.8-5.5h-8.9v11.3H1575.1z M1592.1,142.7v31.2h-4.1v-31.2H1592.1z"/>
	<path d="M1594.5,145.8v-3.1h26.2v3.1h-11v28.1h-4.1v-28.1H1594.5z"/>
	<path d="M1623.1,173.9v-31.2h4.1v13.7h10.3c5.5,0,9.8,2.4,9.8,8.6s-4.3,8.9-9.8,8.9H1623.1z M1637.2,170.8c3.4,0,5.8-1.9,5.8-5.8
		c0-3.6-2.4-5.5-5.8-5.5h-10.1v11.3H1637.2z"/>
	<path d="M1660,142.7h23v3.1h-19v10.6h15.6v3.1h-15.6v11.3h19v3.1h-23V142.7z"/>
	<path d="M1685.9,173.9v-31.2h21.6v3.1H1690v28.1H1685.9z"/>
	<path d="M1709.5,158.3c0-9.4,5.3-16.3,15.1-16.3s15.1,7,15.1,16.3c0,9.4-5.3,16.3-15.1,16.3S1709.5,167.6,1709.5,158.3z
		 M1724.6,171.7c6,0,10.8-4.3,10.8-13.4c0-9.1-4.8-13.4-10.8-13.4c-6,0-10.8,4.3-10.8,13.4C1713.8,167.4,1718.6,171.7,1724.6,171.7z
		"/>
</g>
<g id="Layer_2">
</g>
</svg>
