<?xml version="1.0" encoding="utf-8"?>
<!-- Generator: Adobe Illustrator 25.0.1, SVG Export Plug-In . SVG Version: 6.00 Build 0)  -->
<svg version="1.1" xmlns="http://www.w3.org/2000/svg" xmlns:xlink="http://www.w3.org/1999/xlink" x="0px" y="0px"
	 viewBox="0 0 1920 192" style="enable-background:new 0 0 1920 192;" xml:space="preserve">
<g id="Layer_1">
	<path d="M137,95.2c9.8-0.9,13.4,4.5,14.4,9.7l-4.1,0.4c-1-5.2-4.8-7.7-10.1-7.3c-6,0.6-9.6,5.5-8.8,14.3c0.8,8.8,5.3,13,11.3,12.4
		c5.3-0.5,8.6-3.7,8.6-9l4.1-0.4c0,5.3-2.6,11.3-12.4,12.2c-9.6,0.9-15-5.4-15.9-14.9C123.3,103.2,127.5,96,137,95.2z"/>
	<path d="M153.4,94.4l22.9-2.1l0.3,3.1l-18.9,1.8l1,10.5l15.5-1.5l0.3,3.1l-15.5,1.5l1.1,11.2l18.9-1.8l0.3,3.1l-22.9,2.1
		L153.4,94.4z"/>
	<path d="M182.1,123l-2.9-31.1l14.1-1.3c5.5-0.5,10.3,1.7,10.8,7.7c0.6,6-3.7,9-9.2,9.5l-10,0.9l1.3,13.9L182.1,123z M184.5,105.7
		l9.8-0.9c3.3-0.3,5.8-2.2,5.5-6.1c-0.4-3.8-3.1-5.3-6.5-4.9l-9.8,0.9L184.5,105.7z"/>
	<path d="M208.8,120.5l-2.9-31.1l4.1-0.4l1.3,13.6l10.3-1c5.5-0.5,10,1.5,10.6,7.7c0.6,6.2-3.5,9.2-9,9.8L208.8,120.5z M222.6,116.1
		c3.3-0.3,5.6-2.4,5.2-6.3c-0.3-3.6-2.9-5.3-6.2-5l-10,0.9l1.1,11.2L222.6,116.1z"/>
	<path d="M236.1,118l-2.9-31.1l21.5-2L255,88l-17.4,1.6l2.6,28L236.1,118z"/>
	<path d="M261.1,84.3l2.4,25.8l14.6-27.4l4.3-0.4l2.9,31.1l-4.1,0.4l-2.4-25.8l-14.6,27.4l-4.3,0.4l-2.9-31.1L261.1,84.3z"/>
	<path d="M304.8,97.3l-19.1,1.8l-0.3-2.9l19.1-1.8L304.8,97.3z"/>
	<path d="M307.8,111.2l-2.9-31.1l14.1-1.3c5.5-0.5,10.3,1.7,10.8,7.7c0.6,6-3.7,9-9.2,9.5l-10,0.9l1.3,13.9L307.8,111.2z
		 M310.2,93.9L320,93c3.3-0.3,5.8-2.2,5.5-6.1s-3.1-5.3-6.5-4.9l-9.8,0.9L310.2,93.9z"/>
	<path d="M332.6,93.3c-0.9-9.3,3.7-16.7,13.5-17.7c9.8-0.9,15.7,5.5,16.6,14.8c0.9,9.3-3.7,16.7-13.5,17.7
		C339.4,109,333.5,102.6,332.6,93.3z M348.9,105.2c6-0.6,10.4-5.3,9.5-14.4c-0.8-9.1-6-12.9-12-12.4c-6,0.6-10.4,5.3-9.5,14.4
		C337.7,101.9,342.9,105.8,348.9,105.2z"/>
	<path d="M364.1,74.6l6.2-0.6l12.5,25.3l7.6-27.2l6.2-0.6l2.9,31.1l-4.1,0.4L393,76.3l-7.8,27.7l-3.8,0.4l-12.8-25.8l2.5,26.8
		l-4.1,0.4L364.1,74.6z"/>
	<path d="M400,71.3l23.2-2.2l0.3,3.1L404.3,74l1,10.5l10.8-1c5.5-0.5,10,1.5,10.6,7.7c0.6,6.2-3.5,9.2-9,9.8l-14.8,1.4L400,71.3z
		 M417.2,97.9c3.3-0.3,5.6-2.4,5.2-6.3c-0.3-3.6-2.9-5.3-6.2-5l-10.5,1l1.1,11.2L417.2,97.9z"/>
	<path d="M431.7,68.3l1.3,13.6l9.1-0.8c5.5-0.5,10,1.5,10.6,7.7c0.6,6.2-3.5,9.2-9,9.8l-13.1,1.2l-2.9-31.1L431.7,68.3z M443.2,95.4
		c3.3-0.3,5.6-2.4,5.2-6.3c-0.3-3.6-2.9-5.3-6.2-5l-8.8,0.8l1.1,11.2L443.2,95.4z M457.6,65.9l2.9,31.1l-4.1,0.4l-2.9-31.1
		L457.6,65.9z"/>
	<path d="M66.6,146.4l3.1,25.7l13.9-27.8l4.3-0.5l3.7,31l-4.1,0.5l-3.1-25.7l-13.9,27.8l-4.3,0.5l-3.7-31L66.6,146.4z"/>
	<path d="M96.8,164.8c0.5,4.3,3.7,6.8,9.2,6.2c5.7-0.7,8-3.9,7.6-7.4c-0.5-4.5-4.3-5.3-8.5-4.8l-5.2,0.6l-0.4-3.1l5.2-0.6
		c4.5-0.5,6.9-3.2,6.4-6.8c-0.3-2.6-2.6-5.3-8.3-4.6c-6.2,0.7-7.4,4.5-7.1,7.4l-4.1,0.5c-0.5-4.3,2.2-9.7,10.8-10.7
		c8.6-1,12.2,2.9,12.7,6.9c0.7,6.2-5.1,7.9-5.1,7.9l0,0.2c0,0,7-0.3,7.8,6.6c0.7,5.5-3.9,9.9-11.5,10.8c-7.9,0.9-12.8-2.3-13.6-8.5
		L96.8,164.8z"/>
	<path d="M131.4,138.7l1.6,13.6l16.7-2l-1.6-13.6l4.1-0.5l3.7,31l-4.1,0.5l-1.7-14.3l-16.7,2l1.7,14.3l-4.1,0.5l-3.7-31L131.4,138.7
		z"/>
	<path d="M166,134.5l4.8-0.6l15.6,29.6l-4.3,0.5l-4.1-8l-13.8,1.6l-2.1,8.7l-4.3,0.5L166,134.5z M176.4,153.1l-7.6-14.9l-3.9,16.2
		L176.4,153.1z"/>
	<path d="M198.3,130c9.8-1.2,13.6,4.2,14.7,9.4l-4.1,0.5c-1.1-5.2-5-7.6-10.3-7c-6,0.7-9.5,5.7-8.4,14.5c1.1,8.8,5.6,12.9,11.6,12.2
		c5.2-0.6,8.5-3.9,8.3-9.2l4.1-0.5c0.1,5.3-2.3,11.4-12,12.6c-9.5,1.1-15.1-5-16.2-14.5C184.8,138.3,188.8,131.1,198.3,130z"/>
	<path d="M214,132l-0.4-3.1l26-3.1l0.4,3.1l-11,1.3l3.3,27.9l-4.1,0.5l-3.3-27.9L214,132z"/>
	<path d="M243.4,141c-1.1-9.3,3.3-16.8,13.1-18c9.8-1.2,15.8,5.1,16.9,14.4c1.1,9.3-3.3,16.8-13.1,18S244.5,150.3,243.4,141z
		 M260,152.6c6-0.7,10.2-5.6,9.1-14.6c-1.1-9.1-6.4-12.8-12.3-12.1c-6,0.7-10.2,5.6-9.1,14.6C248.7,149.6,254,153.3,260,152.6z"/>
	<path d="M276.9,152.7l7.3-15c-4.7,0.1-8.4-2-9-7.5c-0.7-6.2,3.7-9.1,8.7-9.7l14.8-1.8l3.7,31l-4.1,0.5l-1.6-13.8l-8.2,1l-7,14.9
		L276.9,152.7z M285.8,134.5l10.5-1.3l-1.3-11l-10.5,1.3c-3.3,0.4-5.5,2.4-5.1,6.2C279.9,133.5,282.5,134.9,285.8,134.5z"/>
	<path d="M305.7,149.3l-3.7-31l4.1-0.5l3.3,27.9l11.6-1.4l-3.3-27.9l4-0.5l3.3,27.9l11.6-1.4l-3.3-27.9l4.1-0.5l3.3,27.9l4.3-0.5
		l1.2,10.2l-4.1,0.5l-0.9-7.2L305.7,149.3z"/>
	<path d="M343.7,113.4l22.9-2.7l0.4,3.1l-18.8,2.2l1.3,10.5l15.5-1.8l0.4,3.1l-15.5,1.8l1.3,11.2l18.8-2.2l0.4,3.1l-22.9,2.7
		L343.7,113.4z"/>
	<path d="M373.2,141.3l-3.7-31l21.5-2.6l0.4,3.1l-17.4,2.1l3.3,27.9L373.2,141.3z"/>
	<path d="M394.7,123c-1.1-9.3,3.3-16.8,13.1-18s15.8,5.1,16.9,14.4c1.1,9.3-3.3,16.8-13.1,18C401.9,138.6,395.8,132.3,394.7,123z
		 M411.3,134.5c6-0.7,10.2-5.6,9.1-14.6c-1.1-9.1-6.4-12.8-12.3-12.1c-6,0.7-10.2,5.6-9.1,14.6C400.1,131.5,405.3,135.3,411.3,134.5
		z"/>
	<path d="M356.1,168.8c0,4.3,2.9,7.2,8.4,7.2c5.8,0,8.4-2.9,8.4-6.5c0-4.6-3.6-5.8-7.9-5.8h-5.3v-3.1h5.3c4.6,0,7.2-2.4,7.2-6
		c0-2.6-1.9-5.5-7.7-5.5c-6.2,0-7.9,3.6-7.9,6.5h-4.1c0-4.3,3.4-9.4,12-9.4s11.8,4.3,11.8,8.4c0,6.2-6,7.2-6,7.2v0.2
		c0,0,7,0.5,7,7.4c0,5.5-5,9.4-12.7,9.4c-7.9,0-12.5-3.8-12.5-10.1H356.1z"/>
	<path d="M379.4,162.6c0-9.4,5.3-16.3,15.1-16.3s15.1,7,15.1,16.3c0,9.4-5.3,16.3-15.1,16.3S379.4,172,379.4,162.6z M394.5,176
		c6,0,10.8-4.3,10.8-13.4c0-9.1-4.8-13.4-10.8-13.4c-6,0-10.8,4.3-10.8,13.4C383.7,171.7,388.5,176,394.5,176z"/>
	<path d="M411.1,174.8c0,0,0.5,0.1,1.2,0.1c3.4,0,6-2.5,6-18.1V147h20.4v31.2h-4.1v-28.1h-12.5v7.2c0,15.8-2.9,21.1-8.9,21.1
		c-1.2,0-2.2-0.2-2.2-0.2V174.8z"/>
	<path d="M441.6,162.6c0-9.4,5.3-16.3,15.1-16.3s15.1,7,15.1,16.3c0,9.4-5.3,16.3-15.1,16.3S441.6,172,441.6,162.6z M456.7,176
		c6,0,10.8-4.3,10.8-13.4c0-9.1-4.8-13.4-10.8-13.4c-6,0-10.8,4.3-10.8,13.4C445.9,171.7,450.7,176,456.7,176z"/>
	<path d="M473.7,150.1V147h26.2v3.1h-11v28.1h-4.1v-28.1H473.7z"/>
	<path d="M512.8,147h4.8l12,31.2h-4.3l-3.1-8.4h-13.9l-3.1,8.4h-4.3L512.8,147z M521,166.7l-5.8-15.6l-5.8,15.6H521z"/>
	<path d="M619.3,183.2L618,173l1-0.1c3.3-0.4,5.5-6.7,3.7-21.2l-0.9-7.4l20-2.5l3.4,27.9l4.3-0.5l1.3,10.2l-4.1,0.5l-0.9-7.1
		l-23.3,2.9l0.9,7.1L619.3,183.2z M641.1,170.1l-3-24.8l-12.1,1.5l0.6,4.8c1.4,11.1,0.5,18.1-2.1,20.6L641.1,170.1z"/>
	<path d="M650.1,168.8c0,0,0.5,0.1,1.2,0c3.3-0.4,5.7-3.2,3.7-18.7l-1.2-9.8l20.2-2.5l3.8,31l-4.1,0.5l-3.4-27.9l-12.4,1.5l0.9,7.1
		c1.9,15.7-0.3,21.3-6.2,22c-1.2,0.1-2.2,0-2.2,0L650.1,168.8z"/>
	<path d="M680.1,168.5l7.2-15c-4.7,0.1-8.4-2-9-7.5c-0.8-6.2,3.7-9.2,8.7-9.8l14.8-1.8l3.8,31l-4,0.5l-1.7-13.8l-8.2,1l-7,14.9
		L680.1,168.5z M689,150.2l10.5-1.3l-1.3-11l-10.5,1.3c-3.3,0.4-5.5,2.4-5,6.2C683,149.3,685.6,150.6,689,150.2z"/>
	<path d="M718.7,132.3l1.7,13.6l16.7-2.1l-1.7-13.6l4.1-0.5l3.8,31l-4.1,0.5l-1.8-14.3l-16.7,2.1l1.8,14.3l-4.1,0.5l-3.8-31
		L718.7,132.3z"/>
	<path d="M753.2,128.1l4.8-0.6l15.7,29.5l-4.3,0.5l-4.1-8l-13.8,1.7l-2.1,8.7l-4.3,0.5L753.2,128.1z M763.8,146.6l-7.7-14.8
		l-3.9,16.2L763.8,146.6z"/>
	<path d="M785.5,123.4c9.8-1.2,13.6,4.1,14.7,9.3l-4.1,0.5c-1.1-5.2-5-7.6-10.3-7c-6,0.7-9.4,5.8-8.4,14.6
		c1.1,8.8,5.7,12.8,11.6,12.1c5.2-0.6,8.5-3.9,8.3-9.2l4.1-0.5c0.2,5.3-2.2,11.4-12,12.6c-9.5,1.2-15.1-4.9-16.3-14.4
		C772,131.8,776,124.5,785.5,123.4z"/>
	<path d="M801.2,125.3l-0.4-3.1l26-3.2l0.4,3.1l-11,1.3l3.4,27.9l-4.1,0.5l-3.4-27.9L801.2,125.3z"/>
	<path d="M830.6,134.3c-1.1-9.3,3.2-16.8,13-18c9.8-1.2,15.9,5.1,17,14.4c1.1,9.3-3.2,16.8-13,18S831.8,143.6,830.6,134.3z
		 M847.3,145.8c6-0.7,10.2-5.6,9.1-14.7c-1.1-9.1-6.4-12.8-12.4-12c-6,0.7-10.2,5.6-9.1,14.7C836,142.8,841.3,146.5,847.3,145.8z"/>
	<path d="M864.2,145.8l7.2-15c-4.7,0.1-8.4-2-9-7.5c-0.8-6.2,3.7-9.2,8.7-9.8l14.8-1.8l3.8,31l-4,0.5l-1.7-13.8l-8.2,1l-7,14.9
		L864.2,145.8z M873.1,127.6l10.5-1.3l-1.3-11l-10.5,1.3c-3.3,0.4-5.5,2.4-5,6.2C867.2,126.6,869.7,128,873.1,127.6z"/>
	<path d="M893,142.3l-3.8-31l4.1-0.5l3.4,27.9l11.6-1.4l-3.4-27.9l4-0.5l3.4,27.9l11.6-1.4l-3.4-27.9l4-0.5l3.4,27.9l4.3-0.5
		l1.3,10.2l-4,0.5l-0.9-7.1L893,142.3z"/>
	<path d="M935,105.7l3.2,25.7l13.7-27.8l4.3-0.5l3.8,31l-4,0.5l-3.2-25.7L939,136.6l-4.3,0.5l-3.8-31L935,105.7z"/>
	<path d="M972.4,116.3L959,102.7l5-0.6l10.3,11.3l7.3-13.4l5-0.6l-9.7,16.4l14,14.5l-5,0.6L975,119l-7.7,14.2l-5,0.6L972.4,116.3z"
		/>
	<path d="M1002.8,128.8l-3.8-31l4.1-0.5l2,16l13-17.8l4.6-0.6l-10.4,14l14.9,16.9l-4.9,0.6l-12.3-14.5l-4.4,5.9l1.3,10.5
		L1002.8,128.8z"/>
	<path d="M1029.5,125.5l-3.8-31l14.1-1.7c5.5-0.7,10.3,1.4,11.1,7.3c0.7,6-3.5,9.1-8.9,9.8l-10,1.2l1.7,13.8L1029.5,125.5z
		 M1031.5,108.1l9.8-1.2c3.3-0.4,5.8-2.4,5.3-6.2c-0.5-3.8-3.3-5.2-6.6-4.7l-9.8,1.2L1031.5,108.1z"/>
	<path d="M1062.9,90l4.8-0.6l15.7,29.5l-4.3,0.5l-4.1-8l-13.8,1.7l-2.1,8.7l-4.3,0.5L1062.9,90z M1073.4,108.5l-7.7-14.8l-3.9,16.2
		L1073.4,108.5z"/>
	<path d="M1095.2,85.3c9.8-1.2,13.6,4.1,14.7,9.3l-4.1,0.5c-1.1-5.2-5-7.6-10.3-7c-6,0.7-9.4,5.8-8.4,14.6
		c1.1,8.8,5.7,12.8,11.6,12.1c5.2-0.6,8.5-3.9,8.3-9.2l4.1-0.5c0.2,5.3-2.2,11.4-12,12.6c-9.5,1.2-15.1-4.9-16.3-14.4
		C1081.7,93.7,1085.6,86.4,1095.2,85.3z"/>
	<path d="M1112.9,99.5c-1.1-9.3,3.2-16.8,13-18s15.9,5.1,17,14.4c1.1,9.3-3.2,16.8-13,18C1120.1,115.1,1114,108.8,1112.9,99.5z
		 M1129.5,111c6-0.7,10.2-5.6,9.1-14.7c-1.1-9.1-6.4-12.8-12.4-12c-6,0.7-10.2,5.6-9.1,14.7C1118.3,108.1,1123.6,111.8,1129.5,111z"
		/>
	<path d="M1143.3,83.2l-0.4-3.1l26-3.2l0.4,3.1l-11,1.3l3.4,27.9l-4.1,0.5l-3.4-27.9L1143.3,83.2z"/>
	<path d="M1172.7,92.2c-1.1-9.3,3.2-16.8,13-18s15.9,5.1,17,14.4c1.1,9.3-3.2,16.8-13,18S1173.8,101.5,1172.7,92.2z M1189.3,103.7
		c6-0.7,10.2-5.6,9.1-14.7c-1.1-9.1-6.4-12.8-12.4-12c-6,0.7-10.2,5.6-9.1,14.7C1178.1,100.7,1183.4,104.4,1189.3,103.7z"/>
	<path d="M1207.5,103.6l-3.8-31l4.1-0.5l2,16l13-17.8l4.6-0.6l-10.4,14l14.9,16.9l-4.9,0.6l-12.3-14.5l-4.4,5.9l1.3,10.5
		L1207.5,103.6z"/>
	<path d="M1209,105.8c9.8,0,13,5.8,13.4,11h-4.1c-0.5-5.3-4.1-8.2-9.4-8.2c-6,0-10.1,4.6-10.1,13.4c0,8.9,4.1,13.4,10.1,13.4
		c5.3,0,8.9-2.9,9.4-8.2h4.1c-0.5,5.3-3.6,11-13.4,11c-9.6,0-14.4-6.7-14.4-16.3C1194.6,112.6,1199.4,105.8,1209,105.8z"/>
	<path d="M1239,106.6v13.7h16.8v-13.7h4.1v31.2h-4.1v-14.4H1239v14.4h-4.1v-31.2H1239z"/>
	<path d="M1267.3,106.6v25.9l17-25.9h4.3v31.2h-4.1v-25.9l-17,25.9h-4.3v-31.2H1267.3z"/>
	<path d="M1292,106.6h6.2l10.1,26.4l10.1-26.4h6.2v31.2h-4.1v-26.9l-10.3,26.9h-3.8l-10.3-26.9v26.9h-4.1V106.6z"/>
	<path d="M1332.1,106.6v25.9l17-25.9h4.3v31.2h-4.1v-25.9l-17,25.9h-4.3v-31.2H1332.1z"/>
	<path d="M1107.2,147.2v-3.1h26.2v3.1h-11v28.1h-4.1v-28.1H1107.2z"/>
	<path d="M1139.9,144.1v13.7h9.1c5.5,0,9.8,2.4,9.8,8.6c0,6.2-4.3,8.9-9.8,8.9h-13.2v-31.2H1139.9z M1148.8,172.2
		c3.4,0,5.8-1.9,5.8-5.8c0-3.6-2.4-5.5-5.8-5.5h-8.9v11.3H1148.8z M1165.8,144.1v31.2h-4.1v-31.2H1165.8z"/>
	<path d="M1192.7,143.4c9.8,0,13,5.8,13.4,11h-4.1c-0.5-5.3-4.1-8.2-9.4-8.2c-6,0-10.1,4.6-10.1,13.4c0,8.9,4.1,13.4,10.1,13.4
		c5.3,0,8.9-2.9,9.4-8.2h4.1c-0.5,5.3-3.6,11-13.4,11c-9.6,0-14.4-6.7-14.4-16.3C1178.3,150.1,1183.1,143.4,1192.7,143.4z"/>
	<path d="M1208,147.2v-3.1h26.2v3.1h-11v28.1h-4.1v-28.1H1208z"/>
	<path d="M1247.2,144.1h4.8l12,31.2h-4.3l-3.1-8.4h-13.9l-3.1,8.4h-4.3L1247.2,144.1z M1255.4,163.8l-5.8-15.6l-5.8,15.6H1255.4z"/>
	<path d="M1270,144.1v13.7h16.8v-13.7h4.1v31.2h-4.1v-14.4H1270v14.4h-4.1v-31.2H1270z"/>
	<path d="M1294.2,144.1h23v3.1h-19v10.6h15.6v3.1h-15.6v11.3h19v3.1h-23V144.1z"/>
	<path d="M1320.1,175.3v-31.2h4.1v28.1h11.7v-28.1h4v28.1h11.7v-28.1h4.1v31.2H1320.1z"/>
	<path d="M1359,175.3v-31.2h4.1v13.7h10.3c5.5,0,9.8,2.4,9.8,8.6c0,6.2-4.3,8.9-9.8,8.9H1359z M1373.2,172.2c3.4,0,5.8-1.9,5.8-5.8
		c0-3.6-2.4-5.5-5.8-5.5h-10.1v11.3H1373.2z"/>
	<path d="M1396,144.1h4.1v28.1h16.3v-28.1h4.1v28.1h4.3v10.3h-4.1v-7.2H1396V144.1z"/>
	<path d="M1426.9,144.1h23v3.1h-19v10.6h15.6v3.1H1431v11.3h19v3.1h-23V144.1z"/>
	<path d="M1456.9,144.1v13.7h16.8v-13.7h4.1v31.2h-4.1v-14.4h-16.8v14.4h-4.1v-31.2H1456.9z"/>
	<path d="M1480.2,147.2v-3.1h26.2v3.1h-11v28.1h-4.1v-28.1H1480.2z"/>
	<path d="M1508.8,175.3v-31.2h14.2c5.5,0,10.1,2.6,10.1,8.6s-4.6,8.6-10.1,8.6h-10.1v13.9H1508.8z M1512.8,158.3h9.8
		c3.4,0,6-1.7,6-5.5s-2.6-5.5-6-5.5h-9.8V158.3z"/>
	<path d="M1535.2,159.7c0-9.4,5.3-16.3,15.1-16.3s15.1,7,15.1,16.3c0,9.4-5.3,16.3-15.1,16.3S1535.2,169.1,1535.2,159.7z
		 M1550.3,173.2c6,0,10.8-4.3,10.8-13.4c0-9.1-4.8-13.4-10.8-13.4c-6,0-10.8,4.3-10.8,13.4C1539.5,168.8,1544.3,173.2,1550.3,173.2z
		"/>
	<path d="M1568.3,144.1h6.2l10.1,26.4l10.1-26.4h6.2v31.2h-4.1v-26.9l-10.3,26.9h-3.8l-10.3-26.9v26.9h-4.1V144.1z"/>
	<path d="M1613.9,175.3v-31.2h14.2c5.8,0,9.8,2.2,9.8,7.9c0,5.8-5.3,7-5.3,7v0.2c0,0,6.2,1.2,6.2,7.4c0,6.2-4.3,8.6-10.8,8.6H1613.9
		z M1618,147.2v10.6h10.1c3.4,0,5.8-1.7,5.8-5.5c0-3.6-2.4-5-5.8-5H1618z M1628,172.2c3.8,0,6.5-1.7,6.5-5.5s-2.9-5.8-6.5-5.8H1618
		v11.3H1628z"/>
	<path d="M1645.6,144.1v13.7h16.8v-13.7h4.1v31.2h-4.1v-14.4h-16.8v14.4h-4.1v-31.2H1645.6z"/>
	<path d="M1673.9,144.1V170l17-25.9h4.3v31.2h-4.1v-25.9l-17,25.9h-4.3v-31.2H1673.9z"/>
	<path d="M1698.6,144.1h6.2l10.1,26.4l10.1-26.4h6.2v31.2h-4.1v-26.9l-10.3,26.9h-3.8l-10.3-26.9v26.9h-4.1V144.1z"/>
	<path d="M1745.2,144.1h4.8l12,31.2h-4.3l-3.1-8.4h-13.9l-3.1,8.4h-4.3L1745.2,144.1z M1753.4,163.8l-5.8-15.6l-5.8,15.6H1753.4z"/>
	<path d="M1768,144.1v13.7h16.8v-13.7h4.1v31.2h-4.1v-14.4H1768v14.4h-4.1v-31.2H1768z"/>
	<path d="M1796.3,144.1V170l17-25.9h4.3v31.2h-4.1v-25.9l-17,25.9h-4.3v-31.2H1796.3z"/>
	<path d="M1819.8,175.3l9-14c-4.7-0.5-8.1-3-8.1-8.5c0-6.2,4.8-8.6,9.8-8.6h14.9v31.2h-4.1v-13.9h-8.3l-8.7,13.9H1819.8z
		 M1830.8,158.3h10.6v-11h-10.6c-3.4,0-5.8,1.7-5.8,5.5S1827.5,158.3,1830.8,158.3z"/>
</g>
<g id="Layer_2">
</g>
</svg>
