<?xml version="1.0" encoding="utf-8"?>
<!-- Generator: Adobe Illustrator 25.0.1, SVG Export Plug-In . SVG Version: 6.00 Build 0)  -->
<svg version="1.1" xmlns="http://www.w3.org/2000/svg" xmlns:xlink="http://www.w3.org/1999/xlink" x="0px" y="0px"
	 viewBox="0 0 1920 192" style="enable-background:new 0 0 1920 192;" xml:space="preserve">
<g id="Layer_1">
	<g>
		<path d="M108.1,151.6l21.5-12.6l15.8,26.9l-3.5,2.1l-14.2-24.2l-14.5,8.5l14.2,24.2l-3.5,2.1L108.1,151.6z"/>
		<path d="M140,151c-4.7-8.1-3.7-16.8,4.8-21.7c8.5-5,16.6-1.6,21.3,6.4c4.7,8.1,3.7,16.8-4.8,21.7C152.8,162.4,144.8,159,140,151z
			 M159.9,154.9c5.2-3,7.1-9.2,2.5-17.1c-4.6-7.9-10.9-9.2-16.1-6.1s-7.1,9.2-2.5,17.1C148.4,156.7,154.7,158,159.9,154.9z"/>
		<path d="M173.5,145.5c0,0,0.5-0.1,1.1-0.5c2.9-1.7,3.9-5.2-4-18.6l-5-8.5l17.6-10.3l15.8,26.9l-3.5,2.1l-14.2-24.2l-10.8,6.3
			l3.6,6.2c8,13.7,8.2,19.7,3,22.7c-1,0.6-2,0.9-2,0.9L173.5,145.5z"/>
		<path d="M186.2,105.8l19.9-11.7l1.6,2.7l-16.4,9.6l5.3,9.1l13.5-7.9l1.6,2.7l-13.5,7.9l5.7,9.7l16.4-9.6l1.6,2.7L202,132.8
			L186.2,105.8z"/>
		<path d="M224.3,119.6l-15.8-26.9l12.2-7.2c5-2.9,9.6-3.1,12.5,1.9s-1,8.7-1,8.7l0.1,0.2c0,0,6-2.1,9.1,3.3
			c3.2,5.4,0.6,9.6-4.9,12.9L224.3,119.6z M213.6,93.4l5.3,9.1l8.7-5.1c2.9-1.7,4.1-4.4,2.2-7.7c-1.8-3.1-4.6-3.1-7.5-1.4
			L213.6,93.4z M235,109.8c3.3-1.9,4.7-4.7,2.8-8c-1.9-3.3-5.4-3.5-8.5-1.7l-8.7,5.1l5.7,9.7L235,109.8z"/>
		<path d="M235.9,76.7l6.9,11.8l7.9-4.6c4.8-2.8,9.7-2.9,12.9,2.5c3.2,5.4,0.8,9.8-4,12.6l-11.4,6.7l-15.8-26.9L235.9,76.7z
			 M257.7,96.4c2.9-1.7,4-4.6,2.1-7.9c-1.8-3.1-4.9-3.5-7.8-1.8l-7.7,4.5l5.7,9.7L257.7,96.4z M258.2,63.6L274,90.5l-3.5,2.1
			l-15.8-26.9L258.2,63.6z"/>
		<path d="M261.1,61.9L281,50.2l1.6,2.7l-16.4,9.6l5.3,9.1l13.5-7.9l1.6,2.7l-13.5,7.9l5.7,9.7l16.4-9.6l1.6,2.7l-19.9,11.7
			L261.1,61.9z"/>
		<path d="M188.1,143h4.1v28.1h16.3V143h4.1v28.1h4.3v10.3h-4.1v-7.2h-24.7V143z"/>
		<path d="M219,174.2V143h14.2c5.8,0,9.8,2.2,9.8,7.9s-5.3,7-5.3,7v0.2c0,0,6.2,1.2,6.2,7.4s-4.3,8.6-10.8,8.6H219z M223.1,146.2
			v10.6h10.1c3.4,0,5.8-1.7,5.8-5.5c0-3.6-2.4-5-5.8-5H223.1z M233.2,171.1c3.8,0,6.5-1.7,6.5-5.5c0-3.8-2.9-5.8-6.5-5.8h-10.1v11.3
			H233.2z"/>
		<path d="M246.6,143h23v3.1h-19v10.6h15.6v3.1h-15.6v11.3h19v3.1h-23V143z"/>
		<path d="M271.6,146.2V143h26.2v3.1h-11v28.1h-4.1v-28.1H271.6z"/>
		<path d="M304.2,143v13.7h9.1c5.5,0,9.8,2.4,9.8,8.6s-4.3,8.9-9.8,8.9h-13.2V143H304.2z M313.1,171.1c3.4,0,5.8-1.9,5.8-5.8
			c0-3.6-2.4-5.5-5.8-5.5h-8.9v11.3H313.1z M330.1,143v31.2h-4.1V143H330.1z"/>
		<path d="M325.2,138.9v-31.2h14.2c5.8,0,9.8,2.2,9.8,7.9s-5.3,7-5.3,7v0.2c0,0,6.2,1.2,6.2,7.4c0,6.2-4.3,8.6-10.8,8.6H325.2z
			 M329.2,110.8v10.6h10.1c3.4,0,5.8-1.7,5.8-5.5c0-3.6-2.4-5-5.8-5H329.2z M339.3,135.8c3.8,0,6.5-1.7,6.5-5.5
			c0-3.8-2.9-5.8-6.5-5.8h-10.1v11.3H339.3z"/>
		<path d="M356.8,107.7v13.7h9.1c5.5,0,9.8,2.4,9.8,8.6c0,6.2-4.3,8.9-9.8,8.9h-13.2v-31.2H356.8z M365.7,135.8
			c3.4,0,5.8-1.9,5.8-5.8c0-3.6-2.4-5.5-5.8-5.5h-8.9v11.3H365.7z M382.8,107.7v31.2h-4.1v-31.2H382.8z"/>
		<path d="M386.1,138.9v-31.2h14.2c5.5,0,10.1,2.6,10.1,8.6c0,6-4.6,8.6-10.1,8.6h-10.1v13.9H386.1z M390.2,121.9h9.8
			c3.4,0,6-1.7,6-5.5c0-3.8-2.6-5.5-6-5.5h-9.8V121.9z"/>
		<path d="M423.6,107.7h4.8l12,31.2H436l-3.1-8.4H419l-3.1,8.4h-4.3L423.6,107.7z M431.8,127.4l-5.8-15.6l-5.8,15.6H431.8z"/>
		<path d="M442.3,138.9v-31.2h4.1v28.1H458v-28.1h4v28.1h11.7v-28.1h4.1v28.1h4.3v10.3H478v-7.2H442.3z"/>
		<path d="M484.3,107.7h23v3.1h-19v10.6H504v3.1h-15.6v11.3h19v3.1h-23V107.7z"/>
		<path d="M514.3,107.7v13.7h16.8v-13.7h4.1v31.2h-4.1v-14.4h-16.8v14.4h-4.1v-31.2H514.3z"/>
		<path d="M542.6,107.7v13.7h16.8v-13.7h4.1v31.2h-4.1v-14.4h-16.8v14.4h-4.1v-31.2H542.6z"/>
		<path d="M570.9,107.7v13.7h9.1c5.5,0,9.8,2.4,9.8,8.6c0,6.2-4.3,8.9-9.8,8.9h-13.2v-31.2H570.9z M579.8,135.8
			c3.4,0,5.8-1.9,5.8-5.8c0-3.6-2.4-5.5-5.8-5.5h-8.9v11.3H579.8z M596.8,107.7v31.2h-4.1v-31.2H596.8z"/>
		<path d="M600.2,107.7h23v3.1h-19v10.6h15.6v3.1h-15.6v11.3h19v3.1h-23V107.7z"/>
		<path d="M434.4,146.8v13.7h16.8v-13.7h4.1V178h-4.1v-14.4h-16.8V178h-4.1v-31.2H434.4z"/>
		<path d="M458.6,146.8h23v3.1h-19v10.6h15.6v3.1h-15.6v11.3h19v3.1h-23V146.8z"/>
		<path d="M483.3,185.2v-10.3h1c3.4,0,6.2-6,6.2-20.6v-7.4h20.2v28.1h4.3v10.3h-4.1V178h-23.5v7.2H483.3z M506.6,174.8v-25h-12.2
			v4.8c0,11.2-1.7,18-4.6,20.2H506.6z"/>
		<path d="M527.7,146.8h4.8l12,31.2h-4.3l-3.1-8.4h-13.9L520,178h-4.3L527.7,146.8z M535.9,166.4l-5.8-15.6l-5.8,15.6H535.9z"/>
		<path d="M545,174.6c0,0,0.5,0.1,1.2,0.1c3.4,0,6-2.5,6-18.1v-9.8h20.4V178h-4.1v-28.1H556v7.2c0,15.8-2.9,21.1-8.9,21.1
			c-1.2,0-2.2-0.2-2.2-0.2V174.6z"/>
		<path d="M575.9,146.8h23v3.1h-19v10.6h15.6v3.1H580v11.3h19v3.1h-23V146.8z"/>
		<path d="M601.9,178v-31.2h4.1v16.1l15.1-16.1h4.7l-12,12.6l12.7,18.6h-4.9L611,162.1l-5.1,5.3V178H601.9z"/>
		<path d="M628.3,162.4c0-9.4,5.3-16.3,15.1-16.3s15.1,7,15.1,16.3c0,9.4-5.3,16.3-15.1,16.3S628.3,171.7,628.3,162.4z M643.4,175.8
			c6,0,10.8-4.3,10.8-13.4c0-9.1-4.8-13.4-10.8-13.4c-6,0-10.8,4.3-10.8,13.4C632.6,171.5,637.4,175.8,643.4,175.8z"/>
		<path d="M670.5,162.4c0-9.4,5.3-16.3,15.1-16.3s15.1,7,15.1,16.3c0,9.4-5.3,16.3-15.1,16.3S670.5,171.7,670.5,162.4z M685.6,175.8
			c6,0,10.8-4.3,10.8-13.4c0-9.1-4.8-13.4-10.8-13.4c-6,0-10.8,4.3-10.8,13.4C674.8,171.5,679.6,175.8,685.6,175.8z"/>
		<path d="M702.7,149.9v-3.1h26.2v3.1h-11V178h-4.1v-28.1H702.7z"/>
		<path d="M740.8,146.8h23.3v3.1h-19.2v10.6h10.8c5.5,0,9.8,2.4,9.8,8.6s-4.3,8.9-9.8,8.9h-14.9V146.8z M755.5,174.8
			c3.4,0,5.8-1.9,5.8-5.8c0-3.6-2.4-5.5-5.8-5.5h-10.6v11.3H755.5z"/>
		<path d="M779.2,146.8h4.8l12,31.2h-4.3l-3.1-8.4h-13.9l-3.1,8.4h-4.3L779.2,146.8z M787.4,166.4l-5.8-15.6l-5.8,15.6H787.4z"/>
		<path d="M797.9,178v-31.2h14.2c5.5,0,10.1,2.6,10.1,8.6c0,6-4.6,8.6-10.1,8.6H802V178H797.9z M802,160.9h9.8c3.4,0,6-1.7,6-5.5
			c0-3.8-2.6-5.5-6-5.5H802V160.9z"/>
		<path d="M835.4,146.8h4.8l12,31.2h-4.3l-3.1-8.4h-13.9l-3.1,8.4h-4.3L835.4,146.8z M843.6,166.4l-5.8-15.6l-5.8,15.6H843.6z"/>
		<path d="M865.3,161.9l-11.7-15.1h5l8.9,12.4l8.9-12.4h5l-11.7,15.1l12.1,16.1h-5l-9.4-13.2l-9.4,13.2h-5L865.3,161.9z"/>
		<path d="M883.9,162.4c0-9.4,5.3-16.3,15.1-16.3s15.1,7,15.1,16.3c0,9.4-5.3,16.3-15.1,16.3S883.9,171.7,883.9,162.4z M899,175.8
			c6,0,10.8-4.3,10.8-13.4c0-9.1-4.8-13.4-10.8-13.4c-6,0-10.8,4.3-10.8,13.4C888.2,171.5,893,175.8,899,175.8z"/>
		<path d="M915.5,174.6c0,0,0.5,0.1,1.2,0.1c3.4,0,6-2.5,6-18.1v-9.8h20.4V178h-4.1v-28.1h-12.5v7.2c0,15.8-2.9,21.1-8.9,21.1
			c-1.2,0-2.2-0.2-2.2-0.2V174.6z"/>
		<path d="M946.5,178v-31.2h4.1v16.1l15.1-16.1h4.7l-12,12.6L971,178h-4.9l-10.4-15.9l-5.1,5.3V178H946.5z"/>
		<path d="M977.5,146.8v25.9l17-25.9h4.3V178h-4.1V152l-17,25.9h-4.3v-31.2H977.5z"/>
		<path d="M1099,174.4v-31.2h4.1v16.1l15.1-16.1h4.7l-12,12.6l12.7,18.6h-4.9l-10.4-15.9l-5.1,5.3v10.6H1099z"/>
		<path d="M1129,143.2l10.6,19.7l9.1-19.7h4.6l-12,25.2c-2.4,5.1-5,6.2-8.2,6.2c-1.4,0-2.9-0.2-2.9-0.2v-3.5c0,0,1,0.1,2.4,0.1
			c1.7,0,3.4-0.2,5-3.8l-13.2-24H1129z"/>
		<path d="M1155.1,143.2h25v31.2h-4.1v-28.1h-16.8v28.1h-4.1V143.2z"/>
		<path d="M1187.5,143.2v25.9l17-25.9h4.3v31.2h-4.1v-25.9l-17,25.9h-4.3v-31.2H1187.5z"/>
		<path d="M1211.3,146.3v-3.1h26.2v3.1h-11v28.1h-4.1v-28.1H1211.3z"/>
		<path d="M1239.8,143.2h23v3.1h-19v10.6h15.6v3.1h-15.6v11.3h19v3.1h-23V143.2z"/>
		<path d="M1279.4,143.2v25.9l17-25.9h4.3v31.2h-4.1v-25.9l-17,25.9h-4.3v-31.2H1279.4z"/>
		<path d="M1313.8,143.2h25v31.2h-4.1v-28.1h-16.8v28.1h-4.1V143.2z"/>
		<path d="M1341.6,158.8c0-9.4,5.3-16.3,15.1-16.3s15.1,7,15.1,16.3c0,9.4-5.3,16.3-15.1,16.3S1341.6,168.1,1341.6,158.8z
			 M1356.7,172.2c6,0,10.8-4.3,10.8-13.4c0-9.1-4.8-13.4-10.8-13.4c-6,0-10.8,4.3-10.8,13.4C1345.9,167.9,1350.7,172.2,1356.7,172.2
			z"/>
		<path d="M1374.7,174.4v-31.2h14.2c5.5,0,10.1,2.6,10.1,8.6c0,6-4.6,8.6-10.1,8.6h-10.1v13.9H1374.7z M1378.8,157.3h9.8
			c3.4,0,6-1.7,6-5.5c0-3.8-2.6-5.5-6-5.5h-9.8V157.3z"/>
		<path d="M1412.2,143.2h4.8l12,31.2h-4.3l-3.1-8.4h-13.9l-3.1,8.4h-4.3L1412.2,143.2z M1420.4,162.8l-5.8-15.6l-5.8,15.6H1420.4z"
			/>
		<path d="M1429.7,181.6v-10.3h1c3.4,0,6.2-6,6.2-20.6v-7.4h20.2v28.1h4.3v10.3h-4.1v-7.2h-23.5v7.2H1429.7z M1453,171.2v-25h-12.2
			v4.8c0,11.2-1.7,18-4.6,20.2H1453z"/>
		<path d="M1466.6,143.2l10.6,19.7l9.1-19.7h4.6l-12,25.2c-2.4,5.1-5,6.2-8.2,6.2c-1.4,0-2.9-0.2-2.9-0.2v-3.5c0,0,1,0.1,2.4,0.1
			c1.7,0,3.4-0.2,5-3.8l-13.2-24H1466.6z"/>
		<path d="M1492.8,174.4v-31.2h4.1v25.9l17-25.9h4.3v31.2h-4.1v-25.9l-17,25.9H1492.8z M1501.4,137.2c0,1.9,1,3.6,4.1,3.6
			s4.1-1.7,4.1-3.6h3.8c0,2.2-1.2,6-7.9,6s-7.9-3.8-7.9-6H1501.4z"/>
		<path d="M1520.6,146.3v-3.1h26.2v3.1h-11v28.1h-4.1v-28.1H1520.6z"/>
		<path d="M1549.2,143.2h23v3.1h-19v10.6h15.6v3.1h-15.6v11.3h19v3.1h-23V143.2z"/>
		<path d="M1583.3,171c0,0,0.5,0.1,1.2,0.1c3.4,0,6-2.5,6-18.1v-9.8h20.4v31.2h-4.1v-28.1h-12.5v7.2c0,15.8-2.9,21.1-8.9,21.1
			c-1.2,0-2.2-0.2-2.2-0.2V171z"/>
		<path d="M1614.2,143.2h4.1v13.7h5.1c0.6-8,5.2-14.4,14.4-14.4c9.8,0,14.4,7.4,14.4,16.3s-4.6,16.3-14.4,16.3
			c-9.4,0-14-6.8-14.4-15.1h-5v14.4h-4.1V143.2z M1627.7,158.8c0,8.6,4.1,13.4,10.1,13.4s10.1-4.8,10.1-13.4s-4.1-13.4-10.1-13.4
			S1627.7,150.1,1627.7,158.8z"/>
		<path d="M1655,143.2h23.3v3.1h-19.2v10.6h10.8c5.5,0,9.8,2.4,9.8,8.6s-4.3,8.9-9.8,8.9H1655V143.2z M1669.7,171.2
			c3.4,0,5.8-1.9,5.8-5.8c0-3.6-2.4-5.5-5.8-5.5h-10.6v11.3H1669.7z"/>
		<path d="M1687,143.2v25.9l17-25.9h4.3v31.2h-4.1v-25.9l-17,25.9h-4.3v-31.2H1687z"/>
		<path d="M1711.7,143.2h6.2l10.1,26.4l10.1-26.4h6.2v31.2h-4.1v-26.9l-10.3,26.9h-3.8l-10.3-26.9v26.9h-4.1V143.2z"/>
		<path d="M1751.8,143.2v13.7h9.1c5.5,0,9.8,2.4,9.8,8.6s-4.3,8.9-9.8,8.9h-13.2v-31.2H1751.8z M1760.6,171.2c3.4,0,5.8-1.9,5.8-5.8
			c0-3.6-2.4-5.5-5.8-5.5h-8.9v11.3H1760.6z M1777.7,143.2v31.2h-4.1v-31.2H1777.7z"/>
		<path d="M1792.2,158.3l-11.7-15.1h5l8.9,12.4l8.9-12.4h5l-11.7,15.1l12.1,16.1h-5l-9.4-13.2l-9.4,13.2h-5L1792.2,158.3z"/>
	</g>
</g>
<g id="Layer_2">
</g>
</svg>
