<?xml version="1.0" encoding="utf-8"?>
<!-- Generator: Adobe Illustrator 25.0.1, SVG Export Plug-In . SVG Version: 6.00 Build 0)  -->
<svg version="1.1" xmlns="http://www.w3.org/2000/svg" xmlns:xlink="http://www.w3.org/1999/xlink" x="0px" y="0px"
	 viewBox="0 0 1920 192" style="enable-background:new 0 0 1920 192;" xml:space="preserve">
<g id="Layer_1">
	<path d="M114.2,155.5h6.2l10.1,26.4l10.1-26.4h6.2v31.2h-4.1v-26.9l-10.3,26.9h-3.8l-10.3-26.9v26.9h-4.1V155.5z"/>
	<path d="M160.7,155.5h4.8l12,31.2h-4.3l-3.1-8.4h-13.9l-3.1,8.4h-4.3L160.7,155.5z M168.9,175.2l-5.8-15.6l-5.8,15.6H168.9z"/>
	<path d="M193.4,154.8c9.8,0,13,5.8,13.4,11h-4.1c-0.5-5.3-4.1-8.2-9.4-8.2c-6,0-10.1,4.6-10.1,13.4c0,8.9,4.1,13.4,10.1,13.4
		c5.3,0,8.9-2.9,9.4-8.2h4.1c-0.5,5.3-3.6,11-13.4,11c-9.6,0-14.4-6.7-14.4-16.3C179,161.5,183.8,154.8,193.4,154.8z"/>
	<path d="M223.6,154.8c9.8,0,13,5.8,13.4,11H233c-0.5-5.3-4.1-8.2-9.4-8.2c-6,0-10.1,4.6-10.1,13.4c0,8.9,4.1,13.4,10.1,13.4
		c5.3,0,8.9-2.9,9.4-8.2h4.1c-0.5,5.3-3.6,11-13.4,11c-9.6,0-14.4-6.7-14.4-16.3C209.2,161.5,214,154.8,223.6,154.8z"/>
	<path d="M244,155.5v25.9l17-25.9h4.3v31.2h-4.1v-25.9l-17,25.9h-4.3v-31.2H244z"/>
	<path d="M268.7,186.7v-31.2h14.2c5.8,0,9.8,2.2,9.8,7.9c0,5.8-5.3,7-5.3,7v0.2c0,0,6.2,1.2,6.2,7.4c0,6.2-4.3,8.6-10.8,8.6H268.7z
		 M272.8,158.6v10.6h10.1c3.4,0,5.8-1.7,5.8-5.5c0-3.6-2.4-5-5.8-5H272.8z M282.9,183.6c3.8,0,6.5-1.7,6.5-5.5s-2.9-5.8-6.5-5.8
		h-10.1v11.3H282.9z"/>
	<path d="M300.4,155.5v13.7h16.8v-13.7h4.1v31.2h-4.1v-14.4h-16.8v14.4h-4.1v-31.2H300.4z"/>
	<path d="M335.2,155.5h4.8l12,31.2h-4.3l-3.1-8.4h-13.9l-3.1,8.4h-4.3L335.2,155.5z M343.4,175.2l-5.8-15.6l-5.8,15.6H343.4z"/>
	<path d="M352.7,186.7l9-14c-4.7-0.5-8.1-3-8.1-8.5c0-6.2,4.8-8.6,9.8-8.6h14.9v31.2h-4.1v-13.9H366l-8.7,13.9H352.7z M363.8,169.7
		h10.6v-11h-10.6c-3.4,0-5.8,1.7-5.8,5.5S360.4,169.7,363.8,169.7z"/>
	<path d="M391.4,186.7v-31.2h14.2c5.5,0,10.1,2.6,10.1,8.6s-4.6,8.6-10.1,8.6h-10.1v13.9H391.4z M395.4,169.7h9.8c3.4,0,6-1.7,6-5.5
		s-2.6-5.5-6-5.5h-9.8V169.7z"/>
	<path d="M428.8,155.5h4.8l12,31.2h-4.3l-3.1-8.4h-13.9l-3.1,8.4h-4.3L428.8,155.5z M437,175.2l-5.8-15.6l-5.8,15.6H437z"/>
	<path d="M447.5,155.5h6.2l10.1,26.4l10.1-26.4h6.2v31.2h-4.1v-26.9l-10.3,26.9h-3.8l-10.3-26.9v26.9h-4.1V155.5z"/>
	<path d="M494.1,155.5h4.8l12,31.2h-4.3l-3.1-8.4h-13.9l-3.1,8.4h-4.3L494.1,155.5z M502.3,175.2l-5.8-15.6l-5.8,15.6H502.3z"/>
	<path d="M481.6,119.7l-4,25.6l20.8-23l4.3,0.7l-4.8,30.8l-4-0.6l4-25.6l-20.8,23l-4.3-0.7l4.8-30.8L481.6,119.7z"/>
	<path d="M505.8,145.6c-0.7,4.3,1.7,7.6,7.2,8.4c5.7,0.9,8.7-1.6,9.3-5.1c0.7-4.5-2.7-6.2-6.9-6.9l-5.2-0.8l0.5-3.1l5.2,0.8
		c4.5,0.7,7.5-1.3,8-4.8c0.4-2.6-1.1-5.7-6.7-6.6c-6.2-1-8.4,2.3-8.8,5.2l-4-0.6c0.7-4.3,4.8-8.7,13.3-7.4c8.5,1.3,11,6.1,10.3,10.1
		c-1,6.2-7,6.2-7,6.2l0,0.2c0,0,6.8,1.5,5.7,8.4c-0.8,5.5-6.4,8.5-14,7.3c-7.8-1.2-11.7-5.7-10.8-11.9L505.8,145.6z"/>
	<path d="M541.8,151.1c-0.7,4.3,1.7,7.6,7.2,8.4c5.7,0.9,8.7-1.6,9.3-5.1c0.7-4.5-2.7-6.2-6.9-6.9l-5.2-0.8l0.5-3.1l5.2,0.8
		c4.5,0.7,7.5-1.3,8-4.8c0.4-2.6-1.1-5.7-6.7-6.6c-6.2-1-8.4,2.3-8.8,5.2l-4-0.6c0.7-4.3,4.8-8.7,13.3-7.4s11,6.1,10.3,10.1
		c-1,6.2-7,6.2-7,6.2l0,0.2c0,0,6.8,1.5,5.7,8.4c-0.8,5.5-6.4,8.5-14,7.3c-7.8-1.2-11.7-5.7-10.8-11.9L541.8,151.1z"/>
	<path d="M565.8,148.5c1.4-9.3,7.7-15.3,17.4-13.8c9.7,1.5,13.9,9.2,12.4,18.4c-1.4,9.3-7.7,15.3-17.4,13.8
		C568.5,165.5,564.4,157.8,565.8,148.5z M578.7,164.1c5.9,0.9,11.3-2.6,12.7-11.6c1.4-9-2.7-14-8.6-14.9s-11.3,2.6-12.7,11.6
		C568.7,158.2,572.8,163.2,578.7,164.1z"/>
	<path d="M595.3,165.4c0,0,0.5,0.2,1.2,0.3c3.3,0.5,6.3-1.5,8.7-17l1.5-9.7l20.2,3.1L622,173l-4-0.6l4.3-27.8l-12.3-1.9l-1.1,7.1
		c-2.4,15.7-6.1,20.4-12,19.5c-1.2-0.2-2.1-0.6-2.1-0.6L595.3,165.4z"/>
	<path d="M627.2,158c1.4-9.3,7.7-15.3,17.4-13.8c9.7,1.5,13.9,9.2,12.4,18.4c-1.4,9.3-7.7,15.3-17.4,13.8
		C630,175,625.8,167.3,627.2,158z M640.1,173.6c5.9,0.9,11.3-2.6,12.7-11.6c1.4-9-2.7-14-8.6-14.9c-5.9-0.9-11.3,2.6-12.7,11.6
		C630.1,167.7,634.2,172.7,640.1,173.6z"/>
	<path d="M660.9,150.6l0.5-3.1l25.9,4l-0.5,3.1l-10.9-1.7l-4.3,27.8l-4-0.6l4.3-27.8L660.9,150.6z"/>
	<path d="M700.1,153.5l4.7,0.7l7.1,32.7l-4.3-0.7l-1.8-8.8l-13.8-2.1l-4.4,7.8l-4.3-0.7L700.1,153.5z M705.2,174.2l-3.3-16.4
		l-8.1,14.6L705.2,174.2z"/>
	<path d="M693.3,121.4l6.2-1.1l14.4,24.3l5.5-27.7l6.2-1.1l5.3,30.8l-4,0.7l-4.6-26.5l-5.6,28.2l-3.8,0.7L698.1,125l4.6,26.5l-4,0.7
		L693.3,121.4z"/>
	<path d="M731,130.8c-1.6-9.2,2.4-17,12.1-18.6s16.1,4.3,17.7,13.5s-2.4,17-12.1,18.6C738.9,146,732.5,140,731,130.8z M748.1,141.5
		c5.9-1,9.9-6.1,8.4-15.1c-1.5-9-7-12.4-12.9-11.4c-5.9,1-9.9,6.1-8.4,15.1C736.8,139.1,742.2,142.5,748.1,141.5z"/>
	<path d="M761,109.8l6.2-1.1l14.4,24.3l5.5-27.7l6.2-1.1l5.3,30.8l-4,0.7l-4.6-26.5l-5.6,28.2l-3.8,0.7l-14.7-24.7l4.6,26.5l-4,0.7
		L761,109.8z"/>
	<path d="M796.4,103.7l22.7-3.9l0.5,3.1l-18.7,3.2l1.8,10.4l15.4-2.6l0.5,3.1l-15.4,2.6l1.9,11.1l18.7-3.2l0.5,3.1l-22.7,3.9
		L796.4,103.7z"/>
	<path d="M826,98.6l2.3,13.5l16.6-2.8l-2.3-13.5l4-0.7l5.3,30.8l-4,0.7l-2.4-14.2l-16.6,2.8l2.4,14.2l-4,0.7L822,99.3L826,98.6z"/>
	<path d="M849.5,97.7l-0.5-3.1l25.8-4.4l0.5,3.1l-10.9,1.9l4.8,27.7l-4,0.7l-4.8-27.7L849.5,97.7z"/>
	<path d="M887.5,88l4.7-0.8l17.1,28.7l-4.3,0.7l-4.5-7.8l-13.7,2.4l-1.7,8.8l-4.3,0.7L887.5,88z M898.9,106l-8.4-14.4l-3.1,16.4
		L898.9,106z"/>
	<path d="M909.2,112.5c0,0,0.5,0.1,1.2-0.1c3.3-0.6,5.5-3.5,2.8-18.9l-1.7-9.7l20.1-3.5l5.3,30.8l-4,0.7l-4.8-27.7l-12.3,2.1
		l1.2,7.1c2.7,15.6,0.7,21.3-5.2,22.3c-1.2,0.2-2.2,0.1-2.2,0.1L909.2,112.5z"/>
	<path d="M940.3,110.6L935,79.9l4-0.7l2.3,13.5l10.2-1.7c5.4-0.9,10.1,0.7,11.2,6.8c1.1,6.2-2.8,9.5-8.2,10.4L940.3,110.6z
		 M953.8,105.1c3.3-0.6,5.4-2.9,4.7-6.7c-0.6-3.5-3.3-5-6.6-4.5l-9.9,1.7l1.9,11.1L953.8,105.1z"/>
	<path d="M966,74.5l2.3,13.5l16.6-2.8l-2.3-13.5l4-0.7l5.3,30.8l-4,0.7l-2.4-14.2l-16.6,2.8l2.4,14.2l-4,0.7L962,75.2L966,74.5z"/>
	<path d="M992.1,85.9c-1.6-9.2,2.4-17,12.1-18.6c9.7-1.7,16.1,4.3,17.7,13.5s-2.4,17-12.1,18.6C1000,101.1,993.7,95.1,992.1,85.9z
		 M1009.3,96.5c5.9-1,9.9-6.1,8.4-15.1c-1.5-9-7-12.4-12.9-11.4c-5.9,1-9.9,6.1-8.4,15.1C997.9,94.1,1003.3,97.6,1009.3,96.5z"/>
	<path d="M911.6,119l10.6,19.7l9.1-19.7h4.6l-12,25.2c-2.4,5.1-5,6.2-8.2,6.2c-1.4,0-2.9-0.2-2.9-0.2v-3.5c0,0,1,0.1,2.4,0.1
		c1.7,0,3.4-0.2,5-3.8l-13.2-24H911.6z"/>
	<path d="M936.3,146.8c0,0,0.5,0.1,1.2,0.1c3.4,0,6-2.5,6-18.1V119H964v31.2h-4.1v-28.1h-12.5v7.2c0,15.8-2.9,21.1-8.9,21.1
		c-1.2,0-2.2-0.2-2.2-0.2V146.8z"/>
	<path d="M970.4,119l10.6,19.7l9.1-19.7h4.6l-12,25.2c-2.4,5.1-5,6.2-8.2,6.2c-1.4,0-2.9-0.2-2.9-0.2v-3.5c0,0,1,0.1,2.4,0.1
		c1.7,0,3.4-0.2,5-3.8l-13.2-24H970.4z"/>
	<path d="M1000.2,119v8.9c0,4.8,1.7,8.2,8.2,8.2c4.8,0,7.7-2.4,7.7-4.3V119h4.1v31.2h-4.1v-14.6c0,0-2.9,3.6-8.9,3.6
		c-7.7,0-11-4.1-11-10.3V119H1000.2z"/>
	<path d="M1023.5,150.2V119h4.1v28.1h11.7V119h4v28.1h11.7V119h4.1v31.2H1023.5z"/>
	<path d="M1066.4,119v25.9l17-25.9h4.3v31.2h-4.1v-25.9l-17,25.9h-4.3V119H1066.4z"/>
	<path d="M1090.2,122.1V119h26.2v3.1h-11v28.1h-4.1v-28.1H1090.2z"/>
	<path d="M1128.3,150.2V119h14.2c5.8,0,9.8,2.2,9.8,7.9c0,5.8-5.3,7-5.3,7v0.2c0,0,6.2,1.2,6.2,7.4c0,6.2-4.3,8.6-10.8,8.6H1128.3z
		 M1132.4,122.1v10.6h10.1c3.4,0,5.8-1.7,5.8-5.5c0-3.6-2.4-5-5.8-5H1132.4z M1142.5,147.1c3.8,0,6.5-1.7,6.5-5.5s-2.9-5.8-6.5-5.8
		h-10.1v11.3H1142.5z"/>
	<path d="M1160,119v25.9l17-25.9h4.3v31.2h-4.1v-25.9l-17,25.9h-4.3V119H1160z"/>
	<path d="M1183.5,157.4v-10.3h1c3.4,0,6.2-6,6.2-20.6V119h20.2v28.1h4.3v10.3h-4.1v-7.2h-23.5v7.2H1183.5z M1206.8,147.1v-25h-12.2
		v4.8c0,11.2-1.7,18-4.6,20.2H1206.8z"/>
	<path d="M989.6,180.9c0,0,0.5,0.1,1.2,0.1c3.4,0,6-2.5,6-18.1v-9.8h20.4v31.2h-4.1v-28.1h-12.5v7.2c0,15.8-2.9,21.1-8.9,21.1
		c-1.2,0-2.2-0.2-2.2-0.2V180.9z"/>
	<path d="M1020.6,153.1h4.1v13.7h5.1c0.6-8,5.2-14.4,14.4-14.4c9.8,0,14.4,7.4,14.4,16.3c0,8.9-4.6,16.3-14.4,16.3
		c-9.4,0-14-6.8-14.4-15.1h-5v14.4h-4.1V153.1z M1034,168.7c0,8.6,4.1,13.4,10.1,13.4s10.1-4.8,10.1-13.4c0-8.6-4.1-13.4-10.1-13.4
		S1034,160,1034,168.7z"/>
	<path d="M1061.4,153.1h23.3v3.1h-19.2v10.6h10.8c5.5,0,9.8,2.4,9.8,8.6c0,6.2-4.3,8.9-9.8,8.9h-14.9V153.1z M1076,181.2
		c3.4,0,5.8-1.9,5.8-5.8c0-3.6-2.4-5.5-5.8-5.5h-10.6v11.3H1076z"/>
	<path d="M1088.7,168.7c0-9.4,5.3-16.3,15.1-16.3c9.8,0,15.1,7,15.1,16.3s-5.3,16.3-15.1,16.3C1094,185,1088.7,178,1088.7,168.7z
		 M1103.9,182.1c6,0,10.8-4.3,10.8-13.4c0-9.1-4.8-13.4-10.8-13.4s-10.8,4.3-10.8,13.4C1093.1,177.8,1097.9,182.1,1103.9,182.1z"/>
	<path d="M1121.9,184.3v-31.2h4.1V179l17-25.9h4.3v31.2h-4.1v-25.9l-17,25.9H1121.9z M1130.5,147.1c0,1.9,1,3.6,4.1,3.6
		c3.1,0,4.1-1.7,4.1-3.6h3.8c0,2.2-1.2,6-7.9,6s-7.9-3.8-7.9-6H1130.5z"/>
	<path d="M1160.3,184.3v-31.2h4.1v16.1l15.1-16.1h4.7l-12,12.6l12.7,18.6h-4.9l-10.4-15.9l-5.1,5.3v10.6H1160.3z"/>
	<path d="M1197.7,153.1h4.8l12,31.2h-4.3l-3.1-8.4h-13.9l-3.1,8.4h-4.3L1197.7,153.1z M1205.9,172.8l-5.8-15.6l-5.8,15.6H1205.9z"/>
	<path d="M1216.4,184.3v-31.2h14.2c5.5,0,10.1,2.6,10.1,8.6s-4.6,8.6-10.1,8.6h-10.1v13.9H1216.4z M1220.5,167.2h9.8
		c3.4,0,6-1.7,6-5.5s-2.6-5.5-6-5.5h-9.8V167.2z"/>
	<path d="M1242.3,156.2v-3.1h26.2v3.1h-11v28.1h-4.1v-28.1H1242.3z"/>
	<path d="M1275,153.1V179l17-25.9h4.3v31.2h-4.1v-25.9l-17,25.9h-4.3v-31.2H1275z"/>
	<path d="M1303.8,153.1v13.7h16.8v-13.7h4.1v31.2h-4.1v-14.4h-16.8v14.4h-4.1v-31.2H1303.8z"/>
	<path d="M1332.1,153.1v13.7h9.1c5.5,0,9.8,2.4,9.8,8.6c0,6.2-4.3,8.9-9.8,8.9H1328v-31.2H1332.1z M1341,181.2
		c3.4,0,5.8-1.9,5.8-5.8c0-3.6-2.4-5.5-5.8-5.5h-8.9v11.3H1341z M1358,153.1v31.2h-4.1v-31.2H1358z"/>
	<path d="M1603.3,118.3V108h1c3.4,0,6.2-6,6.2-20.6v-7.4h20.2V108h4.3v10.3h-4.1v-7.2h-23.5v7.2H1603.3z M1626.6,108V83h-12.2v4.8
		c0,11.2-1.7,18-4.6,20.2H1626.6z"/>
	<path d="M1647.7,79.9h4.8l12,31.2h-4.3l-3.1-8.4h-13.9l-3.1,8.4h-4.3L1647.7,79.9z M1655.9,99.6l-5.8-15.6l-5.8,15.6H1655.9z"/>
	<path d="M1665.5,111.1l14.2-16.6l-14.2-14.6h4.8l13,13.9V79.9h4.1v13.9l13-13.9h4.8l-14.2,14.6l14.2,16.6h-5.3l-12.5-15.4v15.4
		h-4.1V95.7l-12.5,15.4H1665.5z"/>
	<path d="M1707.5,79.9h23V83h-19v10.6h15.6v3.1h-15.6V108h19v3.1h-23V79.9z"/>
	<path d="M1602.9,118.5c9.8,0,13,5.8,13.4,11h-4.1c-0.5-5.3-4.1-8.2-9.4-8.2c-6,0-10.1,4.6-10.1,13.4c0,8.9,4.1,13.4,10.1,13.4
		c5.3,0,8.9-2.9,9.4-8.2h4.1c-0.5,5.3-3.6,11-13.4,11c-9.6,0-14.4-6.7-14.4-16.3C1588.5,125.2,1593.3,118.5,1602.9,118.5z"/>
	<path d="M1629.8,119.2h4.8l12,31.2h-4.3l-3.1-8.4h-13.9l-3.1,8.4h-4.3L1629.8,119.2z M1638,138.9l-5.8-15.6l-5.8,15.6H1638z"/>
	<path d="M1648.5,119.2h6.2l10.1,26.4l10.1-26.4h6.2v31.2h-4.1v-26.9l-10.3,26.9h-3.8l-10.3-26.9v26.9h-4.1V119.2z"/>
	<path d="M1684.1,134.8c0-9.4,5.3-16.3,15.1-16.3c9.8,0,15.1,7,15.1,16.3s-5.3,16.3-15.1,16.3
		C1689.3,151.1,1684.1,144.1,1684.1,134.8z M1699.2,148.2c6,0,10.8-4.3,10.8-13.4c0-9.1-4.8-13.4-10.8-13.4s-10.8,4.3-10.8,13.4
		C1688.4,143.9,1693.2,148.2,1699.2,148.2z"/>
	<path d="M1717.2,150.4v-31.2h4.1v25.9l17-25.9h4.3v31.2h-4.1v-25.9l-17,25.9H1717.2z M1725.8,113.2c0,1.9,1,3.6,4.1,3.6
		c3.1,0,4.1-1.7,4.1-3.6h3.8c0,2.2-1.2,6-7.9,6s-7.9-3.8-7.9-6H1725.8z"/>
	<path d="M1570.3,153.7h23.3v3.1h-19.2v10.6h10.8c5.5,0,9.8,2.4,9.8,8.6c0,6.2-4.3,8.9-9.8,8.9h-14.9V153.7z M1584.9,181.8
		c3.4,0,5.8-1.9,5.8-5.8c0-3.6-2.4-5.5-5.8-5.5h-10.6v11.3H1584.9z"/>
	<path d="M1598.1,153.7h23v3.1h-19v10.6h15.6v3.1h-15.6v11.3h19v3.1h-23V153.7z"/>
	<path d="M1627.2,175.5c0,4.3,2.9,7.2,8.4,7.2c5.8,0,8.4-2.9,8.4-6.5c0-4.6-3.6-5.8-7.9-5.8h-5.3v-3.1h5.3c4.6,0,7.2-2.4,7.2-6
		c0-2.6-1.9-5.5-7.7-5.5c-6.2,0-7.9,3.6-7.9,6.5h-4.1c0-4.3,3.4-9.4,12-9.4s11.8,4.3,11.8,8.4c0,6.2-6,7.2-6,7.2v0.2
		c0,0,7,0.5,7,7.4c0,5.5-5,9.4-12.7,9.4c-7.9,0-12.5-3.8-12.5-10.1H1627.2z"/>
	<path d="M1649.7,192.1v-10.3h1c3.4,0,6.2-6,6.2-20.6v-7.4h20.2v28.1h4.3v10.3h-4.1v-7.2h-23.5v7.2H1649.7z M1673,181.8v-25h-12.2
		v4.8c0,11.2-1.7,18-4.6,20.2H1673z"/>
	<path d="M1694.1,153.7h4.8l12,31.2h-4.3l-3.1-8.4h-13.9l-3.1,8.4h-4.3L1694.1,153.7z M1702.3,173.4l-5.8-15.6l-5.8,15.6H1702.3z"/>
	<path d="M1712.9,184.9v-31.2h14.2c5.5,0,10.1,2.6,10.1,8.6s-4.6,8.6-10.1,8.6h-10.1v13.9H1712.9z M1716.9,167.8h9.8
		c3.4,0,6-1.7,6-5.5s-2.6-5.5-6-5.5h-9.8V167.8z"/>
	<path d="M1743.8,153.7v13.7h16.8v-13.7h4.1v31.2h-4.1v-14.4h-16.8v14.4h-4.1v-31.2H1743.8z"/>
	<path d="M1767.6,169.3c0-9.4,5.3-16.3,15.1-16.3c9.8,0,15.1,7,15.1,16.3s-5.3,16.3-15.1,16.3
		C1772.9,185.6,1767.6,178.6,1767.6,169.3z M1782.7,182.7c6,0,10.8-4.3,10.8-13.4c0-9.1-4.8-13.4-10.8-13.4s-10.8,4.3-10.8,13.4
		C1771.9,178.4,1776.7,182.7,1782.7,182.7z"/>
	<path d="M1800.7,184.9v-31.2h4.1v25.9l17-25.9h4.3v31.2h-4.1V159l-17,25.9H1800.7z M1809.3,147.7c0,1.9,1,3.6,4.1,3.6
		c3.1,0,4.1-1.7,4.1-3.6h3.8c0,2.2-1.2,6-7.9,6s-7.9-3.8-7.9-6H1809.3z"/>
</g>
<g id="Layer_2">
</g>
</svg>
