<?xml version="1.0" encoding="utf-8"?>
<!-- Generator: Adobe Illustrator 25.0.1, SVG Export Plug-In . SVG Version: 6.00 Build 0)  -->
<svg version="1.1" xmlns="http://www.w3.org/2000/svg" xmlns:xlink="http://www.w3.org/1999/xlink" x="0px" y="0px"
	 viewBox="0 0 1920 192" style="enable-background:new 0 0 1920 192;" xml:space="preserve">
<g id="Layer_1">
	<path d="M152.5,58.2c-1.7-9.2,2.3-17,12-18.8s16.1,4.1,17.8,13.4s-2.3,17-12,18.8S154.2,67.4,152.5,58.2z M169.8,68.7
		c5.9-1.1,9.9-6.2,8.2-15.2c-1.6-9-7.1-12.4-13-11.3c-5.9,1.1-9.9,6.2-8.2,15.2C158.4,66.4,163.9,69.8,169.8,68.7z"/>
	<path d="M185.8,36.2l1.6,8.7c0.9,4.7,3.1,7.7,9.5,6.6c4.7-0.9,7.1-3.7,6.8-5.6l-2.3-12.5l4-0.7l5.6,30.7l-4,0.7l-2.6-14.4
		c0,0-2.2,4.1-8.1,5.1c-7.6,1.4-11.6-2-12.7-8.2l-1.8-9.7L185.8,36.2z"/>
	<path d="M214.3,62.8l-5.6-30.7l4-0.7l2.9,15.8l12-18.5l4.6-0.8l-9.6,14.5l15.8,16.1l-4.8,0.9l-13.1-13.8l-4.1,6.2l1.9,10.4
		L214.3,62.8z"/>
	<path d="M239.2,26.6l4.6,25.5L256,23.5l4.3-0.8l5.6,30.7l-4,0.7l-4.6-25.5L245,57.2l-4.3,0.8l-5.6-30.7L239.2,26.6z"/>
	<path d="M261.7,71.5V61.2h1c3.4,0,6.2-6,6.2-20.6v-7.4H289v28.1h4.3v10.3h-4.1v-7.2h-23.5v7.2H261.7z M285,61.2v-25h-12.2V41
		c0,11.2-1.7,18-4.6,20.2H285z"/>
	<path d="M294.1,60.9c0,0,0.5,0.1,1.2,0.1c3.4,0,6-2.5,6-18.1v-9.8h20.4v31.2h-4.1V36.2h-12.5v7.2c0,15.8-2.9,21.1-8.9,21.1
		c-1.2,0-2.2-0.2-2.2-0.2V60.9z"/>
	<path d="M323.8,64.3l9-14c-4.7-0.5-8.1-3-8.1-8.5c0-6.2,4.8-8.6,9.8-8.6h14.9v31.2h-4.1V50.4h-8.3l-8.7,13.9H323.8z M334.9,47.3
		h10.6v-11h-10.6c-3.4,0-5.8,1.7-5.8,5.5S331.5,47.3,334.9,47.3z"/>
	<path d="M94,72c9.8,0,13,5.8,13.4,11h-4.1c-0.5-5.3-4.1-8.2-9.4-8.2c-6,0-10.1,4.6-10.1,13.4c0,8.9,4.1,13.4,10.1,13.4
		c5.3,0,8.9-2.9,9.4-8.2h4.1c-0.5,5.3-3.6,11-13.4,11c-9.6,0-14.4-6.7-14.4-16.3C79.6,78.7,84.4,72,94,72z"/>
	<path d="M120.9,72.7h4.8l12,31.2h-4.3l-3.1-8.4h-13.9l-3.1,8.4h-4.3L120.9,72.7z M129.1,92.4l-5.8-15.6l-5.8,15.6H129.1z"/>
	<path d="M139.6,72.7h6.2L156,99.1L166,72.7h6.2v31.2h-4.1V77l-10.3,26.9H154L143.7,77v26.9h-4.1V72.7z"/>
	<path d="M179.7,72.7v13.7h9.1c5.5,0,9.8,2.4,9.8,8.6c0,6.2-4.3,8.9-9.8,8.9h-13.2V72.7H179.7z M188.6,100.8c3.4,0,5.8-1.9,5.8-5.8
		c0-3.6-2.4-5.5-5.8-5.5h-8.9v11.3H188.6z M205.6,72.7v31.2h-4.1V72.7H205.6z"/>
	<path d="M220.2,87.8l-11.7-15.1h5l8.9,12.4l8.9-12.4h5l-11.7,15.1l12.1,16.1h-5l-9.4-13.2l-9.4,13.2h-5L220.2,87.8z"/>
	<path d="M248.8,103.9V72.7h4.1v16.1L268,72.7h4.7l-12,12.6l12.7,18.6h-4.9L258,88l-5.1,5.3v10.6H248.8z"/>
	<path d="M275.7,103.9V72.7h14.2c5.5,0,10.1,2.6,10.1,8.6s-4.6,8.6-10.1,8.6h-10.1v13.9H275.7z M279.8,86.9h9.8c3.4,0,6-1.7,6-5.5
		s-2.6-5.5-6-5.5h-9.8V86.9z"/>
	<path d="M305.7,72.7l10.6,19.7l9.1-19.7h4.6l-12,25.2c-2.4,5.1-5,6.2-8.2,6.2c-1.4,0-2.9-0.2-2.9-0.2v-3.5c0,0,1,0.1,2.4,0.1
		c1.7,0,3.4-0.2,5-3.8l-13.2-24H305.7z"/>
	<path d="M330.9,75.8v-3.1h26.2v3.1h-11v28.1H342V75.8H330.9z"/>
	<path d="M363.6,72.7v13.7h9.1c5.5,0,9.8,2.4,9.8,8.6c0,6.2-4.3,8.9-9.8,8.9h-13.2V72.7H363.6z M372.4,100.8c3.4,0,5.8-1.9,5.8-5.8
		c0-3.6-2.4-5.5-5.8-5.5h-8.9v11.3H372.4z M389.5,72.7v31.2h-4.1V72.7H389.5z"/>
	<path d="M404,87.8l-11.7-15.1h5l8.9,12.4l8.9-12.4h5l-11.7,15.1l12.1,16.1h-5l-9.4-13.2l-9.4,13.2h-5L404,87.8z"/>
	<path d="M79.5,109.8h25V141h-4.1v-28.1H83.6V141h-4.1V109.8z"/>
	<path d="M107.4,125.4c0-9.4,5.3-16.3,15.1-16.3s15.1,7,15.1,16.3s-5.3,16.3-15.1,16.3S107.4,134.8,107.4,125.4z M122.5,138.9
		c6,0,10.8-4.3,10.8-13.4c0-9.1-4.8-13.4-10.8-13.4c-6,0-10.8,4.3-10.8,13.4C111.7,134.5,116.5,138.9,122.5,138.9z"/>
	<path d="M139.3,148.2v-10.3h1c3.4,0,6.2-6,6.2-20.6v-7.4h20.2v28.1h4.3v10.3h-4.1V141h-23.5v7.2H139.3z M162.6,137.9v-25h-12.2v4.8
		c0,11.2-1.7,18-4.6,20.2H162.6z"/>
	<path d="M176.7,109.8v8.9c0,4.8,1.7,8.2,8.2,8.2c4.8,0,7.7-2.4,7.7-4.3v-12.7h4.1V141h-4.1v-14.6c0,0-2.9,3.6-8.9,3.6
		c-7.7,0-11-4.1-11-10.3v-9.8H176.7z"/>
	<path d="M200,109.8h23v3.1h-19v10.6h15.6v3.1h-15.6v11.3h19v3.1h-23V109.8z"/>
	<path d="M225.9,141v-31.2h14.2c5.5,0,10.1,2.6,10.1,8.6s-4.6,8.6-10.1,8.6H230V141H225.9z M230,124h9.8c3.4,0,6-1.7,6-5.5
		s-2.6-5.5-6-5.5H230V124z"/>
	<path d="M252.8,141v-31.2h4.1v16.1l15.1-16.1h4.7l-12,12.6l12.7,18.6h-4.9L262,125.1l-5.1,5.3V141H252.8z"/>
	<path d="M283.8,109.8v25.9l17-25.9h4.3V141H301v-25.9L284,141h-4.3v-31.2H283.8z"/>
	<path d="M308.5,141v-31.2h14.2c5.8,0,9.8,2.2,9.8,7.9c0,5.8-5.3,7-5.3,7v0.2c0,0,6.2,1.2,6.2,7.4c0,6.2-4.3,8.6-10.8,8.6H308.5z
		 M312.6,112.9v10.6h10.1c3.4,0,5.8-1.7,5.8-5.5c0-3.6-2.4-5-5.8-5H312.6z M322.6,137.9c3.8,0,6.5-1.7,6.5-5.5s-2.9-5.8-6.5-5.8
		h-10.1v11.3H322.6z"/>
	<path d="M346.6,109.8h4.8l12,31.2h-4.3l-3.1-8.4h-13.9L339,141h-4.3L346.6,109.8z M354.8,129.5l-5.8-15.6l-5.8,15.6H354.8z"/>
	<path d="M365.4,109.8h4.1v13.7h5.1c0.6-8,5.2-14.4,14.4-14.4c9.8,0,14.4,7.4,14.4,16.3c0,8.9-4.6,16.3-14.4,16.3
		c-9.4,0-14-6.8-14.4-15.1h-5V141h-4.1V109.8z M378.8,125.4c0,8.6,4.1,13.4,10.1,13.4c6,0,10.1-4.8,10.1-13.4
		c0-8.6-4.1-13.4-10.1-13.4C382.9,112,378.8,116.8,378.8,125.4z"/>
	<path d="M405.2,112.9v-3.1h26.2v3.1h-11V141h-4.1v-28.1H405.2z"/>
	<path d="M61,177.4v-31.2h14.2c5.8,0,9.8,2.2,9.8,7.9c0,5.8-5.3,7-5.3,7v0.2c0,0,6.2,1.2,6.2,7.4c0,6.2-4.3,8.6-10.8,8.6H61z
		 M65.1,149.3v10.6h10.1c3.4,0,5.8-1.7,5.8-5.5c0-3.6-2.4-5-5.8-5H65.1z M75.2,174.3c3.8,0,6.5-1.7,6.5-5.5s-2.9-5.8-6.5-5.8H65.1
		v11.3H75.2z"/>
	<path d="M99.2,146.2h4.8l12,31.2h-4.3l-3.1-8.4H94.6l-3.1,8.4h-4.3L99.2,146.2z M107.4,165.9l-5.8-15.6l-5.8,15.6H107.4z"/>
	<path d="M117.9,177.4v-31.2h4.1v28.1h11.7v-28.1h4v28.1h11.7v-28.1h4.1v31.2H117.9z"/>
	<path d="M180.3,145.5c9.8,0,13,5.8,13.4,11h-4.1c-0.5-5.3-4.1-8.2-9.4-8.2c-6,0-10.1,4.6-10.1,13.4c0,8.9,4.1,13.4,10.1,13.4
		c5.3,0,8.9-2.9,9.4-8.2h4.1c-0.5,5.3-3.6,11-13.4,11c-9.6,0-14.4-6.7-14.4-16.3C165.9,152.2,170.7,145.5,180.3,145.5z"/>
	<path d="M196.2,161.8c0-9.4,5.3-16.3,15.1-16.3s15.1,7,15.1,16.3s-5.3,16.3-15.1,16.3S196.2,171.1,196.2,161.8z M211.3,175.2
		c6,0,10.8-4.3,10.8-13.4c0-9.1-4.8-13.4-10.8-13.4c-6,0-10.8,4.3-10.8,13.4C200.5,170.9,205.3,175.2,211.3,175.2z"/>
	<path d="M227.8,174c0,0,0.5,0.1,1.2,0.1c3.4,0,6-2.5,6-18.1v-9.8h20.4v31.2h-4.1v-28.1h-12.5v7.2c0,15.8-2.9,21.1-8.9,21.1
		c-1.2,0-2.2-0.2-2.2-0.2V174z"/>
	<path d="M262.9,146.2v25.9l17-25.9h4.3v31.2h-4.1v-25.9l-17,25.9h-4.3v-31.2H262.9z"/>
	<path d="M286.4,184.6v-10.3h1c3.4,0,6.2-6,6.2-20.6v-7.4h20.2v28.1h4.3v10.3H314v-7.2h-23.5v7.2H286.4z M309.7,174.3v-25h-12.2v4.8
		c0,11.2-1.7,18-4.6,20.2H309.7z"/>
	<path d="M324.3,146.2v13.7h16.8v-13.7h4.1v31.2h-4.1V163h-16.8v14.4h-4.1v-31.2H324.3z"/>
	<path d="M352.6,146.2v13.7h9.1c5.5,0,9.8,2.4,9.8,8.6c0,6.2-4.3,8.9-9.8,8.9h-13.2v-31.2H352.6z M361.5,174.3
		c3.4,0,5.8-1.9,5.8-5.8c0-3.6-2.4-5.5-5.8-5.5h-8.9v11.3H361.5z M378.6,146.2v31.2h-4.1v-31.2H378.6z"/>
	<path d="M381.9,177.4v-31.2h4.1v25.9l17-25.9h4.3v31.2h-4.1v-25.9l-17,25.9H381.9z M390.6,140.2c0,1.9,1,3.6,4.1,3.6
		s4.1-1.7,4.1-3.6h3.8c0,2.2-1.2,6-7.9,6s-7.9-3.8-7.9-6H390.6z"/>
	<path d="M431.5,161.3l-11.7-15.1h5l8.9,12.4l8.9-12.4h5L436,161.3l12.1,16.1h-5l-9.4-13.2l-9.4,13.2h-5L431.5,161.3z"/>
	<path d="M461.1,146.2h4.8l12,31.2h-4.3l-3.1-8.4h-13.9l-3.1,8.4h-4.3L461.1,146.2z M469.3,165.9l-5.8-15.6l-5.8,15.6H469.3z"/>
	<path d="M479.8,177.4v-31.2H494c5.5,0,10.1,2.6,10.1,8.6s-4.6,8.6-10.1,8.6h-10.1v13.9H479.8z M483.9,160.3h9.8c3.4,0,6-1.7,6-5.5
		s-2.6-5.5-6-5.5h-9.8V160.3z"/>
	<path d="M517.3,146.2h4.8l12,31.2h-4.3l-3.1-8.4h-13.9l-3.1,8.4h-4.3L517.3,146.2z M525.5,165.9l-5.8-15.6l-5.8,15.6H525.5z"/>
	<path d="M536,177.4v-31.2h4.1v16.1l15.1-16.1h4.7l-12,12.6l12.7,18.6h-4.9l-10.4-15.9l-5.1,5.3v10.6H536z"/>
	<path d="M561.9,149.3v-3.1h26.2v3.1h-11v28.1h-4.1v-28.1H561.9z"/>
	<path d="M590.5,146.2h23v3.1h-19v10.6h15.6v3.1h-15.6v11.3h19v3.1h-23V146.2z"/>
	<path d="M616.4,177.4v-31.2h14.2c5.5,0,10.1,2.6,10.1,8.6s-4.6,8.6-10.1,8.6h-10.1v13.9H616.4z M620.5,160.3h9.8c3.4,0,6-1.7,6-5.5
		s-2.6-5.5-6-5.5h-9.8V160.3z"/>
	<path d="M666.4,147.4v25.9l17-25.9h4.3v31.2h-4.1v-25.9l-17,25.9h-4.3v-31.2H666.4z"/>
	<path d="M686,114.4l24.9,2l-2.5,31.1l-4.1-0.3l2.3-28l-16.7-1.3l-2.3,28l-4.1-0.3L686,114.4z"/>
	<path d="M711.7,147.8l2.5-31.1l14.1,1.1c5.5,0.4,9.8,3.4,9.4,9.4c-0.5,6-5.2,8.2-10.7,7.8l-10-0.8l-1.1,13.9L711.7,147.8z
		 M717.1,131.1l9.8,0.8c3.3,0.3,6.1-1.2,6.4-5s-2.2-5.7-5.5-6l-9.8-0.8L717.1,131.1z"/>
	<path d="M745.1,119.2L743,145l19.1-24.5l4.3,0.3l-2.5,31.1l-4.1-0.3l2.1-25.8l-19.1,24.5l-4.3-0.3l2.5-31.1L745.1,119.2z"/>
	<path d="M765.4,159.3l0.8-10.3l1,0.1c3.3,0.3,6.7-5.5,7.9-20.1l0.6-7.4l20.1,1.6l-2.3,28l4.3,0.3l-0.8,10.3l-4.1-0.3l0.6-7.2
		l-23.4-1.9l-0.6,7.2L765.4,159.3z M789.5,150.9l2-24.9l-12.2-1l-0.4,4.8c-0.9,11.1-3.1,17.8-6.2,19.7L789.5,150.9z"/>
	<path d="M812.8,124.6l4.8,0.4l9.5,32.1l-4.3-0.3l-2.4-8.6l-13.9-1.1l-3.8,8.1l-4.3-0.3L812.8,124.6z M819.4,144.9l-4.5-16.1
		l-7,15.1L819.4,144.9z"/>
	<path d="M831.4,126.1l4.1,0.3l-1.1,13.6l5.1,0.4c1.3-7.9,6.4-13.9,15.5-13.2c9.8,0.8,13.8,8.6,13,17.4c-0.7,8.9-5.9,15.9-15.7,15.1
		c-9.4-0.8-13.4-7.9-13.1-16.2l-5-0.4l-1.2,14.4l-4.1-0.3L831.4,126.1z M843.6,142.7c-0.7,8.6,3,13.7,9,14.2c6,0.5,10.4-4,11.1-12.6
		c0.7-8.6-3-13.7-9-14.2C848.7,129.7,844.3,134.1,843.6,142.7z"/>
	<path d="M870.9,132.4l0.3-3.1l26.1,2.1l-0.3,3.1l-11-0.9l-2.3,28l-4.1-0.3l2.3-28L870.9,132.4z"/>
	<path d="M912.3,132.6l9,20.5l10.6-18.9l4.5,0.4l-14,24.2c-2.8,4.9-5.5,5.8-8.6,5.6c-1.4-0.1-2.9-0.5-2.9-0.5l0.3-3.5
		c0,0,0.9,0.2,2.4,0.3c1.7,0.1,3.4,0.1,5.3-3.4l-11.2-25L912.3,132.6z"/>
	<path d="M935.9,165.8l2.5-31.1l14.1,1.1c5.7,0.5,9.6,2.9,9.2,8.7c-0.5,5.7-5.8,6.5-5.8,6.5l0,0.2c0,0,6.1,1.7,5.6,7.9
		c-0.5,6.2-5,8.3-11.5,7.7L935.9,165.8z M942.2,138.2l-0.8,10.5l10,0.8c3.3,0.3,5.9-1.2,6.2-5c0.3-3.6-2-5.2-5.3-5.5L942.2,138.2z
		 M950.2,163.9c3.8,0.3,6.6-1.2,6.9-5c0.3-3.8-2.4-6-6-6.3l-10-0.8l-0.9,11.2L950.2,163.9z"/>
	<path d="M965.9,136.9l23,1.9l-0.3,3.1l-18.9-1.5l-0.8,10.5l15.6,1.3l-0.3,3.1l-15.6-1.3l-0.9,11.2l18.9,1.5l-0.3,3.1l-23-1.9
		L965.9,136.9z"/>
	<path d="M989.2,170.1l2.5-31.1l14.1,1.1c5.5,0.4,9.8,3.4,9.4,9.4c-0.5,6-5.2,8.2-10.7,7.8l-10-0.8l-1.1,13.9L989.2,170.1z
		 M994.6,153.5l9.8,0.8c3.3,0.3,6.1-1.2,6.4-5c0.3-3.8-2.2-5.7-5.5-6l-9.8-0.8L994.6,153.5z"/>
	<path d="M1018.5,141.2l23,1.9l-0.3,3.1l-18.9-1.5l-0.8,10.5l15.6,1.3l-0.3,3.1l-15.6-1.3l-0.9,11.2l18.9,1.5l-0.3,3.1l-23-1.9
		L1018.5,141.2z"/>
	<path d="M1048.4,143.6l-1.1,13.6l16.7,1.3l1.1-13.6l4.1,0.3l-2.5,31.1l-4.1-0.3l1.2-14.4l-16.7-1.3l-1.2,14.4l-4.1-0.3l2.5-31.1
		L1048.4,143.6z"/>
	<path d="M1076.6,145.9l-1.1,13.6l16.7,1.3l1.1-13.6l4.1,0.3l-2.5,31.1l-4.1-0.3l1.2-14.4l-16.7-1.3l-1.2,14.4l-4.1-0.3l2.5-31.1
		L1076.6,145.9z"/>
	<path d="M1099.1,163.3c0.8-9.3,6.6-15.8,16.4-15.1c9.8,0.8,14.5,8.2,13.8,17.5c-0.8,9.3-6.6,15.8-16.4,15.1
		C1103,180,1098.3,172.6,1099.1,163.3z M1113.1,177.9c6,0.5,11.1-3.4,11.8-12.5c0.7-9.1-3.7-13.8-9.7-14.3
		c-6-0.5-11.1,3.4-11.8,12.5C1102.6,172.8,1107.1,177.4,1113.1,177.9z"/>
	<path d="M1147.3,150.8c9.8,0.8,12.5,6.8,12.5,12.1l-4.1-0.3c-0.1-5.3-3.4-8.5-8.7-8.9c-6-0.5-10.4,3.7-11.1,12.6
		c-0.7,8.9,3,13.7,9,14.2c5.3,0.4,9.1-2.2,10-7.4l4.1,0.3c-0.9,5.2-4.5,10.7-14.3,9.9c-9.6-0.8-13.8-7.9-13-17.4
		C1132.4,156.4,1137.7,150.1,1147.3,150.8z"/>
	<path d="M1162.3,155.9l0.3-3.1l26.1,2.1l-0.3,3.1l-11-0.9l-2.3,28l-4.1-0.3l2.3-28L1162.3,155.9z"/>
	<path d="M1195.1,155.4l-2.1,25.8l19.1-24.5l4.3,0.3l-2.5,31.1l-4.1-0.3l2.1-25.8l-19.1,24.5l-4.3-0.3l2.5-31.1L1195.1,155.4z"/>
</g>
<g id="Layer_2">
</g>
</svg>
