<?xml version="1.0" encoding="utf-8"?>
<!-- Generator: Adobe Illustrator 25.0.1, SVG Export Plug-In . SVG Version: 6.00 Build 0)  -->
<svg version="1.1" xmlns="http://www.w3.org/2000/svg" xmlns:xlink="http://www.w3.org/1999/xlink" x="0px" y="0px"
	 viewBox="0 0 1920 192" style="enable-background:new 0 0 1920 192;" xml:space="preserve">
<g id="Layer_1">
	<g>
		<path d="M66.9,184.8l-4.5-30.9l14-2c5.5-0.8,10.4,1.2,11.2,7.1s-3.3,9.2-8.7,10l-10,1.5l2,13.8L66.9,184.8z M68.5,167.3l9.7-1.4
			c3.3-0.5,5.7-2.5,5.1-6.3s-3.4-5.1-6.7-4.6l-9.7,1.4L68.5,167.3z"/>
		<path d="M99.4,148.5l4.8-0.7l16.4,29.1l-4.3,0.6l-4.3-7.9l-13.8,2l-1.9,8.8l-4.3,0.6L99.4,148.5z M110.4,166.8l-8-14.6l-3.5,16.3
			L110.4,166.8z"/>
		<path d="M131.6,143c9.7-1.4,13.7,3.8,14.9,9l-4,0.6c-1.2-5.2-5.2-7.5-10.4-6.7c-5.9,0.9-9.3,6-8,14.8c1.3,8.8,6,12.7,11.9,11.8
			c5.2-0.8,8.4-4.1,8.1-9.4l4-0.6c0.3,5.3-2,11.4-11.7,12.9c-9.5,1.4-15.2-4.6-16.6-14.1C118.3,151.8,122.1,144.4,131.6,143z"/>
		<path d="M151.4,140.9l1.3,8.8c0.7,4.8,2.8,7.8,9.3,6.9c4.8-0.7,7.3-3.5,7-5.4l-1.8-12.6l4-0.6l4.5,30.9l-4,0.6l-2.1-14.5
			c0,0-2.3,4-8.3,4.8c-7.6,1.1-11.5-2.4-12.4-8.6l-1.4-9.7L151.4,140.9z"/>
		<path d="M174.5,137.5l22.8-3.3l0.5,3.1L179,140l1.5,10.5l15.4-2.3l0.5,3.1l-15.4,2.3l1.6,11.2l18.8-2.7l0.5,3.1l-22.8,3.3
			L174.5,137.5z"/>
		<path d="M213.8,131.1c9.7-1.4,13.7,3.8,14.9,9l-4,0.6c-1.2-5.2-5.2-7.5-10.4-6.7c-5.9,0.9-9.3,6-8,14.8c1.3,8.8,6,12.7,11.9,11.8
			c5.2-0.8,8.4-4.1,8.1-9.4l4-0.6c0.3,5.3-2,11.4-11.7,12.9c-9.5,1.4-15.2-4.6-16.6-14.1C200.5,139.8,204.3,132.4,213.8,131.1z"/>
		<path d="M234.5,160.3l-4.5-30.9l4-0.6l2.3,15.9l12.6-18.1l4.6-0.7l-10.1,14.2l15.2,16.6l-4.8,0.7l-12.6-14.2l-4.3,6l1.5,10.5
			L234.5,160.3z"/>
		<path d="M267.1,124l4.8-0.7l16.4,29.1l-4.3,0.6l-4.3-7.9l-13.8,2L264,156l-4.3,0.6L267.1,124z M278.1,142.3l-8-14.6l-3.5,16.3
			L278.1,142.3z"/>
		<path d="M299.1,119.3l3.7,25.7l13.1-28.1l4.3-0.6l4.5,30.9l-4,0.6l-3.7-25.7l-13.1,28.1l-4.3,0.6l-4.5-30.9L299.1,119.3z"/>
		<path d="M329.8,136.9c0.6,4.3,3.9,6.7,9.4,5.9c5.7-0.8,7.9-4.1,7.4-7.6c-0.7-4.5-4.4-5.2-8.7-4.6l-5.2,0.8l-0.5-3.1l5.2-0.8
			c4.5-0.7,6.8-3.4,6.3-7c-0.4-2.6-2.7-5.2-8.4-4.4c-6.2,0.9-7.3,4.7-6.9,7.6l-4,0.6c-0.6-4.3,2-9.7,10.5-11
			c8.6-1.2,12.3,2.6,12.9,6.6c0.9,6.2-4.9,8-4.9,8l0,0.2c0,0,7-0.5,8,6.4c0.8,5.5-3.6,10-11.2,11.1c-7.8,1.1-12.9-2-13.8-8.2
			L329.8,136.9z"/>
		<path d="M363,141.5l6.9-15.2c-4.7,0.2-8.4-1.8-9.2-7.3c-0.9-6.2,3.5-9.2,8.5-10l14.7-2.1l4.5,30.9l-4,0.6l-2-13.8l-8.2,1.2
			l-6.6,15L363,141.5z M371.5,123.1l10.4-1.5l-1.6-10.9l-10.4,1.5c-3.3,0.5-5.5,2.5-4.9,6.3C365.5,122.3,368.2,123.6,371.5,123.1z"
			/>
		<path d="M391.3,105.9l2,13.5l16.6-2.4l-2-13.5l4-0.6l4.5,30.9l-4,0.6l-2.1-14.3l-16.6,2.4l2.1,14.3l-4,0.6l-4.5-30.9L391.3,105.9z
			"/>
		<path d="M414.8,105.6l-0.5-3.1l25.9-3.8l0.5,3.1l-10.9,1.6l4.1,27.8l-4,0.6l-4.1-27.8L414.8,105.6z"/>
		<path d="M453,96.9l4.7-0.7l16.4,29.1l-4.3,0.6l-4.3-7.9l-13.8,2l-1.9,8.8l-4.3,0.6L453,96.9z M464,115.2l-8-14.6l-3.5,16.3
			L464,115.2z"/>
		<path d="M476.1,125.1l-4.5-30.9l14-2c5.5-0.8,10.4,1.2,11.2,7.1c0.9,5.9-3.3,9.2-8.7,10l-10,1.5l2,13.8L476.1,125.1z M477.6,107.6
			l9.7-1.4c3.3-0.5,5.7-2.5,5.1-6.3c-0.6-3.8-3.4-5.1-6.7-4.6l-9.7,1.4L477.6,107.6z"/>
		<path d="M501.5,121.3l6.9-15.2c-4.7,0.2-8.4-1.8-9.2-7.3c-0.9-6.2,3.5-9.2,8.5-10l14.7-2.1l4.5,30.9l-4,0.6l-2-13.8l-8.2,1.2
			l-6.6,15L501.5,121.3z M509.9,102.9l10.4-1.5l-1.6-10.9L508.3,92c-3.3,0.5-5.5,2.5-4.9,6.3C504,102.1,506.6,103.4,509.9,102.9z"/>
		<path d="M544,115.1l-3.5-23.8l-5.7,0.8l-0.3-2.1l0.2,0c4.7-0.7,6.3-3.6,6.4-6l2.4-0.3l4.5,30.9L544,115.1z"/>
		<path d="M573.8,93.6c1.6,11.2-1.7,18.2-10.5,19.5c-8.3,1.2-12.2-3.6-12.8-7.6l4-0.6c0.4,2.9,3.1,6.1,8.3,5.3
			c5.9-0.9,8.3-6.3,7.4-13.9l-0.2,0c0,0-2.1,5.4-8.8,6.4c-7.4,1.1-12.6-3-13.4-9c-1-6.7,3.8-12,10.7-13
			C566.4,79.6,572.3,83.4,573.8,93.6z M568.8,90.4c-0.8-5.5-5.2-7.5-9.5-6.9s-7.9,3.8-7.1,9.3c0.8,5.5,5.2,7.5,9.5,6.9
			C565.9,99.1,569.6,95.9,568.8,90.4z"/>
		<path d="M588.6,108.6l-4.5-30.9l14-2c5.7-0.8,10,0.7,10.9,6.4c0.8,5.7-4.2,7.7-4.2,7.7l0,0.2c0,0,6.3,0.3,7.3,6.5
			c0.9,6.2-3,9.2-9.4,10.1L588.6,108.6z M588.6,80.3l1.5,10.5l10-1.5c3.3-0.5,5.5-2.5,4.9-6.3c-0.5-3.6-3.1-4.6-6.4-4.2L588.6,80.3z
			 M602.2,103.5c3.8-0.6,6.2-2.6,5.6-6.4c-0.6-3.8-3.7-5.3-7.2-4.8l-10,1.5l1.6,11.2L602.2,103.5z"/>
		<path d="M611.4,73.8l22.8-3.3l0.5,3.1l-18.8,2.7l1.5,10.5l15.4-2.3l0.5,3.1l-15.4,2.3l1.6,11.2l18.8-2.7l0.5,3.1l-22.8,3.3
			L611.4,73.8z"/>
		<path d="M641.6,100.9L637.1,70l4-0.6l2.3,15.9l12.6-18.1l4.6-0.7l-10.1,14.2l15.2,16.6l-4.8,0.7l-12.6-14.2l-4.3,6l1.5,10.5
			L641.6,100.9z"/>
		<path d="M674.1,64.6l4.7-0.7l16.4,29.1l-4.3,0.6l-4.3-7.9l-13.8,2l-1.9,8.8l-4.3,0.6L674.1,64.6z M685.1,82.9l-8-14.6l-3.5,16.3
			L685.1,82.9z"/>
		<path d="M715.8,57.8c9.7-1.4,13.7,3.8,14.9,9l-4,0.6c-1.2-5.2-5.2-7.5-10.4-6.7c-5.9,0.9-9.3,6-8,14.8c1.3,8.8,6,12.7,11.9,11.8
			c5.2-0.8,8.4-4.1,8.1-9.4l4-0.6c0.3,5.3-2,11.4-11.7,12.9c-9.5,1.4-15.2-4.6-16.6-14.1C702.5,66.5,706.3,59.2,715.8,57.8z"/>
		<path d="M731.6,59.4l-0.5-3.1l25.9-3.8l0.5,3.1l-10.9,1.6l4.1,27.8l-4,0.6l-4.1-27.8L731.6,59.4z"/>
		<path d="M763.9,83.1l-4.5-30.9l14-2c5.5-0.8,10.4,1.2,11.2,7.1c0.9,5.9-3.3,9.2-8.7,10l-10,1.5l2,13.8L763.9,83.1z M765.5,65.6
			l9.7-1.4c3.3-0.5,5.7-2.5,5.1-6.3s-3.4-5.1-6.7-4.6l-9.7,1.4L765.5,65.6z"/>
		<path d="M796.4,46.8l4.7-0.7l16.4,29.1l-4.3,0.6L809,68l-13.8,2l-1.9,8.8l-4.3,0.6L796.4,46.8z M807.4,65.1l-8-14.6l-3.5,16.3
			L807.4,65.1z"/>
		<path d="M819,43.5l2,13.5l16.6-2.4l-2-13.5l4-0.6l4.5,30.9l-4,0.6L838,57.7l-16.6,2.4l2.1,14.3l-4,0.6L815,44.1L819,43.5z"/>
		<path d="M853.4,38.5l4.7-0.7l16.4,29.1l-4.3,0.6l-4.3-7.9l-13.8,2l-1.9,8.8l-4.3,0.6L853.4,38.5z M864.4,56.7l-8-14.6l-3.5,16.3
			L864.4,56.7z"/>
		<path d="M891.9,32.8l4.7-0.7L913,61.3l-4.3,0.6l-4.3-7.9l-13.8,2l-1.9,8.8l-4.3,0.6L891.9,32.8z M902.9,51.1l-8-14.6l-3.5,16.3
			L902.9,51.1z"/>
		<path d="M914.5,29.6l2,13.5l16.6-2.4l-2-13.5l4-0.6l4.5,30.9l-4,0.6l-2.1-14.3l-16.6,2.4l2.1,14.3l-4,0.6l-4.5-30.9L914.5,29.6z"
			/>
		<path d="M943,56.9l-4.5-30.9l21.4-3.1l0.5,3.1l-17.3,2.5l4.1,27.8L943,56.9z"/>
		<path d="M964.8,50.3c0,0,0.5,0.1,1.2,0c3.3-0.5,5.6-3.3,3.3-18.8l-1.4-9.7l20.2-2.9l4.5,30.9l-4,0.6l-4.1-27.8l-12.3,1.8l1,7.1
			c2.3,15.7,0.2,21.3-5.7,22.2c-1.2,0.2-2.2,0.1-2.2,0.1L964.8,50.3z"/>
		<path d="M995.4,17.7l3.7,25.7l13.1-28.1l4.3-0.6l4.5,30.9l-4,0.6l-3.7-25.7l-13.1,28.1l-4.3,0.6l-4.5-30.9L995.4,17.7z"/>
		<path d="M1023.2,45.2l6.9-15.2c-4.7,0.2-8.4-1.8-9.2-7.3c-0.9-6.2,3.5-9.2,8.5-10l14.7-2.1l4.5,30.9l-4,0.6l-2-13.8l-8.2,1.2
			l-6.6,15L1023.2,45.2z M1031.7,26.8l10.4-1.5l-1.6-10.9l-10.4,1.5c-3.3,0.5-5.5,2.5-4.9,6.3C1025.7,25.9,1028.4,27.2,1031.7,26.8z
			"/>
		<path d="M616.5,107.1h25v31.2h-4.1v-28.1h-16.8v28.1h-4.1V107.1z"/>
		<path d="M644.8,138.3v-31.2H659c5.5,0,10.1,2.6,10.1,8.6s-4.6,8.6-10.1,8.6h-10.1v13.9H644.8z M648.9,121.2h9.8c3.4,0,6-1.7,6-5.5
			s-2.6-5.5-6-5.5h-9.8V121.2z"/>
		<path d="M675.8,107.1V133l17-25.9h4.3v31.2h-4.1v-25.9l-17,25.9h-4.3v-31.2H675.8z"/>
		<path d="M704.6,107.1v13.7h16.8v-13.7h4.1v31.2h-4.1v-14.4h-16.8v14.4h-4.1v-31.2H704.6z"/>
		<path d="M739.4,107.1h4.8l12,31.2h-4.3l-3.1-8.4h-13.9l-3.1,8.4h-4.3L739.4,107.1z M747.6,126.8l-5.8-15.6l-5.8,15.6H747.6z"/>
		<path d="M756.9,145.5v-10.3h1c3.4,0,6.2-6,6.2-20.6v-7.4h20.2v28.1h4.3v10.3h-4.1v-7.2H761v7.2H756.9z M780.2,135.2v-25h-12.2v4.8
			c0,11.2-1.7,18-4.6,20.2H780.2z"/>
		<path d="M789.3,134.9c0,0,0.5,0.1,1.2,0.1c3.4,0,6-2.5,6-18.1v-9.8h20.4v31.2h-4.1v-28.1h-12.5v7.2c0,15.8-2.9,21.1-8.9,21.1
			c-1.2,0-2.2-0.2-2.2-0.2V134.9z"/>
		<path d="M820.3,107.1h23v3.1h-19v10.6h15.6v3.1h-15.6v11.3h19v3.1h-23V107.1z"/>
		<path d="M845.2,138.3l14.2-16.6l-14.2-14.6h4.8l13,13.9v-13.9h4.1V121l13-13.9h4.8l-14.2,14.6l14.2,16.6h-5.3l-12.5-15.4v15.4H863
			v-15.4l-12.5,15.4H845.2z"/>
		<path d="M897.8,107.1h4.8l12,31.2h-4.3l-3.1-8.4h-13.9l-3.1,8.4h-4.3L897.8,107.1z M906,126.8l-5.8-15.6l-5.8,15.6H906z"/>
		<path d="M915.1,134.9c0,0,0.5,0.1,1.2,0.1c3.4,0,6-2.5,6-18.1v-9.8h20.4v31.2h-4.1v-28.1h-12.5v7.2c0,15.8-2.9,21.1-8.9,21.1
			c-1.2,0-2.2-0.2-2.2-0.2V134.9z"/>
		<path d="M956.6,107.1h4.8l12,31.2h-4.3l-3.1-8.4H952l-3.1,8.4h-4.3L956.6,107.1z M964.8,126.8l-5.8-15.6l-5.8,15.6H964.8z"/>
		<path d="M983.7,145.5v-10.3h1c3.4,0,6.2-6,6.2-20.6v-7.4h20.2v28.1h4.3v10.3h-4.1v-7.2h-23.5v7.2H983.7z M1007,135.2v-25h-12.2
			v4.8c0,11.2-1.7,18-4.6,20.2H1007z"/>
		<path d="M1017.5,138.3v-31.2h14.2c5.5,0,10.1,2.6,10.1,8.6s-4.6,8.6-10.1,8.6h-10.1v13.9H1017.5z M1021.6,121.2h9.8
			c3.4,0,6-1.7,6-5.5s-2.6-5.5-6-5.5h-9.8V121.2z"/>
		<path d="M1044.4,107.1h23v3.1h-19v10.6h15.6v3.1h-15.6v11.3h19v3.1h-23V107.1z"/>
		<path d="M1070.3,138.3v-31.2h14.2c5.8,0,9.8,2.2,9.8,7.9c0,5.8-5.3,7-5.3,7v0.2c0,0,6.2,1.2,6.2,7.4c0,6.2-4.3,8.6-10.8,8.6
			H1070.3z M1074.4,110.2v10.6h10.1c3.4,0,5.8-1.7,5.8-5.5c0-3.6-2.4-5-5.8-5H1074.4z M1084.5,135.2c3.8,0,6.5-1.7,6.5-5.5
			s-2.9-5.8-6.5-5.8h-10.1v11.3H1084.5z"/>
		<path d="M1102,107.1v13.7h16.8v-13.7h4.1v31.2h-4.1v-14.4H1102v14.4h-4.1v-31.2H1102z"/>
		<path d="M1126.3,107.1h23v3.1h-19v10.6h15.6v3.1h-15.6v11.3h19v3.1h-23V107.1z"/>
		<path d="M1152.2,138.3v-31.2h4.1V133l17-25.9h4.3v31.2h-4.1v-25.9l-17,25.9H1152.2z M1160.8,101.1c0,1.9,1,3.6,4.1,3.6
			s4.1-1.7,4.1-3.6h3.8c0,2.2-1.2,6-7.9,6s-7.9-3.8-7.9-6H1160.8z"/>
		<path d="M1189.4,145.5v-10.3h1c3.4,0,6.2-6,6.2-20.6v-7.4h20.2v28.1h4.3v10.3h-4.1v-7.2h-23.5v7.2H1189.4z M1212.7,135.2v-25
			h-12.2v4.8c0,11.2-1.7,18-4.6,20.2H1212.7z"/>
		<path d="M1227.3,107.1V133l17-25.9h4.3v31.2h-4.1v-25.9l-17,25.9h-4.3v-31.2H1227.3z"/>
		<path d="M1256.1,107.1v13.7h16.8v-13.7h4.1v31.2h-4.1v-14.4h-16.8v14.4h-4.1v-31.2H1256.1z"/>
		<path d="M1290.9,107.1h4.8l12,31.2h-4.3l-3.1-8.4h-13.9l-3.1,8.4h-4.3L1290.9,107.1z M1299.1,126.8l-5.8-15.6l-5.8,15.6H1299.1z"
			/>
		<path d="M1323.5,106.4c9.8,0,13,5.8,13.4,11h-4.1c-0.5-5.3-4.1-8.2-9.4-8.2c-6,0-10.1,4.6-10.1,13.4c0,8.9,4.1,13.4,10.1,13.4
			c5.3,0,8.9-2.9,9.4-8.2h4.1c-0.5,5.3-3.6,11-13.4,11c-9.6,0-14.4-6.7-14.4-16.3C1309.1,113.1,1313.9,106.4,1323.5,106.4z"/>
		<path d="M1338.9,110.2v-3.1h26.2v3.1h-11v28.1h-4.1v-28.1H1338.9z"/>
		<path d="M1371.5,107.1V133l17-25.9h4.3v31.2h-4.1v-25.9l-17,25.9h-4.3v-31.2H1371.5z"/>
		<path d="M1400.3,107.1V133l17-25.9h4.3v31.2h-4.1v-25.9l-17,25.9h-4.3v-31.2H1400.3z"/>
		<path d="M531.2,181.9v-10.3h1c3.4,0,6.2-6,6.2-20.6v-7.4h20.2v28.1h4.3v10.3h-4.1v-7.2h-23.5v7.2H531.2z M554.5,171.6v-25h-12.2
			v4.8c0,11.2-1.7,18-4.6,20.2H554.5z"/>
		<path d="M564.5,159.1c0-9.4,5.3-16.3,15.1-16.3s15.1,7,15.1,16.3s-5.3,16.3-15.1,16.3S564.5,168.5,564.5,159.1z M579.7,172.6
			c6,0,10.8-4.3,10.8-13.4c0-9.1-4.8-13.4-10.8-13.4c-6,0-10.8,4.3-10.8,13.4C568.9,168.3,573.7,172.6,579.7,172.6z"/>
		<path d="M621.2,142.8c9.8,0,13,5.8,13.4,11h-4.1c-0.5-5.3-4.1-8.2-9.4-8.2c-6,0-10.1,4.6-10.1,13.4c0,8.9,4.1,13.4,10.1,13.4
			c5.3,0,8.9-2.9,9.4-8.2h4.1c-0.5,5.3-3.6,11-13.4,11c-9.6,0-14.4-6.7-14.4-16.3C606.8,149.5,611.6,142.8,621.2,142.8z"/>
		<path d="M641.6,143.5v25.9l17-25.9h4.3v31.2h-4.1v-25.9l-17,25.9h-4.3v-31.2H641.6z"/>
		<path d="M677.5,158.7l-11.7-15.1h5l8.9,12.4l8.9-12.4h5L682,158.7l12.1,16.1h-5l-9.4-13.2l-9.4,13.2h-5L677.5,158.7z"/>
		<path d="M706.1,143.5h25v31.2H727v-28.1h-16.8v28.1h-4.1V143.5z"/>
		<path d="M734,159.1c0-9.4,5.3-16.3,15.1-16.3s15.1,7,15.1,16.3s-5.3,16.3-15.1,16.3S734,168.5,734,159.1z M749.1,172.6
			c6,0,10.8-4.3,10.8-13.4c0-9.1-4.8-13.4-10.8-13.4c-6,0-10.8,4.3-10.8,13.4C738.3,168.3,743.1,172.6,749.1,172.6z"/>
		<path d="M767.1,174.7v-31.2h14.2c5.5,0,10.1,2.6,10.1,8.6s-4.6,8.6-10.1,8.6h-10.1v13.9H767.1z M771.2,157.7h9.8
			c3.4,0,6-1.7,6-5.5s-2.6-5.5-6-5.5h-9.8V157.7z"/>
		<path d="M803.1,159.1c0-9.4,5.3-16.3,15.1-16.3s15.1,7,15.1,16.3s-5.3,16.3-15.1,16.3S803.1,168.5,803.1,159.1z M818.2,172.6
			c6,0,10.8-4.3,10.8-13.4c0-9.1-4.8-13.4-10.8-13.4c-6,0-10.8,4.3-10.8,13.4C807.4,168.3,812.2,172.6,818.2,172.6z"/>
		<path d="M835.3,146.7v-3.1h26.2v3.1h-11v28.1h-4.1v-28.1H835.3z"/>
		<path d="M862.4,171.3c0,0,0.5,0.1,1.2,0.1c3.4,0,6-2.5,6-18.1v-9.8H890v31.2h-4.1v-28.1h-12.5v7.2c0,15.8-2.9,21.1-8.9,21.1
			c-1.2,0-2.2-0.2-2.2-0.2V171.3z"/>
		<path d="M897.4,143.5v25.9l17-25.9h4.3v31.2h-4.1v-25.9l-17,25.9h-4.3v-31.2H897.4z"/>
		<path d="M925.7,143.5v8.9c0,4.8,1.7,8.2,8.2,8.2c4.8,0,7.7-2.4,7.7-4.3v-12.7h4.1v31.2h-4.1v-14.6c0,0-2.9,3.6-8.9,3.6
			c-7.7,0-11-4.1-11-10.3v-9.8H925.7z"/>
		<path d="M953.1,143.5v13.7h16.8v-13.7h4.1v31.2h-4.1v-14.4h-16.8v14.4H949v-31.2H953.1z"/>
		<path d="M976.9,159.1c0-9.4,5.3-16.3,15.1-16.3s15.1,7,15.1,16.3s-5.3,16.3-15.1,16.3S976.9,168.5,976.9,159.1z M992,172.6
			c6,0,10.8-4.3,10.8-13.4c0-9.1-4.8-13.4-10.8-13.4c-6,0-10.8,4.3-10.8,13.4C981.2,168.3,986,172.6,992,172.6z"/>
		<path d="M1033.5,142.8c9.8,0,13,5.8,13.4,11h-4.1c-0.5-5.3-4.1-8.2-9.4-8.2c-6,0-10.1,4.6-10.1,13.4c0,8.9,4.1,13.4,10.1,13.4
			c5.3,0,8.9-2.9,9.4-8.2h4.1c-0.5,5.3-3.6,11-13.4,11c-9.6,0-14.4-6.7-14.4-16.3C1019.1,149.5,1023.9,142.8,1033.5,142.8z"/>
		<path d="M1049.8,143.5h25v31.2h-4.1v-28.1h-16.8v28.1h-4.1V143.5z"/>
		<path d="M1078.1,174.7v-31.2h14.2c5.5,0,10.1,2.6,10.1,8.6s-4.6,8.6-10.1,8.6h-10.1v13.9H1078.1z M1082.2,157.7h9.8
			c3.4,0,6-1.7,6-5.5s-2.6-5.5-6-5.5h-9.8V157.7z"/>
		<path d="M1115.6,143.5h4.8l12,31.2h-4.3l-3.1-8.4H1111l-3.1,8.4h-4.3L1115.6,143.5z M1123.8,163.2l-5.8-15.6l-5.8,15.6H1123.8z"/>
		<path d="M1134.3,174.7v-31.2h14.2c5.8,0,9.8,2.2,9.8,7.9c0,5.8-5.3,7-5.3,7v0.2c0,0,6.2,1.2,6.2,7.4c0,6.2-4.3,8.6-10.8,8.6
			H1134.3z M1138.4,146.7v10.6h10.1c3.4,0,5.8-1.7,5.8-5.5c0-3.6-2.4-5-5.8-5H1138.4z M1148.5,171.6c3.8,0,6.5-1.7,6.5-5.5
			s-2.9-5.8-6.5-5.8h-10.1v11.3H1148.5z"/>
		<path d="M1160.5,171.3c0,0,0.5,0.1,1.2,0.1c3.4,0,6-2.5,6-18.1v-9.8h20.4v31.2h-4.1v-28.1h-12.5v7.2c0,15.8-2.9,21.1-8.9,21.1
			c-1.2,0-2.2-0.2-2.2-0.2V171.3z"/>
		<path d="M1190.2,174.7l9-14c-4.7-0.5-8.1-3-8.1-8.5c0-6.2,4.8-8.6,9.8-8.6h14.9v31.2h-4.1v-13.9h-8.3l-8.7,13.9H1190.2z
			 M1201.3,157.7h10.6v-11h-10.6c-3.4,0-5.8,1.7-5.8,5.5S1197.9,157.7,1201.3,157.7z"/>
		<path d="M1219.3,143.5h23v3.1h-19v10.6h15.6v3.1h-15.6v11.3h19v3.1h-23V143.5z"/>
		<path d="M1244.2,146.7v-3.1h26.2v3.1h-11v28.1h-4.1v-28.1H1244.2z"/>
		<path d="M1286.7,142.8c9.8,0,13,5.8,13.4,11h-4.1c-0.5-5.3-4.1-8.2-9.4-8.2c-6,0-10.1,4.6-10.1,13.4c0,8.9,4.1,13.4,10.1,13.4
			c5.3,0,8.9-2.9,9.4-8.2h4.1c-0.5,5.3-3.6,11-13.4,11c-9.6,0-14.4-6.7-14.4-16.3C1272.3,149.5,1277.1,142.8,1286.7,142.8z"/>
		<path d="M1301.8,174.7l9-14c-4.7-0.5-8.1-3-8.1-8.5c0-6.2,4.8-8.6,9.8-8.6h14.9v31.2h-4.1v-13.9h-8.3l-8.7,13.9H1301.8z
			 M1312.9,157.7h10.6v-11h-10.6c-3.4,0-5.8,1.7-5.8,5.5S1309.5,157.7,1312.9,157.7z"/>
		<path d="M1354.4,142.8c9.8,0,13,5.8,13.4,11h-4.1c-0.5-5.3-4.1-8.2-9.4-8.2c-6,0-10.1,4.6-10.1,13.4c0,8.9,4.1,13.4,10.1,13.4
			c5.3,0,8.9-2.9,9.4-8.2h4.1c-0.5,5.3-3.6,11-13.4,11c-9.6,0-14.4-6.7-14.4-16.3C1340,149.5,1344.8,142.8,1354.4,142.8z"/>
		<path d="M1370.2,159.1c0-9.4,5.3-16.3,15.1-16.3s15.1,7,15.1,16.3s-5.3,16.3-15.1,16.3S1370.2,168.5,1370.2,159.1z M1385.3,172.6
			c6,0,10.8-4.3,10.8-13.4c0-9.1-4.8-13.4-10.8-13.4c-6,0-10.8,4.3-10.8,13.4C1374.5,168.3,1379.3,172.6,1385.3,172.6z"/>
		<path d="M1426.9,142.8c9.8,0,13,5.8,13.4,11h-4.1c-0.5-5.3-4.1-8.2-9.4-8.2c-6,0-10.1,4.6-10.1,13.4c0,8.9,4.1,13.4,10.1,13.4
			c5.3,0,8.9-2.9,9.4-8.2h4.1c-0.5,5.3-3.6,11-13.4,11c-9.6,0-14.4-6.7-14.4-16.3C1412.5,149.5,1417.3,142.8,1426.9,142.8z"/>
		<path d="M1443.2,174.7v-31.2h14.2c5.8,0,9.8,2.2,9.8,7.9c0,5.8-5.3,7-5.3,7v0.2c0,0,6.2,1.2,6.2,7.4c0,6.2-4.3,8.6-10.8,8.6
			H1443.2z M1447.3,146.7v10.6h10.1c3.4,0,5.8-1.7,5.8-5.5c0-3.6-2.4-5-5.8-5H1447.3z M1457.3,171.6c3.8,0,6.5-1.7,6.5-5.5
			s-2.9-5.8-6.5-5.8h-10.1v11.3H1457.3z"/>
		<path d="M1470.3,159.1c0-9.4,5.3-16.3,15.1-16.3s15.1,7,15.1,16.3s-5.3,16.3-15.1,16.3S1470.3,168.5,1470.3,159.1z M1485.4,172.6
			c6,0,10.8-4.3,10.8-13.4c0-9.1-4.8-13.4-10.8-13.4c-6,0-10.8,4.3-10.8,13.4C1474.6,168.3,1479.4,172.6,1485.4,172.6z"/>
		<path d="M1503.4,143.5h23v3.1h-19v10.6h15.6v3.1h-15.6v11.3h19v3.1h-23V143.5z"/>
		<path d="M1529.3,174.7v-31.2h4.1v25.9l17-25.9h4.3v31.2h-4.1v-25.9l-17,25.9H1529.3z M1538,137.5c0,1.9,1,3.6,4.1,3.6
			s4.1-1.7,4.1-3.6h3.8c0,2.2-1.2,6-7.9,6s-7.9-3.8-7.9-6H1538z"/>
		<path d="M1567,159.1c0-7,4.6-11.5,14.2-11.5v-4.1h4.1v4.1c9.6,0,14.2,4.6,14.2,11.5c0,7-4.6,11.5-14.2,11.5v4.1h-4.1v-4.1
			C1571.6,170.7,1567,166.1,1567,159.1z M1571.3,159.1c0,6.2,3.8,8.4,9.8,8.4v-16.8C1575.2,150.7,1571.3,152.9,1571.3,159.1z
			 M1585.3,167.5c6,0,9.8-2.2,9.8-8.4c0-6.2-3.8-8.4-9.8-8.4V167.5z"/>
		<path d="M1605.2,143.5l10.6,19.7l9.1-19.7h4.6l-12,25.2c-2.4,5.1-5,6.2-8.2,6.2c-1.4,0-2.9-0.2-2.9-0.2v-3.5c0,0,1,0.1,2.4,0.1
			c1.7,0,3.4-0.2,5-3.8l-13.2-24H1605.2z"/>
		<path d="M1635.4,143.5v13.7h16.8v-13.7h4.1v31.2h-4.1v-14.4h-16.8v14.4h-4.1v-31.2H1635.4z"/>
		<path d="M1659.7,174.7v-31.2h4.1v16.1l15.1-16.1h4.7l-12,12.6l12.7,18.6h-4.9l-10.4-15.9l-5.1,5.3v10.6H1659.7z"/>
		<path d="M1686.5,143.5h4.1v28.1h16.3v-28.1h4.1v28.1h4.3v10.3h-4.1v-7.2h-24.7V143.5z"/>
		<path d="M1721.6,143.5v25.9l17-25.9h4.3v31.2h-4.1v-25.9l-17,25.9h-4.3v-31.2H1721.6z"/>
		<path d="M1746.3,143.5h23v3.1h-19v10.6h15.6v3.1h-15.6v11.3h19v3.1h-23V143.5z"/>
		<path d="M1772.2,174.7v-31.2h4.1v25.9l17-25.9h4.3v31.2h-4.1v-25.9l-17,25.9H1772.2z M1780.9,137.5c0,1.9,1,3.6,4.1,3.6
			s4.1-1.7,4.1-3.6h3.8c0,2.2-1.2,6-7.9,6s-7.9-3.8-7.9-6H1780.9z"/>
	</g>
</g>
<g id="Layer_2">
</g>
</svg>
