<?xml version="1.0" encoding="utf-8"?>
<!-- Generator: Adobe Illustrator 25.0.1, SVG Export Plug-In . SVG Version: 6.00 Build 0)  -->
<svg version="1.1" xmlns="http://www.w3.org/2000/svg" xmlns:xlink="http://www.w3.org/1999/xlink" x="0px" y="0px"
	 viewBox="0 0 1920 192" style="enable-background:new 0 0 1920 192;" xml:space="preserve">
<g id="Layer_1">
	<path d="M408.5,178c0.9,4.2,4.3,6.4,9.7,5.3c5.6-1.2,7.6-4.6,6.9-8.1c-1-4.5-4.7-4.9-8.9-4l-5.2,1.1l-0.7-3.1l5.2-1.1
		c4.5-1,6.5-3.9,5.8-7.4c-0.6-2.6-3-5-8.7-3.8c-6.1,1.3-7,5.2-6.4,8l-4,0.9c-0.9-4.2,1.3-9.9,9.8-11.7c8.5-1.8,12.4,1.8,13.3,5.8
		c1.3,6.1-4.4,8.3-4.4,8.3l0.1,0.2c0,0,6.9-1,8.4,5.8c1.2,5.4-3,10.2-10.5,11.8c-7.7,1.7-13-1.1-14.3-7.3L408.5,178z"/>
	<path d="M437.5,149.5l4.7-1l18.3,28l-4.2,0.9l-4.8-7.6l-13.6,2.9l-1.3,8.9l-4.2,0.9L437.5,149.5z M449.6,167l-8.9-14.1l-2.4,16.5
		L449.6,167z"/>
	<path d="M462.3,176.1l-6.5-30.5l21.1-4.5l0.7,3.1l-17.1,3.7l5.9,27.5L462.3,176.1z"/>
	<path d="M489.6,138.4l4.7-1l18.3,28l-4.2,0.9l-4.8-7.6l-13.6,2.9l-1.3,8.9l-4.2,0.9L489.6,138.4z M501.7,155.9l-8.9-14.1l-2.4,16.5
		L501.7,155.9z"/>
	<path d="M514.7,172.2l-2.2-10.1l0.9-0.2c3.3-0.7,4.8-7.2,1.8-21.5l-1.6-7.3l19.7-4.2l5.9,27.5l4.2-0.9l2.2,10.1l-4,0.9l-1.5-7
		l-23,4.9l1.5,7L514.7,172.2z M535.4,157.3l-5.2-24.4l-12,2.6l1,4.7c2.3,10.9,2.1,18-0.2,20.7L535.4,157.3z"/>
	<path d="M542.6,143c-2-9.2,1.8-17.1,11.4-19.1c9.6-2.1,16.2,3.6,18.2,12.8c2,9.2-1.8,17.1-11.4,19.1
		C551.2,157.8,544.6,152.1,542.6,143z M560.2,153c5.9-1.3,9.7-6.5,7.8-15.4c-1.9-8.9-7.5-12.1-13.4-10.9c-5.9,1.3-9.7,6.5-7.8,15.4
		C548.7,151,554.3,154.2,560.2,153z"/>
	<path d="M575.3,120.1l1.9,8.7c1,4.7,3.3,7.6,9.7,6.3c4.7-1,7-4,6.6-5.8l-2.7-12.4l4-0.9l6.5,30.5l-4,0.9l-3.1-14.3
		c0,0-2.1,4.1-7.9,5.4c-7.5,1.6-11.6-1.7-13-7.8l-2.1-9.6L575.3,120.1z"/>
	<path d="M602,114.3l2.9,13.4l16.4-3.5l-2.9-13.4l4-0.9l6.5,30.5l-4,0.9l-3-14.1l-16.4,3.5l3,14.1l-4,0.9l-6.5-30.5L602,114.3z"/>
	<path d="M629.7,108.4l2.9,13.4l8.9-1.9c5.4-1.2,10.1,0.3,11.4,6.4c1.3,6.1-2.4,9.6-7.8,10.7l-12.9,2.8l-6.5-30.5L629.7,108.4z
		 M644.3,134c3.3-0.7,5.2-3.1,4.4-6.8c-0.8-3.5-3.5-4.9-6.8-4.2l-8.7,1.9l2.4,11L644.3,134z M655.1,103l6.5,30.5l-4,0.9l-6.5-30.5
		L655.1,103z"/>
	<path d="M664.9,132.8l-6.5-30.5l4-0.9l5.4,25.4L679,97.9l4.2-0.9l6.5,30.5l-4,0.9l-5.4-25.4l-11.3,28.9L664.9,132.8z M665.5,94.6
		c0.4,1.9,1.7,3.3,4.7,2.7c3.1-0.7,3.6-2.5,3.2-4.4l3.8-0.8c0.5,2.1,0.1,6.1-6.5,7.5c-6.6,1.4-8.5-2.1-9-4.2L665.5,94.6z"/>
	<path d="M612.8,178.1v-31.2h4.1V163l15.1-16.1h4.7l-12,12.6l12.7,18.6h-4.9l-10.4-15.9l-5.1,5.3v10.6H612.8z"/>
	<path d="M638.2,174.7c0,0,0.5,0.1,1.2,0.1c3.4,0,6-2.5,6-18.1v-9.8h20.4v31.2h-4.1v-28.1h-12.5v7.2c0,15.8-2.9,21.1-8.9,21.1
		c-1.2,0-2.2-0.2-2.2-0.2V174.7z"/>
	<path d="M669.2,146.9h4.1v13.7h5.1c0.6-8,5.2-14.4,14.4-14.4c9.8,0,14.4,7.4,14.4,16.3s-4.6,16.3-14.4,16.3
		c-9.4,0-14-6.8-14.4-15.1h-5v14.4h-4.1V146.9z M682.6,162.5c0,8.6,4.1,13.4,10.1,13.4s10.1-4.8,10.1-13.4s-4.1-13.4-10.1-13.4
		S682.6,153.9,682.6,162.5z"/>
	<path d="M713.6,146.9v8.9c0,4.8,1.7,8.2,8.2,8.2c4.8,0,7.7-2.4,7.7-4.3v-12.7h4.1v31.2h-4.1v-14.6c0,0-2.9,3.6-8.9,3.6
		c-7.7,0-11-4.1-11-10.3v-9.8H713.6z"/>
	<path d="M775.7,143.6h6.2L792,170l10.1-26.4h6.2v31.2h-4.1v-26.9L794,174.8h-3.8l-10.3-26.9v26.9h-4.1V143.6z"/>
	<path d="M811.2,159.2c0-9.4,5.3-16.3,15.1-16.3s15.1,7,15.1,16.3c0,9.4-5.3,16.3-15.1,16.3S811.2,168.6,811.2,159.2z M826.4,172.7
		c6,0,10.8-4.3,10.8-13.4c0-9.1-4.8-13.4-10.8-13.4c-6,0-10.8,4.3-10.8,13.4C815.6,168.3,820.4,172.7,826.4,172.7z"/>
	<path d="M843.4,174.8l14.2-16.6l-14.2-14.6h4.8l13,13.9v-13.9h4.1v13.9l13-13.9h4.8l-14.2,14.6l14.2,16.6h-5.3l-12.5-15.4v15.4
		h-4.1v-15.4l-12.5,15.4H843.4z"/>
	<path d="M885.4,143.6h23v3.1h-19v10.6h15.6v3.1h-15.6v11.3h19v3.1h-23V143.6z"/>
	<path d="M910.4,146.7v-3.1h26.2v3.1h-11v28.1h-4.1v-28.1H910.4z"/>
	<path d="M939.9,107.4l21.3,9.3l-1.2,2.9l-17.6-7.7l-4.2,9.7l9.9,4.3c5.1,2.2,8.1,6.1,5.6,11.9s-7.5,6.4-12.6,4.2l-13.6-6
		L939.9,107.4z M942,139c3.1,1.3,6,0.5,7.6-3c1.4-3.3,0-6-3.1-7.4l-9.7-4.2l-4.5,10.3L942,139z"/>
	<path d="M969.1,120.1l-5.5,12.5l8.4,3.7c5.1,2.2,8.1,6.1,5.6,11.9c-2.5,5.7-7.5,6.4-12.6,4.2l-12.1-5.3l12.5-28.6L969.1,120.1z
		 M966,149.4c3.1,1.3,6,0.5,7.6-3c1.4-3.3,0-6-3.1-7.4l-8.1-3.6l-4.5,10.3L966,149.4z M992.9,130.5l-12.5,28.6l-3.7-1.6l12.5-28.6
		L992.9,130.5z"/>
	<path d="M993.8,134.3l1.2-2.9l24,10.5l-1.2,2.9l-10.1-4.4l-11.2,25.7l-3.7-1.6l11.2-25.7L993.8,134.3z"/>
	<path d="M1008.7,171.5l12.5-28.6l3.7,1.6l-5.5,12.5l9.5,4.1c5.1,2.2,8.1,6.1,5.6,11.9c-2.5,5.7-7.5,6.4-12.6,4.2L1008.7,171.5z
		 M1023,174.3c3.1,1.3,6,0.5,7.6-3c1.4-3.3,0-6-3.1-7.4l-9.2-4l-4.5,10.3L1023,174.3z"/>
	<path d="M1044.5,162.5c0-9.4,5.3-16.3,15.1-16.3s15.1,7,15.1,16.3c0,9.4-5.3,16.3-15.1,16.3S1044.5,171.9,1044.5,162.5z
		 M1059.6,176c6,0,10.8-4.3,10.8-13.4c0-9.1-4.8-13.4-10.8-13.4c-6,0-10.8,4.3-10.8,13.4C1048.8,171.7,1053.6,176,1059.6,176z"/>
	<path d="M1081.7,146.9v13.7h16.8v-13.7h4.1v31.2h-4.1v-14.4h-16.8v14.4h-4.1v-31.2H1081.7z"/>
	<path d="M1115.6,146.9h25v31.2h-4.1v-28.1h-16.8v28.1h-4.1V146.9z"/>
	<path d="M1143.9,178.1v-31.2h14.2c5.5,0,10.1,2.6,10.1,8.6c0,6-4.6,8.6-10.1,8.6H1148v13.9H1143.9z M1148,161.1h9.8
		c3.4,0,6-1.7,6-5.5c0-3.8-2.6-5.5-6-5.5h-9.8V161.1z"/>
	<path d="M1174.8,146.9v25.9l17-25.9h4.3v31.2h-4.1v-25.9l-17,25.9h-4.3v-31.2H1174.8z"/>
	<path d="M1199.6,178.1v-31.2h14.2c5.8,0,9.8,2.2,9.8,7.9s-5.3,7-5.3,7v0.2c0,0,6.2,1.2,6.2,7.4s-4.3,8.6-10.8,8.6H1199.6z
		 M1203.6,150.1v10.6h10.1c3.4,0,5.8-1.7,5.8-5.5c0-3.6-2.4-5-5.8-5H1203.6z M1213.7,175c3.8,0,6.5-1.7,6.5-5.5
		c0-3.8-2.9-5.8-6.5-5.8h-10.1V175H1213.7z"/>
	<path d="M1227.2,146.9h23v3.1h-19v10.6h15.6v3.1h-15.6V175h19v3.1h-23V146.9z"/>
	<path d="M1251.9,185.3V175h1c3.4,0,6.2-6,6.2-20.6v-7.4h20.2V175h4.3v10.3h-4.1v-7.2H1256v7.2H1251.9z M1275.2,175v-25h-12.2v4.8
		c0,11.2-1.7,18-4.6,20.2H1275.2z"/>
	<path d="M1285.7,146.9h23v3.1h-19v10.6h15.6v3.1h-15.6V175h19v3.1h-23V146.9z"/>
	<path d="M1310.7,150.1v-3.1h26.2v3.1h-11v28.1h-4.1v-28.1H1310.7z"/>
	<path d="M1348.8,178.1v-31.2h14.2c5.8,0,9.8,2.2,9.8,7.9s-5.3,7-5.3,7v0.2c0,0,6.2,1.2,6.2,7.4s-4.3,8.6-10.8,8.6H1348.8z
		 M1352.9,150.1v10.6h10.1c3.4,0,5.8-1.7,5.8-5.5c0-3.6-2.4-5-5.8-5H1352.9z M1363,175c3.8,0,6.5-1.7,6.5-5.5c0-3.8-2.9-5.8-6.5-5.8
		h-10.1V175H1363z"/>
	<path d="M1387,146.9h4.8l12,31.2h-4.3l-3.1-8.4h-13.9l-3.1,8.4h-4.3L1387,146.9z M1395.2,166.6l-5.8-15.6l-5.8,15.6H1395.2z"/>
	<path d="M1419.6,146.2c9.8,0,13,5.8,13.4,11h-4.1c-0.5-5.3-4.1-8.2-9.4-8.2c-6,0-10.1,4.6-10.1,13.4s4.1,13.4,10.1,13.4
		c5.3,0,8.9-2.9,9.4-8.2h4.1c-0.5,5.3-3.6,11-13.4,11c-9.6,0-14.4-6.7-14.4-16.3S1410,146.2,1419.6,146.2z"/>
	<path d="M1470.6,181.9l-12-28.8l3.8-1.6l6.2,14.8l7.7-20.7l4.3-1.8l-6.3,16.3l18.9,12.3l-4.5,1.9l-15.7-10.6l-2.6,6.9l4.1,9.7
		L1470.6,181.9z"/>
	<path d="M1495.5,137.7l3.4,8.2c1.9,4.4,4.7,6.9,10.7,4.4c4.4-1.9,6.2-5.2,5.4-7l-4.9-11.7l3.8-1.6l12,28.8l-3.8,1.6l-5.7-13.5
		c0,0-1.3,4.4-6.8,6.8c-7.1,3-11.8,0.5-14.2-5.3l-3.8-9.1L1495.5,137.7z"/>
	<path d="M1517,128.7l21.3-8.9l1.2,2.9l-17.5,7.3l4.1,9.7l14.4-6l1.2,2.9l-14.4,6l4.4,10.4l17.5-7.3l1.2,2.9l-21.3,8.9L1517,128.7z"
		/>
	<path d="M1540.9,118.7l5.8-2.4l19.5,20.5l-0.9-28.2l5.8-2.4l12,28.8l-3.8,1.6l-10.4-24.8l0.9,28.8l-3.5,1.5l-19.9-20.8l10.4,24.8
		l-3.8,1.6L1540.9,118.7z"/>
	<path d="M1576.9,103.6l17.4,14.1l0.8-21.7l4.2-1.8l-1.3,27.9c-0.2,5.6-2.2,7.7-5.1,8.9c-1.3,0.6-2.7,0.9-2.7,0.9l-1.4-3.2
		c0,0,0.9-0.2,2.3-0.8c1.6-0.6,3-1.5,3.2-5.5l-21.4-17L1576.9,103.6z"/>
	<path d="M1623.8,102.4l-17.7,7.4l-1.1-2.7l17.7-7.4L1623.8,102.4z"/>
	<path d="M1619.1,89.3l-1.2-2.9l24.1-10.1l1.2,2.9l-10.2,4.3l10.8,25.9l-3.8,1.6L1629.3,85L1619.1,89.3z"/>
	<path d="M1649.8,90c-3.6-8.6-1.4-17.1,7.6-20.9c9.1-3.8,16.6,0.6,20.3,9.2c3.6,8.6,1.4,17.1-7.6,20.9
		C1661,103,1653.4,98.6,1649.8,90z M1669,96.5c5.5-2.3,8.3-8.2,4.8-16.6c-3.5-8.4-9.6-10.5-15.2-8.2c-5.5,2.3-8.3,8.2-4.8,16.6
		C1657.3,96.7,1663.4,98.8,1669,96.5z"/>
	<path d="M1556,150.4l6.6,25.1l9.9-29.4l4.2-1.1l7.9,30.2l-3.9,1l-6.6-25.1l-9.9,29.4l-4.2,1.1l-7.9-30.2L1556,150.4z"/>
	<path d="M1583.8,143.1l3.5,13.2l16.2-4.3l-3.5-13.2l3.9-1l7.9,30.2l-3.9,1l-3.7-13.9l-16.2,4.3l3.7,13.9l-3.9,1l-7.9-30.2
		L1583.8,143.1z"/>
	<path d="M1607.1,140.2l-0.8-3l25.3-6.6l0.8,3l-10.7,2.8l7.1,27.2l-3.9,1l-7.1-27.2L1607.1,140.2z"/>
	<path d="M1634,129.9l22.3-5.9l0.8,3l-18.3,4.8l2.7,10.2l15.1-4l0.8,3l-15.1,4l2.9,10.9l18.3-4.8l0.8,3l-22.3,5.9L1634,129.9z"/>
	<path d="M1667,153.5l-7.9-30.2l13.7-3.6c5.3-1.4,10.4,0,11.9,5.8c1.5,5.8-2.2,9.5-7.6,10.9l-9.8,2.6l3.5,13.5L1667,153.5z
		 M1666.6,136l9.5-2.5c3.2-0.9,5.4-3.1,4.4-6.9c-1-3.7-4-4.7-7.2-3.8l-9.5,2.5L1666.6,136z"/>
	<path d="M1685,116.5l22.3-5.9l0.8,3l-18.3,4.8l2.7,10.2l15.1-4l0.8,3l-15.1,4l2.9,10.9l18.3-4.8l0.8,3l-22.3,5.9L1685,116.5z"/>
	<path d="M1723.4,105.7c9.5-2.5,14,2.3,15.8,7.3l-3.9,1c-1.8-5-6-6.9-11.1-5.5c-5.8,1.5-8.6,7-6.3,15.6s7.4,12,13.2,10.4
		c5.1-1.3,7.9-5,7-10.3l3.9-1c0.9,5.2-0.7,11.6-10.2,14.1c-9.3,2.4-15.6-2.8-18.1-12.1C1711.2,115.8,1714.1,108.1,1723.4,105.7z"/>
	<path d="M1743.3,101.2l3.5,13.2l16.2-4.3l-3.5-13.2l3.9-1l7.9,30.2l-3.9,1l-3.7-13.9l-16.2,4.3l3.7,13.9l-3.9,1l-7.9-30.2
		L1743.3,101.2z"/>
	<path d="M1770.2,110.3c-2.4-9.1,1-17.1,10.5-19.6c9.5-2.5,16.4,2.9,18.8,11.9c2.4,9.1-1,17.1-10.5,19.6
		C1779.5,124.7,1772.6,119.3,1770.2,110.3z M1788.3,119.4c5.8-1.5,9.3-6.9,7-15.7c-2.3-8.8-8.1-11.8-13.9-10.3
		c-5.8,1.5-9.3,6.9-7,15.7C1776.7,118,1782.5,120.9,1788.3,119.4z"/>
	<path d="M1798.3,86.8l6-1.6l16.5,23l3-28.1l6-1.6l7.9,30.2l-3.9,1l-6.8-26l-3.2,28.6l-3.7,1l-16.8-23.4l6.8,26l-3.9,1L1798.3,86.8z
		"/>
	<path d="M1836.1,76.8l15.3,16.3l3.8-21.3l4.4-1.2l-5.2,27.4c-1,5.5-3.3,7.3-6.3,8.1c-1.4,0.4-2.8,0.5-2.8,0.5l-0.9-3.4
		c0,0,1-0.1,2.4-0.5c1.6-0.4,3.2-1,3.9-5L1831.7,78L1836.1,76.8z"/>
</g>
<g id="Layer_2">
</g>
</svg>
