<?xml version="1.0" encoding="utf-8"?>
<!-- Generator: Adobe Illustrator 25.0.1, SVG Export Plug-In . SVG Version: 6.00 Build 0)  -->
<svg version="1.1" xmlns="http://www.w3.org/2000/svg" xmlns:xlink="http://www.w3.org/1999/xlink" x="0px" y="0px"
	 viewBox="0 0 1920 192" style="enable-background:new 0 0 1920 192;" xml:space="preserve">
<g id="Layer_1">
	<path d="M66.7,149v13.7h16.8V149h4.1v31.2h-4.1v-14.4H66.7v14.4h-4.1V149H66.7z"/>
	<path d="M101.5,149h4.8l12,31.2H114l-3.1-8.4H97l-3.1,8.4h-4.3L101.5,149z M109.7,168.7l-5.8-15.6l-5.8,15.6H109.7z"/>
	<path d="M134.2,148.3c9.8,0,13,5.8,13.4,11h-4.1c-0.5-5.3-4.1-8.2-9.4-8.2c-6,0-10.1,4.6-10.1,13.4c0,8.9,4.1,13.4,10.1,13.4
		c5.3,0,8.9-2.9,9.4-8.2h4.1c-0.5,5.3-3.6,11-13.4,11c-9.6,0-14.4-6.7-14.4-16.3C119.8,155,124.6,148.3,134.2,148.3z"/>
	<path d="M149.5,152.2V149h26.2v3.1h-11v28.1h-4.1v-28.1H149.5z"/>
	<path d="M177.6,164.6c0-9.4,5.3-16.3,15.1-16.3s15.1,7,15.1,16.3s-5.3,16.3-15.1,16.3S177.6,174,177.6,164.6z M192.7,178.1
		c6,0,10.8-4.3,10.8-13.4c0-9.1-4.8-13.4-10.8-13.4s-10.8,4.3-10.8,13.4C181.9,173.8,186.7,178.1,192.7,178.1z"/>
	<path d="M209.3,176.8c0,0,0.5,0.1,1.2,0.1c3.4,0,6-2.5,6-18.1V149h20.4v31.2h-4.1v-28.1h-12.5v7.2c0,15.8-2.9,21.1-8.9,21.1
		c-1.2,0-2.2-0.2-2.2-0.2V176.8z"/>
	<path d="M240.2,180.2V149h4.1v13.7h10.3c5.5,0,9.8,2.4,9.8,8.6c0,6.2-4.3,8.9-9.8,8.9H240.2z M254.4,177.1c3.4,0,5.8-1.9,5.8-5.8
		c0-3.6-2.4-5.5-5.8-5.5h-10.1v11.3H254.4z"/>
	<path d="M271.7,149v13.7h16.8V149h4.1v31.2h-4.1v-14.4h-16.8v14.4h-4.1V149H271.7z"/>
	<path d="M306.5,149h4.8l12,31.2H319l-3.1-8.4h-13.9l-3.1,8.4h-4.3L306.5,149z M314.7,168.7l-5.8-15.6l-5.8,15.6H314.7z"/>
	<path d="M324,180.2l9-14c-4.7-0.5-8.1-3-8.1-8.5c0-6.2,4.8-8.6,9.8-8.6h14.9v31.2h-4.1v-13.9h-8.3l-8.7,13.9H324z M335,163.2h10.6
		v-11H335c-3.4,0-5.8,1.7-5.8,5.5S331.7,163.2,335,163.2z"/>
	<path d="M361.2,176.8c0,0,0.5,0.1,1.2,0.1c3.4,0,6-2.5,6-18.1V149h20.4v31.2h-4.1v-28.1h-12.5v7.2c0,15.8-2.9,21.1-8.9,21.1
		c-1.2,0-2.2-0.2-2.2-0.2V176.8z"/>
	<path d="M402.7,149h4.8l12,31.2h-4.3l-3.1-8.4h-13.9l-3.1,8.4h-4.3L402.7,149z M410.9,168.7l-5.8-15.6l-5.8,15.6H410.9z"/>
	<path d="M421.4,149h6.2l10.1,26.4l10.1-26.4h6.2v31.2H450v-26.9l-10.3,26.9h-3.8l-10.3-26.9v26.9h-4.1V149z"/>
	<path d="M457.4,149h25v31.2h-4.1v-28.1h-16.8v28.1h-4.1V149z"/>
	<path d="M496.3,149h4.8l12,31.2h-4.3l-3.1-8.4h-13.9l-3.1,8.4h-4.3L496.3,149z M504.5,168.7l-5.8-15.6l-5.8,15.6H504.5z"/>
	<path d="M583.3,149h25v31.2h-4.1v-28.1h-16.8v28.1h-4.1V149z"/>
	<path d="M611.2,164.6c0-9.4,5.3-16.3,15.1-16.3s15.1,7,15.1,16.3s-5.3,16.3-15.1,16.3S611.2,174,611.2,164.6z M626.3,178.1
		c6,0,10.8-4.3,10.8-13.4c0-9.1-4.8-13.4-10.8-13.4s-10.8,4.3-10.8,13.4C615.5,173.8,620.3,178.1,626.3,178.1z"/>
	<path d="M644.3,149h6.2l10.1,26.4l10.1-26.4h6.2v31.2h-4.1v-26.9l-10.3,26.9h-3.8l-10.3-26.9v26.9h-4.1V149z"/>
	<path d="M679.8,164.6c0-9.4,5.3-16.3,15.1-16.3s15.1,7,15.1,16.3s-5.3,16.3-15.1,16.3S679.8,174,679.8,164.6z M694.9,178.1
		c6,0,10.8-4.3,10.8-13.4c0-9.1-4.8-13.4-10.8-13.4c-6,0-10.8,4.3-10.8,13.4C684.1,173.8,688.9,178.1,694.9,178.1z"/>
	<path d="M711.9,180.2l14.2-16.6L711.9,149h4.8l13,13.9V149h4.1V163l13-13.9h4.8l-14.2,14.6l14.2,16.6h-5.3l-12.5-15.4v15.4h-4.1
		v-15.4l-12.5,15.4H711.9z"/>
	<path d="M753.9,149h23v3.1h-19v10.6h15.6v3.1H758v11.3h19v3.1h-23V149z"/>
	<path d="M778.9,152.2V149h26.2v3.1h-11v28.1H790v-28.1H778.9z"/>
	<path d="M817.1,180.2V149h14.2c5.8,0,9.8,2.2,9.8,7.9c0,5.8-5.3,7-5.3,7v0.2c0,0,6.2,1.2,6.2,7.4c0,6.2-4.3,8.6-10.8,8.6H817.1z
		 M821.1,152.2v10.6h10.1c3.4,0,5.8-1.7,5.8-5.5c0-3.6-2.4-5-5.8-5H821.1z M831.2,177.1c3.8,0,6.5-1.7,6.5-5.5s-2.9-5.8-6.5-5.8
		h-10.1v11.3H831.2z"/>
	<path d="M757.2,107.3V76.1h14.2c5.8,0,9.8,2.2,9.8,7.9c0,5.8-5.3,7-5.3,7v0.2c0,0,6.2,1.2,6.2,7.4c0,6.2-4.3,8.6-10.8,8.6H757.2z
		 M761.3,79.2v10.6h10.1c3.4,0,5.8-1.7,5.8-5.5c0-3.6-2.4-5-5.8-5H761.3z M771.4,104.2c3.8,0,6.5-1.7,6.5-5.5s-2.9-5.8-6.5-5.8
		h-10.1v11.3H771.4z"/>
	<path d="M788.9,76.1v13.7h9.1c5.5,0,9.8,2.4,9.8,8.6c0,6.2-4.3,8.9-9.8,8.9h-13.2V76.1H788.9z M797.8,104.2c3.4,0,5.8-1.9,5.8-5.8
		c0-3.6-2.4-5.5-5.8-5.5h-8.9v11.3H797.8z M814.8,76.1v31.2h-4.1V76.1H814.8z"/>
	<path d="M818.1,76.1h25v31.2H839V79.2h-16.8v28.1h-4.1V76.1z"/>
	<path d="M846,91.7c0-9.4,5.3-16.3,15.1-16.3s15.1,7,15.1,16.3S871,108,861.1,108S846,101,846,91.7z M861.1,105.1
		c6,0,10.8-4.3,10.8-13.4c0-9.1-4.8-13.4-10.8-13.4c-6,0-10.8,4.3-10.8,13.4C850.3,100.8,855.1,105.1,861.1,105.1z"/>
	<path d="M877.7,103.9c0,0,0.5,0.1,1.2,0.1c3.4,0,6-2.5,6-18.1v-9.8h20.4v31.2h-4.1V79.2h-12.5v7.2c0,15.8-2.9,21.1-8.9,21.1
		c-1.2,0-2.2-0.2-2.2-0.2V103.9z"/>
	<path d="M912.7,76.1v13.7h16.8V76.1h4.1v31.2h-4.1V92.9h-16.8v14.4h-4.1V76.1H912.7z"/>
	<path d="M936.9,76.1h23v3.1h-19v10.6h15.6v3.1H941v11.3h19v3.1h-23V76.1z"/>
	<path d="M966.9,76.1v13.7h16.8V76.1h4.1v31.2h-4.1V92.9h-16.8v14.4h-4.1V76.1H966.9z"/>
	<path d="M995.3,76.1V102l17-25.9h4.3v31.2h-4.1V81.4l-17,25.9h-4.3V76.1H995.3z"/>
	<path d="M1024.1,76.1V102l17-25.9h4.3v31.2h-4.1V81.4l-17,25.9h-4.3V76.1H1024.1z"/>
	<path d="M802.7,142.8v-31.2h14.2c5.5,0,10.1,2.6,10.1,8.6s-4.6,8.6-10.1,8.6h-10.1v13.9H802.7z M806.7,125.8h9.8c3.4,0,6-1.7,6-5.5
		s-2.6-5.5-6-5.5h-9.8V125.8z"/>
	<path d="M840.1,111.6h4.8l12,31.2h-4.3l-3.1-8.4h-13.9l-3.1,8.4h-4.3L840.1,111.6z M848.3,131.3l-5.8-15.6l-5.8,15.6H848.3z"/>
	<path d="M858.8,111.6h23.3v3.1h-19.2v10.6h10.8c5.5,0,9.8,2.4,9.8,8.6c0,6.2-4.3,8.9-9.8,8.9h-14.9V111.6z M873.5,139.7
		c3.4,0,5.8-1.9,5.8-5.8c0-3.6-2.4-5.5-5.8-5.5h-10.6v11.3H873.5z"/>
	<path d="M886.2,127.2c0-9.4,5.3-16.3,15.1-16.3s15.1,7,15.1,16.3s-5.3,16.3-15.1,16.3S886.2,136.6,886.2,127.2z M901.3,140.6
		c6,0,10.8-4.3,10.8-13.4c0-9.1-4.8-13.4-10.8-13.4c-6,0-10.8,4.3-10.8,13.4C890.5,136.3,895.3,140.6,901.3,140.6z"/>
	<path d="M922.9,111.6v8.9c0,4.8,1.7,8.2,8.2,8.2c4.8,0,7.7-2.4,7.7-4.3v-12.7h4.1v31.2h-4.1v-14.6c0,0-2.9,3.6-8.9,3.6
		c-7.7,0-11-4.1-11-10.3v-9.8H922.9z"/>
	<path d="M950.3,111.6v25.9l17-25.9h4.3v31.2h-4.1v-25.9l-17,25.9h-4.3v-31.2H950.3z"/>
	<path d="M986.2,126.7l-11.7-15.1h5l8.9,12.4l8.9-12.4h5l-11.7,15.1l12.1,16.1h-5l-9.4-13.2l-9.4,13.2h-5L986.2,126.7z"/>
	<path d="M857.4,184.8v-10.3h1c3.4,0,6.2-6,6.2-20.6v-7.4h20.2v28.1h4.3v10.3H885v-7.2h-23.5v7.2H857.4z M880.7,174.5v-25h-12.2v4.8
		c0,11.2-1.7,18-4.6,20.2H880.7z"/>
	<path d="M891.2,146.4h23v3.1h-19v10.6h15.6v3.1h-15.6v11.3h19v3.1h-23V146.4z"/>
	<path d="M915.7,174.2c0,0,0.5,0.1,1.2,0.1c3.4,0,6-2.5,6-18.1v-9.8h20.4v31.2h-4.1v-28.1h-12.5v7.2c0,15.8-2.9,21.1-8.9,21.1
		c-1.2,0-2.2-0.2-2.2-0.2V174.2z"/>
	<path d="M1069.9,163.5c-1-9.3,3.5-16.8,13.3-17.8c9.8-1,15.8,5.3,16.8,14.6s-3.5,16.8-13.3,17.8
		C1076.9,179.2,1070.9,172.8,1069.9,163.5z M1086.3,175.3c6-0.6,10.3-5.4,9.3-14.5c-1-9.1-6.2-12.9-12.2-12.2
		c-6,0.6-10.3,5.4-9.3,14.5C1075.1,172.1,1080.4,175.9,1086.3,175.3z"/>
	<path d="M1100.5,147.7l-0.3-3.1l26-2.8l0.3,3.1l-11,1.2l3,27.9l-4.1,0.4l-3-27.9L1100.5,147.7z"/>
	<path d="M1130.1,169.3c0,0,0.5,0.1,1.2,0c3.3-0.4,5.7-3.1,4-18.6l-1-9.8l20.3-2.2l3.3,31l-4.1,0.4l-3-27.9l-12.4,1.3l0.8,7.2
		c1.7,15.8-0.6,21.3-6.6,21.9c-1.2,0.1-2.2,0-2.2,0L1130.1,169.3z"/>
	<path d="M1162,138l2.8,25.8l14.2-27.6l4.3-0.5l3.3,31l-4.1,0.4l-2.8-25.8l-14.2,27.6l-4.3,0.5l-3.3-31L1162,138z"/>
	<path d="M1190.1,135l0.9,8.8c0.5,4.8,2.5,7.9,9,7.2c4.8-0.5,7.4-3.2,7.2-5.1l-1.4-12.6l4.1-0.4l3.3,31l-4.1,0.4l-1.6-14.6
		c0,0-2.5,3.9-8.4,4.5c-7.6,0.8-11.4-2.9-12.1-9.1l-1-9.8L1190.1,135z"/>
	<path d="M1217.3,132l1.5,13.6l16.7-1.8l-1.5-13.6l4.1-0.4l3.3,31l-4.1,0.4l-1.5-14.3l-16.7,1.8l1.5,14.3l-4.1,0.4l-3.3-31
		L1217.3,132z"/>
	<path d="M1242.6,145c-1-9.3,3.5-16.8,13.3-17.8s15.8,5.3,16.8,14.6c1,9.3-3.5,16.8-13.3,17.8C1249.6,160.7,1243.6,154.3,1242.6,145
		z M1259.1,156.8c6-0.6,10.3-5.4,9.3-14.5c-1-9.1-6.2-12.9-12.2-12.2c-6,0.6-10.3,5.4-9.3,14.5
		C1247.9,153.6,1253.1,157.4,1259.1,156.8z"/>
	<path d="M1297.2,122.8c9.8-1,13.5,4.3,14.5,9.5l-4.1,0.4c-1-5.2-4.9-7.7-10.2-7.1c-6,0.6-9.5,5.6-8.6,14.4
		c0.9,8.8,5.5,12.9,11.5,12.3c5.3-0.6,8.5-3.8,8.4-9.1l4.1-0.4c0.1,5.3-2.4,11.4-12.2,12.4c-9.5,1-15-5.1-16.1-14.7
		C1283.6,131,1287.7,123.8,1297.2,122.8z"/>
	<path d="M1316.8,152.8l-3.3-31l14.1-1.5c5.7-0.6,10,1.1,10.6,6.8c0.6,5.7-4.5,7.5-4.5,7.5l0,0.2c0,0,6.3,0.5,7,6.7
		c0.7,6.2-3.4,9.1-9.8,9.7L1316.8,152.8z M1317.9,124.4l1.1,10.5l10-1.1c3.3-0.4,5.5-2.3,5.1-6.1c-0.4-3.6-2.9-4.8-6.3-4.4
		L1317.9,124.4z M1330.6,148.1c3.8-0.4,6.3-2.4,5.9-6.2c-0.4-3.8-3.5-5.4-7.1-5l-10,1.1l1.2,11.2L1330.6,148.1z"/>
	<path d="M1341,118.8l22.9-2.5l0.3,3.1l-18.9,2l1.1,10.5l15.5-1.7l0.3,3.1l-15.5,1.7l1.2,11.2l18.9-2l0.3,3.1l-22.9,2.5L1341,118.8z
		"/>
	<path d="M1366.1,119.2l-0.3-3.1l26-2.8l0.3,3.1l-11,1.2l3,27.9l-4.1,0.4l-3-27.9L1366.1,119.2z"/>
	<path d="M1398.2,112.7l2.8,25.8l14.2-27.6l4.3-0.5l3.3,31l-4.1,0.4l-2.8-25.8l-14.2,27.6l-4.3,0.5l-3.3-31L1398.2,112.7z"/>
	<path d="M1422.2,113.2l-0.3-3.1l26-2.8l0.3,3.1l-11,1.2l3,27.9l-4.1,0.4l-3-27.9L1422.2,113.2z"/>
	<path d="M1412.7,146.5v25.9l17-25.9h4.3v31.2h-4.1v-25.9l-17,25.9h-4.3v-31.2H1412.7z"/>
	<path d="M1447.1,177.7v-31.2h14.2c5.5,0,10.1,2.6,10.1,8.6s-4.6,8.6-10.1,8.6h-10.1v13.9H1447.1z M1451.1,160.7h9.8
		c3.4,0,6-1.7,6-5.5s-2.6-5.5-6-5.5h-9.8V160.7z"/>
	<path d="M1484.5,146.5h4.8l12,31.2h-4.3l-3.1-8.4h-13.9l-3.1,8.4h-4.3L1484.5,146.5z M1492.7,166.2l-5.8-15.6l-5.8,15.6H1492.7z"/>
	<path d="M1502,184.9v-10.3h1c3.4,0,6.2-6,6.2-20.6v-7.4h20.2v28.1h4.3v10.3h-4.1v-7.2h-23.5v7.2H1502z M1525.3,174.6v-25h-12.2v4.8
		c0,11.2-1.7,18-4.6,20.2H1525.3z"/>
	<path d="M1539,146.5l10.6,19.7l9.1-19.7h4.6l-12,25.2c-2.4,5.1-5,6.2-8.2,6.2c-1.4,0-2.9-0.2-2.9-0.2v-3.5c0,0,1,0.1,2.4,0.1
		c1.7,0,3.4-0.2,5-3.8l-13.2-24H1539z"/>
	<path d="M1565.1,146.5h23v3.1h-19v10.6h15.6v3.1h-15.6v11.3h19v3.1h-23V146.5z"/>
	<path d="M1590.1,149.6v-3.1h26.2v3.1h-11v28.1h-4.1v-28.1H1590.1z"/>
	<path d="M1628.3,177.7v-31.2h4.1v16.1l15.1-16.1h4.7l-12,12.6l12.7,18.6h-4.9l-10.4-15.9l-5.1,5.3v10.6H1628.3z"/>
	<path d="M1655.1,177.7v-31.2h14.2c5.5,0,10.1,2.6,10.1,8.6s-4.6,8.6-10.1,8.6h-10.1v13.9H1655.1z M1659.2,160.7h9.8
		c3.4,0,6-1.7,6-5.5s-2.6-5.5-6-5.5h-9.8V160.7z"/>
	<path d="M1692.6,146.5h4.8l12,31.2h-4.3l-3.1-8.4H1688l-3.1,8.4h-4.3L1692.6,146.5z M1700.8,166.2l-5.8-15.6l-5.8,15.6H1700.8z"/>
	<path d="M1725.2,145.8c9.8,0,13,5.8,13.4,11h-4.1c-0.5-5.3-4.1-8.2-9.4-8.2c-6,0-10.1,4.6-10.1,13.4c0,8.9,4.1,13.4,10.1,13.4
		c5.3,0,8.9-2.9,9.4-8.2h4.1c-0.5,5.3-3.6,11-13.4,11c-9.6,0-14.4-6.7-14.4-16.3C1710.8,152.5,1715.6,145.8,1725.2,145.8z"/>
	<path d="M1741.1,162.1c0-9.4,5.3-16.3,15.1-16.3s15.1,7,15.1,16.3s-5.3,16.3-15.1,16.3S1741.1,171.5,1741.1,162.1z M1756.2,175.6
		c6,0,10.8-4.3,10.8-13.4c0-9.1-4.8-13.4-10.8-13.4c-6,0-10.8,4.3-10.8,13.4C1745.4,171.2,1750.2,175.6,1756.2,175.6z"/>
	<path d="M1773.2,149.6v-3.1h26.2v3.1h-11v28.1h-4.1v-28.1H1773.2z"/>
	<path d="M1801.3,162.1c0-9.4,5.3-16.3,15.1-16.3s15.1,7,15.1,16.3s-5.3,16.3-15.1,16.3S1801.3,171.5,1801.3,162.1z M1816.4,175.6
		c6,0,10.8-4.3,10.8-13.4c0-9.1-4.8-13.4-10.8-13.4c-6,0-10.8,4.3-10.8,13.4C1805.6,171.2,1810.4,175.6,1816.4,175.6z"/>
	<path d="M1834.4,177.7v-31.2h4.1v25.9l17-25.9h4.3v31.2h-4.1v-25.9l-17,25.9H1834.4z M1843.1,140.5c0,1.9,1,3.6,4.1,3.6
		s4.1-1.7,4.1-3.6h3.8c0,2.2-1.2,6-7.9,6s-7.9-3.8-7.9-6H1843.1z"/>
</g>
<g id="Layer_2">
</g>
</svg>
