<?xml version="1.0" encoding="utf-8"?>
<!-- Generator: Adobe Illustrator 25.0.1, SVG Export Plug-In . SVG Version: 6.00 Build 0)  -->
<svg version="1.1" id="Layer_1" xmlns="http://www.w3.org/2000/svg" xmlns:xlink="http://www.w3.org/1999/xlink" x="0px" y="0px"
	 viewBox="0 0 1920 192" style="enable-background:new 0 0 1920 192;" xml:space="preserve">
<g id="Layer_1_1_">
	<g>
		<path d="M59.1,177.6c0,0,0.5,0.1,1.2,0.1c3.4,0,6-2.5,6-18.1v-9.8h20.4V181h-4.1v-28.1H70.2v7.2c0,15.8-2.9,21.1-8.9,21.1
			c-1.2,0-2.2-0.2-2.2-0.2S59.1,177.6,59.1,177.6z"/>
		<path d="M100.6,149.8h4.8l12,31.2h-4.3l-3.1-8.4H96.1L93,181h-4.3L100.6,149.8z M108.8,169.4l-5.8-15.6l-5.8,15.6H108.8z"/>
		<path d="M119.4,149.8h6.2l10.1,26.4l10.1-26.4h6.2V181h-4.1v-26.9L137.6,181h-3.8l-10.3-26.9V181h-4.1V149.8z"/>
		<path d="M155.4,149.8h25V181h-4.1v-28.1h-16.8V181h-4.1L155.4,149.8L155.4,149.8z"/>
		<path d="M194.2,149.8h4.8l12,31.2h-4.3l-3.1-8.4h-13.9l-3.1,8.4h-4.3L194.2,149.8z M202.4,169.4l-5.8-15.6l-5.8,15.6H202.4z"/>
		<path d="M213.1,184.8c2.4,0,3.1-1.2,3.1-3.1V181H214v-4.6h4.1v5.3c0,3.4-1.7,5-4.6,5H213v-1.9H213.1z"/>
		<path d="M232.2,181v-31.2h14.2c5.5,0,10.1,2.6,10.1,8.6s-4.6,8.6-10.1,8.6h-10.1v14H232.2z M236.2,163.9h9.8c3.4,0,6-1.7,6-5.5
			s-2.6-5.5-6-5.5h-9.8V163.9z"/>
		<path d="M269.6,149.8h4.8l12,31.2h-4.3l-3.1-8.4h-14l-3.1,8.4h-4.3L269.6,149.8z M277.8,169.4l-5.8-15.6l-5.8,15.6H277.8z"/>
		<path d="M288.3,149.8h23.3v3.1h-19.2v10.6h10.8c5.5,0,9.8,2.4,9.8,8.6c0,6.2-4.3,8.9-9.8,8.9h-14.9L288.3,149.8L288.3,149.8z
			 M303,177.8c3.4,0,5.8-1.9,5.8-5.8c0-3.6-2.4-5.5-5.8-5.5h-10.6v11.3H303z"/>
		<path d="M315.7,165.4c0-9.4,5.3-16.3,15.1-16.3s15.1,7,15.1,16.3c0,9.4-5.3,16.3-15.1,16.3S315.7,174.7,315.7,165.4z M330.8,178.8
			c6,0,10.8-4.3,10.8-13.4c0-9.1-4.8-13.4-10.8-13.4s-10.8,4.3-10.8,13.4S324.8,178.8,330.8,178.8z"/>
		<path d="M347.8,152.9v-3.1H374v3.1h-11V181h-4.1v-28.1H347.8z"/>
		<path d="M387,149.8h4.8l12,31.2h-4.3l-3.1-8.4h-13.9l-3.1,8.4H375L387,149.8z M395.2,169.4l-5.8-15.6l-5.8,15.6H395.2z"/>
		<path d="M405.7,149.8h4.1v13.7h5.1c0.6-8,5.2-14.4,14.4-14.4c9.8,0,14.4,7.4,14.4,16.3c0,8.9-4.6,16.3-14.4,16.3
			c-9.4,0-14-6.8-14.4-15.1h-5V181h-4.1v-31.2H405.7z M419.1,165.4c0,8.6,4.1,13.4,10.1,13.4s10.1-4.8,10.1-13.4
			c0-8.6-4.1-13.4-10.1-13.4S419.1,156.7,419.1,165.4z"/>
		<path d="M446.5,181v-31.2h4.1v28.1h11.7v-28.1h4v28.1H478v-28.1h4.1v28.1h4.3v10.3h-4.1V181H446.5z"/>
		<path d="M499,149.8h4.8l12,31.2h-4.3l-3.1-8.4h-13.9l-3.1,8.4H487L499,149.8z M507.2,169.4l-5.8-15.6l-5.8,15.6H507.2z"/>
		<path d="M516.5,181l9-14c-4.7-0.5-8.1-3-8.1-8.5c0-6.2,4.8-8.6,9.8-8.6h14.9V181H538v-14h-8.3l-8.7,13.9h-4.5V181z M527.6,163.9
			h10.6v-11h-10.6c-3.4,0-5.8,1.7-5.8,5.5S524.2,163.9,527.6,163.9z"/>
		<path d="M555.2,149.8h25V181h-4.1v-28.1h-16.8V181h-4.1L555.2,149.8L555.2,149.8z"/>
		<path d="M583,165.4c0-9.4,5.3-16.3,15.1-16.3s15.1,7,15.1,16.3c0,9.4-5.3,16.3-15.1,16.3S583,174.7,583,165.4z M598.1,178.8
			c6,0,10.8-4.3,10.8-13.4c0-9.1-4.8-13.4-10.8-13.4s-10.8,4.3-10.8,13.4S592.1,178.8,598.1,178.8z"/>
		<path d="M625.7,181v-31.2h14.2c5.5,0,10.1,2.6,10.1,8.6s-4.6,8.6-10.1,8.6h-10.1v14H625.7z M629.8,163.9h9.8c3.4,0,6-1.7,6-5.5
			s-2.6-5.5-6-5.5h-9.8V163.9z"/>
		<path d="M663.2,149.8h4.8l12,31.2h-4.3l-3.1-8.4h-13.9l-3.1,8.4h-4.3L663.2,149.8z M671.4,169.4l-5.8-15.6l-5.8,15.6H671.4z"/>
		<path d="M680.7,188.2v-10.3h1c3.4,0,6.2-6,6.2-20.6v-7.4h20.2V178h4.3v10.3h-4.1V181h-23.5v7.2H680.7z M704,177.8v-25h-12.2v4.8
			c0,11.2-1.7,18-4.6,20.2H704z"/>
		<path d="M718.6,149.8v25.9l17-25.9h4.3V181h-4.1v-26l-17,25.9h-4.3v-31.2h4.1V149.8z"/>
		<path d="M742.9,165.4c0-9.4,5.3-16.3,15.1-16.3s15.1,7,15.1,16.3c0,9.4-5.3,16.3-15.1,16.3S742.9,174.7,742.9,165.4z M758,178.8
			c6,0,10.8-4.3,10.8-13.4c0-9.1-4.8-13.4-10.8-13.4s-10.8,4.3-10.8,13.4S752,178.8,758,178.8z"/>
		<path d="M776,181v-31.2h4.1v16.1l15.1-16.1h4.7l-12,12.6l12.7,18.6h-4.9l-10.4-15.9l-5.1,5.3V181H776z"/>
		<path d="M813.4,149.8h4.8l12,31.2h-4.3l-3.1-8.4h-13.9l-3.1,8.4h-4.3L813.4,149.8z M821.6,169.4l-5.8-15.6l-5.8,15.6H821.6z"/>
		<path d="M836.2,149.8v13.7H853v-13.7h4.1V181H853v-14.4h-16.8V181h-4.1v-31.2H836.2z"/>
		<path d="M871,149.8h4.8l12,31.2h-4.3l-3.1-8.4h-13.9l-3.1,8.4H859L871,149.8z M879.2,169.4l-5.8-15.6l-5.8,15.6H879.2z"/>
		<path d="M888.3,177.6c0,0,0.5,0.1,1.2,0.1c3.4,0,6-2.5,6-18.1v-9.8h20.4V181h-4.1v-28.1h-12.5v7.2c0,15.8-2.9,21.1-8.9,21.1
			c-1.2,0-2.2-0.2-2.2-0.2L888.3,177.6L888.3,177.6z"/>
		<path d="M922.4,149.8l10.6,19.7l9.1-19.7h4.6l-12,25.2c-2.4,5.1-5,6.2-8.2,6.2c-1.4,0-2.9-0.2-2.9-0.2v-3.5c0,0,1,0.1,2.4,0.1
			c1.7,0,3.4-0.2,5-3.8l-13.2-24H922.4z"/>
		<path d="M962.2,149.8v13.7H979v-13.7h4.1V181H979v-14.4h-16.8V181h-4.1v-31.2H962.2z"/>
		<path d="M997,149.8h4.8l12,31.2h-4.3l-3.1-8.4h-13.9l-3.1,8.4H985L997,149.8z M1005.2,169.4l-5.8-15.6l-5.8,15.6H1005.2z"/>
		<path d="M1028.9,149.8v8.9c0,4.8,1.7,8.2,8.2,8.2c4.8,0,7.7-2.4,7.7-4.3v-12.7h4.1V181h-4.1v-14.6c0,0-2.9,3.6-8.9,3.6
			c-7.7,0-11-4.1-11-10.3v-9.8L1028.9,149.8L1028.9,149.8z"/>
		<path d="M1062.8,149.8h4.8l12,31.2h-4.3l-3.1-8.4h-13.9l-3.1,8.4h-4.3L1062.8,149.8z M1071,169.4l-5.8-15.6l-5.8,15.6H1071z"/>
		<path d="M1095.4,149c9.8,0,13,5.8,13.4,11h-4.1c-0.5-5.3-4.1-8.2-9.4-8.2c-6,0-10.1,4.6-10.1,13.4c0,8.9,4.1,13.4,10.1,13.4
			c5.3,0,8.9-2.9,9.4-8.2h4.1c-0.5,5.3-3.6,11-13.4,11c-9.6,0-14.4-6.7-14.4-16.3C1081,155.8,1085.8,149,1095.4,149z"/>
		<path d="M1110.8,152.9v-3.1h26.2v3.1h-11V181h-4.1v-28.1H1110.8z"/>
		<path d="M1138.9,165.4c0-9.4,5.3-16.3,15.1-16.3s15.1,7,15.1,16.3c0,9.4-5.3,16.3-15.1,16.3S1138.9,174.7,1138.9,165.4z
			 M1154,178.8c6,0,10.8-4.3,10.8-13.4c0-9.1-4.8-13.4-10.8-13.4s-10.8,4.3-10.8,13.4S1148,178.8,1154,178.8z"/>
		<path d="M1171,152.9v-3.1h26.2v3.1h-11V181h-4.1v-28.1H1171z"/>
		<path d="M1199.6,149.8h23v3.1h-19v10.6h15.6v3.1h-15.6v11.3h19v3.1h-23V149.8z"/>
		<path d="M1234.6,181v-3.1c11.8-9.1,19.7-13,19.7-19.2c0-3.6-2.2-6.7-7.7-6.7c-5,0-7.9,3.1-7.9,8.2h-4.1c0-7.7,5.3-11,12-11
			c6.2,0,12,2.9,12,9.6c0,7.4-9.8,12-19.4,19.2h19.4v3.1h-24V181z"/>
		<path d="M1261.6,184.8c2.4,0,3.1-1.2,3.1-3.1V181h-2.2v-4.6h4.1v5.3c0,3.4-1.7,5-4.6,5h-0.5L1261.6,184.8L1261.6,184.8z"/>
		<path d="M1270.4,173v-2.6l16.1-20.6h4.8V170h5.5v3.1h-5.5v7.9h-4.1v-8H1270.4z M1274.6,169.9h12.6v-16.2L1274.6,169.9z"/>
		<path d="M1308.8,181v-31.2h21.6v3.1h-17.5V181H1308.8z"/>
		<path d="M1332.8,181v-31.2h21.6v3.1h-17.5V181H1332.8z"/>
		<path d="M1356.8,149.8h4.1v28.1h16.3v-28.1h4.1v28.1h4.3v10.3h-4.1V181h-24.7L1356.8,149.8L1356.8,149.8z"/>
	</g>
	<path d="M354.9,80.4c9.8,0,13,5.8,13.4,11h-4.1c-0.5-5.3-4.1-8.2-9.4-8.2c-6,0-10.1,4.6-10.1,13.4c0,8.9,4.1,13.4,10.1,13.4
		c5.3,0,8.9-2.9,9.4-8.2h4.1c-0.5,5.3-3.6,11-13.4,11c-9.6,0-14.4-6.7-14.4-16.3C340.5,87.1,345.3,80.4,354.9,80.4z"/>
	<path d="M371.2,112.3V81.1h14.2c5.8,0,9.8,2.2,9.8,7.9c0,5.8-5.3,7-5.3,7v0.2c0,0,6.2,1.2,6.2,7.4c0,6.2-4.3,8.6-10.8,8.6h-14.1
		V112.3z M375.3,84.2v10.6h10.1c3.4,0,5.8-1.7,5.8-5.5c0-3.6-2.4-5-5.8-5L375.3,84.2L375.3,84.2z M385.3,109.2
		c3.8,0,6.5-1.7,6.5-5.5s-2.9-5.8-6.5-5.8h-10.1v11.3H385.3z"/>
	<path d="M398.8,81.1h23v3.1h-19v10.6h15.6v3.1h-15.6v11.3h19v3.1h-23V81.1z"/>
	<path d="M423.7,84.2v-3.1h26.2v3.1h-11v28.1h-4.1V84.2H423.7z"/>
	<path d="M451.8,96.7c0-9.4,5.3-16.3,15.1-16.3s15.1,7,15.1,16.3s-5.3,16.3-15.1,16.3S451.8,106.1,451.8,96.7z M466.9,110.2
		c6,0,10.8-4.3,10.8-13.4s-4.8-13.4-10.8-13.4s-10.8,4.3-10.8,13.4C456.1,105.8,460.9,110.2,466.9,110.2z"/>
	<path d="M484.9,112.3V81.1h14.2c5.8,0,9.8,2.2,9.8,7.9c0,5.8-5.3,7-5.3,7v0.2c0,0,6.2,1.2,6.2,7.4c0,6.2-4.3,8.6-10.8,8.6h-14.1
		V112.3z M489,84.2v10.6h10.1c3.4,0,5.8-1.7,5.8-5.5c0-3.6-2.4-5-5.8-5L489,84.2L489,84.2z M499.1,109.2c3.8,0,6.5-1.7,6.5-5.5
		s-2.9-5.8-6.5-5.8H489v11.3H499.1z"/>
	<path d="M512,96.7c0-9.4,5.3-16.3,15.1-16.3s15.1,7,15.1,16.3s-5.2,16.3-15,16.3S512,106.1,512,96.7z M527.2,110.2
		c6,0,10.8-4.3,10.8-13.4s-4.8-13.4-10.8-13.4s-10.8,4.3-10.8,13.4C516.4,105.8,521.2,110.2,527.2,110.2z"/>
	<path d="M545.2,112.3V81.1h4.1V107l17-25.9h4.3v31.2h-4.1V86.4l-17,25.9H545.2z M553.8,75.1c0,1.9,1,3.6,4.1,3.6s4.1-1.7,4.1-3.6
		h3.8c0,2.2-1.2,6-7.9,6s-7.9-3.8-7.9-6H553.8z"/>
	<path d="M571.7,41.8l23.9,7.3L586.4,79l-3.9-1.2l8.3-26.8l-16.1-5l-8.3,26.8l-3.9-1.2L571.7,41.8z"/>
	<path d="M593.7,64.9c2.8-8.9,9.8-14,19.3-11.2c9.4,2.9,12.4,11.1,9.7,20c-2.8,8.9-9.8,14-19.3,11.2C594,82,591,73.8,593.7,64.9z
		 M604.2,82.2c5.7,1.8,11.6-1,14.3-9.7s-0.6-14.3-6.4-16c-5.7-1.8-11.6,1-14.3,9.7C595.2,74.9,598.5,80.4,604.2,82.2z"/>
	<path d="M628.1,62.4l0.9-3l25,7.7l-0.9,3l-10.6-3.2l-8.3,26.8l-3.9-1.2l8.3-26.8L628.1,62.4z"/>
	<path d="M651.3,82.6c2.8-8.9,9.8-14,19.3-11.2c9.4,2.9,12.4,11.1,9.7,20c-2.8,8.9-9.8,14-19.3,11.2
		C651.5,99.8,648.5,91.6,651.3,82.6z M661.8,99.9c5.7,1.8,11.6-1,14.3-9.7s-0.6-14.3-6.4-16c-5.7-1.8-11.6,1-14.3,9.7
		C652.7,92.6,656,98.1,661.8,99.9z"/>
	<path d="M678.4,107.3l9.2-29.8l3.9,1.2L686.7,94l19.2-10.9l4.5,1.4L695.2,93l6.6,21.5l-4.7-1.4l-5.3-18.2l-6.4,3.6l-3.1,10.1
		L678.4,107.3z"/>
	<path d="M283.8,113.7c9.8,0,13,5.8,13.4,11h-4.1c-0.5-5.3-4.1-8.2-9.4-8.2c-6,0-10.1,4.6-10.1,13.4c0,8.9,4.1,13.4,10.1,13.4
		c5.3,0,8.9-2.9,9.4-8.2h4.1c-0.5,5.3-3.6,11-13.4,11c-9.6,0-14.4-6.7-14.4-16.3C269.4,120.4,274.2,113.7,283.8,113.7z"/>
	<path d="M300.1,145.6v-31.2h14.2c5.8,0,9.8,2.2,9.8,7.9c0,5.8-5.3,7-5.3,7v0.2c0,0,6.2,1.2,6.2,7.4s-4.3,8.6-10.8,8.6L300.1,145.6
		L300.1,145.6z M304.2,117.5v10.6h10.1c3.4,0,5.8-1.7,5.8-5.5c0-3.6-2.4-5-5.8-5h-10.1V117.5z M314.2,142.5c3.8,0,6.5-1.7,6.5-5.5
		s-2.9-5.8-6.5-5.8h-10.1v11.3H314.2z"/>
	<path d="M327.7,114.4h23v3.1h-19v10.6h15.6v3.1h-15.6v11.3h19v3.1h-23V114.4z"/>
	<path d="M352.6,117.5v-3.1h26.2v3.1h-11v28.1h-4.1v-28.1C363.7,117.5,352.6,117.5,352.6,117.5z"/>
	<path d="M380.7,130c0-9.4,5.3-16.3,15.1-16.3s15.1,7,15.1,16.3s-5.3,16.3-15.1,16.3S380.7,139.4,380.7,130z M395.8,143.4
		c6,0,10.8-4.3,10.8-13.4s-4.8-13.4-10.8-13.4S385,120.9,385,130S389.8,143.4,395.8,143.4z"/>
	<path d="M412.6,152.8v-10.3h1c3.4,0,6.2-6,6.2-20.6v-7.4H440v28.1h4.3v10.3h-4.1v-7.2h-23.5v7.2h-4.1V152.8z M435.9,142.5v-25
		h-12.2v4.8c0,11.2-1.7,18-4.6,20.2H435.9z"/>
	<path d="M450.6,114.4v25.9l17-25.9h4.3v31.2h-4.1v-25.9l-17,25.9h-4.3v-31.2C446.5,114.4,450.6,114.4,450.6,114.4z"/>
	<path d="M474.8,130c0-9.4,5.3-16.3,15.1-16.3s15.1,7,15.1,16.3s-5.3,16.3-15.1,16.3S474.8,139.4,474.8,130z M489.9,143.4
		c6,0,10.8-4.3,10.8-13.4s-4.8-13.4-10.8-13.4s-10.8,4.3-10.8,13.4S483.9,143.4,489.9,143.4z"/>
	<path d="M506.7,152.8v-10.3h1c3.4,0,6.2-6,6.2-20.6v-7.4h20.2v28.1h4.3v10.3h-4.1v-7.2h-23.5v7.2h-4.1V152.8z M530,142.5v-25h-12.2
		v4.8c0,11.2-1.7,18-4.6,20.2H530z"/>
	<path d="M544.6,114.4v13.7h16.8v-13.7h4.1v31.2h-4.1v-14.4h-16.8v14.4h-4.1v-31.2C540.5,114.4,544.6,114.4,544.6,114.4z"/>
	<path d="M568.4,130c0-9.4,5.3-16.3,15.1-16.3s15.1,7,15.1,16.3s-5.3,16.3-15.1,16.3S568.4,139.4,568.4,130z M583.5,143.4
		c6,0,10.8-4.3,10.8-13.4s-4.8-13.4-10.8-13.4s-10.8,4.3-10.8,13.4S577.5,143.4,583.5,143.4z"/>
	<path d="M601.5,145.6v-31.2h4.1v25.9l17-25.9h4.3v31.2h-4.1v-25.9l-17,25.9H601.5z M610.1,108.4c0,1.9,1,3.6,4.1,3.6
		s4.1-1.7,4.1-3.6h3.8c0,2.2-1.2,6-7.9,6s-7.9-3.8-7.9-6H610.1z"/>
	<path d="M638.5,142.2c0,0,0.5,0.1,1.2,0.1c3.4,0,6-2.5,6-18.1v-9.8h20.4v31.2H662v-28.1h-12.5v7.2c0,15.8-2.9,21.1-8.9,21.1
		c-1.2,0-2.2-0.2-2.2-0.2v-3.4H638.5z"/>
	<path d="M680,114.4h4.8l12,31.2h-4.3l-3.1-8.4h-13.9l-3.1,8.4H668L680,114.4z M688.2,134.1l-5.8-15.6l-5.8,15.6H688.2z"/>
	<path d="M698.7,114.4h6.2l10.1,26.4l10.1-26.4h6.2v31.2h-4.1v-26.9l-10.3,26.9h-3.8l-10.3-26.9v26.9h-4.1L698.7,114.4L698.7,114.4z
		"/>
	<path d="M734.7,114.4h25v31.2h-4.1v-28.1h-16.8v28.1h-4.1L734.7,114.4L734.7,114.4z"/>
	<path d="M767.1,114.4v13.7h9.1c5.5,0,9.8,2.4,9.8,8.6c0,6.2-4.3,8.9-9.8,8.9H763v-31.2C763,114.4,767.1,114.4,767.1,114.4z
		 M776,142.5c3.4,0,5.8-1.9,5.8-5.8c0-3.6-2.4-5.5-5.8-5.5h-8.9v11.3H776z M793,114.4v31.2h-4.1v-31.2
		C788.9,114.4,793,114.4,793,114.4z"/>
	<path d="M809.6,135.3c0.5,5.3,4.1,8.2,9.4,8.2c5.7,0,9.7-4.1,10-12.2h-16.5v-3.1H829c-0.5-7.6-4.5-11.5-10-11.5
		c-5.3,0-8.9,2.9-9.4,8.2h-4.1c0.5-5.3,3.6-11,13.4-11c9.6,0,14.4,6.7,14.4,16.3s-4.8,16.3-14.4,16.3c-9.8,0-13-5.8-13.4-11h4.1
		V135.3z"/>
	<path d="M836.2,145.6v-31.2h4.1v16.1l15.1-16.1h4.7L848,127l12.7,18.6h-4.9l-10.4-15.9l-5.1,5.3v10.6L836.2,145.6L836.2,145.6z"/>
	<path d="M863.1,145.6v-31.2h14.2c5.8,0,9.8,2.2,9.8,7.9c0,5.8-5.3,7-5.3,7v0.2c0,0,6.2,1.2,6.2,7.4s-4.3,8.6-10.8,8.6L863.1,145.6
		L863.1,145.6z M867.2,117.5v10.6h10.1c3.4,0,5.8-1.7,5.8-5.5c0-3.6-2.4-5-5.8-5h-10.1V117.5z M877.3,142.5c3.8,0,6.5-1.7,6.5-5.5
		s-2.9-5.8-6.5-5.8h-10.1v11.3H877.3z"/>
	<path d="M894.8,114.4v25.9l17-25.9h4.3v31.2H912v-25.9l-17,25.9h-4.3v-31.2C890.7,114.4,894.8,114.4,894.8,114.4z"/>
	<path d="M919.5,145.6v-31.2h14.2c5.8,0,9.8,2.2,9.8,7.9c0,5.8-5.3,7-5.3,7v0.2c0,0,6.2,1.2,6.2,7.4s-4.3,8.6-10.8,8.6L919.5,145.6
		L919.5,145.6z M923.6,117.5v10.6h10.1c3.4,0,5.8-1.7,5.8-5.5c0-3.6-2.4-5-5.8-5h-10.1V117.5z M933.7,142.5c3.8,0,6.5-1.7,6.5-5.5
		s-2.9-5.8-6.5-5.8h-10.1v11.3H933.7z"/>
	<path d="M957.7,114.4h4.8l12,31.2h-4.3l-3.1-8.4h-13.9l-3.1,8.4h-4.3L957.7,114.4z M965.9,134.1l-5.8-15.6l-5.8,15.6H965.9z"/>
	<path d="M974.9,142.2c0,0,0.5,0.1,1.2,0.1c3.4,0,6-2.5,6-18.1v-9.8h20.4v31.2h-4.1v-28.1H986v7.2c0,15.8-2.9,21.1-8.9,21.1
		c-1.2,0-2.2-0.2-2.2-0.2L974.9,142.2L974.9,142.2z"/>
	<path d="M1005.9,114.4h23v3.1h-19v10.6h15.6v3.1H1010v11.3h19v3.1h-23L1005.9,114.4L1005.9,114.4z"/>
	<path d="M1035.9,114.4v13.7h16.8v-13.7h4.1v31.2h-4.1v-14.4h-16.8v14.4h-4.1v-31.2C1031.8,114.4,1035.9,114.4,1035.9,114.4z"/>
	<path d="M1059.2,117.5v-3.1h26.2v3.1h-11v28.1h-4.1v-28.1C1070.3,117.5,1059.2,117.5,1059.2,117.5z"/>
	<path d="M1087.7,114.4h23v3.1h-19v10.6h15.6v3.1h-15.6v11.3h19v3.1h-23V114.4z"/>
	<path d="M1117.7,114.4v13.7h16.8v-13.7h4.1v31.2h-4.1v-14.4h-16.8v14.4h-4.1v-31.2C1113.6,114.4,1117.7,114.4,1117.7,114.4z"/>
	<path d="M1188.4,143.6c0,0,0.5,0.1,1.2,0.1c3.4-0.2,5.8-2.9,4.7-18.5l-0.7-9.8l20.4-1.4l2.1,31.1l-4.1,0.3l-1.9-28l-12.5,0.9
		l0.5,7.2c1.1,15.8-1.4,21.3-7.4,21.7c-1.2,0.1-2.2-0.1-2.2-0.1L1188.4,143.6z"/>
	<path d="M1227.9,113.1l4.8-0.3l14.1,30.3l-4.3,0.3l-3.7-8.2l-13.9,1l-2.5,8.6l-4.3,0.3L1227.9,113.1z M1237.5,132.1l-6.9-15.2
		l-4.7,16L1237.5,132.1z"/>
	<path d="M1246.6,111.8l6.2-0.4l11.9,25.7l8.2-27l6.2-0.4l2.1,31.1l-4.1,0.3l-1.8-26.8l-8.5,27.5l-3.8,0.3l-12.1-26.1l1.8,26.8
		l-4.1,0.3L1246.6,111.8z"/>
	<path d="M1282.5,109.3l24.9-1.7l2.1,31.1l-4.1,0.3l-1.9-28l-16.8,1.1l1.9,28l-4.1,0.3L1282.5,109.3z"/>
	<path d="M1310.8,107.4l23-1.6l0.2,3.1l-18.9,1.3l0.7,10.5l15.6-1.1l0.2,3.1l-15.6,1.1l0.8,11.3l18.9-1.3l0.2,3.1l-23,1.6
		L1310.8,107.4z"/>
	<path d="M1350.3,104.7l0.9,13.6l16.8-1.1l-0.9-13.6l4.1-0.3l2.1,31.1l-4.1,0.3l-1-14.4l-16.8,1.1l1,14.4l-4.1,0.3l-2.1-31.1
		L1350.3,104.7z"/>
	<path d="M1385,102.3l4.8-0.3l14.1,30.3l-4.3,0.3l-3.7-8.2l-13.9,1l-2.5,8.6l-4.3,0.3L1385,102.3z M1394.6,121.4l-6.9-15.2l-4.7,16
		L1394.6,121.4z"/>
	<path d="M1405.8,132.1l-2.1-31.1l4.1-0.3l1.1,16l14-17.1l4.6-0.3l-11.2,13.4l13.9,17.7l-4.9,0.3l-11.5-15.1l-4.7,5.7l0.7,10.5
		L1405.8,132.1z"/>
	<path d="M1441,98.5l4.8-0.3l14.1,30.3l-4.3,0.3l-3.7-8.2l-13.9,1l-2.5,8.6l-4.3,0.3L1441,98.5z M1450.6,117.5l-6.9-15.2l-4.7,16
		L1450.6,117.5z"/>
	<path d="M1460.2,125c0,0,0.5,0.1,1.2,0.1c3.4-0.2,5.8-2.9,4.7-18.5l-0.7-9.8l20.4-1.4l2.1,31.1l-4.1,0.3l-1.9-28l-12.5,0.9l0.5,7.2
		c1.1,15.8-1.4,21.3-7.4,21.7c-1.2,0.1-2.2-0.1-2.2-0.1L1460.2,125z"/>
	<path d="M1493.2,94.9l1.8,25.9l15.2-27l4.3-0.3l2.1,31.1l-4.1,0.3l-1.8-25.9l-15.2,27l-4.3,0.3l-2.1-31.1L1493.2,94.9z"/>
	<path d="M1520,124.3l-2.1-31.1l14.1-1c5.7-0.4,10,1.5,10.4,7.2s-4.8,7.3-4.8,7.3v0.2c0,0,6.3,0.8,6.7,7c0.4,6.2-3.7,8.9-10.2,9.4
		L1520,124.3z M1522.2,96l0.7,10.5l10.1-0.7c3.4-0.2,5.6-2.1,5.4-5.9c-0.2-3.6-2.7-4.9-6.1-4.6L1522.2,96z M1533.9,120.2
		c3.8-0.3,6.4-2.1,6.1-6s-3.3-5.6-6.9-5.3l-10.1,0.7l0.8,11.3L1533.9,120.2z"/>
	<path d="M1556,90.6l4.8-0.3l14.1,30.3l-4.3,0.3l-3.7-8.2l-13.9,1l-2.5,8.6l-4.3,0.3L1556,90.6z M1565.5,109.6l-6.9-15.2l-4.7,16
		L1565.5,109.6z"/>
	<path d="M1578.7,89l0.9,13.6l16.8-1.1l-0.9-13.6l4.1-0.3l2.1,31.1l-4.1,0.3l-1-14.4l-16.8,1.1l1,14.4l-4.1,0.3l-2.1-31.1L1578.7,89
		z"/>
	<path d="M1607,87.1l1.8,25.9l15.2-27l4.3-0.3l2.1,31.1l-4.1,0.3l-1.8-25.9l-15.2,27l-4.3,0.3l-2.1-31.1L1607,87.1z"/>
	<path d="M1632.6,116.6l8-14.6c-4.7-0.2-8.2-2.4-8.6-8c-0.4-6.2,4.2-8.9,9.2-9.3l14.8-1l2.1,31.1l-4.1,0.3l-1-13.9l-8.3,0.6
		l-7.8,14.5L1632.6,116.6z M1642.4,98.8l10.5-0.7l-0.8-11l-10.5,0.7c-3.4,0.2-5.6,2.1-5.4,5.9S1639.1,99.1,1642.4,98.8z"/>
	<path d="M1436.1,149.4l6.2-0.8l13.4,24.9l6.6-27.5l6.2-0.8l4,30.9l-4,0.5L1465,150l-6.8,28l-3.8,0.5l-13.7-25.3l3.5,26.7l-4,0.5
		L1436.1,149.4z"/>
	<path d="M1473.3,160.3c-1.2-9.3,3.1-16.9,12.9-18.1s15.9,5,17.1,14.2c1.2,9.3-3.1,16.9-12.9,18.1
		C1480.7,175.8,1474.5,169.6,1473.3,160.3z M1490.1,171.7c6-0.8,10.2-5.7,9-14.7s-6.5-12.7-12.4-11.9c-6,0.8-10.2,5.7-9,14.7
		C1478.8,168.8,1484.1,172.5,1490.1,171.7z"/>
	<path d="M1508.2,171.5l-4-30.9l4-0.5l3.6,27.8l11.6-1.5l-3.6-27.8l4-0.5l3.6,27.8l11.6-1.5l-3.6-27.8l4-0.5l3.6,27.8l4.3-0.6
		l1.3,10.2l-4,0.5l-0.9-7.1L1508.2,171.5z"/>
	<path d="M1549.9,134.7l1.8,13.6l16.7-2.2l-1.8-13.6l4-0.5l4,30.9l-4,0.5l-1.8-14.3l-16.7,2.2l1.8,14.3l-4,0.5l-4-30.9L1549.9,134.7
		z"/>
	<path d="M1575.4,147.1c-1.2-9.3,3.1-16.9,12.9-18.1c9.8-1.3,15.9,5,17.1,14.2c1.2,9.3-3.1,16.9-12.9,18.1
		C1582.8,162.6,1576.6,156.4,1575.4,147.1z M1592.2,158.5c6-0.8,10.2-5.7,9-14.7s-6.5-12.7-12.4-11.9c-6,0.8-10.2,5.7-9,14.7
		C1580.9,155.6,1586.2,159.2,1592.2,158.5z"/>
	<path d="M1620,124.8c9.8-1.3,13.6,4,14.7,9.2l-4,0.5c-1.2-5.2-5.1-7.6-10.3-6.9c-6,0.8-9.4,5.8-8.3,14.6s5.8,12.8,11.7,12
		c5.2-0.7,8.4-4,8.2-9.3l4-0.5c0.2,5.3-2.2,11.4-11.9,12.7c-9.5,1.2-15.1-4.8-16.4-14.3C1606.6,133.4,1610.5,126.1,1620,124.8z"/>
	<path d="M1635.7,126.7l-0.4-3.1l25.9-3.4l0.4,3.1l-10.9,1.4l3.6,27.8l-4,0.5l-3.6-27.8L1635.7,126.7z"/>
	<path d="M1667.6,150.9l-4-30.9l4-0.5l1.8,13.6l10.2-1.3c5.5-0.7,10.1,1.1,10.9,7.3s-3.1,9.4-8.6,10.1L1667.6,150.9z M1681.3,145.9
		c3.3-0.4,5.5-2.6,5-6.5c-0.5-3.6-3.1-5.2-6.4-4.7l-10,1.3l1.4,11.2L1681.3,145.9z"/>
	<path d="M1690.8,116.4l4-0.5l1.8,13.6l5-0.7c-0.4-8,3.3-15,12.4-16.1c9.8-1.3,15.2,5.5,16.4,14.3c1.1,8.8-2.4,16.8-12.2,18
		c-9.3,1.2-14.7-4.9-16.2-13.1l-5,0.6l1.8,14.3l-4,0.5L1690.8,116.4z M1706.1,130.1c1.1,8.6,5.8,12.8,11.7,12
		c6-0.8,9.4-6.1,8.3-14.6c-1.1-8.6-5.8-12.8-11.7-12C1708.4,116.3,1705,121.6,1706.1,130.1z"/>
	<path d="M1742.5,126.9c-1.4-11.2,2-18.2,10.8-19.3c8.3-1.1,12.1,3.8,12.6,7.8l-4,0.5c-0.4-2.9-3-6.1-8.2-5.5
		c-5.9,0.8-8.4,6.2-7.6,13.8h0.2c0,0,2.2-5.4,8.9-6.2c7.4-1,12.5,3.2,13.3,9.2c0.9,6.7-4,11.9-10.9,12.8
		C1749.6,141,1743.8,137.1,1742.5,126.9z M1747.5,130.1c0.7,5.5,5.1,7.6,9.4,7s8-3.7,7.3-9.2s-5.1-7.6-9.4-7
		C1750.5,121.5,1746.8,124.6,1747.5,130.1z"/>
	<path d="M1770.1,121.9c-1.4-10.5,3.6-16.9,11-17.9s13.8,4,15.2,14.5c1.4,10.5-3.6,16.9-11,17.9
		C1777.9,137.3,1771.5,132.3,1770.1,121.9z M1784.9,133.5c4-0.5,8.4-4.2,7.1-14.5c-1.3-10.2-6.5-12.7-10.5-12.2s-8.4,4.2-7.1,14.5
		C1775.7,131.5,1780.9,134,1784.9,133.5z"/>
	<path d="M1810.7,132.3l-4-30.9l14-1.8c5.7-0.7,10,0.9,10.8,6.6c0.7,5.7-4.3,7.6-4.3,7.6v0.2c0,0,6.3,0.4,7.1,6.6
		c0.8,6.2-3.2,9.1-9.6,10L1810.7,132.3z M1811.1,104l1.4,10.5l10-1.3c3.3-0.4,5.5-2.4,5-6.2c-0.5-3.6-3-4.7-6.4-4.3L1811.1,104z
		 M1824.3,127.4c3.8-0.5,6.2-2.5,5.7-6.3s-3.6-5.3-7.2-4.9l-10,1.3l1.4,11.2L1824.3,127.4z"/>
	<path d="M1833.5,101.1l-0.4-3.1l25.9-3.4l0.4,3.1l-10.9,1.4l3.6,27.8l-4,0.5l-3.6-27.8L1833.5,101.1z"/>
</g>
</svg>
