<?xml version="1.0" encoding="utf-8"?>
<!-- Generator: Adobe Illustrator 25.0.1, SVG Export Plug-In . SVG Version: 6.00 Build 0)  -->
<svg version="1.1" xmlns="http://www.w3.org/2000/svg" xmlns:xlink="http://www.w3.org/1999/xlink" x="0px" y="0px"
	 viewBox="0 0 1920 192" style="enable-background:new 0 0 1920 192;" xml:space="preserve">
<g id="Layer_1">
	<path d="M276.7,65.7l6.2-0.4L294.7,91l8.4-27l6.2-0.4l2,31.1l-4.1,0.3l-1.7-26.8l-8.6,27.5l-3.8,0.2l-12-26.2l1.7,26.8l-4.1,0.3
		L276.7,65.7z"/>
	<path d="M312.7,63.4l23-1.5l0.2,3.1l-18.9,1.2l0.7,10.5l15.6-1l0.2,3.1l-15.6,1l0.7,11.3l18.9-1.2l0.2,3.1l-23,1.5L312.7,63.4z"/>
	<path d="M337.8,64.9l-0.2-3.1l26.1-1.7l0.2,3.1l-11,0.7l1.8,28l-4.1,0.3l-1.8-28L337.8,64.9z"/>
	<path d="M376.6,59.3l4.8-0.3l14,30.4l-4.3,0.3l-3.6-8.2l-13.9,0.9l-2.6,8.6l-4.3,0.3L376.6,59.3z M386.1,78.5l-6.8-15.2l-4.8,16
		L386.1,78.5z"/>
	<path d="M395.6,86c0,0,0.5,0.1,1.2,0.1c3.4-0.2,5.8-2.9,4.8-18.4l-0.6-9.8l20.4-1.3l2,31.1l-4.1,0.3l-1.8-28l-12.5,0.8l0.5,7.2
		c1,15.8-1.5,21.3-7.5,21.6c-1.2,0.1-2.2-0.1-2.2-0.1L395.6,86z"/>
	<path d="M425.1,84.1c0,0,0.5,0.1,1.2,0.1c3.4-0.2,5.8-2.9,4.8-18.4l-0.6-9.8l20.4-1.3l2,31.1l-4.1,0.3L447,58l-12.5,0.8l0.5,7.2
		c1,15.8-1.5,21.3-7.5,21.6c-1.2,0.1-2.2-0.1-2.2-0.1L425.1,84.1z"/>
	<path d="M458.3,54.1l1.7,25.9l15.4-27l4.3-0.3l2,31.1l-4.1,0.3l-1.7-25.9l-15.4,27l-4.3,0.3l-2-31.1L458.3,54.1z"/>
	<path d="M486.5,52.3l0.6,8.9c0.3,4.8,2.2,8,8.7,7.6c4.8-0.3,7.5-2.9,7.4-4.8l-0.8-12.7l4.1-0.3l2,31.1l-4.1,0.3l-0.9-14.6
		c0,0-2.6,3.8-8.6,4.2c-7.7,0.5-11.3-3.4-11.7-9.6l-0.6-9.8L486.5,52.3z"/>
	<path d="M509.8,50.8l23-1.5l0.2,3.1L514,53.7l0.7,10.5l15.6-1l0.2,3.1l-15.6,1l0.7,11.3l18.9-1.2l0.2,3.1l-23,1.5L509.8,50.8z"/>
	<path d="M549.5,47.6c9.8-0.6,13.3,4.9,14.1,10.2l-4.1,0.3c-0.8-5.2-4.6-7.9-9.9-7.5c-6,0.4-9.8,5.2-9.2,14.1
		c0.6,8.9,4.9,13.2,10.9,12.8c5.3-0.3,8.7-3.4,8.8-8.7l4.1-0.3c-0.1,5.3-2.9,11.2-12.7,11.9c-9.6,0.6-14.8-5.8-15.4-15.4
		S539.9,48.2,549.5,47.6z"/>
	<path d="M567.8,78.4l-2-31.1l4.1-0.3l1,16L585,46l4.6-0.3l-11.2,13.3l13.8,17.8l-4.9,0.3L575.9,62l-4.7,5.6l0.7,10.5L567.8,78.4z"
		/>
	<path d="M603.2,44.9l4.8-0.3l14,30.4l-4.3,0.3L614,67l-13.9,0.9l-2.6,8.6l-4.3,0.3L603.2,44.9z M612.6,64l-6.8-15.2l-4.8,16
		L612.6,64z"/>
	<path d="M622.7,74.9l8.1-14.6c-4.7-0.2-8.2-2.5-8.6-8c-0.4-6.2,4.2-8.9,9.3-9.2l14.9-0.9l2,31.1l-4.1,0.3l-0.9-13.9l-8.3,0.5
		l-7.8,14.4L622.7,74.9z M632.6,57.2l10.5-0.7l-0.7-11l-10.5,0.7c-3.4,0.2-5.6,2-5.4,5.9C626.7,55.9,629.2,57.4,632.6,57.2z"/>
	<path d="M458.2,88l23.3-0.3l0,3.1l-19.2,0.3l0.1,10.6l10.8-0.1c5.5-0.1,9.9,2.3,10,8.5c0.1,6.2-4.2,8.9-9.7,9l-14.9,0.2L458.2,88z
		 M473.2,115.9c3.4,0,5.7-2,5.7-5.8c0-3.6-2.5-5.5-5.8-5.4l-10.6,0.1l0.2,11.3L473.2,115.9z"/>
	<path d="M486,87.6l23-0.3l0,3.1l-19,0.3l0.1,10.6l15.6-0.2l0,3.1l-15.6,0.2l0.2,11.3l19-0.3l0,3.1l-23,0.3L486,87.6z"/>
	<path d="M516,87.2l0.2,13.7l16.8-0.2L532.8,87l4.1-0.1l0.4,31.2l-4.1,0.1l-0.2-14.4l-16.8,0.2l0.2,14.4l-4.1,0.1L512,87.3L516,87.2
		z"/>
	<path d="M543.7,108.7c0.1,4.3,3,7.2,8.5,7.1c5.8-0.1,8.4-3,8.3-6.6c-0.1-4.6-3.7-5.7-8-5.7l-5.3,0.1l0-3.1l5.3-0.1
		c4.6-0.1,7.2-2.5,7.1-6.1c0-2.6-2-5.5-7.8-5.4c-6.2,0.1-7.9,3.7-7.8,6.6l-4.1,0.1c-0.1-4.3,3.2-9.4,11.9-9.5s11.8,4.2,11.9,8.2
		c0.1,6.2-5.9,7.3-5.9,7.3l0,0.2c0,0,7,0.4,7.1,7.3c0.1,5.5-4.9,9.4-12.6,9.5c-7.9,0.1-12.5-3.7-12.6-9.9L543.7,108.7z"/>
	<path d="M571.2,86.5l0.3,25.9l16.7-26.1l4.3-0.1l0.4,31.2l-4.1,0.1l-0.3-25.9l-16.7,26.1l-4.3,0.1l-0.4-31.2L571.2,86.5z"/>
	<path d="M600,86.1l0.2,13.7l16.8-0.2l-0.2-13.7l4.1-0.1l0.4,31.2l-4.1,0.1l-0.2-14.4l-16.8,0.2l0.2,14.4l-4.1,0.1l-0.4-31.2
		L600,86.1z"/>
	<path d="M624,101.4c-0.1-9.4,5.1-16.4,14.9-16.5c9.8-0.1,15.2,6.8,15.3,16.1c0.1,9.4-5.1,16.4-14.9,16.5
		C629.5,117.6,624.1,110.7,624,101.4z M639.3,114.6c6-0.1,10.7-4.5,10.6-13.6c-0.1-9.1-5-13.4-11-13.3c-6,0.1-10.7,4.5-10.6,13.6
		C628.4,110.4,633.3,114.7,639.3,114.6z"/>
	<path d="M657.3,116.5l-0.4-31.2l14.2-0.2c5.8-0.1,9.9,2,9.9,7.8c0.1,5.8-5.2,7-5.2,7l0,0.2c0,0,6.3,1.1,6.3,7.4
		c0.1,6.2-4.2,8.7-10.7,8.8L657.3,116.5z M661,88.4l0.1,10.6l10.1-0.1c3.4,0,5.7-1.8,5.7-5.6c0-3.6-2.5-5-5.8-5L661,88.4z
		 M671.4,113.2c3.8-0.1,6.5-1.8,6.4-5.6c-0.1-3.8-3-5.7-6.6-5.7l-10.1,0.1l0.2,11.3L671.4,113.2z"/>
	<path d="M695.1,84.8l4.8-0.1l12.4,31l-4.3,0.1l-3.2-8.4l-13.9,0.2l-3,8.4l-4.3,0.1L695.1,84.8z M703.5,104.4l-6-15.6l-5.6,15.7
		L703.5,104.4z"/>
	<path d="M713,115.8l8.8-14.1c-4.7-0.4-8.1-2.9-8.2-8.4c-0.1-6.2,4.7-8.7,9.7-8.8l14.9-0.2l0.4,31.2l-4.1,0.1l-0.2-13.9l-8.3,0.1
		l-8.6,14L713,115.8z M723.8,98.6l10.6-0.1l-0.1-11l-10.6,0.1c-3.4,0-5.7,1.8-5.7,5.6C718,97,720.4,98.6,723.8,98.6z"/>
	<path d="M212.1,174l-1.5-31.2l14.1-0.7c5.8-0.3,9.9,1.7,10.2,7.4c0.3,5.8-4.9,7.2-4.9,7.2l0,0.2c0,0,6.3,0.9,6.6,7.1
		c0.3,6.2-3.9,8.8-10.4,9.2L212.1,174z M214.8,145.8l0.5,10.5l10.1-0.5c3.4-0.2,5.7-2,5.5-5.8c-0.2-3.6-2.6-4.9-6-4.7L214.8,145.8z
		 M226.1,170.2c3.8-0.2,6.4-2,6.2-5.8c-0.2-3.8-3.2-5.6-6.8-5.4l-10.1,0.5l0.6,11.3L226.1,170.2z"/>
	<path d="M238.1,141.5l23-1.1l0.2,3.1l-18.9,0.9l0.5,10.5l15.6-0.8l0.2,3.1l-15.6,0.8l0.6,11.3l18.9-0.9l0.2,3.1l-23,1.1
		L238.1,141.5z"/>
	<path d="M263.2,143.4l-0.2-3.1l26.1-1.3l0.2,3.1l-11,0.5l1.4,28l-4.1,0.2l-1.4-28L263.2,143.4z"/>
	<path d="M293.1,170l-1.5-31.2l14.1-0.7c5.5-0.3,10.2,2.1,10.5,8.1s-4.1,8.9-9.6,9.1l-10.1,0.5l0.7,13.9L293.1,170z M296.3,152.8
		l9.8-0.5c3.4-0.2,5.9-2,5.7-5.8c-0.2-3.8-2.9-5.4-6.3-5.2l-9.8,0.5L296.3,152.8z"/>
	<path d="M318.7,153.1c-0.5-9.3,4.5-16.6,14.3-17c9.8-0.5,15.4,6.2,15.9,15.6c0.5,9.3-4.5,16.6-14.3,17
		C324.8,169.2,319.1,162.5,318.7,153.1z M334.4,165.8c6-0.3,10.6-4.8,10.1-14c-0.5-9.1-5.5-13.2-11.5-12.9c-6,0.3-10.6,4.8-10.1,14
		C323.4,162,328.5,166.1,334.4,165.8z"/>
	<path d="M355.2,157.6c0.2,4.3,3.2,7,8.7,6.8c5.8-0.3,8.2-3.3,8.1-6.9c-0.2-4.6-3.9-5.6-8.2-5.4l-5.3,0.3l-0.2-3.1l5.3-0.3
		c4.6-0.2,7.1-2.8,6.9-6.3c-0.1-2.6-2.2-5.4-7.9-5.1c-6.2,0.3-7.7,4-7.6,6.9l-4.1,0.2c-0.2-4.3,2.9-9.5,11.5-9.9
		c8.6-0.4,12,3.7,12.2,7.8c0.3,6.2-5.6,7.5-5.6,7.5l0,0.2c0,0,7,0.1,7.3,7.1c0.3,5.5-4.6,9.6-12.2,10c-7.9,0.4-12.7-3.2-13-9.5
		L355.2,157.6z"/>
	<path d="M388.4,134.1l4.8-0.2l13.5,30.6l-4.3,0.2l-3.5-8.2l-13.9,0.7l-2.7,8.5l-4.3,0.2L388.4,134.1z M397.6,153.3L391,138l-5,15.9
		L397.6,153.3z"/>
	<path d="M408.6,164.3l-1.5-31.2l4.1-0.2l1.4,28l11.7-0.6l-1.4-28l4-0.2l1.4,28l11.7-0.6l-1.4-28l4.1-0.2l1.4,28l4.3-0.2l0.5,10.3
		l-4.1,0.2l-0.4-7.2L408.6,164.3z"/>
	<path d="M453.1,130.9l1.3,25.9l15.7-26.7l4.3-0.2L476,161l-4.1,0.2l-1.3-25.9L454.9,162l-4.3,0.2l-1.5-31.2L453.1,130.9z"/>
	<path d="M479.3,160.8l-1.5-31.2l4.1-0.2l1.4,28l11.7-0.6l-1.4-28l4-0.2l1.4,28l11.7-0.6l-1.4-28l4.1-0.2l1.4,28l4.3-0.2l0.5,10.3
		l-4.1,0.2l-0.4-7.2L479.3,160.8z"/>
	<path d="M519.7,127.6l23-1.1l0.2,3.1l-18.9,0.9l0.5,10.5l15.6-0.8l0.2,3.1l-15.6,0.8l0.6,11.3l18.9-0.9l0.2,3.1l-23,1.1
		L519.7,127.6z"/>
	<path d="M549.7,126.1l0.7,13.7l16.8-0.8l-0.7-13.7l4.1-0.2l1.5,31.2l-4.1,0.2l-0.7-14.4l-16.8,0.8l0.7,14.4l-4.1,0.2l-1.5-31.2
		L549.7,126.1z"/>
	<path d="M578,124.7l0.7,13.7l16.8-0.8l-0.7-13.7l4.1-0.2l1.5,31.2l-4.1,0.2l-0.7-14.4l-16.8,0.8l0.7,14.4l-4.1,0.2l-1.5-31.2
		L578,124.7z"/>
	<path d="M612.8,123l4.8-0.2l13.5,30.6l-4.3,0.2l-3.5-8.2l-13.9,0.7l-2.7,8.5l-4.3,0.2L612.8,123z M621.9,142.2l-6.6-15.3l-5,15.9
		L621.9,142.2z"/>
	<path d="M631.8,153.3l8.3-14.4c-4.7-0.2-8.2-2.6-8.5-8.1c-0.3-6.2,4.4-8.9,9.4-9.1l14.9-0.7l1.5,31.2l-4.1,0.2l-0.7-13.9l-8.3,0.4
		l-8,14.3L631.8,153.3z M642,135.7l10.5-0.5l-0.5-11l-10.5,0.5c-3.4,0.2-5.7,2-5.5,5.8C636.1,134.3,638.6,135.9,642,135.7z"/>
	<path d="M673,141.9c0.2,4.3,3.2,7,8.7,6.8c5.8-0.3,8.2-3.3,8.1-6.9c-0.2-4.6-3.9-5.6-8.2-5.4l-5.3,0.3l-0.2-3.1l5.3-0.3
		c4.6-0.2,7.1-2.8,6.9-6.3c-0.1-2.6-2.2-5.4-7.9-5.1c-6.2,0.3-7.7,4-7.6,6.9l-4.1,0.2c-0.2-4.3,2.9-9.5,11.5-9.9
		c8.6-0.4,12,3.7,12.2,7.8c0.3,6.2-5.6,7.5-5.6,7.5l0,0.2c0,0,7,0.1,7.3,7.1c0.3,5.5-4.6,9.6-12.2,10c-7.9,0.4-12.7-3.2-13-9.5
		L673,141.9z"/>
	<path d="M706.2,118.3l4.8-0.2l13.5,30.6l-4.3,0.2l-3.5-8.2l-13.9,0.7l-2.7,8.5l-4.3,0.2L706.2,118.3z M715.4,137.6l-6.6-15.3
		l-5,15.9L715.4,137.6z"/>
	<path d="M725.5,148.6l13.3-17.2L724,117.5l4.8-0.2l13.6,13.3l-0.7-13.9l4.1-0.2l0.7,13.9l12.3-14.5l4.8-0.2l-13.4,15.3l15,15.8
		l-5.3,0.3l-13.2-14.7l0.8,15.3l-4.1,0.2l-0.8-15.3l-11.7,16L725.5,148.6z"/>
	<path d="M770,115.2l1.3,25.9l15.7-26.7l4.3-0.2l1.5,31.2l-4.1,0.2l-1.3-25.9l-15.7,26.7l-4.3,0.2l-1.5-31.2L770,115.2z"/>
	<path d="M796.2,145.1l-1.5-31.2l21.6-1.1l0.2,3.1l-17.5,0.9l1.4,28L796.2,145.1z"/>
	<path d="M829.2,112.3l4.8-0.2l13.5,30.6l-4.3,0.2l-3.5-8.2l-13.9,0.7l-2.7,8.5l-4.3,0.2L829.2,112.3z M838.4,131.5l-6.6-15.3
		l-5,15.9L838.4,131.5z"/>
	<path d="M847.8,139.2c0,0,0.5,0.1,1.2,0.1c3.4-0.2,5.9-2.8,5.1-18.4l-0.5-9.8l20.4-1l1.5,31.2l-4.1,0.2l-1.4-28l-12.5,0.6l0.4,7.2
		c0.8,15.8-1.8,21.2-7.8,21.5c-1.2,0.1-2.2-0.1-2.2-0.1L847.8,139.2z"/>
	<path d="M878.9,141l-1.5-31.2l4.1-0.2l0.8,16.1l14.3-16.8l4.7-0.2l-11.4,13.2l13.6,18l-4.9,0.2l-11.2-15.4l-4.8,5.6l0.5,10.5
		L878.9,141z"/>
	<path d="M914.8,108l4.8-0.2l13.5,30.6l-4.3,0.2l-3.5-8.2l-13.9,0.7l-2.7,8.5l-4.3,0.2L914.8,108z M923.9,127.3l-6.6-15.3l-5,15.9
		L923.9,127.3z"/>
	<path d="M1261.1,137.7l-5.4-30.7l4-0.7l2.8,15.8l12.1-18.5l4.6-0.8l-9.7,14.5l15.7,16.2l-4.8,0.8l-13-13.8l-4.1,6.1l1.8,10.4
		L1261.1,137.7z"/>
	<path d="M1284.5,117.8c-1.6-9.2,2.4-17,12.1-18.7c9.7-1.7,16.1,4.2,17.7,13.5c1.6,9.2-2.4,17-12.1,18.7
		C1292.5,133,1286.1,127,1284.5,117.8z M1301.7,128.4c5.9-1,9.9-6.1,8.3-15.1c-1.6-9-7.1-12.4-13-11.4c-5.9,1-9.9,6.1-8.3,15.1
		C1290.3,126,1295.8,129.5,1301.7,128.4z"/>
	<path d="M1314,99.9l-0.5-3.1l25.8-4.5l0.5,3.1l-10.9,1.9l4.9,27.7l-4,0.7l-4.9-27.7L1314,99.9z"/>
	<path d="M1343.8,107.4c-1.6-9.2,2.4-17,12.1-18.7c9.7-1.7,16.1,4.2,17.7,13.5c1.6,9.2-2.4,17-12.1,18.7
		C1351.8,122.5,1345.4,116.6,1343.8,107.4z M1361,118c5.9-1,9.9-6.1,8.3-15.1c-1.6-9-7.1-12.4-13-11.4c-5.9,1-9.9,6.1-8.3,15.1
		C1349.6,115.6,1355.1,119,1361,118z"/>
	<path d="M1379.1,117l-5.4-30.7l13.9-2.5c5.4-1,10.4,0.9,11.4,6.8s-3,9.3-8.4,10.3l-9.9,1.7l2.4,13.7L1379.1,117z M1380.2,99.5
		l9.7-1.7c3.3-0.6,5.6-2.7,5-6.5c-0.7-3.8-3.6-5-6.9-4.4l-9.7,1.7L1380.2,99.5z"/>
	<path d="M1410.6,79.8l4.7-0.8l17.2,28.7l-4.3,0.7l-4.5-7.7L1410,103l-1.6,8.8l-4.3,0.7L1410.6,79.8z M1422.1,97.8l-8.4-14.4
		l-3,16.4L1422.1,97.8z"/>
	<path d="M1433.2,107.5l6.5-15.4c-4.7,0.3-8.5-1.5-9.4-7c-1.1-6.1,3.2-9.3,8.2-10.2l14.7-2.6l5.4,30.7l-4,0.7l-2.4-13.7l-8.2,1.4
		l-6.2,15.2L1433.2,107.5z M1441.2,88.8l10.4-1.8l-1.9-10.9l-10.4,1.8c-3.3,0.6-5.4,2.7-4.7,6.4
		C1435.2,88.1,1437.8,89.4,1441.2,88.8z"/>
	<path d="M1451.3,136.2l9-14c-4.7-0.5-8.1-3-8.1-8.5c0-6.2,4.8-8.6,9.8-8.6h14.9v31.2h-4.1v-13.9h-8.3l-8.7,13.9H1451.3z
		 M1462.4,119.2h10.6v-11h-10.6c-3.4,0-5.8,1.7-5.8,5.5S1459,119.2,1462.4,119.2z"/>
	<path d="M1480.4,136.2V105h14.2c5.8,0,9.8,2.2,9.8,7.9c0,5.8-5.3,7-5.3,7v0.2c0,0,6.2,1.2,6.2,7.4c0,6.2-4.3,8.6-10.8,8.6H1480.4z
		 M1484.5,108.1v10.6h10.1c3.4,0,5.8-1.7,5.8-5.5c0-3.6-2.4-5-5.8-5H1484.5z M1494.5,133.1c3.8,0,6.5-1.7,6.5-5.5
		c0-3.8-2.9-5.8-6.5-5.8h-10.1v11.3H1494.5z"/>
	<path d="M1506.5,132.8c0,0,0.5,0.1,1.2,0.1c3.4,0,6-2.5,6-18.1V105h20.4v31.2h-4.1v-28.1h-12.5v7.2c0,15.8-2.9,21.1-8.9,21.1
		c-1.2,0-2.2-0.2-2.2-0.2V132.8z"/>
	<path d="M1536.3,136.2l9-14c-4.7-0.5-8.1-3-8.1-8.5c0-6.2,4.8-8.6,9.8-8.6h14.9v31.2h-4.1v-13.9h-8.3l-8.7,13.9H1536.3z
		 M1547.3,119.2h10.6v-11h-10.6c-3.4,0-5.8,1.7-5.8,5.5S1544,119.2,1547.3,119.2z"/>
	<path d="M1565.3,105h23v3.1h-19v10.6h15.6v3.1h-15.6v11.3h19v3.1h-23V105z"/>
	<path d="M1590.3,108.1V105h26.2v3.1h-11v28.1h-4.1v-28.1H1590.3z"/>
	<path d="M1632.8,104.3c9.8,0,13,5.8,13.4,11h-4.1c-0.5-5.3-4.1-8.2-9.4-8.2c-6,0-10.1,4.6-10.1,13.4c0,8.9,4.1,13.4,10.1,13.4
		c5.3,0,8.9-2.9,9.4-8.2h4.1c-0.5,5.3-3.6,11-13.4,11c-9.6,0-14.4-6.7-14.4-16.3S1623.2,104.3,1632.8,104.3z"/>
	<path d="M1647.9,136.2l9-14c-4.7-0.5-8.1-3-8.1-8.5c0-6.2,4.8-8.6,9.8-8.6h14.9v31.2h-4.1v-13.9h-8.3l-8.7,13.9H1647.9z
		 M1658.9,119.2h10.6v-11h-10.6c-3.4,0-5.8,1.7-5.8,5.5S1655.6,119.2,1658.9,119.2z"/>
	<path d="M932.7,140.5v13.7h16.8v-13.7h4.1v31.2h-4.1v-14.4h-16.8v14.4h-4.1v-31.2H932.7z"/>
	<path d="M956.9,140.5h23v3.1h-19v10.6h15.6v3.1H961v11.3h19v3.1h-23V140.5z"/>
	<path d="M986,162.4c0,4.3,2.9,7.2,8.4,7.2c5.8,0,8.4-2.9,8.4-6.5c0-4.6-3.6-5.8-7.9-5.8h-5.3v-3.1h5.3c4.6,0,7.2-2.4,7.2-6
		c0-2.6-1.9-5.5-7.7-5.5c-6.2,0-7.9,3.6-7.9,6.5h-4.1c0-4.3,3.4-9.4,12-9.4s11.8,4.3,11.8,8.4c0,6.2-6,7.2-6,7.2v0.2
		c0,0,7,0.5,7,7.4c0,5.5-5,9.4-12.7,9.4c-7.9,0-12.5-3.8-12.5-10.1H986z"/>
	<path d="M1020.3,140.5h4.8l12,31.2h-4.3l-3.1-8.4h-13.9l-3.1,8.4h-4.3L1020.3,140.5z M1028.5,160.2l-5.8-15.6l-5.8,15.6H1028.5z"/>
	<path d="M1039,140.5h6.2l10.1,26.4l10.1-26.4h6.2v31.2h-4.1v-26.9l-10.3,26.9h-3.8l-10.3-26.9v26.9h-4.1V140.5z"/>
	<path d="M1075,140.5h23v3.1h-19v10.6h15.6v3.1h-15.6v11.3h19v3.1h-23V140.5z"/>
	<path d="M1105,140.5v13.7h16.8v-13.7h4.1v31.2h-4.1v-14.4H1105v14.4h-4.1v-31.2H1105z"/>
	<path d="M1133.3,140.5v25.9l17-25.9h4.3v31.2h-4.1v-25.9l-17,25.9h-4.3v-31.2H1133.3z"/>
	<path d="M1158.1,140.5h6.2l10.1,26.4l10.1-26.4h6.2v31.2h-4.1v-26.9l-10.3,26.9h-3.8l-10.3-26.9v26.9h-4.1V140.5z"/>
	<path d="M1198.1,140.5v13.7h9.1c5.5,0,9.8,2.4,9.8,8.6s-4.3,8.9-9.8,8.9h-13.2v-31.2H1198.1z M1207,168.6c3.4,0,5.8-1.9,5.8-5.8
		c0-3.6-2.4-5.5-5.8-5.5h-8.9v11.3H1207z M1224.1,140.5v31.2h-4.1v-31.2H1224.1z"/>
	<path d="M1227.4,140.5h6.2l10.1,26.4l10.1-26.4h6.2v31.2h-4.1v-26.9l-10.3,26.9h-3.8l-10.3-26.9v26.9h-4.1V140.5z"/>
	<path d="M1277.1,140.5v25.9l17-25.9h4.3v31.2h-4.1v-25.9l-17,25.9h-4.3v-31.2H1277.1z"/>
	<path d="M1305.9,140.5v13.7h16.8v-13.7h4.1v31.2h-4.1v-14.4h-16.8v14.4h-4.1v-31.2H1305.9z"/>
	<path d="M1344.1,139.8c9.8,0,13,5.8,13.4,11h-4.1c-0.5-5.3-4.1-8.2-9.4-8.2c-6,0-10.1,4.6-10.1,13.4c0,8.9,4.1,13.4,10.1,13.4
		c5.3,0,8.9-2.9,9.4-8.2h4.1c-0.5,5.3-3.6,11-13.4,11c-9.6,0-14.4-6.7-14.4-16.3S1334.5,139.8,1344.1,139.8z"/>
	<path d="M1359.4,143.6v-3.1h26.2v3.1h-11v28.1h-4.1v-28.1H1359.4z"/>
	<path d="M1388,171.7v-31.2h14.2c5.5,0,10.1,2.6,10.1,8.6s-4.6,8.6-10.1,8.6h-10.1v13.9H1388z M1392.1,154.7h9.8c3.4,0,6-1.7,6-5.5
		s-2.6-5.5-6-5.5h-9.8V154.7z"/>
	<path d="M1418,140.5l10.6,19.7l9.1-19.7h4.6l-12,25.2c-2.4,5.1-5,6.2-8.2,6.2c-1.4,0-2.9-0.2-2.9-0.2v-3.5c0,0,1,0.1,2.4,0.1
		c1.7,0,3.4-0.2,5-3.8l-13.2-24H1418z"/>
	<path d="M1444.1,140.5h6.2l10.1,26.4l10.1-26.4h6.2v31.2h-4.1v-26.9l-10.3,26.9h-3.8l-10.3-26.9v26.9h-4.1V140.5z"/>
	<path d="M1480.1,140.5h23v3.1h-19v10.6h15.6v3.1h-15.6v11.3h19v3.1h-23V140.5z"/>
	<path d="M1510.1,140.5v13.7h16.8v-13.7h4.1v31.2h-4.1v-14.4h-16.8v14.4h-4.1v-31.2H1510.1z"/>
	<path d="M1533.4,143.6v-3.1h26.2v3.1h-11v28.1h-4.1v-28.1H1533.4z"/>
	<path d="M1561.5,156.1c0-9.4,5.3-16.3,15.1-16.3s15.1,7,15.1,16.3c0,9.4-5.3,16.3-15.1,16.3S1561.5,165.5,1561.5,156.1z
		 M1576.6,169.6c6,0,10.8-4.3,10.8-13.4c0-9.1-4.8-13.4-10.8-13.4c-6,0-10.8,4.3-10.8,13.4C1565.8,165.2,1570.6,169.6,1576.6,169.6z
		"/>
	<path d="M1594.6,140.5h6.2l10.1,26.4l10.1-26.4h6.2v31.2h-4.1v-26.9l-10.3,26.9h-3.8l-10.3-26.9v26.9h-4.1V140.5z"/>
</g>
<g id="Layer_2">
</g>
</svg>
