<?xml version="1.0" encoding="utf-8"?>
<!-- Generator: Adobe Illustrator 25.0.1, SVG Export Plug-In . SVG Version: 6.00 Build 0)  -->
<svg version="1.1" xmlns="http://www.w3.org/2000/svg" xmlns:xlink="http://www.w3.org/1999/xlink" x="0px" y="0px"
	 viewBox="0 0 1920 192" style="enable-background:new 0 0 1920 192;" xml:space="preserve">
<g id="Layer_1">
	<path d="M66.2,112.7l-7.9-30.2l13.7-3.6c5.6-1.5,10.1-0.4,11.5,5.2c1.5,5.6-3.3,8.1-3.3,8.1l0.1,0.2c0,0,6.3-0.4,7.9,5.6
		c1.6,6-2,9.5-8.2,11.1L66.2,112.7z M63,84.5l2.7,10.2l9.7-2.6c3.2-0.9,5.1-3.1,4.2-6.8c-0.9-3.5-3.6-4.3-6.9-3.4L63,84.5z
		 M79.1,106.1c3.7-1,5.8-3.3,4.9-7c-1-3.7-4.3-4.8-7.7-3.9l-9.7,2.6l2.9,10.9L79.1,106.1z"/>
	<path d="M88.4,90.7c-2.4-9.1,1-17.1,10.5-19.6c9.5-2.5,16.4,2.9,18.8,11.9c2.4,9.1-1,17.1-10.5,19.6S90.8,99.8,88.4,90.7z
		 M106.5,99.9c5.8-1.5,9.3-6.9,7-15.7c-2.3-8.8-8.1-11.8-13.9-10.3c-5.8,1.5-9.3,6.9-7,15.7C94.9,98.4,100.7,101.4,106.5,99.9z"/>
	<path d="M122.2,94.4c0,0,0.5,0,1.2-0.2c3.2-0.9,5.2-3.9,1.2-19l-2.5-9.5l19.7-5.2l7.9,30.2l-3.9,1l-7.1-27.2l-12.1,3.2l1.8,7
		c4,15.3,2.6,21.2-3.2,22.7c-1.2,0.3-2.2,0.3-2.2,0.3L122.2,94.4z"/>
	<path d="M153,89.9l-7.9-30.2l3.9-1l7.1,27.2l11.3-3l-7.1-27.2l3.9-1l7.1,27.2l11.3-3l-7.1-27.2l3.9-1l7.9,30.2L153,89.9z"/>
	<path d="M182.7,49.8L205,44l0.8,3l-18.3,4.8l2.7,10.2l15.1-4l0.8,3l-15.1,4l2.9,10.9l18.3-4.8l0.8,3L190.6,80L182.7,49.8z"/>
	<path d="M207.7,43.2l22.5-5.9l0.8,3l-18.6,4.9l2.7,10.2l10.4-2.7c5.3-1.4,10.1-0.2,11.7,5.9c1.6,6-1.9,9.7-7.3,11.1l-14.4,3.8
		L207.7,43.2z M229,66.7c3.2-0.9,5.1-3.3,4.1-7c-0.9-3.5-3.7-4.7-7-3.9L216,58.4l2.9,10.9L229,66.7z"/>
	<path d="M238.6,35.1l3.5,13.2l16.2-4.3l-3.5-13.2l3.9-1l7.9,30.2l-3.9,1l-3.7-13.9l-16.2,4.3l3.7,13.9l-3.9,1l-7.9-30.2L238.6,35.1
		z"/>
	<path d="M265.6,44.2c-2.4-9.1,1-17.1,10.5-19.6c9.5-2.5,16.4,2.9,18.8,11.9c2.4,9.1-1,17.1-10.5,19.6
		C274.8,58.6,267.9,53.2,265.6,44.2z M283.6,53.3c5.8-1.5,9.3-6.9,7-15.7c-2.3-8.8-8.1-11.8-13.9-10.3c-5.8,1.5-9.3,6.9-7,15.7
		C272,51.9,277.8,54.8,283.6,53.3z"/>
	<path d="M293.6,20.7l22.3-5.9l0.8,3l-18.3,4.8l2.7,10.2l15.1-4l0.8,3l-15.1,4l2.9,10.9L323,42l0.8,3l-22.3,5.9L293.6,20.7z"/>
	<path d="M229.8,91.5c0,4.3,2.9,7.2,8.4,7.2c5.8,0,8.4-2.9,8.4-6.5c0-4.6-3.6-5.8-7.9-5.8h-5.3v-3.1h5.3c4.6,0,7.2-2.4,7.2-6
		c0-2.6-1.9-5.5-7.7-5.5c-6.2,0-7.9,3.6-7.9,6.5h-4.1c0-4.3,3.4-9.4,12-9.4s11.8,4.3,11.8,8.4c0,6.2-6,7.2-6,7.2v0.2
		c0,0,7,0.5,7,7.4c0,5.5-5,9.4-12.7,9.4c-7.9,0-12.5-3.8-12.5-10.1H229.8z"/>
	<path d="M253.5,69.6h23v3.1h-19v10.6h15.6v3.1h-15.6v11.3h19v3.1h-23V69.6z"/>
	<path d="M279.4,100.8V69.6h14.2c5.5,0,10.1,2.6,10.1,8.6c0,6-4.6,8.6-10.1,8.6h-10.1v13.9H279.4z M283.5,83.8h9.8
		c3.4,0,6-1.7,6-5.5c0-3.8-2.6-5.5-6-5.5h-9.8V83.8z"/>
	<path d="M306.3,100.8V69.6h4.1v16.1l15.1-16.1h4.7l-12,12.6l12.7,18.6h-4.9l-10.4-15.9l-5.1,5.3v10.6H306.3z"/>
	<path d="M343.8,69.6h4.8l12,31.2h-4.3l-3.1-8.4h-13.9l-3.1,8.4h-4.3L343.8,69.6z M352,89.3l-5.8-15.6l-5.8,15.6H352z"/>
	<path d="M361,97.4c0,0,0.5,0.1,1.2,0.1c3.4,0,6-2.5,6-18.1v-9.8h20.4v31.2h-4.1V72.7h-12.5v7.2c0,15.8-2.9,21.1-8.9,21.1
		c-1.2,0-2.2-0.2-2.2-0.2V97.4z"/>
	<path d="M392,100.8V69.6h4.1v13.7h10.3c5.5,0,9.8,2.4,9.8,8.6s-4.3,8.9-9.8,8.9H392z M406.2,97.7c3.4,0,5.8-1.9,5.8-5.8
		c0-3.6-2.4-5.5-5.8-5.5h-10.1v11.3H406.2z"/>
	<path d="M419.4,69.6h4.1v28.1h16.3V69.6h4.1v28.1h4.3V108h-4.1v-7.2h-24.7V69.6z"/>
	<path d="M450.3,69.6h23v3.1h-19v10.6H470v3.1h-15.6v11.3h19v3.1h-23V69.6z"/>
	<path d="M81,142.4v-31.2H85v16.1l15.1-16.1h4.7l-12,12.6l12.7,18.6h-4.9l-10.4-15.9l-5.1,5.3v10.6H81z"/>
	<path d="M107.4,126.8c0-9.4,5.3-16.3,15.1-16.3s15.1,7,15.1,16.3c0,9.4-5.3,16.3-15.1,16.3S107.4,136.2,107.4,126.8z M122.5,140.2
		c6,0,10.8-4.3,10.8-13.4c0-9.1-4.8-13.4-10.8-13.4c-6,0-10.8,4.3-10.8,13.4C111.7,135.9,116.5,140.2,122.5,140.2z"/>
	<path d="M139.5,114.3v-3.1h26.2v3.1h-11v28.1h-4.1v-28.1H139.5z"/>
	<path d="M167.6,126.8c0-9.4,5.3-16.3,15.1-16.3s15.1,7,15.1,16.3c0,9.4-5.3,16.3-15.1,16.3S167.6,136.2,167.6,126.8z M182.7,140.2
		c6,0,10.8-4.3,10.8-13.4c0-9.1-4.8-13.4-10.8-13.4c-6,0-10.8,4.3-10.8,13.4C171.9,135.9,176.7,140.2,182.7,140.2z"/>
	<path d="M200.7,142.4v-31.2h14.2c5.5,0,10.1,2.6,10.1,8.6c0,6-4.6,8.6-10.1,8.6h-10.1v13.9H200.7z M204.8,125.4h9.8
		c3.4,0,6-1.7,6-5.5c0-3.8-2.6-5.5-6-5.5h-9.8V125.4z"/>
	<path d="M227.1,126.8c0-9.4,5.3-16.3,15.1-16.3s15.1,7,15.1,16.3c0,9.4-5.3,16.3-15.1,16.3S227.1,136.2,227.1,126.8z M242.2,140.2
		c6,0,10.8-4.3,10.8-13.4c0-9.1-4.8-13.4-10.8-13.4c-6,0-10.8,4.3-10.8,13.4C231.4,135.9,236.2,140.2,242.2,140.2z"/>
	<path d="M260.2,111.2h23v3.1h-19v10.6h15.6v3.1h-15.6v11.3h19v3.1h-23V111.2z"/>
	<path d="M295.8,111.2h25v31.2h-4.1v-28.1h-16.8v28.1h-4.1V111.2z"/>
	<path d="M323.6,126.8c0-9.4,5.3-16.3,15.1-16.3s15.1,7,15.1,16.3c0,9.4-5.3,16.3-15.1,16.3S323.6,136.2,323.6,126.8z M338.7,140.2
		c6,0,10.8-4.3,10.8-13.4c0-9.1-4.8-13.4-10.8-13.4c-6,0-10.8,4.3-10.8,13.4C327.9,135.9,332.7,140.2,338.7,140.2z"/>
	<path d="M356.7,142.4v-31.2h4.1v16.1l15.1-16.1h4.7l-12,12.6l12.7,18.6h-4.9l-10.4-15.9l-5.1,5.3v10.6H356.7z"/>
	<path d="M394.2,111.2h4.8l12,31.2h-4.3l-3.1-8.4h-13.9l-3.1,8.4h-4.3L394.2,111.2z M402.4,130.9l-5.8-15.6l-5.8,15.6H402.4z"/>
	<path d="M416,133c0,4.3,2.9,7.2,8.4,7.2c5.8,0,8.4-2.9,8.4-6.5c0-4.6-3.6-5.8-7.9-5.8h-5.3v-3.1h5.3c4.6,0,7.2-2.4,7.2-6
		c0-2.6-1.9-5.5-7.7-5.5c-6.2,0-7.9,3.6-7.9,6.5h-4.1c0-4.3,3.4-9.4,12-9.4s11.8,4.3,11.8,8.4c0,6.2-6,7.2-6,7.2v0.2
		c0,0,7,0.5,7,7.4c0,5.5-5,9.4-12.7,9.4c-7.9,0-12.5-3.8-12.5-10.1H416z"/>
	<path d="M443.8,111.2v13.7h9.1c5.5,0,9.8,2.4,9.8,8.6s-4.3,8.9-9.8,8.9h-13.2v-31.2H443.8z M452.7,139.3c3.4,0,5.8-1.9,5.8-5.8
		c0-3.6-2.4-5.5-5.8-5.5h-8.9v11.3H452.7z M469.8,111.2v31.2h-4.1v-31.2H469.8z"/>
	<path d="M473.1,142.4v-31.2h14.2c5.8,0,9.8,2.2,9.8,7.9s-5.3,7-5.3,7v0.2c0,0,6.2,1.2,6.2,7.4s-4.3,8.6-10.8,8.6H473.1z
		 M477.2,114.3v10.6h10.1c3.4,0,5.8-1.7,5.8-5.5c0-3.6-2.4-5-5.8-5H477.2z M487.3,139.3c3.8,0,6.5-1.7,6.5-5.5
		c0-3.8-2.9-5.8-6.5-5.8h-10.1v11.3H487.3z"/>
	<path d="M511.3,111.2h4.8l12,31.2h-4.3l-3.1-8.4h-13.9l-3.1,8.4h-4.3L511.3,111.2z M519.5,130.9l-5.8-15.6l-5.8,15.6H519.5z"/>
	<path d="M530,111.2h23v3.1h-19v10.6h15.6v3.1h-15.6v11.3h19v3.1h-23V111.2z"/>
	<path d="M554.9,114.3v-3.1h26.2v3.1h-11v28.1H566v-28.1H554.9z"/>
	<path d="M79.5,177.5v-31.2h14.2c5.8,0,9.8,2.2,9.8,7.9s-5.3,7-5.3,7v0.2c0,0,6.2,1.2,6.2,7.4s-4.3,8.6-10.8,8.6H79.5z M83.6,149.4
		V160h10.1c3.4,0,5.8-1.7,5.8-5.5c0-3.6-2.4-5-5.8-5H83.6z M93.7,174.4c3.8,0,6.5-1.7,6.5-5.5c0-3.8-2.9-5.8-6.5-5.8H83.6v11.3H93.7
		z"/>
	<path d="M121.1,145.6c9.8,0,13,5.8,13.4,11h-4.1c-0.5-5.3-4.1-8.2-9.4-8.2c-6,0-10.1,4.6-10.1,13.4s4.1,13.4,10.1,13.4
		c5.3,0,8.9-2.9,9.4-8.2h4.1c-0.5,5.3-3.6,11-13.4,11c-9.6,0-14.4-6.7-14.4-16.3S111.5,145.6,121.1,145.6z"/>
	<path d="M137.4,146.3h23v3.1h-19V160h15.6v3.1h-15.6v11.3h19v3.1h-23V146.3z"/>
	<path d="M176.5,146.3v8.9c0,4.8,1.7,8.2,8.2,8.2c4.8,0,7.7-2.4,7.7-4.3v-12.7h4.1v31.2h-4.1v-14.6c0,0-2.9,3.6-8.9,3.6
		c-7.7,0-11-4.1-11-10.3v-9.8H176.5z"/>
	<path d="M198.8,149.4v-3.1H225v3.1h-11v28.1h-4.1v-28.1H198.8z"/>
	<path d="M226.9,161.9c0-9.4,5.3-16.3,15.1-16.3s15.1,7,15.1,16.3c0,9.4-5.3,16.3-15.1,16.3S226.9,171.2,226.9,161.9z M242,175.3
		c6,0,10.8-4.3,10.8-13.4c0-9.1-4.8-13.4-10.8-13.4c-6,0-10.8,4.3-10.8,13.4C231.2,171,236,175.3,242,175.3z"/>
	<path d="M272.7,168.1c0,4.3,2.9,7.2,8.4,7.2c5.8,0,8.4-2.9,8.4-6.5c0-4.6-3.6-5.8-7.9-5.8h-5.3V160h5.3c4.6,0,7.2-2.4,7.2-6
		c0-2.6-1.9-5.5-7.7-5.5c-6.2,0-7.9,3.6-7.9,6.5h-4.1c0-4.3,3.4-9.4,12-9.4s11.8,4.3,11.8,8.4c0,6.2-6,7.2-6,7.2v0.2
		c0,0,7,0.5,7,7.4c0,5.5-5,9.4-12.7,9.4c-7.9,0-12.5-3.8-12.5-10.1H272.7z"/>
	<path d="M307.1,146.3h4.8l12,31.2h-4.3l-3.1-8.4h-13.9l-3.1,8.4h-4.3L307.1,146.3z M315.3,166l-5.8-15.6l-5.8,15.6H315.3z"/>
	<path d="M337,161.4l-11.7-15.1h5l8.9,12.4l8.9-12.4h5l-11.7,15.1l12.1,16.1h-5l-9.4-13.2l-9.4,13.2h-5L337,161.4z"/>
	<path d="M355.5,161.9c0-9.4,5.3-16.3,15.1-16.3s15.1,7,15.1,16.3c0,9.4-5.3,16.3-15.1,16.3S355.5,171.2,355.5,161.9z M370.7,175.3
		c6,0,10.8-4.3,10.8-13.4c0-9.1-4.8-13.4-10.8-13.4c-6,0-10.8,4.3-10.8,13.4C359.9,171,364.7,175.3,370.7,175.3z"/>
	<path d="M392.3,146.3v8.9c0,4.8,1.7,8.2,8.2,8.2c4.8,0,7.7-2.4,7.7-4.3v-12.7h4.1v31.2h-4.1v-14.6c0,0-2.9,3.6-8.9,3.6
		c-7.7,0-11-4.1-11-10.3v-9.8H392.3z"/>
	<path d="M415.5,146.3h23v3.1h-19V160h15.6v3.1h-15.6v11.3h19v3.1h-23V146.3z"/>
	<path d="M441.5,177.5v-31.2h4.1v28.1h11.7v-28.1h4v28.1h11.7v-28.1h4.1v31.2H441.5z"/>
	<path d="M480.3,177.5v-31.2h4.1V160h10.3c5.5,0,9.8,2.4,9.8,8.6s-4.3,8.9-9.8,8.9H480.3z M494.5,174.4c3.4,0,5.8-1.9,5.8-5.8
		c0-3.6-2.4-5.5-5.8-5.5h-10.1v11.3H494.5z"/>
	<path d="M1447.6,150.5l14.8,16.8l4.4-21.2l4.4-1l-6,27.3c-1.2,5.5-3.5,7.2-6.5,7.9c-1.4,0.3-2.9,0.4-2.9,0.4l-0.8-3.4
		c0,0,1-0.1,2.4-0.4c1.6-0.4,3.2-0.9,4-4.9l-18.3-20.4L1447.6,150.5z"/>
	<path d="M1480.1,175l-7.1-30.4l4-0.9l3.6,15.7l11.1-19.1l4.5-1.1l-8.9,15l16.6,15.3l-4.8,1.1l-13.7-13.1l-3.7,6.3l2.4,10.3
		L1480.1,175z"/>
	<path d="M1506.3,168.9l-7.1-30.4l13.8-3.2c5.4-1.2,10.4,0.3,11.8,6.1c1.4,5.8-2.5,9.4-7.9,10.7l-9.8,2.3l3.2,13.6L1506.3,168.9z
		 M1506.4,151.4l9.6-2.2c3.3-0.8,5.5-3,4.6-6.7c-0.9-3.7-3.8-4.8-7.1-4l-9.6,2.2L1506.4,151.4z"/>
	<path d="M1535.7,130l4.7-1.1l18.8,27.7l-4.2,1l-4.9-7.5l-13.6,3.2l-1.1,8.9l-4.2,1L1535.7,130z M1548.2,147.3l-9.2-13.9l-2.1,16.6
		L1548.2,147.3z"/>
	<path d="M1561,156.2l-7.1-30.4l4-0.9l6.4,27.4l11.4-2.6l-6.4-27.4l3.9-0.9l6.4,27.4l11.4-2.6l-6.4-27.4l4-0.9l7.1,30.4L1561,156.2z
		"/>
	<path d="M1591.8,117l22.4-5.2l0.7,3l-18.5,4.3l2.4,10.3l15.2-3.5l0.7,3l-15.2,3.5l2.6,11l18.5-4.3l0.7,3l-22.4,5.2L1591.8,117z"/>
	<path d="M1621.1,110.2l3.1,13.3l16.4-3.8l-3.1-13.3l4-0.9l7.1,30.4l-4,0.9l-3.3-14l-16.4,3.8l3.3,14l-4,0.9l-7.1-30.4L1621.1,110.2
		z"/>
	<path d="M1647.7,120c-2.1-9.1,1.4-17.1,11-19.3c9.6-2.2,16.3,3.4,18.4,12.5c2.1,9.1-1.4,17.1-11,19.3
		C1656.6,134.7,1649.8,129.1,1647.7,120z M1665.5,129.7c5.8-1.4,9.5-6.7,7.5-15.5c-2.1-8.9-7.7-12-13.6-10.6
		c-5.8,1.4-9.5,6.7-7.5,15.5C1654,127.9,1659.7,131,1665.5,129.7z"/>
	<path d="M1651,182.8l2.8-21.6l-19.9-4.5l4-2.6l18.5,4.5l-7.6-11.6l3.4-2.2l7.6,11.6l3.2-18.7l4-2.6l-3.8,20l20.9,6.1l-4.4,2.9
		l-18.9-6l8.4,12.8l-3.4,2.2l-8.4-12.8l-2,19.7L1651,182.8z"/>
	<path d="M1669,133.7l19.3-12.6l1.7,2.6l-15.9,10.4l5.8,8.8l13-8.6l1.7,2.6l-13,8.6l6.2,9.4l15.9-10.4l1.7,2.6l-19.3,12.6
		L1669,133.7z"/>
	<path d="M1690.6,119.5l5.2-3.4l22.9,16.6l-6-27.6l5.2-3.4l17.1,26.1l-3.4,2.2l-14.7-22.5l6.1,28.1l-3.2,2.1l-23.4-16.8l14.7,22.5
		l-3.4,2.2L1690.6,119.5z"/>
	<path d="M1723.8,97.8l4.9,7.4c2.6,4,5.9,5.9,11.3,2.4c4-2.6,5.1-6.2,4.1-7.8l-7-10.6l3.4-2.2l17.1,26.1l-3.4,2.2l-8-12.2
		c0,0-0.4,4.6-5.5,7.9c-6.4,4.2-11.5,2.6-14.9-2.6l-5.4-8.2L1723.8,97.8z"/>
	<path d="M1745.8,83.3l19.7,10.6l-3.2-21.4l3.8-2.5l3.8,27.7c0.8,5.6-0.8,8-3.4,9.7c-1.2,0.8-2.5,1.4-2.5,1.4l-1.9-2.9
		c0,0,0.9-0.4,2.1-1.2c1.4-0.9,2.7-2,2.1-6L1742,85.8L1745.8,83.3z"/>
	<path d="M1784.8,95L1767.7,69l18.1-11.8l1.7,2.6l-14.7,9.6l15.4,23.5L1784.8,95z"/>
	<path d="M1795.9,69.1c-5.1-7.8-4.5-16.5,3.7-21.9c8.2-5.4,16.5-2.5,21.6,5.4c5.1,7.8,4.5,16.5-3.7,21.9
		C1809.3,79.9,1801.1,76.9,1795.9,69.1z M1816,72.1c5-3.3,6.7-9.5,1.7-17.2c-5-7.6-11.4-8.6-16.4-5.3c-5,3.3-6.7,9.5-1.7,17.2
		C1804.6,74.4,1810.9,75.3,1816,72.1z"/>
	<path d="M1815.1,37.9l5.2-3.4l22.9,16.6l-6-27.6l5.2-3.4l17.1,26.1l-3.4,2.2l-14.7-22.5l6.1,28.1l-3.2,2.1l-23.4-16.8l14.7,22.5
		l-3.4,2.2L1815.1,37.9z"/>
</g>
<g id="Layer_2">
</g>
</svg>
