<?xml version="1.0" encoding="utf-8"?>
<!-- Generator: Adobe Illustrator 25.0.1, SVG Export Plug-In . SVG Version: 6.00 Build 0)  -->
<svg version="1.1" xmlns="http://www.w3.org/2000/svg" xmlns:xlink="http://www.w3.org/1999/xlink" x="0px" y="0px"
	 viewBox="0 0 1920 192" style="enable-background:new 0 0 1920 192;" xml:space="preserve">
<g id="Layer_1">
	<g>
		<path d="M82.5,164.6c0-9.4,5.3-16.3,15.1-16.3s15.1,7,15.1,16.3c0,9.4-5.3,16.3-15.1,16.3S82.5,174,82.5,164.6z M97.6,178.1
			c6,0,10.8-4.3,10.8-13.4c0-9.1-4.8-13.4-10.8-13.4s-10.8,4.3-10.8,13.4C86.8,173.8,91.6,178.1,97.6,178.1z"/>
		<path d="M114.7,152.2V149h26.2v3.1h-11v28.1h-4.1v-28.1H114.7z"/>
		<path d="M143.2,180.2V149h4.1v16.1l15.1-16.1h4.7l-12,12.6l12.7,18.6h-4.9l-10.4-15.9l-5.1,5.3v10.6H143.2z"/>
		<path d="M170.1,180.2V149h14.2c5.5,0,10.1,2.6,10.1,8.6s-4.6,8.6-10.1,8.6h-10.1v13.9H170.1z M174.2,163.2h9.8c3.4,0,6-1.7,6-5.5
			s-2.6-5.5-6-5.5h-9.8V163.2z"/>
		<path d="M201.1,149v13.7h9.1c5.5,0,9.8,2.4,9.8,8.6c0,6.2-4.3,8.9-9.8,8.9H197V149H201.1z M210,177.1c3.4,0,5.8-1.9,5.8-5.8
			c0-3.6-2.4-5.5-5.8-5.5h-8.9v11.3H210z M227,149v31.2h-4.1V149H227z"/>
		<path d="M229.4,152.2V149h26.2v3.1h-11v28.1h-4.1v-28.1H229.4z"/>
		<path d="M258,180.2V149h4.1v16.1l15.1-16.1h4.7l-12,12.6l12.7,18.6h-4.9l-10.4-15.9l-5.1,5.3v10.6H258z"/>
		<path d="M295.4,149h4.8l12,31.2h-4.3l-3.1-8.4h-13.9l-3.1,8.4h-4.3L295.4,149z M303.6,168.7l-5.8-15.6l-5.8,15.6H303.6z"/>
		<path d="M338.5,164.8c0-9.4,5.3-16.3,15.1-16.3s15.1,7,15.1,16.3c0,9.4-5.3,16.3-15.1,16.3S338.5,174.1,338.5,164.8z M353.6,178.2
			c6,0,10.8-4.3,10.8-13.4c0-9.1-4.8-13.4-10.8-13.4s-10.8,4.3-10.8,13.4C342.8,173.9,347.6,178.2,353.6,178.2z"/>
		<path d="M370.7,152.3v-3.1h26.2v3.1h-11v28.1h-4.1v-28.1H370.7z"/>
		<path d="M393,146.4l3.5-23.7l-5.7-0.8l0.3-2.1l0.2,0c4.7,0.7,7-1.6,7.9-3.9l2.4,0.4L397,147L393,146.4z"/>
		<path d="M427.8,134.3c-1.7,11.2-6.9,16.9-15.7,15.6c-8.3-1.2-10.6-6.9-10-10.9l4,0.6c-0.4,2.8,1.2,6.7,6.4,7.5
			c5.9,0.9,9.8-3.7,11.1-11.2l-0.2,0c0,0-3.6,4.6-10.2,3.6c-7.4-1.1-11.2-6.5-10.3-12.4c1-6.6,7.1-10.4,14-9.3
			C424.7,118.8,429.3,124.1,427.8,134.3z M423.8,129.8c0.8-5.5-2.8-8.7-7.1-9.3s-8.7,1.4-9.5,6.8c-0.8,5.5,2.8,8.7,7.1,9.3
			S423,135.3,423.8,129.8z"/>
		<path d="M456.4,124.2l-0.5,3.1c-8.5,6.5-14.2,14.5-17.2,25.8l-4.5-0.7c3.3-10.7,9.1-18.8,17.9-25.7l-20.9-3.1l0.5-3.1L456.4,124.2
			z"/>
		<path d="M455.8,141.4c1.7-11.2,6.9-16.9,15.7-15.6c8.3,1.2,10.6,6.9,10,10.9l-4-0.6c0.4-2.8-1.2-6.7-6.4-7.5
			c-5.9-0.9-9.8,3.7-11.1,11.2l0.2,0c0,0,3.6-4.6,10.2-3.6c7.4,1.1,11.2,6.5,10.3,12.4c-1,6.6-7.1,10.4-14,9.3
			C458.9,156.9,454.3,151.6,455.8,141.4z M459.8,145.8c-0.8,5.5,2.8,8.7,7.1,9.3s8.7-1.4,9.5-6.8c0.8-5.5-2.8-8.7-7.1-9.3
			C465,138.4,460.6,140.4,459.8,145.8z"/>
		<path d="M491.5,161l4.6-30.9l21.4,3.2l-0.5,3.1l-17.3-2.6l-4.1,27.8L491.5,161z"/>
		<path d="M517.1,149c1.4-9.3,7.6-15.4,17.3-13.9s13.9,9.1,12.6,18.4c-1.4,9.3-7.6,15.4-17.3,13.9
			C519.9,165.9,515.7,158.2,517.1,149z M530.1,164.5c5.9,0.9,11.3-2.7,12.7-11.7c1.3-9-2.8-14-8.7-14.9c-5.9-0.9-11.3,2.7-12.7,11.7
			C520,158.6,524.1,163.6,530.1,164.5z"/>
		<path d="M545.3,176.2l1.5-10.2l0.9,0.1c3.3,0.5,7.1-5,9.2-19.5l1.1-7.4l19.9,3l-4.1,27.8l4.3,0.6l-1.5,10.2l-4-0.6l1.1-7.1
			l-23.3-3.4l-1.1,7.1L545.3,176.2z M569.8,169.4l3.7-24.7l-12.1-1.8l-0.7,4.7c-1.6,11.1-4.3,17.6-7.5,19.3L569.8,169.4z"/>
		<path d="M594.9,144.7l4.7,0.7l7.3,32.6l-4.3-0.6l-1.9-8.8l-13.8-2l-4.3,7.9l-4.3-0.6L594.9,144.7z M600.1,165.4l-3.5-16.3l-8,14.6
			L600.1,165.4z"/>
		<path d="M601.5,109.8l6.1,1.4l3.7,28l15.9-23.4l6.1,1.4l-7.2,30.4l-4-0.9l6.2-26.2l-16.2,23.8l-3.7-0.9l-3.8-28.5l-6.2,26.2
			l-4-0.9L601.5,109.8z"/>
		<path d="M632.5,133.2c2.2-9.1,8.9-14.7,18.5-12.4s13.1,10.3,10.9,19.4c-2.2,9.1-8.9,14.7-18.5,12.4
			C633.9,150.3,630.3,142.3,632.5,133.2z M644.1,149.7c5.8,1.4,11.5-1.7,13.6-10.6c2.1-8.9-1.6-14.2-7.4-15.6
			c-5.8-1.4-11.5,1.7-13.6,10.6C634.6,143,638.3,148.4,644.1,149.7z"/>
		<path d="M682,128.2c9.6,2.3,11.3,8.6,10.5,13.8l-4-0.9c0.8-5.2-2.1-8.9-7.2-10.1c-5.8-1.4-10.9,2.1-12.9,10.8
			c-2.1,8.6,0.9,14,6.7,15.4c5.1,1.2,9.3-0.8,11-5.8l4,0.9c-1.7,5-6.1,9.9-15.6,7.6c-9.3-2.2-12.5-9.9-10.2-19.2
			C666.5,131.4,672.7,125.9,682,128.2z"/>
		<path d="M690.6,163l7.2-30.4l4,0.9l-3.7,15.6l18.4-12.2l4.5,1.1l-14.6,9.5l8,21l-4.8-1.1l-6.5-17.9l-6.2,4l-2.4,10.3L690.6,163z"
			/>
		<path d="M716.7,169.2l7.2-30.4l13.8,3.3c5.6,1.3,9.1,4.4,7.7,10c-1.3,5.6-6.7,5.6-6.7,5.6l-0.1,0.2c0,0,5.8,2.6,4.4,8.7
			c-1.4,6.1-6.2,7.4-12.5,5.9L716.7,169.2z M727.2,142.8l-2.4,10.3l9.8,2.3c3.3,0.8,6-0.3,6.9-4c0.8-3.5-1.2-5.5-4.4-6.2
			L727.2,142.8z M731.2,169.4c3.7,0.9,6.7-0.1,7.6-3.9c0.9-3.7-1.5-6.3-5-7.1l-9.8-2.3l-2.6,11L731.2,169.4z"/>
		<path d="M761,147.6l4.7,1.1l4.5,33.1l-4.2-1l-1.1-8.9l-13.5-3.2l-5,7.5l-4.2-1L761,147.6z M764.5,168.7l-2-16.6l-9.3,13.9
			L764.5,168.7z"/>
		<path d="M986.3,143.9v-31.2h4.1v16.1l15.1-16.1h4.7l-12,12.6l12.7,18.6h-4.9l-10.4-15.9l-5.1,5.3v10.6H986.3z"/>
		<path d="M1013.2,143.9v-31.2h14.2c5.5,0,10.1,2.6,10.1,8.6s-4.6,8.6-10.1,8.6h-10.1v13.9H1013.2z M1017.2,126.9h9.8
			c3.4,0,6-1.7,6-5.5s-2.6-5.5-6-5.5h-9.8V126.9z"/>
		<path d="M1050.6,112.7h4.8l12,31.2h-4.3l-3.1-8.4H1046l-3.1,8.4h-4.3L1050.6,112.7z M1058.8,132.4l-5.8-15.6l-5.8,15.6H1058.8z"/>
		<path d="M1083.2,112c9.8,0,13,5.8,13.4,11h-4.1c-0.5-5.3-4.1-8.2-9.4-8.2c-6,0-10.1,4.6-10.1,13.4c0,8.9,4.1,13.4,10.1,13.4
			c5.3,0,8.9-2.9,9.4-8.2h4.1c-0.5,5.3-3.6,11-13.4,11c-9.6,0-14.4-6.7-14.4-16.3C1068.8,118.7,1073.6,112,1083.2,112z"/>
		<path d="M1103.6,112.7v13.7h16.8v-13.7h4.1v31.2h-4.1v-14.4h-16.8v14.4h-4.1v-31.2H1103.6z"/>
		<path d="M1138.4,112.7h4.8l12,31.2h-4.3l-3.1-8.4h-13.9l-3.1,8.4h-4.3L1138.4,112.7z M1146.6,132.4l-5.8-15.6l-5.8,15.6H1146.6z"
			/>
		<path d="M1155.9,143.9l9-14c-4.7-0.5-8.1-3-8.1-8.5c0-6.2,4.8-8.6,9.8-8.6h14.9v31.2h-4.1V130h-8.3l-8.7,13.9H1155.9z M1167,126.9
			h10.6v-11H1167c-3.4,0-5.8,1.7-5.8,5.5S1163.6,126.9,1167,126.9z"/>
		<path d="M996.3,145.8h25V177h-4.1v-28.1h-16.8V177h-4.1V145.8z"/>
		<path d="M1023.2,173.6c0,0,0.5,0.1,1.2,0.1c3.4,0,6-2.5,6-18.1v-9.8h20.4V177h-4.1v-28.1h-12.5v7.2c0,15.8-2.9,21.1-8.9,21.1
			c-1.2,0-2.2-0.2-2.2-0.2V173.6z"/>
		<path d="M1053.7,161.4c0-9.4,5.3-16.3,15.1-16.3s15.1,7,15.1,16.3c0,9.4-5.3,16.3-15.1,16.3S1053.7,170.7,1053.7,161.4z
			 M1068.8,174.8c6,0,10.8-4.3,10.8-13.4c0-9.1-4.8-13.4-10.8-13.4c-6,0-10.8,4.3-10.8,13.4C1058,170.5,1062.8,174.8,1068.8,174.8z"
			/>
		<path d="M1086.8,177v-31.2h4.1v28.1h11.7v-28.1h4v28.1h11.7v-28.1h4.1v28.1h4.3v10.3h-4.1V177H1086.8z"/>
		<path d="M1139.4,145.8h4.8l12,31.2h-4.3l-3.1-8.4h-13.9l-3.1,8.4h-4.3L1139.4,145.8z M1147.6,165.5l-5.8-15.6l-5.8,15.6H1147.6z"
			/>
		<path d="M1156.9,184.2v-10.3h1c3.4,0,6.2-6,6.2-20.6v-7.4h20.2v28.1h4.3v10.3h-4.1V177H1161v7.2H1156.9z M1180.2,173.9v-25h-12.2
			v4.8c0,11.2-1.7,18-4.6,20.2H1180.2z"/>
		<path d="M1190.7,177v-31.2h4.1v13.7h10.3c5.5,0,9.8,2.4,9.8,8.6c0,6.2-4.3,8.9-9.8,8.9H1190.7z M1204.9,173.9
			c3.4,0,5.8-1.9,5.8-5.8c0-3.6-2.4-5.5-5.8-5.5h-10.1v11.3H1204.9z"/>
		<path d="M1650.6,177.2l-3.4-9.7l0.9-0.3c3.2-1.1,3.9-7.7-1-21.5l-2.5-7l19-6.7l9.3,26.5l4.1-1.4l3.4,9.7l-3.8,1.4l-2.4-6.8
			l-22.2,7.8l2.4,6.8L1650.6,177.2z M1669.1,159.7l-8.3-23.5l-11.5,4.1l1.6,4.5c3.7,10.5,4.4,17.5,2.4,20.5L1669.1,159.7z"/>
		<path d="M1677.6,156.4c0,0,0.5,0,1.2-0.3c3.2-1.1,4.8-4.4-0.4-19.1l-3.3-9.3l19.2-6.8l10.4,29.4l-3.8,1.4l-9.3-26.5l-11.8,4.2
			l2.4,6.8c5.3,14.9,4.3,20.9-1.3,22.9c-1.1,0.4-2.1,0.5-2.1,0.5L1677.6,156.4z"/>
		<path d="M1706.8,149.7l3.8-16.2c-4.6,1.1-8.6-0.1-10.4-5.4c-2.1-5.9,1.7-9.7,6.4-11.4l14-5l10.4,29.4l-3.8,1.4l-4.6-13.1l-7.8,2.8
			l-3.6,16L1706.8,149.7z M1711.6,130l10-3.5l-3.7-10.4l-10,3.5c-3.2,1.1-4.9,3.5-3.6,7.1C1705.6,130.3,1708.4,131.1,1711.6,130z"/>
		<path d="M1732.5,144.5v13.7h16.8v-13.7h4.1v31.2h-4.1v-14.4h-16.8v14.4h-4.1v-31.2H1732.5z"/>
		<path d="M1760.8,144.5v25.9l17-25.9h4.3v31.2h-4.1v-25.9l-17,25.9h-4.3v-31.2H1760.8z"/>
		<path d="M1789.6,144.5v13.7h16.8v-13.7h4.1v31.2h-4.1v-14.4h-16.8v14.4h-4.1v-31.2H1789.6z"/>
		<path d="M1818,144.5v13.7h9.1c5.5,0,9.8,2.4,9.8,8.6c0,6.2-4.3,8.9-9.8,8.9h-13.2v-31.2H1818z M1826.8,172.6
			c3.4,0,5.8-1.9,5.8-5.8c0-3.6-2.4-5.5-5.8-5.5h-8.9v11.3H1826.8z M1843.9,144.5v31.2h-4.1v-31.2H1843.9z"/>
	</g>
</g>
<g id="Layer_2">
</g>
</svg>
