<?xml version="1.0" encoding="utf-8"?>
<!-- Generator: Adobe Illustrator 25.0.1, SVG Export Plug-In . SVG Version: 6.00 Build 0)  -->
<svg version="1.1" xmlns="http://www.w3.org/2000/svg" xmlns:xlink="http://www.w3.org/1999/xlink" x="0px" y="0px"
	 viewBox="0 0 1920 192" style="enable-background:new 0 0 1920 192;" xml:space="preserve">
<g id="Layer_1">
	<path d="M409,146.3V160h16.8v-13.7h4.1v31.2h-4.1v-14.4H409v14.4H405v-31.2H409z"/>
	<path d="M432.8,161.9c0-9.4,5.3-16.3,15.1-16.3s15.1,7,15.1,16.3c0,9.4-5.3,16.3-15.1,16.3S432.8,171.3,432.8,161.9z M447.9,175.3
		c6,0,10.8-4.3,10.8-13.4c0-9.1-4.8-13.4-10.8-13.4s-10.8,4.3-10.8,13.4C437.1,171,441.9,175.3,447.9,175.3z"/>
	<path d="M465,177.5l14.2-16.6L465,146.3h4.8l13,13.9v-13.9h4.1v13.9l13-13.9h4.8l-14.2,14.6l14.2,16.6h-5.3l-12.5-15.4v15.4h-4.1
		v-15.4l-12.5,15.4H465z"/>
	<path d="M511,146.3V160h16.8v-13.7h4.1v31.2h-4.1v-14.4H511v14.4H507v-31.2H511z"/>
	<path d="M539.4,146.3v25.9l17-25.9h4.3v31.2h-4.1v-25.9l-17,25.9h-4.3v-31.2H539.4z"/>
	<path d="M564.1,146.3h4.1v28.1h16.3v-28.1h4.1v28.1h4.3v10.3h-4.1v-7.2h-24.7V146.3z"/>
	<path d="M599.1,146.3V160h9.1c5.5,0,9.8,2.4,9.8,8.6s-4.3,8.9-9.8,8.9H595v-31.2H599.1z M608,174.4c3.4,0,5.8-1.9,5.8-5.8
		c0-3.6-2.4-5.5-5.8-5.5h-8.9v11.3H608z M625,146.3v31.2H621v-31.2H625z"/>
	<path d="M646.7,148l3.9,25.6l12.9-28.2l4.3-0.7l4.7,30.8l-4,0.6l-3.9-25.6l-12.9,28.2l-4.3,0.7l-4.7-30.8L646.7,148z"/>
	<path d="M677.5,165.3c0.7,4.3,3.9,6.7,9.4,5.8c5.7-0.9,7.9-4.1,7.3-7.7c-0.7-4.5-4.4-5.2-8.7-4.5l-5.2,0.8l-0.5-3.1l5.2-0.8
		c4.5-0.7,6.8-3.5,6.2-7c-0.4-2.6-2.7-5.2-8.4-4.3c-6.2,0.9-7.3,4.8-6.8,7.6l-4,0.6c-0.7-4.3,1.9-9.8,10.4-11.1s12.3,2.5,12.9,6.5
		c0.9,6.2-4.8,8-4.8,8l0,0.2c0,0,7-0.6,8,6.3c0.8,5.5-3.6,10-11.2,11.2c-7.8,1.2-12.9-1.9-13.9-8.1L677.5,165.3z"/>
	<path d="M720.8,135.9c9.7-1.5,13.7,3.7,15,8.9l-4,0.6c-1.3-5.1-5.3-7.5-10.5-6.7c-5.9,0.9-9.3,6-7.9,14.8s6.1,12.7,12,11.8
		c5.2-0.8,8.3-4.2,8-9.5l4-0.6c0.3,5.3-1.9,11.5-11.6,12.9c-9.5,1.5-15.3-4.5-16.7-14S711.3,137.3,720.8,135.9z"/>
	<path d="M736.6,137.4l-0.5-3.1l25.9-4l0.5,3.1l-10.9,1.7l4.2,27.8l-4,0.6l-4.2-27.8L736.6,137.4z"/>
	<path d="M774.8,128.4l4.7-0.7l16.6,29l-4.3,0.7l-4.4-7.8l-13.8,2.1l-1.8,8.8l-4.3,0.7L774.8,128.4z M785.9,146.6l-8.1-14.6
		l-3.4,16.3L785.9,146.6z"/>
	<path d="M796.1,153.2c0,0,0.5,0.1,1.2,0c3.3-0.5,5.6-3.4,3.2-18.8l-1.5-9.7l20.2-3.1l4.7,30.8l-4,0.6l-4.2-27.8l-12.3,1.9l1.1,7.1
		c2.4,15.7,0.3,21.3-5.6,22.2c-1.2,0.2-2.2,0.1-2.2,0.1L796.1,153.2z"/>
	<path d="M826.5,120.5l3.9,25.6l12.9-28.2l4.3-0.7l4.7,30.8l-4,0.6l-3.9-25.6l-12.9,28.2l-4.3,0.7l-4.7-30.8L826.5,120.5z"/>
	<path d="M866.7,139l-14.8-27.5l3.6-1.9l7.6,14.1l5.7-21.3l4.1-2.2l-4.6,16.8l20,10.4l-4.3,2.3l-16.7-9l-1.9,7.1l5,9.3L866.7,139z"
		/>
	<path d="M890.3,126.3l-14.8-27.5l12.5-6.7c4.9-2.6,10.1-2.5,13,2.8c2.9,5.3,0.1,9.8-4.8,12.4l-8.9,4.8l6.6,12.2L890.3,126.3z
		 M885.8,109.3l8.7-4.7c3-1.6,4.5-4.3,2.7-7.7c-1.8-3.4-4.9-3.6-7.9-2l-8.7,4.7L885.8,109.3z"/>
	<path d="M908.4,81l4.2-2.3l25.4,21.7l-3.8,2.1l-6.7-5.9l-12.2,6.6l1.2,8.9l-3.8,2.1L908.4,81z M925,94.4l-12.5-11l2.3,16.5
		L925,94.4z"/>
	<path d="M939.7,99.6l-14.8-27.5l3.6-1.9L940.8,93l2.7-30.9l3.8-2.1l14.8,27.5l-3.6,1.9l-12.3-22.8l-2.7,30.9L939.7,99.6z
		 M929.7,62.7c0.9,1.7,2.6,2.7,5.3,1.2c2.7-1.5,2.8-3.4,1.9-5.1l3.4-1.8c1,1.9,1.8,5.8-4.1,9c-5.9,3.2-8.8,0.4-9.8-1.5L929.7,62.7z"
		/>
	<path d="M953.8,56.5l6.5,12l14.8-8l-6.5-12l3.6-1.9L987,74l-3.6,1.9l-6.8-12.7l-14.8,8l6.8,12.7l-3.6,1.9l-14.8-27.5L953.8,56.5z"
		/>
	<path d="M975.2,45l20.3-11l1.5,2.7l-16.7,9l5,9.3l13.7-7.4l1.5,2.7l-13.7,7.4l5.4,9.9l16.7-9l1.5,2.7l-20.3,11L975.2,45z"/>
	<path d="M1022.1,37.6c0-9.4,5.3-16.3,15.1-16.3s15.1,7,15.1,16.3c0,9.4-5.3,16.3-15.1,16.3S1022.1,46.9,1022.1,37.6z M1037.2,51
		c6,0,10.8-4.3,10.8-13.4c0-9.1-4.8-13.4-10.8-13.4c-6,0-10.8,4.3-10.8,13.4C1026.4,46.7,1031.2,51,1037.2,51z"/>
	<path d="M1069.1,21.2c9.8,0,13,5.8,13.4,11h-4.1c-0.5-5.3-4.1-8.2-9.4-8.2c-6,0-10.1,4.6-10.1,13.4s4.1,13.4,10.1,13.4
		c5.3,0,8.9-2.9,9.4-8.2h4.1c-0.5,5.3-3.6,11-13.4,11c-9.6,0-14.4-6.7-14.4-16.3S1059.5,21.2,1069.1,21.2z"/>
	<path d="M1084.5,25.1V22h26.2v3.1h-11v28.1h-4.1V25.1H1084.5z"/>
	<path d="M1113,53.2V22h14.2c5.5,0,10.1,2.6,10.1,8.6c0,6-4.6,8.6-10.1,8.6h-10.1v13.9H1113z M1117.1,36.1h9.8c3.4,0,6-1.7,6-5.5
		c0-3.8-2.6-5.5-6-5.5h-9.8V36.1z"/>
	<path d="M1144,22v13.7h9.1c5.5,0,9.8,2.4,9.8,8.6s-4.3,8.9-9.8,8.9h-13.2V22H1144z M1152.9,50c3.4,0,5.8-1.9,5.8-5.8
		c0-3.6-2.4-5.5-5.8-5.5h-8.9V50H1152.9z M1169.9,22v31.2h-4.1V22H1169.9z"/>
	<path d="M1173.3,22h23v3.1h-19v10.6h15.6v3.1h-15.6V50h19v3.1h-23V22z"/>
	<path d="M1016.1,64.1V90l17-25.9h4.3v31.2h-4.1V69.4l-17,25.9h-4.3V64.1H1016.1z"/>
	<path d="M1049.4,67.2v-3.1h26.2v3.1h-11v28.1h-4.1V67.2H1049.4z"/>
	<path d="M1076.8,95.3l9-14c-4.7-0.5-8.1-3-8.1-8.5c0-6.2,4.8-8.6,9.8-8.6h14.9v31.2h-4.1V81.4h-8.3l-8.7,13.9H1076.8z M1087.8,78.2
		h10.6v-11h-10.6c-3.4,0-5.8,1.7-5.8,5.5C1082.1,76.6,1084.5,78.2,1087.8,78.2z"/>
	<path d="M1104.9,95.3l14.2-16.6l-14.2-14.6h4.8l13,13.9V64.1h4.1V78l13-13.9h4.8l-14.2,14.6l14.2,16.6h-5.3l-12.5-15.4v15.4h-4.1
		V79.9l-12.5,15.4H1104.9z"/>
	<path d="M1146.9,64.1h23v3.1h-19v10.6h15.6v3.1h-15.6v11.3h19v3.1h-23V64.1z"/>
	<path d="M1171.3,91.9c0,0,0.5,0.1,1.2,0.1c3.4,0,6-2.5,6-18.1v-9.8h20.4v31.2h-4.1V67.2h-12.5v7.2c0,15.8-2.9,21.1-8.9,21.1
		c-1.2,0-2.2-0.2-2.2-0.2V91.9z"/>
	<path d="M1206.4,64.1v13.7h9.1c5.5,0,9.8,2.4,9.8,8.6s-4.3,8.9-9.8,8.9h-13.2V64.1H1206.4z M1215.3,92.2c3.4,0,5.8-1.9,5.8-5.8
		c0-3.6-2.4-5.5-5.8-5.5h-8.9v11.3H1215.3z M1232.3,64.1v31.2h-4.1V64.1H1232.3z"/>
	<path d="M1235.7,64.1h23v3.1h-19v10.6h15.6v3.1h-15.6v11.3h19v3.1h-23V64.1z"/>
	<path d="M962.5,103.4h25v31.2h-4.1v-28.1h-16.8v28.1h-4.1V103.4z"/>
	<path d="M990.3,119c0-9.4,5.3-16.3,15.1-16.3s15.1,7,15.1,16.3c0,9.4-5.3,16.3-15.1,16.3S990.3,128.4,990.3,119z M1005.4,132.5
		c6,0,10.8-4.3,10.8-13.4c0-9.1-4.8-13.4-10.8-13.4c-6,0-10.8,4.3-10.8,13.4C994.6,128.2,999.4,132.5,1005.4,132.5z"/>
	<path d="M1023.4,134.6v-31.2h14.2c5.5,0,10.1,2.6,10.1,8.6c0,6-4.6,8.6-10.1,8.6h-10.1v13.9H1023.4z M1027.5,117.6h9.8
		c3.4,0,6-1.7,6-5.5c0-3.8-2.6-5.5-6-5.5h-9.8V117.6z"/>
	<path d="M1050.3,103.4h23v3.1h-19v10.6h15.6v3.1h-15.6v11.3h19v3.1h-23V103.4z"/>
	<path d="M1075.3,134.6l14.2-16.6l-14.2-14.6h4.8l13,13.9v-13.9h4.1v13.9l13-13.9h4.8l-14.2,14.6l14.2,16.6h-5.3l-12.5-15.4v15.4
		h-4.1v-15.4l-12.5,15.4H1075.3z"/>
	<path d="M1120.4,103.4l10.6,19.7l9.1-19.7h4.6l-12,25.2c-2.4,5.1-5,6.2-8.2,6.2c-1.4,0-2.9-0.2-2.9-0.2v-3.5c0,0,1,0.1,2.4,0.1
		c1.7,0,3.4-0.2,5-3.8l-13.2-24H1120.4z"/>
	<path d="M1145.6,106.6v-3.1h26.2v3.1h-11v28.1h-4.1v-28.1H1145.6z"/>
	<path d="M1183.7,134.6v-31.2h14.2c5.8,0,9.8,2.2,9.8,7.9s-5.3,7-5.3,7v0.2c0,0,6.2,1.2,6.2,7.4c0,6.2-4.3,8.6-10.8,8.6H1183.7z
		 M1187.8,106.6v10.6h10.1c3.4,0,5.8-1.7,5.8-5.5c0-3.6-2.4-5-5.8-5H1187.8z M1197.9,131.5c3.8,0,6.5-1.7,6.5-5.5
		c0-3.8-2.9-5.8-6.5-5.8h-10.1v11.3H1197.9z"/>
	<path d="M1225.3,102.7c9.8,0,13,5.8,13.4,11h-4.1c-0.5-5.3-4.1-8.2-9.4-8.2c-6,0-10.1,4.6-10.1,13.4s4.1,13.4,10.1,13.4
		c5.3,0,8.9-2.9,9.4-8.2h4.1c-0.5,5.3-3.6,11-13.4,11c-9.6,0-14.4-6.7-14.4-16.3S1215.7,102.7,1225.3,102.7z"/>
	<path d="M1241.6,103.4h23v3.1h-19v10.6h15.6v3.1h-15.6v11.3h19v3.1h-23V103.4z"/>
	<path d="M853.1,158.2c0-9.4,5.3-16.3,15.1-16.3s15.1,7,15.1,16.3c0,9.4-5.3,16.3-15.1,16.3S853.1,167.5,853.1,158.2z M868.3,171.6
		c6,0,10.8-4.3,10.8-13.4c0-9.1-4.8-13.4-10.8-13.4c-6,0-10.8,4.3-10.8,13.4C857.5,167.3,862.3,171.6,868.3,171.6z"/>
	<path d="M885.3,145.7v-3.1h26.2v3.1h-11v28.1h-4.1v-28.1H885.3z"/>
	<path d="M923.5,142.6h23.3v3.1h-19.2v10.6h10.8c5.5,0,9.8,2.4,9.8,8.6s-4.3,8.9-9.8,8.9h-14.9V142.6z M938.1,170.6
		c3.4,0,5.8-1.9,5.8-5.8c0-3.6-2.4-5.5-5.8-5.5h-10.6v11.3H938.1z"/>
	<path d="M954.4,142.6l10.6,19.7l9.1-19.7h4.6l-12,25.2c-2.4,5.1-5,6.2-8.2,6.2c-1.4,0-2.9-0.2-2.9-0.2v-3.5c0,0,1,0.1,2.4,0.1
		c1.7,0,3.4-0.2,5-3.8l-13.2-24H954.4z"/>
	<path d="M980.6,142.6h6.2l10.1,26.4l10.1-26.4h6.2v31.2h-4.1v-26.9l-10.3,26.9H995l-10.3-26.9v26.9h-4.1V142.6z"/>
	<path d="M1027.1,142.6h4.8l12,31.2h-4.3l-3.1-8.4h-13.9l-3.1,8.4h-4.3L1027.1,142.6z M1035.3,162.2l-5.8-15.6l-5.8,15.6H1035.3z"/>
	<path d="M1045.9,173.8v-31.2h21.6v3.1h-17.5v28.1H1045.9z"/>
	<path d="M1073.9,142.6v25.9l17-25.9h4.3v31.2h-4.1v-25.9l-17,25.9h-4.3v-31.2H1073.9z"/>
	<path d="M1107.1,181v-10.3h1c3.4,0,6.2-6,6.2-20.6v-7.4h20.2v28.1h4.3V181h-4.1v-7.2h-23.5v7.2H1107.1z M1130.3,170.6v-25h-12.2
		v4.8c0,11.2-1.7,18-4.6,20.2H1130.3z"/>
	<path d="M1140.4,158.2c0-9.4,5.3-16.3,15.1-16.3s15.1,7,15.1,16.3c0,9.4-5.3,16.3-15.1,16.3S1140.4,167.5,1140.4,158.2z
		 M1155.5,171.6c6,0,10.8-4.3,10.8-13.4c0-9.1-4.8-13.4-10.8-13.4c-6,0-10.8,4.3-10.8,13.4C1144.7,167.3,1149.5,171.6,1155.5,171.6z
		"/>
	<path d="M1182.7,158.2c0-9.4,5.3-16.3,15.1-16.3s15.1,7,15.1,16.3c0,9.4-5.3,16.3-15.1,16.3S1182.7,167.5,1182.7,158.2z
		 M1197.8,171.6c6,0,10.8-4.3,10.8-13.4c0-9.1-4.8-13.4-10.8-13.4c-6,0-10.8,4.3-10.8,13.4C1187,167.3,1191.8,171.6,1197.8,171.6z"
		/>
	<path d="M1214.6,181v-10.3h1c3.4,0,6.2-6,6.2-20.6v-7.4h20.2v28.1h4.3V181h-4.1v-7.2h-23.5v7.2H1214.6z M1237.9,170.6v-25h-12.2
		v4.8c0,11.2-1.7,18-4.6,20.2H1237.9z"/>
	<path d="M1248.4,142.6h23v3.1h-19v10.6h15.6v3.1h-15.6v11.3h19v3.1h-23V142.6z"/>
	<path d="M1273.4,173.8l14.2-16.6l-14.2-14.6h4.8l13,13.9v-13.9h4.1v13.9l13-13.9h4.8l-14.2,14.6l14.2,16.6h-5.3l-12.5-15.4v15.4
		h-4.1v-15.4l-12.5,15.4H1273.4z"/>
	<path d="M1314.2,181v-10.3h1c3.4,0,6.2-6,6.2-20.6v-7.4h20.2v28.1h4.3V181h-4.1v-7.2h-23.5v7.2H1314.2z M1337.5,170.6v-25h-12.2
		v4.8c0,11.2-1.7,18-4.6,20.2H1337.5z"/>
	<path d="M1352.1,142.6v13.7h9.1c5.5,0,9.8,2.4,9.8,8.6s-4.3,8.9-9.8,8.9H1348v-31.2H1352.1z M1361,170.6c3.4,0,5.8-1.9,5.8-5.8
		c0-3.6-2.4-5.5-5.8-5.5h-8.9v11.3H1361z M1378,142.6v31.2h-4.1v-31.2H1378z"/>
</g>
<g id="Layer_2">
</g>
</svg>
