<?xml version="1.0" encoding="utf-8"?>
<!-- Generator: Adobe Illustrator 25.0.1, SVG Export Plug-In . SVG Version: 6.00 Build 0)  -->
<svg version="1.1" xmlns="http://www.w3.org/2000/svg" xmlns:xlink="http://www.w3.org/1999/xlink" x="0px" y="0px"
	 viewBox="0 0 1920 192" style="enable-background:new 0 0 1920 192;" xml:space="preserve">
<g id="Layer_1">
	<path d="M713.6,181.9v-10.3h1c3.4,0,6.2-6,6.2-20.6v-7.4h20.2v28.1h4.3v10.3h-4.1v-7.2h-23.5v7.2H713.6z M736.9,171.6v-25h-12.2
		v4.8c0,11.2-1.7,18-4.6,20.2H736.9z"/>
	<path d="M751.5,143.5v25.9l17-25.9h4.3v31.2h-4.1v-25.9l-17,25.9h-4.3v-31.2H751.5z"/>
	<path d="M776.2,174.7v-31.2h14.2c5.8,0,9.8,2.2,9.8,7.9s-5.3,7-5.3,7v0.2c0,0,6.2,1.2,6.2,7.4s-4.3,8.6-10.8,8.6H776.2z
		 M780.3,146.6v10.6h10.1c3.4,0,5.8-1.7,5.8-5.5c0-3.6-2.4-5-5.8-5H780.3z M790.4,171.6c3.8,0,6.5-1.7,6.5-5.5
		c0-3.8-2.9-5.8-6.5-5.8h-10.1v11.3H790.4z"/>
	<path d="M814.4,143.5h4.8l12,31.2h-4.3l-3.1-8.4h-13.9l-3.1,8.4h-4.3L814.4,143.5z M822.6,163.2l-5.8-15.6l-5.8,15.6H822.6z"/>
	<path d="M837.2,143.5v13.7H854v-13.7h4.1v31.2H854v-14.4h-16.8v14.4h-4.1v-31.2H837.2z"/>
	<path d="M833.1,139.4l1.7-10.2l0.9,0.2c3.3,0.6,7.1-4.9,9.6-19.3l1.2-7.3l19.9,3.3l-4.7,27.7l4.3,0.7l-1.7,10.2l-4-0.7l1.2-7.1
		l-23.2-3.9l-1.2,7.1L833.1,139.4z M857.8,133.1l4.1-24.6l-12.1-2l-0.8,4.7c-1.9,11-4.6,17.5-7.8,19.1L857.8,133.1z"/>
	<path d="M866.8,134.4c0,0,0.4,0.2,1.2,0.3c3.3,0.6,6.3-1.5,8.9-16.9l1.6-9.7l20.1,3.4l-5.2,30.8l-4-0.7l4.7-27.7l-12.3-2.1
		l-1.2,7.1c-2.6,15.6-6.3,20.4-12.3,19.4c-1.2-0.2-2.1-0.6-2.1-0.6L866.8,134.4z"/>
	<path d="M895.6,142.7l11.2-12.3c-4.5-1.2-7.5-4.3-6.5-9.8c1-6.2,6.2-7.7,11.1-6.9l14.7,2.5l-5.2,30.8l-4-0.7l2.3-13.7l-8.2-1.4
		l-10.9,12.3L895.6,142.7z M909.3,127.7l10.4,1.8l1.8-10.9l-10.4-1.8c-3.3-0.6-6,0.7-6.6,4.5C903.9,125.1,906,127.1,909.3,127.7z"/>
	<path d="M952.7,119.9c9.7,1.6,11.8,7.8,11.4,13.1l-4-0.7c0.4-5.3-2.7-8.7-7.9-9.6c-5.9-1-10.7,2.8-12.2,11.6s1.8,13.9,7.7,14.9
		c5.2,0.9,9.2-1.4,10.6-6.5l4,0.7c-1.3,5.1-5.4,10.3-15.1,8.7c-9.5-1.6-13.1-9-11.5-18.5C937.4,124.1,943.3,118.3,952.7,119.9z"/>
	<path d="M979.1,125.1l4.7,0.8l6.7,32.8l-4.3-0.7l-1.7-8.8l-13.7-2.3l-4.5,7.8l-4.3-0.7L979.1,125.1z M984,145.8l-3.1-16.4
		l-8.3,14.5L984,145.8z"/>
	<path d="M997.6,128.2l6.2,1l5.6,27.7l14.3-24.4l6.2,1l-5.2,30.8l-4-0.7l4.5-26.5l-14.6,24.8l-3.8-0.6l-5.7-28.2l-4.5,26.5l-4-0.7
		L997.6,128.2z"/>
	<path d="M1030,149.4c1.6-9.2,7.9-15.2,17.6-13.6s13.8,9.4,12.2,18.6c-1.6,9.2-7.9,15.2-17.6,13.6
		C1032.5,166.4,1028.5,158.7,1030,149.4z M1042.7,165.2c5.9,1,11.4-2.5,12.9-11.5c1.5-9-2.5-14.1-8.4-15c-5.9-1-11.4,2.5-12.9,11.5
		C1032.8,159.2,1036.8,164.2,1042.7,165.2z"/>
	<path d="M1060.1,170.3l5.2-30.8l21.3,3.6l-0.5,3.1l-17.3-2.9l-4.7,27.7L1060.1,170.3z"/>
	<path d="M1085.9,158.8c1.6-9.2,7.9-15.2,17.6-13.6c9.7,1.6,13.8,9.4,12.2,18.6c-1.6,9.2-7.9,15.2-17.6,13.6
		C1088.4,175.8,1084.3,168.1,1085.9,158.8z M1098.6,174.6c5.9,1,11.4-2.5,12.9-11.5c1.5-9-2.5-14.1-8.4-15
		c-5.9-1-11.4,2.5-12.9,11.5C1088.6,168.6,1092.7,173.6,1098.6,174.6z"/>
	<path d="M1136.4,178l-5.3-30.7l4-0.7l2.7,15.8l12.2-18.4l4.6-0.8l-9.7,14.4l15.7,16.2l-4.8,0.8l-13-13.9l-4.1,6.1l1.8,10.4
		L1136.4,178z"/>
	<path d="M1159.8,158.1c-1.6-9.2,2.4-17,12.1-18.7c9.7-1.7,16.1,4.3,17.7,13.5c1.6,9.2-2.4,17-12.1,18.7
		C1167.7,173.3,1161.4,167.3,1159.8,158.1z M1176.9,168.8c5.9-1,9.9-6.1,8.3-15.1c-1.6-9-7-12.4-12.9-11.4c-5.9,1-9.9,6.1-8.3,15.1
		C1165.6,166.3,1171,169.8,1176.9,168.8z"/>
	<path d="M1189.7,137.1l6.1-1.1l14.4,24.3l5.4-27.7l6.1-1.1l5.3,30.7l-4,0.7l-4.6-26.5l-5.6,28.2l-3.8,0.7l-14.8-24.7l4.6,26.5
		l-4,0.7L1189.7,137.1z"/>
	<path d="M1227.2,146.4c-1.2-6.9,2.5-12.1,12-13.8l-0.7-4l4-0.7l0.7,4c9.5-1.6,14.7,2.1,15.9,8.9c1.2,6.9-2.5,12.1-12,13.8l0.7,4
		l-4,0.7l-0.7-4C1233.6,157,1228.3,153.3,1227.2,146.4z M1231.4,145.7c1.1,6.1,5.2,7.6,11.1,6.6l-2.9-16.6
		C1233.8,136.7,1230.3,139.5,1231.4,145.7z M1246.6,151.6c5.9-1,9.3-3.8,8.3-10c-1.1-6.1-5.2-7.6-11.1-6.6L1246.6,151.6z"/>
	<path d="M1261.2,140.5c-1.6-9.2,2.4-17,12.1-18.7c9.7-1.7,16.1,4.3,17.7,13.5c1.6,9.2-2.4,17-12.1,18.7
		C1269.2,155.7,1262.8,149.7,1261.2,140.5z M1278.4,151.2c5.9-1,9.9-6.1,8.3-15.1c-1.6-9-7-12.4-12.9-11.4c-5.9,1-9.9,6.1-8.3,15.1
		C1267,148.8,1272.5,152.2,1278.4,151.2z"/>
	<path d="M1296.5,150.2l-5.3-30.7l14-2.4c5.4-0.9,10.4,0.9,11.4,6.8c1,5.9-3,9.3-8.5,10.2l-9.9,1.7l2.4,13.7L1296.5,150.2z
		 M1297.6,132.7l9.7-1.7c3.3-0.6,5.6-2.7,5-6.5c-0.7-3.8-3.5-5-6.9-4.4l-9.7,1.7L1297.6,132.7z"/>
	<path d="M1317.2,118.1l-0.5-3.1l25.8-4.5l0.5,3.1l-10.9,1.9l4.8,27.7l-4,0.7l-4.8-27.7L1317.2,118.1z"/>
	<path d="M1348.9,109.5l2.3,13.5l16.6-2.9l-2.3-13.5l4-0.7l5.3,30.7l-4,0.7l-2.5-14.2l-16.6,2.9l2.5,14.2l-4,0.7l-5.3-30.7
		L1348.9,109.5z"/>
	<path d="M1375,120.8c-1.6-9.2,2.4-17,12.1-18.7c9.7-1.7,16.1,4.3,17.7,13.5c1.6,9.2-2.4,17-12.1,18.7
		C1382.9,136,1376.5,130,1375,120.8z M1392.1,131.5c5.9-1,9.9-6.1,8.3-15.1c-1.6-9-7-12.4-12.9-11.4c-5.9,1-9.9,6.1-8.3,15.1
		C1380.8,129.1,1386.2,132.5,1392.1,131.5z"/>
	<path d="M1410.2,130.5l-5.3-30.7l21.3-3.7l0.5,3.1l-17.3,3l4.8,27.7L1410.2,130.5z"/>
	<path d="M1430.8,111.1c-1.6-9.2,2.4-17,12.1-18.7c9.7-1.7,16.1,4.3,17.7,13.5c1.6,9.2-2.4,17-12.1,18.7
		C1438.7,126.3,1432.4,120.4,1430.8,111.1z M1448,121.8c5.9-1,9.9-6.1,8.3-15.1c-1.6-9-7-12.4-12.9-11.4c-5.9,1-9.9,6.1-8.3,15.1
		C1436.6,119.4,1442,122.8,1448,121.8z"/>
	<path d="M1349.3,155.8c0-9.4,5.3-16.3,15.1-16.3s15.1,7,15.1,16.3c0,9.4-5.3,16.3-15.1,16.3S1349.3,165.2,1349.3,155.8z
		 M1364.4,169.3c6,0,10.8-4.3,10.8-13.4c0-9.1-4.8-13.4-10.8-13.4c-6,0-10.8,4.3-10.8,13.4C1353.6,165,1358.4,169.3,1364.4,169.3z"
		/>
	<path d="M1381.4,143.4v-3.1h26.2v3.1h-11v28.1h-4.1v-28.1H1381.4z"/>
	<path d="M1408.8,178.6v-10.3h1c3.4,0,6.2-6,6.2-20.6v-7.4h20.2v28.1h4.3v10.3h-4.1v-7.2h-23.5v7.2H1408.8z M1432.1,168.3v-25h-12.2
		v4.8c0,11.2-1.7,18-4.6,20.2H1432.1z"/>
	<path d="M1446.7,140.2v13.7h9.1c5.5,0,9.8,2.4,9.8,8.6s-4.3,8.9-9.8,8.9h-13.2v-31.2H1446.7z M1455.6,168.3c3.4,0,5.8-1.9,5.8-5.8
		c0-3.6-2.4-5.5-5.8-5.5h-8.9v11.3H1455.6z M1472.6,140.2v31.2h-4.1v-31.2H1472.6z"/>
	<path d="M1487.2,155.4l-11.7-15.1h5l8.9,12.4l8.9-12.4h5l-11.7,15.1l12.1,16.1h-5l-9.4-13.2l-9.4,13.2h-5L1487.2,155.4z"/>
	<path d="M1516.8,140.2h4.8l12,31.2h-4.3l-3.1-8.4h-13.9l-3.1,8.4h-4.3L1516.8,140.2z M1525,159.9l-5.8-15.6l-5.8,15.6H1525z"/>
</g>
<g id="Layer_2">
</g>
</svg>
