<?xml version="1.0" encoding="utf-8"?>
<!-- Generator: Adobe Illustrator 25.0.1, SVG Export Plug-In . SVG Version: 6.00 Build 0)  -->
<svg version="1.1" xmlns="http://www.w3.org/2000/svg" xmlns:xlink="http://www.w3.org/1999/xlink" x="0px" y="0px"
	 viewBox="0 0 1920 192" style="enable-background:new 0 0 1920 192;" xml:space="preserve">
<g id="Layer_1">
	<g>
		<path d="M71.3,61.5l5.9,2l1,28.2l18.1-21.7l5.9,2l-10.1,29.5l-3.9-1.3l8.7-25.4L78.4,97l-3.6-1.2l-1.1-28.8L65,92.4l-3.9-1.3
			L71.3,61.5z"/>
		<path d="M95.2,102.7l10.1-29.5l13.4,4.6c5.2,1.8,8.7,5.8,6.7,11.4c-1.9,5.7-7.1,6.7-12.3,4.9l-9.5-3.3L99.1,104L95.2,102.7z
			 M104.6,87.9l9.3,3.2c3.2,1.1,6.2,0.4,7.5-3.3c1.2-3.6-0.7-6.1-3.9-7.2l-9.3-3.2L104.6,87.9z"/>
		<path d="M140.7,85.3l4.5,1.6l1.3,33.4l-4.1-1.4l-0.2-9l-13.2-4.5l-5.7,6.9l-4.1-1.4L140.7,85.3z M142.2,106.6l-0.4-16.7
			l-10.6,12.9L142.2,106.6z"/>
		<path d="M158.5,91.3l5.9,2l1,28.2l18.1-21.7l5.9,2l-10.1,29.5l-3.9-1.3l8.7-25.4l-18.5,22.1l-3.6-1.2l-1.1-28.8l-8.7,25.4
			l-3.9-1.3L158.5,91.3z"/>
		<path d="M187,117.6c3-8.9,10.3-13.7,19.6-10.6c9.3,3.2,12.1,11.5,9,20.3c-3,8.9-10.3,13.7-19.6,10.6
			C186.7,134.7,184,126.4,187,117.6z M197,135.2c5.7,1.9,11.6-0.6,14.6-9.2c2.9-8.6-0.2-14.3-5.9-16.2c-5.7-1.9-11.6,0.6-14.6,9.2
			C188.2,127.6,191.3,133.3,197,135.2z"/>
		<path d="M213.3,143.1l10.1-29.5l13.4,4.6c5.2,1.8,8.7,5.8,6.7,11.4c-1.9,5.7-7.1,6.7-12.3,4.9l-9.5-3.3l-4.5,13.2L213.3,143.1z
			 M222.7,128.2l9.3,3.2c3.2,1.1,6.2,0.4,7.5-3.3c1.2-3.6-0.7-6.1-3.9-7.2l-9.3-3.2L222.7,128.2z"/>
		<path d="M252.7,123.5l-4.4,12.9l15.9,5.4l4.4-12.9l3.9,1.3l-10.1,29.5l-3.9-1.3l4.7-13.6l-15.9-5.4l-4.7,13.6l-3.9-1.3l10.1-29.5
			L252.7,123.5z"/>
		<path d="M285.6,134.8l4.5,1.6l1.3,33.4l-4.1-1.4l-0.2-9l-13.2-4.5l-5.7,6.9l-4.1-1.4L285.6,134.8z M287,156.1l-0.4-16.7
			l-10.6,12.9L287,156.1z"/>
		<path d="M292.1,170l13.1-10.3c-4.3-2-6.7-5.4-4.9-10.7c2-5.9,7.3-6.6,12.1-5l14.1,4.8l-10.1,29.5l-3.9-1.3l4.5-13.2l-7.9-2.7
			l-12.8,10.3L292.1,170z M308.1,157.4l10,3.4l3.6-10.4l-10-3.4c-3.2-1.1-6-0.3-7.2,3.4C303.2,154,304.9,156.3,308.1,157.4z"/>
		<path d="M370.7,148.3c9.6-2.1,13.9,2.9,15.5,7.9l-4,0.9c-1.6-5.1-5.7-7.1-10.9-6c-5.9,1.3-8.9,6.6-7,15.3
			c1.9,8.7,6.9,12.3,12.7,11c5.2-1.1,8.1-4.7,7.4-10l4-0.9c0.7,5.3-1.2,11.6-10.8,13.7c-9.4,2.1-15.5-3.5-17.6-12.9
			C358.1,158,361.4,150.4,370.7,148.3z"/>
		<path d="M386.6,148.8l-0.7-3l25.6-5.6l0.7,3l-10.8,2.4l6,27.4l-4,0.9l-6-27.4L386.6,148.8z"/>
		<path d="M424.1,137.4l4.7-1l18.4,27.9l-4.2,0.9l-4.8-7.5l-13.6,3l-1.3,8.9l-4.2,0.9L424.1,137.4z M436.3,154.9l-9-14l-2.3,16.5
			L436.3,154.9z"/>
		<path d="M442.1,136.6l-0.7-3L467,128l0.7,3l-10.8,2.4l6,27.4l-4,0.9l-6-27.4L442.1,136.6z"/>
		<path d="M472.4,126.8l14.6,17l4.7-21.2l4.5-1l-6.3,27.2c-1.3,5.5-3.6,7.2-6.6,7.8c-1.4,0.3-2.9,0.4-2.9,0.4l-0.7-3.4
			c0,0,1-0.1,2.4-0.4c1.6-0.4,3.2-0.9,4.1-4.8l-18-20.6L472.4,126.8z"/>
		<path d="M503.5,152l5.8-15.6c-4.7,0.5-8.5-1.2-9.7-6.6c-1.3-6.1,2.8-9.5,7.8-10.5l14.5-3.2l6.7,30.5l-4,0.9l-3-13.6l-8.1,1.8
			l-5.6,15.5L503.5,152z M510.6,133l10.3-2.3l-2.4-10.8l-10.3,2.3c-3.3,0.7-5.3,2.9-4.4,6.6C504.6,132.5,507.3,133.7,510.6,133z"/>
		<path d="M529,149v13.7h16.8V149h4.1v31.2h-4.1v-14.4H529v14.4h-4.1V149H529z"/>
		<path d="M553.2,149h23v3.1h-19v10.6h15.6v3.1h-15.6v11.3h19v3.1h-23V149z"/>
		<path d="M582.2,170.9c0,4.3,2.9,7.2,8.4,7.2c5.8,0,8.4-2.9,8.4-6.5c0-4.6-3.6-5.8-7.9-5.8h-5.3v-3.1h5.3c4.6,0,7.2-2.4,7.2-6
			c0-2.6-1.9-5.5-7.7-5.5c-6.2,0-7.9,3.6-7.9,6.5h-4.1c0-4.3,3.4-9.4,12-9.4s11.8,4.3,11.8,8.4c0,6.2-6,7.2-6,7.2v0.2
			c0,0,7,0.5,7,7.4c0,5.5-5,9.4-12.7,9.4c-7.9,0-12.5-3.8-12.5-10.1H582.2z"/>
		<path d="M616.6,149h4.8l12,31.2H629l-3.1-8.4H612l-3.1,8.4h-4.3L616.6,149z M624.8,168.7l-5.8-15.6l-5.8,15.6H624.8z"/>
		<path d="M635.3,149h6.2l10.1,26.4l10.1-26.4h6.2v31.2h-4.1v-26.9l-10.3,26.9h-3.8l-10.3-26.9v26.9h-4.1V149z"/>
		<path d="M675.4,149v13.7h9.1c5.5,0,9.8,2.4,9.8,8.6c0,6.2-4.3,8.9-9.8,8.9h-13.2V149H675.4z M684.2,177.1c3.4,0,5.8-1.9,5.8-5.8
			c0-3.6-2.4-5.5-5.8-5.5h-8.9v11.3H684.2z M701.3,149v31.2h-4.1V149H701.3z"/>
		<path d="M718.6,148.3c9.8,0,13,5.8,13.4,11h-4.1c-0.5-5.3-4.1-8.2-9.4-8.2c-6,0-10.1,4.6-10.1,13.4c0,8.9,4.1,13.4,10.1,13.4
			c5.3,0,8.9-2.9,9.4-8.2h4.1c-0.5,5.3-3.6,11-13.4,11c-9.6,0-14.4-6.7-14.4-16.3C704.2,155,709,148.3,718.6,148.3z"/>
		<path d="M733.4,176.8c0,0,0.5,0.1,1.2,0.1c3.4,0,6-2.5,6-18.1V149H761v31.2H757v-28.1h-12.5v7.2c0,15.8-2.9,21.1-8.9,21.1
			c-1.2,0-2.2-0.2-2.2-0.2V176.8z"/>
		<path d="M763.9,164.6c0-9.4,5.3-16.3,15.1-16.3s15.1,7,15.1,16.3c0,9.4-5.3,16.3-15.1,16.3S763.9,174,763.9,164.6z M779,178.1
			c6,0,10.8-4.3,10.8-13.4c0-9.1-4.8-13.4-10.8-13.4c-6,0-10.8,4.3-10.8,13.4C768.2,173.8,773,178.1,779,178.1z"/>
		<path d="M797,180.2V149h14.2c5.8,0,9.8,2.2,9.8,7.9c0,5.8-5.3,7-5.3,7v0.2c0,0,6.2,1.2,6.2,7.4c0,6.2-4.3,8.6-10.8,8.6H797z
			 M801.1,152.2v10.6h10.1c3.4,0,5.8-1.7,5.8-5.5c0-3.6-2.4-5-5.8-5H801.1z M811.2,177.1c3.8,0,6.5-1.7,6.5-5.5s-2.9-5.8-6.5-5.8
			h-10.1v11.3H811.2z"/>
		<path d="M835.2,149h4.8l12,31.2h-4.3l-3.1-8.4h-13.9l-3.1,8.4h-4.3L835.2,149z M843.4,168.7l-5.8-15.6l-5.8,15.6H843.4z"/>
		<path d="M853,152.2V149h26.2v3.1h-11v28.1H864v-28.1H853z"/>
		<path d="M892.1,149h4.8l12,31.2h-4.3l-3.1-8.4h-13.9l-3.1,8.4h-4.3L892.1,149z M900.3,168.7l-5.8-15.6l-5.8,15.6H900.3z"/>
		<path d="M909.6,180.2l9-14c-4.7-0.5-8.1-3-8.1-8.5c0-6.2,4.8-8.6,9.8-8.6h14.9v31.2h-4.1v-13.9h-8.3l-8.7,13.9H909.6z
			 M920.6,163.2h10.6v-11h-10.6c-3.4,0-5.8,1.7-5.8,5.5S917.3,163.2,920.6,163.2z"/>
		<path d="M939.9,113.6l-3.9,25.6l20.7-23.1l4.3,0.6l-4.7,30.9l-4-0.6l3.9-25.6l-20.7,23.1l-4.3-0.6l4.7-30.9L939.9,113.6z"/>
		<path d="M964.2,139.3c-0.6,4.3,1.8,7.6,7.2,8.4c5.7,0.9,8.7-1.6,9.3-5.2c0.7-4.5-2.7-6.2-7-6.9l-5.2-0.8l0.5-3.1l5.2,0.8
			c4.5,0.7,7.5-1.3,8-4.9c0.4-2.6-1.1-5.7-6.8-6.6c-6.2-0.9-8.4,2.4-8.8,5.2l-4-0.6c0.6-4.3,4.7-8.8,13.3-7.5s11,6,10.4,10.1
			c-0.9,6.2-7,6.2-7,6.2l0,0.2c0,0,6.8,1.5,5.8,8.4c-0.8,5.5-6.4,8.5-14,7.4c-7.8-1.2-11.8-5.7-10.8-11.8L964.2,139.3z"/>
		<path d="M990.9,121.3l4,0.6l-2,13.5l5,0.8c1.8-7.8,7.3-13.5,16.3-12.1c9.7,1.5,13.1,9.5,11.8,18.3c-1.3,8.8-6.9,15.5-16.7,14
			c-9.3-1.4-12.8-8.8-12-17.1l-5-0.8l-2.2,14.2l-4-0.6L990.9,121.3z M1001.9,138.7c-1.3,8.5,2,13.9,8,14.8c5.9,0.9,10.7-3.2,12-11.8
			c1.3-8.5-2-13.9-8-14.8C1007.9,126,1003.2,130.2,1001.9,138.7z"/>
		<path d="M1031.3,127.4l6.2,0.9l6,27.6l13.9-24.6l6.2,0.9l-4.7,30.9l-4-0.6l4-26.6l-14.2,25l-3.8-0.6l-6.2-28.1l-4,26.6l-4-0.6
			L1031.3,127.4z"/>
		<path d="M1070.9,133.3L1067,159l20.7-23.1l4.3,0.6l-4.7,30.9l-4-0.6l3.9-25.6l-20.7,23.1l-4.3-0.6l4.7-30.9L1070.9,133.3z"/>
		<path d="M1099.4,137.7l-2,13.5l16.6,2.5l2-13.5l4,0.6l-4.7,30.9l-4-0.6l2.2-14.2l-16.6-2.5l-2.2,14.2l-4-0.6l4.7-30.9
			L1099.4,137.7z"/>
		<path d="M1118.7,172.1l4.7-30.9l4,0.6l-2.4,15.9l17.4-13.6l4.6,0.7l-13.8,10.6l9.7,20.3l-4.8-0.7l-7.9-17.3l-5.8,4.5l-1.6,10.4
			L1118.7,172.1z"/>
		<path d="M1160.3,146.9l4.7,0.7l7.2,32.6l-4.3-0.6l-1.8-8.8l-13.8-2.1l-4.3,7.8l-4.3-0.6L1160.3,146.9z M1165.5,167.6l-3.4-16.3
			l-8.1,14.6L1165.5,167.6z"/>
		<path d="M1147.6,143.7v-10.3h1c3.4,0,6.2-6,6.2-20.6v-7.4h20.2v28.1h4.3v10.3h-4.1v-7.2h-23.5v7.2H1147.6z M1170.9,133.3v-25
			h-12.2v4.8c0,11.2-1.7,18-4.6,20.2H1170.9z"/>
		<path d="M1180,133.1c0,0,0.5,0.1,1.2,0.1c3.4,0,6-2.5,6-18.1v-9.8h20.4v31.2h-4.1v-28.1H1191v7.2c0,15.8-2.9,21.1-8.9,21.1
			c-1.2,0-2.2-0.2-2.2-0.2V133.1z"/>
		<path d="M1209.7,136.5l9-14c-4.7-0.5-8.1-3-8.1-8.5c0-6.2,4.8-8.6,9.8-8.6h14.9v31.2h-4.1v-13.9h-8.3l-8.7,13.9H1209.7z
			 M1220.8,119.4h10.6v-11h-10.6c-3.4,0-5.8,1.7-5.8,5.5S1217.4,119.4,1220.8,119.4z"/>
		<path d="M1248.4,136.5v-31.2h14.2c5.8,0,9.8,2.2,9.8,7.9c0,5.8-5.3,7-5.3,7v0.2c0,0,6.2,1.2,6.2,7.4c0,6.2-4.3,8.6-10.8,8.6
			H1248.4z M1252.5,108.4v10.6h10.1c3.4,0,5.8-1.7,5.8-5.5c0-3.6-2.4-5-5.8-5H1252.5z M1262.5,133.3c3.8,0,6.5-1.7,6.5-5.5
			s-2.9-5.8-6.5-5.8h-10.1v11.3H1262.5z"/>
		<path d="M1286.5,105.3h4.8l12,31.2h-4.3l-3.1-8.4H1282l-3.1,8.4h-4.3L1286.5,105.3z M1294.8,124.9l-5.8-15.6l-5.8,15.6H1294.8z"/>
		<path d="M1305.3,136.5v-31.2h4.1v28.1h11.7v-28.1h4v28.1h11.7v-28.1h4.1v31.2H1305.3z"/>
		<path d="M1344.1,105.3h23v3.1h-19v10.6h15.6v3.1h-15.6v11.3h19v3.1h-23V105.3z"/>
		<path d="M1370.1,136.5v-31.2h21.6v3.1h-17.5v28.1H1370.1z"/>
		<path d="M1393.6,120.9c0-9.4,5.3-16.3,15.1-16.3c9.8,0,15.1,7,15.1,16.3c0,9.4-5.3,16.3-15.1,16.3
			C1398.9,137.2,1393.6,130.2,1393.6,120.9z M1408.7,134.3c6,0,10.8-4.3,10.8-13.4c0-9.1-4.8-13.4-10.8-13.4s-10.8,4.3-10.8,13.4
			C1397.9,130,1402.7,134.3,1408.7,134.3z"/>
		<path d="M1357.6,150.8l5.4,25.3l11.2-28.9l4.2-0.9l6.5,30.5l-4,0.9l-5.4-25.3l-11.2,28.9l-4.2,0.9l-6.5-30.5L1357.6,150.8z"/>
		<path d="M1385.8,144.8l2.9,13.4l16.4-3.5l-2.9-13.4l4-0.9l6.5,30.5l-4,0.9l-3-14.1l-16.4,3.5l3,14.1l-4,0.9l-6.5-30.5
			L1385.8,144.8z"/>
		<path d="M1409.2,143l-0.7-3.1l25.6-5.5l0.7,3.1l-10.8,2.3l5.9,27.5l-4,0.9l-5.9-27.5L1409.2,143z"/>
		<path d="M1436.5,134l22.5-4.8l0.7,3.1l-18.5,4l2.2,10.3l15.3-3.3l0.7,3.1l-15.3,3.3l2.4,11l18.5-4l0.7,3.1l-22.5,4.8L1436.5,134z"
			/>
		<path d="M1468.3,159.1l-6.5-30.5l13.8-3c5.4-1.2,10.4,0.5,11.7,6.3c1.3,5.9-2.7,9.4-8.1,10.6l-9.9,2.1l2.9,13.6L1468.3,159.1z
			 M1468.8,141.5l9.6-2.1c3.3-0.7,5.5-2.9,4.7-6.7s-3.7-4.8-7-4.1l-9.6,2.1L1468.8,141.5z"/>
		<path d="M1494.6,153.4l-6.5-30.5l4-0.9l2.9,13.4l10.1-2.2c5.4-1.2,10.1,0.3,11.4,6.4c1.3,6.1-2.4,9.6-7.8,10.7L1494.6,153.4z
			 M1507.8,147.4c3.3-0.7,5.2-3.1,4.4-6.8c-0.8-3.5-3.5-4.9-6.8-4.2l-9.9,2.1l2.4,11L1507.8,147.4z"/>
		<path d="M1514.8,117.2l22.5-4.8l0.7,3.1l-18.5,4l2.2,10.3l15.3-3.3l0.7,3.1l-15.3,3.3l2.4,11l18.5-4l0.7,3.1l-22.5,4.8
			L1514.8,117.2z"/>
		<path d="M1546.7,142.3l-6.5-30.5l13.8-3c5.4-1.2,10.4,0.5,11.7,6.3s-2.7,9.4-8.1,10.6l-9.9,2.1l2.9,13.6L1546.7,142.3z
			 M1547.1,124.8l9.6-2.1c3.3-0.7,5.5-2.9,4.7-6.7s-3.7-4.8-7-4.1l-9.6,2.1L1547.1,124.8z"/>
		<path d="M1576.8,103.9l4.7-1l18.3,28l-4.2,0.9l-4.8-7.6l-13.6,2.9l-1.3,8.9l-4.2,0.9L1576.8,103.9z M1588.9,121.5l-9-14.1
			l-2.4,16.5L1588.9,121.5z"/>
		<path d="M1536.5,180.6l-6.8-30.4l13.8-3.1c5.6-1.3,10.1,0,11.3,5.6c1.3,5.6-3.6,7.9-3.6,7.9l0.1,0.2c0,0,6.4-0.2,7.7,5.9
			c1.4,6.1-2.3,9.4-8.6,10.8L1536.5,180.6z M1534.3,152.3l2.3,10.3l9.8-2.2c3.3-0.7,5.3-2.9,4.4-6.6c-0.8-3.5-3.4-4.4-6.7-3.7
			L1534.3,152.3z M1549.6,174.4c3.7-0.8,6-3.1,5.1-6.8c-0.8-3.7-4.1-5-7.6-4.2l-9.8,2.2l2.5,11L1549.6,174.4z"/>
		<path d="M1570,140.3c9.6-2.2,13.9,2.8,15.5,7.8l-4,0.9c-1.6-5-5.8-7.1-10.9-5.9c-5.9,1.3-8.8,6.7-6.9,15.3
			c1.9,8.7,6.9,12.2,12.8,10.9c5.2-1.2,8-4.8,7.3-10l4-0.9c0.7,5.3-1.1,11.6-10.7,13.7c-9.4,2.1-15.5-3.4-17.6-12.8
			C1557.4,150.1,1560.6,142.4,1570,140.3z"/>
		<path d="M1586.1,137.5l22.5-5l0.7,3l-18.5,4.1l2.3,10.3l15.2-3.4l0.7,3l-15.2,3.4l2.5,11l18.5-4.1l0.7,3l-22.5,5L1586.1,137.5z"/>
		<path d="M1618.2,162.3l-6.8-30.4l21.1-4.7l0.7,3L1616,134l6.1,27.4L1618.2,162.3z"/>
		<path d="M1642,164.3l-2.3-10.1l0.9-0.2c3.3-0.7,4.8-7.2,1.6-21.5l-1.6-7.3l19.7-4.4l6.1,27.4l4.2-0.9l2.3,10.1l-4,0.9l-1.6-7
			l-23,5.1l1.6,7L1642,164.3z M1662.5,149.1l-5.5-24.4l-11.9,2.7l1.1,4.7c2.4,10.9,2.3,17.9,0,20.7L1662.5,149.1z"/>
		<path d="M1676.9,117.1l4.7-1l18.5,27.8l-4.2,0.9l-4.9-7.5l-13.6,3l-1.2,8.9l-4.2,0.9L1676.9,117.1z M1689.3,134.5l-9.1-14
			l-2.2,16.5L1689.3,134.5z"/>
		<path d="M1695.7,177.4v-31.2h14.2c5.8,0,9.8,2.2,9.8,7.9c0,5.8-5.3,7-5.3,7v0.2c0,0,6.2,1.2,6.2,7.4c0,6.2-4.3,8.6-10.8,8.6
			H1695.7z M1699.8,149.3v10.6h10.1c3.4,0,5.8-1.7,5.8-5.5c0-3.6-2.4-5-5.8-5H1699.8z M1709.9,174.2c3.8,0,6.5-1.7,6.5-5.5
			s-2.9-5.8-6.5-5.8h-10.1v11.3H1709.9z"/>
		<path d="M1732.9,146.2h6.2l10.1,26.4l10.1-26.4h6.2v31.2h-4.1v-26.9l-10.3,26.9h-3.8l-10.3-26.9v26.9h-4.1V146.2z"/>
		<path d="M1768.4,161.8c0-9.4,5.3-16.3,15.1-16.3c9.8,0,15.1,7,15.1,16.3c0,9.4-5.3,16.3-15.1,16.3
			C1773.7,178.1,1768.4,171.1,1768.4,161.8z M1783.5,175.2c6,0,10.8-4.3,10.8-13.4c0-9.1-4.8-13.4-10.8-13.4
			c-6,0-10.8,4.3-10.8,13.4C1772.7,170.9,1777.5,175.2,1783.5,175.2z"/>
		<path d="M1800.3,184.6v-10.3h1c3.4,0,6.2-6,6.2-20.6v-7.4h20.2v28.1h4.3v10.3h-4.1v-7.2h-23.5v7.2H1800.3z M1823.6,174.2v-25
			h-12.2v4.8c0,11.2-1.7,18-4.6,20.2H1823.6z"/>
		<path d="M1834.2,146.2h23v3.1h-19v10.6h15.6v3.1h-15.6v11.3h19v3.1h-23V146.2z"/>
	</g>
</g>
<g id="Layer_2">
</g>
</svg>
