<?xml version="1.0" encoding="utf-8"?>
<!-- Generator: Adobe Illustrator 25.0.1, SVG Export Plug-In . SVG Version: 6.00 Build 0)  -->
<svg version="1.1" xmlns="http://www.w3.org/2000/svg" xmlns:xlink="http://www.w3.org/1999/xlink" x="0px" y="0px"
	 viewBox="0 0 1920 192" style="enable-background:new 0 0 1920 192;" xml:space="preserve">
<g id="Layer_1">
	<path d="M95.9,180l11.1-18.8l-16.5-12l4.7-0.8l15.2,11.5l-2.4-13.7l4-0.7l2.4,13.7l10.3-16l4.7-0.8l-11.4,16.9l16.8,13.8l-5.2,0.9
		l-15-13l2.7,15.1l-4,0.7l-2.7-15.1l-9.6,17.3L95.9,180z"/>
	<path d="M131.9,141.9l22.7-4l0.5,3.1l-18.7,3.3l1.8,10.4l15.4-2.7l0.5,3.1l-15.4,2.7l2,11.1l18.7-3.3l0.5,3.1l-22.7,4L131.9,141.9z
		"/>
	<path d="M160.8,165c0,0,0.5,0.1,1.2-0.1c3.3-0.6,5.5-3.5,2.8-18.9l-1.7-9.7l20.1-3.6l5.4,30.7l-4,0.7l-4.9-27.7l-12.3,2.2l1.3,7.1
		c2.8,15.6,0.8,21.3-5.1,22.3c-1.2,0.2-2.2,0.1-2.2,0.1L160.8,165z"/>
	<path d="M186.5,132.3l22.7-4l0.5,3.1l-18.7,3.3l1.8,10.4l15.4-2.7l0.5,3.1l-15.4,2.7l2,11.1l18.7-3.3l0.5,3.1l-22.7,4L186.5,132.3z
		"/>
	<path d="M218.9,148.7c0.8,4.3,4.1,6.6,9.5,5.6c5.7-1,7.8-4.3,7.1-7.8c-0.8-4.5-4.5-5-8.8-4.3l-5.2,0.9l-0.5-3.1l5.2-0.9
		c4.5-0.8,6.7-3.6,6-7.2c-0.5-2.6-2.9-5.1-8.5-4.1c-6.1,1.1-7.2,4.9-6.7,7.8l-4,0.7c-0.8-4.3,1.7-9.8,10.2-11.3
		c8.5-1.5,12.3,2.2,13,6.2c1.1,6.1-4.7,8.1-4.7,8.1l0,0.2c0,0,6.9-0.7,8.1,6.1c1,5.4-3.3,10.1-10.9,11.4c-7.8,1.4-13-1.6-14-7.8
		L218.9,148.7z"/>
	<path d="M242.5,122.4l2.4,13.5l16.5-2.9l-2.4-13.5l4-0.7l5.4,30.7l-4,0.7l-2.5-14.2l-16.5,2.9l2.5,14.2l-4,0.7l-5.4-30.7
		L242.5,122.4z"/>
	<path d="M270.4,117.4l2.4,13.5l9-1.6c5.4-1,10.1,0.7,11.2,6.8c1.1,6.1-2.7,9.5-8.1,10.5l-13,2.3l-5.4-30.7L270.4,117.4z M284,143.5
		c3.3-0.6,5.3-2.9,4.7-6.7c-0.6-3.5-3.3-5-6.6-4.4l-8.7,1.5l2,11.1L284,143.5z M295.9,112.9l5.4,30.7l-4,0.7l-5.4-30.7L295.9,112.9z
		"/>
	<path d="M304.6,143.1l-5.4-30.7l4-0.7l4.5,25.5l12.3-28.5l4.3-0.8l5.4,30.7l-4,0.7l-4.5-25.5l-12.3,28.5L304.6,143.1z M306.6,104.9
		c0.3,1.9,1.6,3.4,4.6,2.8c3.1-0.5,3.7-2.4,3.4-4.3l3.8-0.7c0.4,2.1-0.1,6.1-6.8,7.3c-6.6,1.2-8.5-2.4-8.8-4.5L306.6,104.9z"/>
	<path d="M291.8,146h6.2l10.1,26.4l10.1-26.4h6.2v31.2h-4.1v-26.9l-10.3,26.9h-3.8l-10.3-26.9v26.9h-4.1V146z"/>
	<path d="M327.8,146h23v3.1h-19v10.6h15.6v3.1h-15.6v11.3h19v3.1h-23V146z"/>
	<path d="M357.4,146v8.9c0,4.8,1.7,8.2,8.2,8.2c4.8,0,7.7-2.4,7.7-4.3V146h4.1v31.2h-4.1v-14.6c0,0-2.9,3.6-8.9,3.6
		c-7.7,0-11-4.1-11-10.3V146H357.4z"/>
	<path d="M390.2,177.2V146h14.2c5.8,0,9.8,2.2,9.8,7.9s-5.3,7-5.3,7v0.2c0,0,6.2,1.2,6.2,7.4s-4.3,8.6-10.8,8.6H390.2z M394.3,149.1
		v10.6h10.1c3.4,0,5.8-1.7,5.8-5.5c0-3.6-2.4-5-5.8-5H394.3z M404.4,174.1c3.8,0,6.5-1.7,6.5-5.5c0-3.8-2.9-5.8-6.5-5.8h-10.1v11.3
		H404.4z"/>
	<path d="M421.9,146v25.9l17-25.9h4.3v31.2h-4.1v-25.9l-17,25.9h-4.3V146H421.9z"/>
	<path d="M446.6,177.2V146h4.1v16.1l15.1-16.1h4.7l-12,12.6l12.7,18.6h-4.9l-10.4-15.9l-5.1,5.3v10.6H446.6z"/>
	<path d="M477.6,146v25.9l17-25.9h4.3v31.2h-4.1v-25.9l-17,25.9h-4.3V146H477.6z"/>
	<path d="M506.4,146v13.7h16.8V146h4.1v31.2h-4.1v-14.4h-16.8v14.4h-4.1V146H506.4z"/>
	<path d="M530.6,177.2V146h21.6v3.1h-17.5v28.1H530.6z"/>
	<path d="M565.2,146h4.8l12,31.2h-4.3l-3.1-8.4h-13.9l-3.1,8.4h-4.3L565.2,146z M573.4,165.7l-5.8-15.6l-5.8,15.6H573.4z"/>
	<path d="M631.5,146.8l23.7-7.7l9.7,29.7l-3.9,1.3l-8.7-26.7l-16,5.2l8.7,26.7l-3.9,1.3L631.5,146.8z"/>
	<path d="M662.8,152.9c-2.9-8.9,0-17.2,9.3-20.2c9.4-3.1,16.5,1.9,19.4,10.8c2.9,8.9,0,17.2-9.3,20.2
		C672.9,166.8,665.7,161.8,662.8,152.9z M681.4,161c5.7-1.9,8.9-7.5,6.1-16.1c-2.8-8.7-8.7-11.3-14.4-9.4c-5.7,1.9-8.9,7.5-6.1,16.1
		C669.8,160.3,675.7,162.9,681.4,161z"/>
	<path d="M702.5,122.8c9.4-3.1,14.1,1.5,16.2,6.3l-3.9,1.3c-2.1-4.9-6.4-6.5-11.4-4.9c-5.7,1.9-8.2,7.5-5.4,15.9
		c2.8,8.4,8.1,11.5,13.8,9.6c5-1.6,7.5-5.5,6.4-10.7l3.9-1.3c1.2,5.2,0,11.6-9.4,14.7c-9.1,3-15.8-1.9-18.8-11
		S693.4,125.8,702.5,122.8z"/>
	<path d="M725.5,145.3c0,0,0.5,0,1.2-0.2c3.2-1,4.9-4.2,0.1-19.1l-3.1-9.4l19.4-6.3l9.7,29.7l-3.9,1.3l-8.7-26.7l-11.9,3.9l2.2,6.8
		c4.9,15.1,3.8,21-1.9,22.8c-1.1,0.4-2.1,0.4-2.1,0.4L725.5,145.3z"/>
	<path d="M746.3,109.3l21.9-7.2l1,3l-18,5.9l3.3,10l14.8-4.8l1,3l-14.8,4.8l3.5,10.7l18-5.9l1,3l-21.9,7.2L746.3,109.3z"/>
	<path d="M780.1,98.3l23.7-7.7l9.7,29.7l-3.9,1.3l-8.7-26.7l-16,5.2l8.7,26.7l-3.9,1.3L780.1,98.3z"/>
	<path d="M811.4,104.5c-2.9-8.9,0-17.2,9.3-20.2c9.4-3.1,16.5,1.9,19.4,10.8c2.9,8.9,0,17.2-9.3,20.2
		C821.4,118.3,814.3,113.4,811.4,104.5z M829.9,112.5c5.7-1.9,8.9-7.5,6.1-16.1c-2.8-8.7-8.7-11.3-14.4-9.4
		c-5.7,1.9-8.9,7.5-6.1,16.1C818.3,111.8,824.2,114.4,829.9,112.5z"/>
	<path d="M847.7,109L838,79.3l3.9-1.3l5,15.3l9.4-20l4.4-1.4l-7.6,15.7l17.8,13.8l-4.7,1.5l-14.8-11.9l-3.2,6.6l3.3,10L847.7,109z"
		/>
	<path d="M866.5,70l16.2,15.4l2.5-21.5l4.3-1.4L886,90.2c-0.7,5.6-2.9,7.5-5.8,8.5c-1.4,0.4-2.8,0.7-2.8,0.7l-1.1-3.3
		c0,0,1-0.2,2.3-0.6c1.6-0.5,3.1-1.2,3.6-5.2l-20-18.7L866.5,70z"/>
	<path d="M891.4,61.9l23.7-7.7l9.7,29.7l-3.9,1.3l-8.7-26.7l-16,5.2l8.7,26.7l-3.9,1.3L891.4,61.9z"/>
	<path d="M928,82.8l-9.7-29.7l3.9-1.3l5,15.3l9.4-20l4.4-1.4l-7.6,15.7l17.8,13.8l-4.7,1.5l-14.8-11.9l-3.2,6.6l3.3,10L928,82.8z"/>
	<path d="M947.7,43.5l8,24.6l8.2-29.9l4.1-1.3l9.7,29.7l-3.9,1.3l-8-24.6l-8.2,29.9l-4.1,1.3l-9.7-29.7L947.7,43.5z"/>
	<path d="M915,123.4V92.2h14.2c5.8,0,9.8,2.2,9.8,7.9s-5.3,7-5.3,7v0.2c0,0,6.2,1.2,6.2,7.4s-4.3,8.6-10.8,8.6H915z M919.1,95.3
		v10.6h10.1c3.4,0,5.8-1.7,5.8-5.5c0-3.6-2.4-5-5.8-5H919.1z M929.2,120.3c3.8,0,6.5-1.7,6.5-5.5c0-3.8-2.9-5.8-6.5-5.8h-10.1v11.3
		H929.2z"/>
	<path d="M953.2,92.2h4.8l12,31.2h-4.3l-3.1-8.4h-13.9l-3.1,8.4h-4.3L953.2,92.2z M961.4,111.9l-5.8-15.6l-5.8,15.6H961.4z"/>
	<path d="M971.9,92.2h6.2l10.1,26.4l10.1-26.4h6.2v31.2h-4.1V96.5l-10.3,26.9h-3.8L976,96.5v26.9h-4.1V92.2z"/>
	<path d="M954.3,126.1l24.9,2.2l-2.8,31.1l-4.1-0.4l2.5-28l-16.7-1.5l-2.5,28l-4.1-0.4L954.3,126.1z"/>
	<path d="M980.6,144.1c0.8-9.3,6.7-15.8,16.5-14.9c9.8,0.9,14.4,8.3,13.6,17.6c-0.8,9.3-6.7,15.8-16.5,14.9
		C984.4,160.8,979.8,153.4,980.6,144.1z M994.5,158.9c6,0.5,11.1-3.3,12-12.4c0.8-9.1-3.6-13.8-9.5-14.4c-6-0.5-11.1,3.3-12,12.4
		C984.1,153.6,988.5,158.3,994.5,158.9z"/>
	<path d="M1011.1,159.1c0,0,0.5,0.2,1.2,0.3c3.3,0.3,6.2-1.9,7.6-17.5l0.9-9.8l20.3,1.8l-2.8,31.1l-4.1-0.4l2.5-28l-12.4-1.1
		l-0.6,7.2c-1.4,15.8-4.8,20.8-10.7,20.2c-1.2-0.1-2.1-0.4-2.1-0.4L1011.1,159.1z"/>
	<path d="M1042.5,149.7c0.8-9.3,6.7-15.8,16.5-14.9c9.8,0.9,14.4,8.3,13.6,17.6c-0.8,9.3-6.7,15.8-16.5,14.9
		S1041.7,159,1042.5,149.7z M1056.4,164.5c6,0.5,11.1-3.3,12-12.4c0.8-9.1-3.6-13.8-9.5-14.4c-6-0.5-11.1,3.3-12,12.4
		C1046,159.2,1050.4,163.9,1056.4,164.5z"/>
	<path d="M1073.1,168.1l15.6-15.2l-12.8-15.9l4.8,0.4l11.7,15l1.3-13.9l4.1,0.4l-1.3,13.9l14.2-12.7l4.8,0.4l-15.4,13.3l12.6,17.8
		l-5.3-0.5l-11.1-16.4l-1.4,15.3l-4.1-0.4l1.4-15.3l-13.8,14.2L1073.1,168.1z"/>
	<path d="M1117.8,140.8l22.9,2.1l-0.3,3.1l-18.9-1.7l-0.9,10.5l15.5,1.4l-0.3,3.1l-15.5-1.4l-1,11.2l18.9,1.7l-0.3,3.1l-22.9-2.1
		L1117.8,140.8z"/>
	<path d="M1147.7,143.5l-1.2,13.6l16.7,1.5l1.2-13.6l4.1,0.4l-2.8,31.1l-4.1-0.4l1.3-14.3l-16.7-1.5l-1.3,14.3l-4.1-0.4l2.8-31.1
		L1147.7,143.5z"/>
	<path d="M1138.4,134.2V103h14.2c5.8,0,9.8,2.2,9.8,7.9s-5.3,7-5.3,7v0.2c0,0,6.2,1.2,6.2,7.4c0,6.2-4.3,8.6-10.8,8.6H1138.4z
		 M1142.4,106.1v10.6h10.1c3.4,0,5.8-1.7,5.8-5.5c0-3.6-2.4-5-5.8-5H1142.4z M1152.5,131.1c3.8,0,6.5-1.7,6.5-5.5
		c0-3.8-2.9-5.8-6.5-5.8h-10.1v11.3H1152.5z"/>
	<path d="M1170,103v25.9l17-25.9h4.3v31.2h-4.1v-25.9l-17,25.9h-4.3V103H1170z"/>
	<path d="M1194.8,103h25v31.2h-4.1v-28.1h-16.8v28.1h-4.1V103z"/>
	<path d="M1232.7,103h25v31.2h-4.1v-28.1h-16.8v28.1h-4.1V103z"/>
	<path d="M1261,134.2V103h14.2c5.5,0,10.1,2.6,10.1,8.6c0,6-4.6,8.6-10.1,8.6h-10.1v13.9H1261z M1265.1,117.2h9.8c3.4,0,6-1.7,6-5.5
		c0-3.8-2.6-5.5-6-5.5h-9.8V117.2z"/>
	<path d="M1287.4,118.6c0-9.4,5.3-16.3,15.1-16.3s15.1,7,15.1,16.3c0,9.4-5.3,16.3-15.1,16.3S1287.4,128,1287.4,118.6z M1302.5,132
		c6,0,10.8-4.3,10.8-13.4c0-9.1-4.8-13.4-10.8-13.4c-6,0-10.8,4.3-10.8,13.4C1291.7,127.7,1296.5,132,1302.5,132z"/>
	<path d="M1331.7,118.1L1320,103h5l8.9,12.4l8.9-12.4h5l-11.7,15.1l12.1,16.1h-5L1334,121l-9.4,13.2h-5L1331.7,118.1z"/>
	<path d="M1350.3,118.6c0-9.4,5.3-16.3,15.1-16.3s15.1,7,15.1,16.3c0,9.4-5.3,16.3-15.1,16.3S1350.3,128,1350.3,118.6z M1365.4,132
		c6,0,10.8-4.3,10.8-13.4c0-9.1-4.8-13.4-10.8-13.4c-6,0-10.8,4.3-10.8,13.4C1354.6,127.7,1359.4,132,1365.4,132z"/>
	<path d="M1382.2,141.4v-10.3h1c3.4,0,6.2-6,6.2-20.6V103h20.2v28.1h4.3v10.3h-4.1v-7.2h-23.5v7.2H1382.2z M1405.5,131.1v-25h-12.2
		v4.8c0,11.2-1.7,18-4.6,20.2H1405.5z"/>
	<path d="M1407.7,179.4l-8.2-30.1l13.7-3.7c5.6-1.5,10.1-0.5,11.6,5.1c1.5,5.6-3.3,8.1-3.3,8.1l0.1,0.2c0,0,6.3-0.5,8,5.5
		s-1.9,9.5-8.2,11.2L1407.7,179.4z M1404.3,151.2l2.8,10.2l9.7-2.6c3.2-0.9,5.1-3.1,4.1-6.8c-0.9-3.5-3.6-4.2-6.9-3.4L1404.3,151.2z
		 M1420.6,172.7c3.7-1,5.8-3.3,4.8-7c-1-3.7-4.3-4.8-7.8-3.9l-9.7,2.6l3,10.9L1420.6,172.7z"/>
	<path d="M1440.4,176.7v-31.2h14.2c5.8,0,9.8,2.2,9.8,7.9s-5.3,7-5.3,7v0.2c0,0,6.2,1.2,6.2,7.4s-4.3,8.6-10.8,8.6H1440.4z
		 M1444.5,148.6v10.6h10.1c3.4,0,5.8-1.7,5.8-5.5c0-3.6-2.4-5-5.8-5H1444.5z M1454.6,173.5c3.8,0,6.5-1.7,6.5-5.5
		c0-3.8-2.9-5.8-6.5-5.8h-10.1v11.3H1454.6z"/>
	<path d="M1478.6,145.5h4.8l12,31.2h-4.3l-3.1-8.4H1474l-3.1,8.4h-4.3L1478.6,145.5z M1486.8,165.1l-5.8-15.6l-5.8,15.6H1486.8z"/>
	<path d="M1495.9,173.3c0,0,0.5,0.1,1.2,0.1c3.4,0,6-2.5,6-18.1v-9.8h20.4v31.2h-4.1v-28.1h-12.5v7.2c0,15.8-2.9,21.1-8.9,21.1
		c-1.2,0-2.2-0.2-2.2-0.2V173.3z"/>
	<path d="M1526.8,176.7v-31.2h4.1v13.7h10.3c5.5,0,9.8,2.4,9.8,8.6s-4.3,8.9-9.8,8.9H1526.8z M1541,173.5c3.4,0,5.8-1.9,5.8-5.8
		c0-3.6-2.4-5.5-5.8-5.5h-10.1v11.3H1541z"/>
	<path d="M1565.4,160.6l-11.7-15.1h5l8.9,12.4l8.9-12.4h5l-11.7,15.1l12.1,16.1h-5l-9.4-13.2l-9.4,13.2h-5L1565.4,160.6z"/>
	<path d="M1595,145.5h4.8l12,31.2h-4.3l-3.1-8.4h-13.9l-3.1,8.4h-4.3L1595,145.5z M1603.2,165.1l-5.8-15.6l-5.8,15.6H1603.2z"/>
	<path d="M1612.3,173.3c0,0,0.5,0.1,1.2,0.1c3.4,0,6-2.5,6-18.1v-9.8h20.4v31.2h-4.1v-28.1h-12.5v7.2c0,15.8-2.9,21.1-8.9,21.1
		c-1.2,0-2.2-0.2-2.2-0.2V173.3z"/>
	<path d="M1641.8,173.3c0,0,0.5,0.1,1.2,0.1c3.4,0,6-2.5,6-18.1v-9.8h20.4v31.2h-4.1v-28.1h-12.5v7.2c0,15.8-2.9,21.1-8.9,21.1
		c-1.2,0-2.2-0.2-2.2-0.2V173.3z"/>
	<path d="M1675.9,145.5l10.6,19.7l9.1-19.7h4.6l-12,25.2c-2.4,5.1-5,6.2-8.2,6.2c-1.4,0-2.9-0.2-2.9-0.2v-3.5c0,0,1,0.1,2.4,0.1
		c1.7,0,3.4-0.2,5-3.8l-13.2-24H1675.9z"/>
</g>
<g id="Layer_2">
</g>
</svg>
