<?xml version="1.0" encoding="utf-8"?>
<!-- Generator: Adobe Illustrator 25.0.1, SVG Export Plug-In . SVG Version: 6.00 Build 0)  -->
<svg version="1.1" xmlns="http://www.w3.org/2000/svg" xmlns:xlink="http://www.w3.org/1999/xlink" x="0px" y="0px"
	 viewBox="0 0 1920 192" style="enable-background:new 0 0 1920 192;" xml:space="preserve">
<g id="Layer_1">
	<path d="M87.8,163.5c0-7,4.6-11.5,14.2-11.5v-4.1h4.1v4.1c9.6,0,14.2,4.6,14.2,11.5c0,7-4.6,11.5-14.2,11.5v4.1h-4.1V175
		C92.3,175,87.8,170.4,87.8,163.5z M92.1,163.5c0,6.2,3.8,8.4,9.8,8.4v-16.8C95.9,155.1,92.1,157.2,92.1,163.5z M106,171.9
		c6,0,9.8-2.2,9.8-8.4c0-6.2-3.8-8.4-9.8-8.4V171.9z"/>
	<path d="M125.9,147.9l10.6,19.7l9.1-19.7h4.6l-12,25.2c-2.4,5.1-5,6.2-8.2,6.2c-1.4,0-2.9-0.2-2.9-0.2v-3.5c0,0,1,0.1,2.4,0.1
		c1.7,0,3.4-0.2,5-3.8l-13.2-24H125.9z"/>
	<path d="M151.1,151v-3.1h26.2v3.1h-11v28.1h-4.1V151H151.1z"/>
	<path d="M179.7,147.9H203v3.1h-19.2v10.6h10.8c5.5,0,9.8,2.4,9.8,8.6c0,6.2-4.3,8.9-9.8,8.9h-14.9V147.9z M194.3,175.9
		c3.4,0,5.8-1.9,5.8-5.8c0-3.6-2.4-5.5-5.8-5.5h-10.6v11.3H194.3z"/>
	<path d="M207,163.5c0-9.4,5.3-16.3,15.1-16.3s15.1,7,15.1,16.3s-5.3,16.3-15.1,16.3S207,172.8,207,163.5z M222.2,176.9
		c6,0,10.8-4.3,10.8-13.4c0-9.1-4.8-13.4-10.8-13.4c-6,0-10.8,4.3-10.8,13.4C211.3,172.6,216.2,176.9,222.2,176.9z"/>
	<path d="M238.7,175.7c0,0,0.5,0.1,1.2,0.1c3.4,0,6-2.5,6-18.1v-9.8h20.4v31.2h-4.1V151h-12.5v7.2c0,15.8-2.9,21.1-8.9,21.1
		c-1.2,0-2.2-0.2-2.2-0.2V175.7z"/>
	<path d="M269.7,179.1v-31.2h4.1v16.1l15.1-16.1h4.7l-12,12.6l12.7,18.6h-4.9l-10.4-15.9l-5.1,5.3v10.6H269.7z"/>
	<path d="M307.1,147.9h4.8l12,31.2h-4.3l-3.1-8.4h-13.9l-3.1,8.4h-4.3L307.1,147.9z M315.3,167.5l-5.8-15.6l-5.8,15.6H315.3z"/>
	<path d="M339,147.9v8.9c0,4.8,1.7,8.2,8.2,8.2c4.8,0,7.7-2.4,7.7-4.3v-12.7h4.1v31.2h-4.1v-14.6c0,0-2.9,3.6-8.9,3.6
		c-7.7,0-11-4.1-11-10.3v-9.8H339z"/>
	<path d="M362.3,147.9h23v3.1h-19v10.6H382v3.1h-15.6v11.3h19v3.1h-23V147.9z"/>
	<path d="M388.2,147.9h6.2l10.1,26.4l10.1-26.4h6.2v31.2h-4.1v-26.9l-10.3,26.9h-3.8l-10.3-26.9v26.9h-4.1V147.9z"/>
	<path d="M424.2,147.9h25v31.2h-4.1V151h-16.8v28.1h-4.1V147.9z"/>
	<path d="M456.6,147.9v25.9l17-25.9h4.3v31.2h-4.1v-25.9l-17,25.9h-4.3v-31.2H456.6z"/>
	<path d="M480.9,163.5c0-9.4,5.3-16.3,15.1-16.3s15.1,7,15.1,16.3s-5.3,16.3-15.1,16.3S480.9,172.8,480.9,163.5z M496,176.9
		c6,0,10.8-4.3,10.8-13.4c0-9.1-4.8-13.4-10.8-13.4c-6,0-10.8,4.3-10.8,13.4C485.2,172.6,490,176.9,496,176.9z"/>
	<path d="M518.1,147.9v13.7h16.8v-13.7h4.1v31.2h-4.1v-14.4h-16.8v14.4H514v-31.2H518.1z"/>
	<path d="M552.9,147.9h4.8l12,31.2h-4.3l-3.1-8.4h-13.9l-3.1,8.4h-4.3L552.9,147.9z M561.1,167.5l-5.8-15.6l-5.8,15.6H561.1z"/>
	<path d="M625.5,147.3h6.2l10.1,26.4l10.1-26.4h6.2v31.2H654v-26.9l-10.3,26.9h-3.8l-10.3-26.9v26.9h-4.1V147.3z"/>
	<path d="M661,162.9c0-9.4,5.3-16.3,15.1-16.3s15.1,7,15.1,16.3s-5.3,16.3-15.1,16.3S661,172.2,661,162.9z M676.1,176.3
		c6,0,10.8-4.3,10.8-13.4c0-9.1-4.8-13.4-10.8-13.4c-6,0-10.8,4.3-10.8,13.4C665.3,172,670.1,176.3,676.1,176.3z"/>
	<path d="M692.9,185.7v-10.3h1c3.4,0,6.2-6,6.2-20.6v-7.4h20.2v28.1h4.3v10.3h-4.1v-7.2H697v7.2H692.9z M716.2,175.3v-25H704v4.8
		c0,11.2-1.7,18-4.6,20.2H716.2z"/>
	<path d="M730.8,147.3v13.7h16.8v-13.7h4.1v31.2h-4.1v-14.4h-16.8v14.4h-4.1v-31.2H730.8z"/>
	<path d="M759.2,147.3v13.7h9.1c5.5,0,9.8,2.4,9.8,8.6c0,6.2-4.3,8.9-9.8,8.9h-13.2v-31.2H759.2z M768,175.3c3.4,0,5.8-1.9,5.8-5.8
		c0-3.6-2.4-5.5-5.8-5.5h-8.9v11.3H768z M785.1,147.3v31.2H781v-31.2H785.1z"/>
	<path d="M788.4,178.5v-31.2h4.1v25.9l17-25.9h4.3v31.2h-4.1v-25.9l-17,25.9H788.4z M797.1,141.3c0,1.9,1,3.6,4.1,3.6
		s4.1-1.7,4.1-3.6h3.8c0,2.2-1.2,6-7.9,6s-7.9-3.8-7.9-6H797.1z"/>
	<path d="M826.8,178.5v-31.2h4.1v16.1l15.1-16.1h4.7l-12,12.6l12.7,18.6h-4.9L836,162.6l-5.1,5.3v10.6H826.8z"/>
	<path d="M853.7,178.5v-31.2h14.2c5.5,0,10.1,2.6,10.1,8.6s-4.6,8.6-10.1,8.6h-10.1v13.9H853.7z M857.8,161.4h9.8c3.4,0,6-1.7,6-5.5
		s-2.6-5.5-6-5.5h-9.8V161.4z"/>
	<path d="M880.1,162.9c0-9.4,5.3-16.3,15.1-16.3s15.1,7,15.1,16.3s-5.3,16.3-15.1,16.3S880.1,172.2,880.1,162.9z M895.2,176.3
		c6,0,10.8-4.3,10.8-13.4c0-9.1-4.8-13.4-10.8-13.4c-6,0-10.8,4.3-10.8,13.4C884.4,172,889.2,176.3,895.2,176.3z"/>
	<path d="M913.2,178.5v-31.2h4.1v25.9l17-25.9h4.3v31.2h-4.1v-25.9l-17,25.9H913.2z M921.9,141.3c0,1.9,1,3.6,4.1,3.6
		s4.1-1.7,4.1-3.6h3.8c0,2.2-1.2,6-7.9,6s-7.9-3.8-7.9-6H921.9z"/>
	<path d="M878.4,99.9l23.1,3.2l-0.4,3.1l-19-2.7l-1.5,10.5l10.7,1.5c5.5,0.8,9.4,3.7,8.5,9.9c-0.9,6.2-5.5,8.2-11,7.4l-14.7-2.1
		L878.4,99.9z M889,129.8c3.3,0.5,6-1.1,6.5-4.9c0.5-3.6-1.6-5.8-4.9-6.3l-10.5-1.5l-1.6,11.2L889,129.8z"/>
	<path d="M906,103.8l22.8,3.2l-0.4,3.1l-18.8-2.6l-1.5,10.5l15.5,2.2l-0.4,3.1l-15.5-2.2l-1.6,11.2l18.8,2.6l-0.4,3.1l-22.8-3.2
		L906,103.8z"/>
	<path d="M931.7,129.5c-0.6,4.3,1.9,7.5,7.3,8.3c5.7,0.8,8.7-1.7,9.2-5.3c0.6-4.5-2.8-6.2-7-6.8L936,125l0.4-3.1l5.2,0.7
		c4.5,0.6,7.5-1.4,8-4.9c0.4-2.6-1.1-5.7-6.8-6.5c-6.2-0.9-8.3,2.5-8.7,5.3l-4-0.6c0.6-4.3,4.6-8.8,13.2-7.6s11,5.9,10.5,10
		c-0.9,6.2-6.9,6.3-6.9,6.3l0,0.2c0,0,6.8,1.4,5.9,8.3c-0.8,5.5-6.3,8.6-13.9,7.5c-7.8-1.1-11.8-5.5-11-11.7L931.7,129.5z"/>
	<path d="M961.4,111.6l7.8,21l11.7-18.2l4.5,0.6L970,138.2c-3.1,4.7-5.9,5.5-8.9,5c-1.4-0.2-2.8-0.6-2.8-0.6l0.5-3.5
		c0,0,0.9,0.3,2.4,0.5c1.7,0.2,3.4,0.3,5.5-3.1l-9.7-25.6L961.4,111.6z"/>
	<path d="M987.3,115.2l6.2,0.9l6.3,27.5l13.6-24.7l6.2,0.9l-4.3,30.9l-4-0.6l3.7-26.6l-14,25.2l-3.8-0.5l-6.5-28.1l-3.7,26.6l-4-0.6
		L987.3,115.2z"/>
	<path d="M1027,120.7l-1.9,13.5l16.6,2.3l1.9-13.5l4,0.6l-4.3,30.9l-4-0.6l2-14.3l-16.6-2.3l-2,14.3l-4-0.6l4.3-30.9L1027,120.7z"/>
	<path d="M1055,124.7l-1.9,13.5l9,1.3c5.5,0.8,9.4,3.7,8.5,9.9c-0.9,6.2-5.5,8.2-11,7.4l-13.1-1.8l4.3-30.9L1055,124.7z
		 M1059.9,153.7c3.3,0.5,6-1.1,6.5-4.9c0.5-3.6-1.6-5.8-4.9-6.3l-8.8-1.2l-1.6,11.2L1059.9,153.7z M1080.7,128.3l-4.3,30.9l-4-0.6
		l4.3-30.9L1080.7,128.3z"/>
	<path d="M1079.7,159.6l4.3-30.9l4,0.6l-3.6,25.7l20.5-23.3l4.3,0.6l-4.3,30.9l-4-0.6l3.6-25.7l-20.5,23.3L1079.7,159.6z
		 M1093.4,124c-0.3,1.9,0.5,3.7,3.5,4.1c3.1,0.4,4.3-1.1,4.5-3l3.8,0.5c-0.3,2.1-2,5.8-8.7,4.8c-6.7-0.9-7.3-4.9-7-7L1093.4,124z"/>
	<path d="M1122,134.1l4,0.6l-3.9,27.8l16.2,2.3l3.9-27.8l4,0.6l-3.9,27.8l4.3,0.6l-1.4,10.2l-4-0.6l1-7.1l-24.5-3.4L1122,134.1z"/>
	<path d="M1148.4,169.3l4.3-30.9l14,2c5.7,0.8,9.4,3.5,8.6,9.2c-0.8,5.7-6.2,6.2-6.2,6.2l0,0.2c0,0,6,2.1,5.1,8.2
		c-0.9,6.2-5.5,8-11.9,7.1L1148.4,169.3z M1156.3,142l-1.5,10.5l10,1.4c3.3,0.5,5.9-0.9,6.5-4.7c0.5-3.6-1.7-5.3-5-5.8L1156.3,142z
		 M1162.8,168.1c3.8,0.5,6.7-0.8,7.2-4.6c0.5-3.8-2.1-6.1-5.6-6.6l-10-1.4l-1.6,11.2L1162.8,168.1z"/>
	<path d="M1180,142.2l22.8,3.2l-0.4,3.1l-18.8-2.6l-1.5,10.5l15.5,2.2l-0.4,3.1l-15.5-2.2l-1.6,11.2l18.8,2.6l-0.4,3.1l-22.8-3.2
		L1180,142.2z"/>
	<path d="M1204.3,148.7l0.4-3.1l25.9,3.6l-0.4,3.1l-10.9-1.5l-3.9,27.8l-4-0.6l3.9-27.8L1204.3,148.7z"/>
	<path d="M1240.3,153l22.7-5.2l0.7,3l-18.7,4.3l2.4,10.3l10.5-2.4c5.4-1.2,10.1,0.1,11.5,6.2c1.4,6.1-2.2,9.6-7.6,10.8l-14.5,3.3
		L1240.3,153z M1260.8,177.1c3.3-0.7,5.2-3.2,4.3-6.9c-0.8-3.5-3.6-4.8-6.8-4.1l-10.3,2.4l2.5,11L1260.8,177.1z"/>
	<path d="M1270.4,146.1l14.7,16.8l4.5-21.2l4.4-1L1288,168c-1.2,5.5-3.5,7.2-6.6,7.9c-1.4,0.3-2.9,0.4-2.9,0.4l-0.8-3.4
		c0,0,1-0.1,2.4-0.4c1.6-0.4,3.2-0.9,4.1-4.9l-18.2-20.5L1270.4,146.1z"/>
	<path d="M1303.3,178L1301,168l0.9-0.2c3.3-0.7,4.7-7.2,1.5-21.5l-1.7-7.3l19.7-4.5l6.3,27.4l4.2-1l2.3,10.1l-4,0.9l-1.6-7
		l-22.9,5.2l1.6,7L1303.3,178z M1323.7,162.8l-5.6-24.3l-11.9,2.7l1.1,4.7c2.5,10.9,2.4,17.9,0,20.7L1323.7,162.8z"/>
	<path d="M1327.8,133l22.5-5.1l0.7,3l-18.5,4.2l2.4,10.3l15.2-3.5l0.7,3l-15.2,3.5l2.5,11l18.5-4.2l0.7,3l-22.5,5.1L1327.8,133z"/>
	<path d="M1360,157.7l-6.9-30.4l4-0.9l6.3,27.4l11.4-2.6l-6.3-27.4l3.9-0.9l6.3,27.4l11.4-2.6l-6.3-27.4l4-0.9l6.9,30.4L1360,157.7z
		"/>
	<path d="M1397.9,149l-6.9-30.4l4-0.9l3,13.3l10.1-2.3c5.4-1.2,10.1,0.1,11.5,6.2c1.4,6.1-2.2,9.6-7.6,10.8L1397.9,149z M1411,142.8
		c3.3-0.7,5.2-3.2,4.3-6.9c-0.8-3.5-3.6-4.8-6.8-4.1l-9.8,2.2l2.5,11L1411,142.8z"/>
	<path d="M1414.3,148.5l3.2,13.3l16.3-3.9l-3.2-13.3l4-1l7.3,30.3l-4,1l-3.4-14l-16.3,3.9l3.4,14l-4,1l-7.3-30.3L1414.3,148.5z"/>
	<path d="M1448.2,140.4l4.7-1.1l19,27.5l-4.2,1l-5-7.4l-13.5,3.2l-1.1,8.9l-4.2,1L1448.2,140.4z M1460.7,157.6l-9.3-13.9l-2,16.6
		L1460.7,157.6z"/>
	<path d="M1479.7,132.1c9.6-2.3,13.9,2.6,15.6,7.6l-4,1c-1.7-5-5.9-7-11-5.8c-5.8,1.4-8.7,6.8-6.7,15.4c2.1,8.6,7.1,12.1,12.9,10.7
		c5.1-1.2,8-4.9,7.2-10.1l4-1c0.8,5.2-0.9,11.6-10.5,13.9c-9.3,2.2-15.6-3.2-17.8-12.5C1467.3,142,1470.4,134.3,1479.7,132.1z"/>
	<path d="M1495.6,132.2l-0.7-3l25.4-6.1l0.7,3l-10.7,2.6l6.6,27.3l-4,1l-6.6-27.3L1495.6,132.2z"/>
	<path d="M1525.8,137.8c-2.2-9.1,1.3-17.1,10.9-19.4s16.3,3.2,18.5,12.3s-1.3,17.1-10.9,19.4S1528,146.9,1525.8,137.8z
		 M1543.6,147.4c5.8-1.4,9.5-6.7,7.4-15.6c-2.1-8.9-7.8-11.9-13.6-10.5c-5.8,1.4-9.5,6.7-7.4,15.6
		C1532.1,145.7,1537.8,148.8,1543.6,147.4z"/>
	<path d="M1560.5,145.5l5.5-15.7c-4.6,0.6-8.5-1-9.8-6.4c-1.5-6.1,2.7-9.5,7.6-10.7l14.5-3.5l7.3,30.3l-4,1l-3.2-13.5l-8.1,1.9
		l-5.2,15.6L1560.5,145.5z M1567.2,126.4l10.3-2.5l-2.6-10.7l-10.3,2.5c-3.3,0.8-5.2,3-4.3,6.7S1563.9,127.2,1567.2,126.4z"/>
	<path d="M1588.7,138.8l-7.3-30.3l4-1l6.6,27.3l11.3-2.7l-6.6-27.3l3.9-0.9l6.6,27.3l11.3-2.7l-6.6-27.3l4-1l6.6,27.3l4.2-1l2.4,10
		l-4,1l-1.7-7L1588.7,138.8z"/>
	<path d="M1626.2,97.7l6,25.2l10.5-29.2l4.2-1l7.3,30.3l-4,1l-6-25.2l-10.5,29.2l-4.2,1l-7.3-30.3L1626.2,97.7z"/>
	<path d="M1650.2,91.9l6.1-1.5l16,23.3l3.6-28l6.1-1.5l7.3,30.3l-4,1l-6.3-26.1l-3.8,28.5l-3.7,0.9l-16.3-23.7l6.3,26.1l-4,1
		L1650.2,91.9z"/>
	<path d="M1642.3,178.9l-15.5-27.1l3.5-2l8,14l5.2-21.5l4-2.3l-4.2,16.9l20.2,9.9l-4.3,2.4l-16.9-8.6l-1.8,7.1l5.2,9.2L1642.3,178.9
		z"/>
	<path d="M1665.7,165.6l-15.5-27.1l12.3-7c4.8-2.7,10.1-2.7,13,2.5c3,5.2,0.3,9.8-4.5,12.5l-8.8,5l6.9,12.1L1665.7,165.6z
		 M1660.8,148.8l8.5-4.9c2.9-1.7,4.4-4.4,2.5-7.8c-1.9-3.3-5-3.5-7.9-1.8l-8.5,4.9L1660.8,148.8z"/>
	<path d="M1676.3,123.7l19,11.8l-1.9-21.6l4-2.3l2.1,27.8c0.4,5.6-1.3,7.9-4,9.5c-1.3,0.7-2.6,1.2-2.6,1.2l-1.7-3
		c0,0,0.9-0.4,2.2-1.1c1.5-0.8,2.8-1.8,2.5-5.8l-23.4-14.3L1676.3,123.7z"/>
	<path d="M1699.7,113.9l-1.5-2.7l22.7-13l1.5,2.7l-9.6,5.5l13.9,24.4l-3.5,2l-13.9-24.4L1699.7,113.9z"/>
	<path d="M1726.5,95l6.8,11.9l7.9-4.5c4.8-2.7,9.7-2.8,12.8,2.6c3.1,5.4,0.6,9.9-4.1,12.6l-11.5,6.5L1723,97L1726.5,95z M1748.1,115
		c2.9-1.7,4.1-4.5,2.1-7.9c-1.8-3.1-4.8-3.6-7.7-1.9l-7.7,4.4l5.6,9.8L1748.1,115z M1749,82.2l15.5,27.1l-3.5,2l-15.5-27.1
		L1749,82.2z"/>
	<path d="M1767.4,107.6l-15.5-27.1l3.5-2l13.9,24.4l10.1-5.8l-13.9-24.4l3.5-2l13.9,24.4l10.1-5.8l-13.9-24.4l3.5-2l15.5,27.1
		L1767.4,107.6z"/>
	<path d="M1793,75c-4.6-8.1-3.5-16.8,5-21.7s16.6-1.4,21.2,6.7c4.6,8.1,3.5,16.8-5,21.7C1805.7,86.6,1797.7,83.1,1793,75z
		 M1812.8,79.2c5.2-3,7.2-9.1,2.7-17c-4.5-7.9-10.8-9.3-16-6.3c-5.2,3-7.2,9.1-2.7,17C1801.3,80.8,1807.6,82.2,1812.8,79.2z"/>
	<path d="M1814.1,45.1l5.4-3.1l21.8,17.9L1837,32l5.4-3.1l15.5,27.1l-3.5,2L1841,34.7l4.4,28.5L1842,65l-22.3-18.2l13.3,23.4l-3.5,2
		L1814.1,45.1z"/>
</g>
<g id="Layer_2">
</g>
</svg>
