<?xml version="1.0" encoding="utf-8"?>
<!-- Generator: Adobe Illustrator 25.0.1, SVG Export Plug-In . SVG Version: 6.00 Build 0)  -->
<svg version="1.1" xmlns="http://www.w3.org/2000/svg" xmlns:xlink="http://www.w3.org/1999/xlink" x="0px" y="0px"
	 viewBox="0 0 1920 192" style="enable-background:new 0 0 1920 192;" xml:space="preserve">
<g id="Layer_1">
	<g>
		<g>
			<path d="M-2081.8-747.9c0,0,0.5,0.1,1.2,0.1c3.4,0,6-2.5,6-18.1v-9.8h20.4v31.2h-4.1v-28.1h-12.5v7.2c0,15.8-2.9,21.1-8.9,21.1
				c-1.2,0-2.2-0.2-2.2-0.2V-747.9z"/>
			<path d="M-2040.3-775.7h4.8l12,31.2h-4.3l-3.1-8.4h-13.9l-3.1,8.4h-4.3L-2040.3-775.7z M-2032-756.1l-5.8-15.6l-5.8,15.6H-2032z"
				/>
			<path d="M-2021.5-775.7h6.2l10.1,26.4l10.1-26.4h6.2v31.2h-4.1v-26.9l-10.3,26.9h-3.8l-10.3-26.9v26.9h-4.1V-775.7z"/>
			<path d="M-1985.5-775.7h25v31.2h-4.1v-28.1h-16.8v28.1h-4.1V-775.7z"/>
			<path d="M-1946.7-775.7h4.8l12,31.2h-4.3l-3.1-8.4h-13.9l-3.1,8.4h-4.3L-1946.7-775.7z M-1938.4-756.1l-5.8-15.6l-5.8,15.6
				H-1938.4z"/>
			<path d="M-1927.8-740.7c2.4,0,3.1-1.2,3.1-3.1v-0.7h-2.2v-4.6h4.1v5.3c0,3.4-1.7,5-4.6,5h-0.5V-740.7z"/>
			<path d="M-1908.7-744.5v-31.2h14.2c5.5,0,10.1,2.6,10.1,8.6c0,6-4.6,8.6-10.1,8.6h-10.1v13.9H-1908.7z M-1904.7-761.6h9.8
				c3.4,0,6-1.7,6-5.5c0-3.8-2.6-5.5-6-5.5h-9.8V-761.6z"/>
			<path d="M-1871.3-775.7h4.8l12,31.2h-4.3l-3.1-8.4h-13.9l-3.1,8.4h-4.3L-1871.3-775.7z M-1863.1-756.1l-5.8-15.6l-5.8,15.6
				H-1863.1z"/>
			<path d="M-1852.6-775.7h23.3v3.1h-19.2v10.6h10.8c5.5,0,9.8,2.4,9.8,8.6c0,6.2-4.3,8.9-9.8,8.9h-14.9V-775.7z M-1837.9-747.7
				c3.4,0,5.8-1.9,5.8-5.8c0-3.6-2.4-5.5-5.8-5.5h-10.6v11.3H-1837.9z"/>
			<path d="M-1825.2-760.1c0-9.4,5.3-16.3,15.1-16.3s15.1,7,15.1,16.3c0,9.4-5.3,16.3-15.1,16.3S-1825.2-750.8-1825.2-760.1z
				 M-1810.1-746.7c6,0,10.8-4.3,10.8-13.4c0-9.1-4.8-13.4-10.8-13.4s-10.8,4.3-10.8,13.4C-1820.9-751-1816.1-746.7-1810.1-746.7z"
				/>
			<path d="M-1793.1-772.6v-3.1h26.2v3.1h-11v28.1h-4.1v-28.1H-1793.1z"/>
			<path d="M-1753.9-775.7h4.8l12,31.2h-4.3l-3.1-8.4h-13.9l-3.1,8.4h-4.3L-1753.9-775.7z M-1745.7-756.1l-5.8-15.6l-5.8,15.6
				H-1745.7z"/>
			<path d="M-1735.2-775.7h4.1v13.7h5.1c0.6-8,5.2-14.4,14.4-14.4c9.8,0,14.4,7.4,14.4,16.3c0,8.9-4.6,16.3-14.4,16.3
				c-9.4,0-14-6.8-14.4-15.1h-5v14.4h-4.1V-775.7z M-1721.8-760.1c0,8.6,4.1,13.4,10.1,13.4s10.1-4.8,10.1-13.4
				c0-8.6-4.1-13.4-10.1-13.4S-1721.8-768.8-1721.8-760.1z"/>
			<path d="M-1694.4-744.5v-31.2h4.1v28.1h11.7v-28.1h4v28.1h11.7v-28.1h4.1v28.1h4.3v10.3h-4.1v-7.2H-1694.4z"/>
			<path d="M-1641.9-775.7h4.8l12,31.2h-4.3l-3.1-8.4h-13.9l-3.1,8.4h-4.3L-1641.9-775.7z M-1633.7-756.1l-5.8-15.6l-5.8,15.6
				H-1633.7z"/>
			<path d="M-1624.3-744.5l9-14c-4.7-0.5-8.1-3-8.1-8.5c0-6.2,4.8-8.6,9.8-8.6h14.9v31.2h-4.1v-13.9h-8.3l-8.7,13.9H-1624.3z
				 M-1613.3-761.6h10.6v-11h-10.6c-3.4,0-5.8,1.7-5.8,5.5C-1619.1-763.3-1616.7-761.6-1613.3-761.6z"/>
			<path d="M-1585.7-775.7h25v31.2h-4.1v-28.1h-16.8v28.1h-4.1V-775.7z"/>
			<path d="M-1557.9-760.1c0-9.4,5.3-16.3,15.1-16.3s15.1,7,15.1,16.3c0,9.4-5.3,16.3-15.1,16.3S-1557.9-750.8-1557.9-760.1z
				 M-1542.7-746.7c6,0,10.8-4.3,10.8-13.4c0-9.1-4.8-13.4-10.8-13.4c-6,0-10.8,4.3-10.8,13.4
				C-1553.5-751-1548.7-746.7-1542.7-746.7z"/>
			<path d="M-1515.1-744.5v-31.2h14.2c5.5,0,10.1,2.6,10.1,8.6c0,6-4.6,8.6-10.1,8.6h-10.1v13.9H-1515.1z M-1511.1-761.6h9.8
				c3.4,0,6-1.7,6-5.5c0-3.8-2.6-5.5-6-5.5h-9.8V-761.6z"/>
			<path d="M-1477.7-775.7h4.8l12,31.2h-4.3l-3.1-8.4h-13.9l-3.1,8.4h-4.3L-1477.7-775.7z M-1469.5-756.1l-5.8-15.6l-5.8,15.6
				H-1469.5z"/>
			<path d="M-1460.2-737.3v-10.3h1c3.4,0,6.2-6,6.2-20.6v-7.4h20.2v28.1h4.3v10.3h-4.1v-7.2h-23.5v7.2H-1460.2z M-1436.9-747.7v-25
				h-12.2v4.8c0,11.2-1.7,18-4.6,20.2H-1436.9z"/>
			<path d="M-1422.3-775.7v25.9l17-25.9h4.3v31.2h-4.1v-25.9l-17,25.9h-4.3v-31.2H-1422.3z"/>
			<path d="M-1398-760.1c0-9.4,5.3-16.3,15.1-16.3s15.1,7,15.1,16.3c0,9.4-5.3,16.3-15.1,16.3S-1398-750.8-1398-760.1z
				 M-1382.9-746.7c6,0,10.8-4.3,10.8-13.4c0-9.1-4.8-13.4-10.8-13.4c-6,0-10.8,4.3-10.8,13.4
				C-1393.7-751-1388.9-746.7-1382.9-746.7z"/>
			<path d="M-1364.9-744.5v-31.2h4.1v16.1l15.1-16.1h4.7l-12,12.6l12.7,18.6h-4.9l-10.4-15.9l-5.1,5.3v10.6H-1364.9z"/>
			<path d="M-1327.5-775.7h4.8l12,31.2h-4.3l-3.1-8.4h-13.9l-3.1,8.4h-4.3L-1327.5-775.7z M-1319.3-756.1l-5.8-15.6l-5.8,15.6
				H-1319.3z"/>
			<path d="M-1304.7-775.7v13.7h16.8v-13.7h4.1v31.2h-4.1v-14.4h-16.8v14.4h-4.1v-31.2H-1304.7z"/>
			<path d="M-1269.9-775.7h4.8l12,31.2h-4.3l-3.1-8.4h-13.9l-3.1,8.4h-4.3L-1269.9-775.7z M-1261.7-756.1l-5.8-15.6l-5.8,15.6
				H-1261.7z"/>
			<path d="M-1252.6-747.9c0,0,0.5,0.1,1.2,0.1c3.4,0,6-2.5,6-18.1v-9.8h20.4v31.2h-4.1v-28.1h-12.5v7.2c0,15.8-2.9,21.1-8.9,21.1
				c-1.2,0-2.2-0.2-2.2-0.2V-747.9z"/>
			<path d="M-1218.5-775.7l10.6,19.7l9.1-19.7h4.6l-12,25.2c-2.4,5.1-5,6.2-8.2,6.2c-1.4,0-2.9-0.2-2.9-0.2v-3.5c0,0,1,0.1,2.4,0.1
				c1.7,0,3.4-0.2,5-3.8l-13.2-24H-1218.5z"/>
			<path d="M-1178.7-775.7v13.7h16.8v-13.7h4.1v31.2h-4.1v-14.4h-16.8v14.4h-4.1v-31.2H-1178.7z"/>
			<path d="M-1143.9-775.7h4.8l12,31.2h-4.3l-3.1-8.4h-13.9l-3.1,8.4h-4.3L-1143.9-775.7z M-1135.7-756.1l-5.8-15.6l-5.8,15.6
				H-1135.7z"/>
			<path d="M-1112-775.7v8.9c0,4.8,1.7,8.2,8.2,8.2c4.8,0,7.7-2.4,7.7-4.3v-12.7h4.1v31.2h-4.1v-14.6c0,0-2.9,3.6-8.9,3.6
				c-7.7,0-11-4.1-11-10.3v-9.8H-1112z"/>
			<path d="M-1078.1-775.7h4.8l12,31.2h-4.3l-3.1-8.4h-13.9l-3.1,8.4h-4.3L-1078.1-775.7z M-1069.9-756.1l-5.8-15.6l-5.8,15.6
				H-1069.9z"/>
			<path d="M-1045.5-776.5c9.8,0,13,5.8,13.4,11h-4.1c-0.5-5.3-4.1-8.2-9.4-8.2c-6,0-10.1,4.6-10.1,13.4c0,8.9,4.1,13.4,10.1,13.4
				c5.3,0,8.9-2.9,9.4-8.2h4.1c-0.5,5.3-3.6,11-13.4,11c-9.6,0-14.4-6.7-14.4-16.3C-1059.9-769.7-1055.1-776.5-1045.5-776.5z"/>
			<path d="M-1030.1-772.6v-3.1h26.2v3.1h-11v28.1h-4.1v-28.1H-1030.1z"/>
			<path d="M-1002-760.1c0-9.4,5.3-16.3,15.1-16.3s15.1,7,15.1,16.3c0,9.4-5.3,16.3-15.1,16.3S-1002-750.8-1002-760.1z
				 M-986.9-746.7c6,0,10.8-4.3,10.8-13.4c0-9.1-4.8-13.4-10.8-13.4c-6,0-10.8,4.3-10.8,13.4C-997.7-751-992.9-746.7-986.9-746.7z"
				/>
			<path d="M-969.9-772.6v-3.1h26.2v3.1h-11v28.1h-4.1v-28.1H-969.9z"/>
			<path d="M-941.3-775.7h23v3.1h-19v10.6h15.6v3.1h-15.6v11.3h19v3.1h-23V-775.7z"/>
			<path d="M-906.3-744.5v-3.1c11.8-9.1,19.7-13,19.7-19.2c0-3.6-2.2-6.7-7.7-6.7c-5,0-7.9,3.1-7.9,8.2h-4.1c0-7.7,5.3-11,12-11
				c6.2,0,12,2.9,12,9.6c0,7.4-9.8,12-19.4,19.2h19.4v3.1H-906.3z"/>
			<path d="M-879.2-740.7c2.4,0,3.1-1.2,3.1-3.1v-0.7h-2.2v-4.6h4.1v5.3c0,3.4-1.7,5-4.6,5h-0.5V-740.7z"/>
			<path d="M-870.5-752.5v-2.6l16.1-20.6h4.8v20.2h5.5v3.1h-5.5v7.9h-4.1v-7.9H-870.5z M-866.3-755.6h12.6v-16.2L-866.3-755.6z"/>
			<path d="M-832.1-744.5v-31.2h21.6v3.1H-828v28.1H-832.1z"/>
			<path d="M-808.1-744.5v-31.2h21.6v3.1H-804v28.1H-808.1z"/>
			<path d="M-784.1-775.7h4.1v28.1h16.3v-28.1h4.1v28.1h4.3v10.3h-4.1v-7.2h-24.7V-775.7z"/>
		</g>
		<path d="M-1786-845.1c9.8,0,13,5.8,13.4,11h-4.1c-0.5-5.3-4.1-8.2-9.4-8.2c-6,0-10.1,4.6-10.1,13.4c0,8.9,4.1,13.4,10.1,13.4
			c5.3,0,8.9-2.9,9.4-8.2h4.1c-0.5,5.3-3.6,11-13.4,11c-9.6,0-14.4-6.7-14.4-16.3C-1800.4-838.4-1795.6-845.1-1786-845.1z"/>
		<path d="M-1769.7-813.2v-31.2h14.2c5.8,0,9.8,2.2,9.8,7.9c0,5.8-5.3,7-5.3,7v0.2c0,0,6.2,1.2,6.2,7.4c0,6.2-4.3,8.6-10.8,8.6
			H-1769.7z M-1765.6-841.3v10.6h10.1c3.4,0,5.8-1.7,5.8-5.5c0-3.6-2.4-5-5.8-5H-1765.6z M-1755.6-816.3c3.8,0,6.5-1.7,6.5-5.5
			s-2.9-5.8-6.5-5.8h-10.1v11.3H-1755.6z"/>
		<path d="M-1742.1-844.4h23v3.1h-19v10.6h15.6v3.1h-15.6v11.3h19v3.1h-23V-844.4z"/>
		<path d="M-1717.2-841.3v-3.1h26.2v3.1h-11v28.1h-4.1v-28.1H-1717.2z"/>
		<path d="M-1689.1-828.8c0-9.4,5.3-16.3,15.1-16.3s15.1,7,15.1,16.3s-5.3,16.3-15.1,16.3S-1689.1-819.4-1689.1-828.8z M-1674-815.3
			c6,0,10.8-4.3,10.8-13.4c0-9.1-4.8-13.4-10.8-13.4c-6,0-10.8,4.3-10.8,13.4C-1684.8-819.7-1680-815.3-1674-815.3z"/>
		<path d="M-1656-813.2v-31.2h14.2c5.8,0,9.8,2.2,9.8,7.9c0,5.8-5.3,7-5.3,7v0.2c0,0,6.2,1.2,6.2,7.4c0,6.2-4.3,8.6-10.8,8.6H-1656z
			 M-1651.9-841.3v10.6h10.1c3.4,0,5.8-1.7,5.8-5.5c0-3.6-2.4-5-5.8-5H-1651.9z M-1641.8-816.3c3.8,0,6.5-1.7,6.5-5.5
			s-2.9-5.8-6.5-5.8h-10.1v11.3H-1641.8z"/>
		<path d="M-1628.8-828.8c0-9.4,5.3-16.3,15.1-16.3s15.1,7,15.1,16.3s-5.3,16.3-15.1,16.3S-1628.8-819.4-1628.8-828.8z
			 M-1613.7-815.3c6,0,10.8-4.3,10.8-13.4c0-9.1-4.8-13.4-10.8-13.4c-6,0-10.8,4.3-10.8,13.4
			C-1624.5-819.7-1619.7-815.3-1613.7-815.3z"/>
		<path d="M-1595.7-813.2v-31.2h4.1v25.9l17-25.9h4.3v31.2h-4.1v-25.9l-17,25.9H-1595.7z M-1587.1-850.4c0,1.9,1,3.6,4.1,3.6
			s4.1-1.7,4.1-3.6h3.8c0,2.2-1.2,6-7.9,6s-7.9-3.8-7.9-6H-1587.1z"/>
		<path d="M-1569.2-883.7l23.9,7.3l-9.2,29.8l-3.9-1.2l8.3-26.8l-16.1-4.9l-8.3,26.8l-3.9-1.2L-1569.2-883.7z"/>
		<path d="M-1547.2-860.6c2.8-8.9,9.8-14,19.3-11.2c9.4,2.9,12.4,11.1,9.7,20c-2.8,8.9-9.8,14-19.3,11.2
			C-1546.9-843.5-1549.9-851.7-1547.2-860.6z M-1536.7-843.3c5.7,1.8,11.6-1,14.3-9.7c2.7-8.7-0.6-14.3-6.4-16
			c-5.7-1.8-11.6,1-14.3,9.7C-1545.7-850.6-1542.4-845.1-1536.7-843.3z"/>
		<path d="M-1512.8-863.1l0.9-3l25,7.7l-0.9,3l-10.6-3.2l-8.3,26.8l-3.9-1.2l8.3-26.8L-1512.8-863.1z"/>
		<path d="M-1489.6-842.9c2.8-8.9,9.8-14,19.3-11.2s12.4,11.1,9.7,20c-2.8,8.9-9.8,14-19.3,11.2
			C-1489.4-825.7-1492.4-834-1489.6-842.9z M-1479.1-825.6c5.7,1.8,11.6-1,14.3-9.7c2.7-8.7-0.6-14.3-6.4-16
			c-5.7-1.8-11.6,1-14.3,9.7C-1488.2-832.9-1484.8-827.4-1479.1-825.6z"/>
		<path d="M-1462.5-818.3l9.2-29.8l3.9,1.2l-4.7,15.4l19.2-10.9l4.5,1.4l-15.2,8.5l6.6,21.5l-4.7-1.4l-5.3-18.2l-6.4,3.6l-3.1,10.1
			L-1462.5-818.3z"/>
		<path d="M-1857.1-811.8c9.8,0,13,5.8,13.4,11h-4.1c-0.5-5.3-4.1-8.2-9.4-8.2c-6,0-10.1,4.6-10.1,13.4c0,8.9,4.1,13.4,10.1,13.4
			c5.3,0,8.9-2.9,9.4-8.2h4.1c-0.5,5.3-3.6,11-13.4,11c-9.6,0-14.4-6.7-14.4-16.3C-1871.5-805.1-1866.7-811.8-1857.1-811.8z"/>
		<path d="M-1840.8-779.9v-31.2h14.2c5.8,0,9.8,2.2,9.8,7.9c0,5.8-5.3,7-5.3,7v0.2c0,0,6.2,1.2,6.2,7.4c0,6.2-4.3,8.6-10.8,8.6
			H-1840.8z M-1836.7-808v10.6h10.1c3.4,0,5.8-1.7,5.8-5.5c0-3.6-2.4-5-5.8-5H-1836.7z M-1826.7-783c3.8,0,6.5-1.7,6.5-5.5
			s-2.9-5.8-6.5-5.8h-10.1v11.3H-1826.7z"/>
		<path d="M-1813.2-811.1h23v3.1h-19v10.6h15.6v3.1h-15.6v11.3h19v3.1h-23V-811.1z"/>
		<path d="M-1788.3-808v-3.1h26.2v3.1h-11v28.1h-4.1V-808H-1788.3z"/>
		<path d="M-1760.2-795.5c0-9.4,5.3-16.3,15.1-16.3s15.1,7,15.1,16.3s-5.3,16.3-15.1,16.3S-1760.2-786.2-1760.2-795.5z
			 M-1745.1-782.1c6,0,10.8-4.3,10.8-13.4c0-9.1-4.8-13.4-10.8-13.4c-6,0-10.8,4.3-10.8,13.4
			C-1755.9-786.4-1751.1-782.1-1745.1-782.1z"/>
		<path d="M-1728.3-772.7V-783h1c3.4,0,6.2-6,6.2-20.6v-7.4h20.2v28.1h4.3v10.3h-4.1v-7.2h-23.5v7.2H-1728.3z M-1705-783v-25h-12.2
			v4.8c0,11.2-1.7,18-4.6,20.2H-1705z"/>
		<path d="M-1690.3-811.1v25.9l17-25.9h4.3v31.2h-4.1v-25.9l-17,25.9h-4.3v-31.2H-1690.3z"/>
		<path d="M-1666.1-795.5c0-9.4,5.3-16.3,15.1-16.3s15.1,7,15.1,16.3s-5.3,16.3-15.1,16.3S-1666.1-786.2-1666.1-795.5z M-1651-782.1
			c6,0,10.8-4.3,10.8-13.4c0-9.1-4.8-13.4-10.8-13.4c-6,0-10.8,4.3-10.8,13.4C-1661.8-786.4-1657-782.1-1651-782.1z"/>
		<path d="M-1634.2-772.7V-783h1c3.4,0,6.2-6,6.2-20.6v-7.4h20.2v28.1h4.3v10.3h-4.1v-7.2h-23.5v7.2H-1634.2z M-1610.9-783v-25
			h-12.2v4.8c0,11.2-1.7,18-4.6,20.2H-1610.9z"/>
		<path d="M-1596.3-811.1v13.7h16.8v-13.7h4.1v31.2h-4.1v-14.4h-16.8v14.4h-4.1v-31.2H-1596.3z"/>
		<path d="M-1572.5-795.5c0-9.4,5.3-16.3,15.1-16.3s15.1,7,15.1,16.3s-5.3,16.3-15.1,16.3S-1572.5-786.2-1572.5-795.5z
			 M-1557.4-782.1c6,0,10.8-4.3,10.8-13.4c0-9.1-4.8-13.4-10.8-13.4c-6,0-10.8,4.3-10.8,13.4
			C-1568.2-786.4-1563.4-782.1-1557.4-782.1z"/>
		<path d="M-1539.4-779.9v-31.2h4.1v25.9l17-25.9h4.3v31.2h-4.1v-25.9l-17,25.9H-1539.4z M-1530.7-817.1c0,1.9,1,3.6,4.1,3.6
			s4.1-1.7,4.1-3.6h3.8c0,2.2-1.2,6-7.9,6s-7.9-3.8-7.9-6H-1530.7z"/>
		<path d="M-1502.4-783.3c0,0,0.5,0.1,1.2,0.1c3.4,0,6-2.5,6-18.1v-9.8h20.4v31.2h-4.1V-808h-12.5v7.2c0,15.8-2.9,21.1-8.9,21.1
			c-1.2,0-2.2-0.2-2.2-0.2V-783.3z"/>
		<path d="M-1460.9-811.1h4.8l12,31.2h-4.3l-3.1-8.4h-13.9l-3.1,8.4h-4.3L-1460.9-811.1z M-1452.7-791.4l-5.8-15.6l-5.8,15.6
			H-1452.7z"/>
		<path d="M-1442.2-811.1h6.2l10.1,26.4l10.1-26.4h6.2v31.2h-4.1v-26.9l-10.3,26.9h-3.8l-10.3-26.9v26.9h-4.1V-811.1z"/>
		<path d="M-1406.2-811.1h25v31.2h-4.1V-808h-16.8v28.1h-4.1V-811.1z"/>
		<path d="M-1373.8-811.1v13.7h9.1c5.5,0,9.8,2.4,9.8,8.6c0,6.2-4.3,8.9-9.8,8.9h-13.2v-31.2H-1373.8z M-1364.9-783
			c3.4,0,5.8-1.9,5.8-5.8c0-3.6-2.4-5.5-5.8-5.5h-8.9v11.3H-1364.9z M-1347.9-811.1v31.2h-4.1v-31.2H-1347.9z"/>
		<path d="M-1331.3-790.2c0.5,5.3,4.1,8.2,9.4,8.2c5.7,0,9.7-4.1,10-12.2h-16.5v-3.1h16.5c-0.5-7.6-4.5-11.5-10-11.5
			c-5.3,0-8.9,2.9-9.4,8.2h-4.1c0.5-5.3,3.6-11,13.4-11c9.6,0,14.4,6.7,14.4,16.3c0,9.6-4.8,16.3-14.4,16.3c-9.8,0-13-5.8-13.4-11
			H-1331.3z"/>
		<path d="M-1304.7-779.9v-31.2h4.1v16.1l15.1-16.1h4.7l-12,12.6l12.7,18.6h-4.9l-10.4-15.9l-5.1,5.3v10.6H-1304.7z"/>
		<path d="M-1277.8-779.9v-31.2h14.2c5.8,0,9.8,2.2,9.8,7.9c0,5.8-5.3,7-5.3,7v0.2c0,0,6.2,1.2,6.2,7.4c0,6.2-4.3,8.6-10.8,8.6
			H-1277.8z M-1273.7-808v10.6h10.1c3.4,0,5.8-1.7,5.8-5.5c0-3.6-2.4-5-5.8-5H-1273.7z M-1263.6-783c3.8,0,6.5-1.7,6.5-5.5
			s-2.9-5.8-6.5-5.8h-10.1v11.3H-1263.6z"/>
		<path d="M-1246.1-811.1v25.9l17-25.9h4.3v31.2h-4.1v-25.9l-17,25.9h-4.3v-31.2H-1246.1z"/>
		<path d="M-1221.4-779.9v-31.2h14.2c5.8,0,9.8,2.2,9.8,7.9c0,5.8-5.3,7-5.3,7v0.2c0,0,6.2,1.2,6.2,7.4c0,6.2-4.3,8.6-10.8,8.6
			H-1221.4z M-1217.3-808v10.6h10.1c3.4,0,5.8-1.7,5.8-5.5c0-3.6-2.4-5-5.8-5H-1217.3z M-1207.2-783c3.8,0,6.5-1.7,6.5-5.5
			s-2.9-5.8-6.5-5.8h-10.1v11.3H-1207.2z"/>
		<path d="M-1183.2-811.1h4.8l12,31.2h-4.3l-3.1-8.4h-13.9l-3.1,8.4h-4.3L-1183.2-811.1z M-1175-791.4l-5.8-15.6l-5.8,15.6H-1175z"
			/>
		<path d="M-1165.9-783.3c0,0,0.5,0.1,1.2,0.1c3.4,0,6-2.5,6-18.1v-9.8h20.4v31.2h-4.1V-808h-12.5v7.2c0,15.8-2.9,21.1-8.9,21.1
			c-1.2,0-2.2-0.2-2.2-0.2V-783.3z"/>
		<path d="M-1135-811.1h23v3.1h-19v10.6h15.6v3.1h-15.6v11.3h19v3.1h-23V-811.1z"/>
		<path d="M-1105-811.1v13.7h16.8v-13.7h4.1v31.2h-4.1v-14.4h-16.8v14.4h-4.1v-31.2H-1105z"/>
		<path d="M-1081.7-808v-3.1h26.2v3.1h-11v28.1h-4.1V-808H-1081.7z"/>
		<path d="M-1053.1-811.1h23v3.1h-19v10.6h15.6v3.1h-15.6v11.3h19v3.1h-23V-811.1z"/>
		<path d="M-1023.1-811.1v13.7h16.8v-13.7h4.1v31.2h-4.1v-14.4h-16.8v14.4h-4.1v-31.2H-1023.1z"/>
		<path d="M-952.5-781.9c0,0,0.5,0.1,1.2,0.1c3.4-0.2,5.8-2.9,4.7-18.5l-0.7-9.8l20.4-1.4l2.1,31.1l-4.1,0.3l-1.9-28l-12.5,0.9
			l0.5,7.2c1.1,15.8-1.4,21.3-7.4,21.7c-1.2,0.1-2.2-0.1-2.2-0.1L-952.5-781.9z"/>
		<path d="M-912.9-812.4l4.8-0.3l14.1,30.3l-4.3,0.3l-3.7-8.2l-13.9,1l-2.5,8.6l-4.3,0.3L-912.9-812.4z M-903.4-793.4l-6.9-15.2
			l-4.7,16L-903.4-793.4z"/>
		<path d="M-894.3-813.7l6.2-0.4l11.9,25.7l8.2-27l6.2-0.4l2.1,31.1l-4.1,0.3l-1.8-26.8l-8.5,27.5l-3.8,0.3l-12.1-26.1l1.8,26.8
			l-4.1,0.3L-894.3-813.7z"/>
		<path d="M-858.4-816.2l24.9-1.7l2.1,31.1l-4.1,0.3l-1.9-28l-16.8,1.1l1.9,28l-4.1,0.3L-858.4-816.2z"/>
		<path d="M-830.1-818.1l23-1.6l0.2,3.1l-18.9,1.3l0.7,10.5l15.6-1.1l0.2,3.1l-15.6,1.1l0.8,11.3l18.9-1.3l0.2,3.1l-23,1.6
			L-830.1-818.1z"/>
		<path d="M-790.6-820.8l0.9,13.6l16.8-1.1l-0.9-13.6l4.1-0.3l2.1,31.1l-4.1,0.3l-1-14.4l-16.8,1.1l1,14.4l-4.1,0.3l-2.1-31.1
			L-790.6-820.8z"/>
		<path d="M-755.9-823.2l4.8-0.3l14.1,30.3l-4.3,0.3l-3.7-8.2l-13.9,1l-2.5,8.6l-4.3,0.3L-755.9-823.2z M-746.3-804.1l-6.9-15.2
			l-4.7,16L-746.3-804.1z"/>
		<path d="M-735.1-793.4l-2.1-31.1l4.1-0.3l1.1,16l14-17.1l4.6-0.3l-11.2,13.4l13.9,17.7l-4.9,0.3l-11.5-15.1l-4.7,5.7l0.7,10.5
			L-735.1-793.4z"/>
		<path d="M-699.9-827l4.8-0.3l14.1,30.3l-4.3,0.3l-3.7-8.2l-13.9,1l-2.5,8.6l-4.3,0.3L-699.9-827z M-690.3-808l-6.9-15.2l-4.7,16
			L-690.3-808z"/>
		<path d="M-680.7-800.5c0,0,0.5,0.1,1.2,0.1c3.4-0.2,5.8-2.9,4.7-18.5l-0.7-9.8l20.4-1.4l2.1,31.1l-4.1,0.3l-1.9-28l-12.5,0.9
			l0.5,7.2c1.1,15.8-1.4,21.3-7.4,21.7c-1.2,0.1-2.2-0.1-2.2-0.1L-680.7-800.5z"/>
		<path d="M-647.7-830.6l1.8,25.9l15.2-27l4.3-0.3l2.1,31.1l-4.1,0.3l-1.8-25.9l-15.2,27l-4.3,0.3l-2.1-31.1L-647.7-830.6z"/>
		<path d="M-620.9-801.2l-2.1-31.1l14.1-1c5.7-0.4,10,1.5,10.4,7.2c0.4,5.7-4.8,7.3-4.8,7.3l0,0.2c0,0,6.3,0.8,6.7,7
			c0.4,6.2-3.7,8.9-10.2,9.4L-620.9-801.2z M-618.7-829.5l0.7,10.5l10.1-0.7c3.4-0.2,5.6-2.1,5.4-5.9c-0.2-3.6-2.7-4.9-6.1-4.6
			L-618.7-829.5z M-606.9-805.3c3.8-0.3,6.4-2.1,6.1-6c-0.3-3.8-3.3-5.6-6.9-5.3l-10.1,0.7l0.8,11.3L-606.9-805.3z"/>
		<path d="M-584.9-834.9l4.8-0.3L-566-805l-4.3,0.3l-3.7-8.2l-13.9,1l-2.5,8.6l-4.3,0.3L-584.9-834.9z M-575.4-815.9l-6.9-15.2
			l-4.7,16L-575.4-815.9z"/>
		<path d="M-562.2-836.5l0.9,13.6l16.8-1.1l-0.9-13.6l4.1-0.3l2.1,31.1l-4.1,0.3l-1-14.4l-16.8,1.1l1,14.4l-4.1,0.3l-2.1-31.1
			L-562.2-836.5z"/>
		<path d="M-533.9-838.4l1.8,25.9l15.2-27l4.3-0.3l2.1,31.1l-4.1,0.3l-1.8-25.9l-15.2,27l-4.3,0.3l-2.1-31.1L-533.9-838.4z"/>
		<path d="M-508.3-808.9l8-14.6c-4.7-0.2-8.2-2.4-8.6-8c-0.4-6.2,4.2-8.9,9.2-9.3l14.8-1l2.1,31.1l-4.1,0.3l-1-13.9l-8.3,0.6
			l-7.8,14.5L-508.3-808.9z M-498.5-826.7l10.5-0.7l-0.8-11l-10.5,0.7c-3.4,0.2-5.6,2.1-5.4,5.9
			C-504.3-827.9-501.8-826.4-498.5-826.7z"/>
		<path d="M-704.8-776.1l6.2-0.8l13.4,24.9l6.6-27.5l6.2-0.8l4,30.9l-4,0.5l-3.5-26.7l-6.8,28l-3.8,0.5l-13.7-25.3l3.5,26.7l-4,0.5
			L-704.8-776.1z"/>
		<path d="M-667.6-765.2c-1.2-9.3,3.1-16.9,12.9-18.1c9.8-1.3,15.9,5,17.1,14.2c1.2,9.3-3.1,16.9-12.9,18.1
			C-660.2-749.7-666.4-755.9-667.6-765.2z M-650.8-753.8c6-0.8,10.2-5.7,9-14.7c-1.2-9-6.5-12.7-12.4-11.9c-6,0.8-10.2,5.7-9,14.7
			C-662.1-756.7-656.8-753.1-650.8-753.8z"/>
		<path d="M-632.7-754l-4-30.9l4-0.5l3.6,27.8l11.6-1.5l-3.6-27.8l4-0.5l3.6,27.8l11.6-1.5l-3.6-27.8l4-0.5l3.6,27.8l4.3-0.6
			l1.3,10.2l-4,0.5l-0.9-7.1L-632.7-754z"/>
		<path d="M-591-790.9l1.8,13.6l16.7-2.2l-1.8-13.6l4-0.5l4,30.9l-4,0.5l-1.8-14.3l-16.7,2.2l1.8,14.3l-4,0.5l-4-30.9L-591-790.9z"
			/>
		<path d="M-565.5-778.4c-1.2-9.3,3.1-16.9,12.9-18.1c9.8-1.3,15.9,5,17.1,14.2c1.2,9.3-3.1,16.9-12.9,18.1
			C-558.1-762.9-564.2-769.2-565.5-778.4z M-548.7-767c6-0.8,10.2-5.7,9-14.7c-1.2-9-6.5-12.7-12.4-11.9c-6,0.8-10.2,5.7-9,14.7
			C-560-769.9-554.7-766.3-548.7-767z"/>
		<path d="M-520.9-800.7c9.8-1.3,13.6,4,14.7,9.2l-4,0.5c-1.2-5.2-5.1-7.6-10.3-6.9c-6,0.8-9.4,5.8-8.3,14.6
			c1.1,8.8,5.8,12.8,11.7,12c5.2-0.7,8.4-4,8.2-9.3l4-0.5c0.2,5.3-2.2,11.4-11.9,12.7c-9.5,1.2-15.1-4.8-16.4-14.3
			C-534.3-792.1-530.4-799.4-520.9-800.7z"/>
		<path d="M-505.2-798.8l-0.4-3.1l25.9-3.4l0.4,3.1l-10.9,1.4l3.6,27.8l-4,0.5l-3.6-27.8L-505.2-798.8z"/>
		<path d="M-473.2-774.6l-4-30.9l4-0.5l1.8,13.6l10.2-1.3c5.5-0.7,10.1,1.1,10.9,7.3c0.8,6.2-3.1,9.4-8.6,10.1L-473.2-774.6z
			 M-459.6-779.6c3.3-0.4,5.5-2.6,5-6.5c-0.5-3.6-3.1-5.2-6.4-4.7l-10,1.3l1.4,11.2L-459.6-779.6z"/>
		<path d="M-450.1-809.1l4-0.5l1.8,13.6l5-0.7c-0.4-8,3.3-15,12.4-16.1c9.8-1.3,15.2,5.5,16.4,14.3c1.1,8.8-2.4,16.8-12.2,18
			c-9.3,1.2-14.7-4.9-16.2-13.1l-5,0.6l1.8,14.3l-4,0.5L-450.1-809.1z M-434.8-795.4c1.1,8.6,5.8,12.8,11.7,12
			c6-0.8,9.4-6.1,8.3-14.6c-1.1-8.6-5.8-12.8-11.7-12C-432.5-809.2-435.9-803.9-434.8-795.4z"/>
		<path d="M-398.4-798.6c-1.4-11.2,2-18.2,10.8-19.3c8.3-1.1,12.1,3.8,12.6,7.8l-4,0.5c-0.4-2.9-3-6.1-8.2-5.5
			c-5.9,0.8-8.4,6.2-7.6,13.8l0.2,0c0,0,2.2-5.4,8.9-6.2c7.4-1,12.5,3.2,13.3,9.2c0.9,6.7-4,11.9-10.9,12.8
			C-391.3-784.5-397.1-788.4-398.4-798.6z M-393.4-795.4c0.7,5.5,5.1,7.6,9.4,7c4.3-0.6,8-3.7,7.3-9.2c-0.7-5.5-5.1-7.6-9.4-7
			C-390.4-804-394.1-800.9-393.4-795.4z"/>
		<path d="M-370.8-803.6c-1.4-10.5,3.6-16.9,11-17.9c7.4-1,13.8,4,15.2,14.5c1.4,10.5-3.6,16.9-11,17.9S-369.4-793.2-370.8-803.6z
			 M-355.9-792c4-0.5,8.4-4.2,7.1-14.5c-1.3-10.2-6.5-12.7-10.5-12.2c-4,0.5-8.4,4.2-7.1,14.5C-365.1-794-360-791.5-355.9-792z"/>
		<path d="M-330.2-793.2l-4-30.9l14-1.8c5.7-0.7,10,0.9,10.8,6.6c0.7,5.7-4.3,7.6-4.3,7.6l0,0.2c0,0,6.3,0.4,7.1,6.6
			c0.8,6.2-3.2,9.1-9.6,10L-330.2-793.2z M-329.8-821.5l1.4,10.5l10-1.3c3.3-0.4,5.5-2.4,5-6.2c-0.5-3.6-3-4.7-6.4-4.3L-329.8-821.5
			z M-316.6-798.1c3.8-0.5,6.2-2.5,5.7-6.3c-0.5-3.8-3.6-5.3-7.2-4.9l-10,1.3l1.4,11.2L-316.6-798.1z"/>
		<path d="M-307.4-824.4l-0.4-3.1l25.9-3.4l0.4,3.1l-10.9,1.4l3.6,27.8l-4,0.5l-3.6-27.8L-307.4-824.4z"/>
	</g>
	<path d="M64.1,52.9c0.4,4.3,3.5,6.9,9,6.4c5.7-0.5,8.1-3.6,7.8-7.2c-0.4-4.5-4.1-5.4-8.4-5l-5.3,0.5l-0.3-3.1l5.3-0.5
		c4.5-0.4,7-3,6.7-6.6c-0.2-2.6-2.4-5.3-8.1-4.8c-6.2,0.5-7.6,4.3-7.3,7.1l-4.1,0.4c-0.4-4.3,2.5-9.6,11.1-10.4
		c8.6-0.8,12.1,3.3,12.4,7.3c0.5,6.2-5.4,7.7-5.4,7.7l0,0.2c0,0,7-0.1,7.6,6.8c0.5,5.5-4.2,9.8-11.9,10.4c-7.9,0.7-12.8-2.7-13.3-9
		L64.1,52.9z"/>
	<path d="M86.7,44.7c-0.8-9.3,3.8-16.7,13.6-17.6S116,32.7,116.8,42c0.8,9.3-3.8,16.7-13.6,17.6C93.4,60.5,87.5,54,86.7,44.7z
		 M102.9,56.8c6-0.5,10.4-5.2,9.6-14.3c-0.8-9.1-6-13-11.9-12.4S90.2,35.2,91,44.3C91.8,53.4,97,57.3,102.9,56.8z"/>
	<path d="M122.4,25.9l1.2,13.6l16.7-1.5l-1.2-13.6l4.1-0.4l2.7,31.1l-4.1,0.4l-1.3-14.3l-16.7,1.5l1.3,14.3l-4.1,0.4l-2.7-31.1
		L122.4,25.9z"/>
	<path d="M145.9,27l-0.3-3.1l26.1-2.3l0.3,3.1l-11,1l2.4,28l-4.1,0.4l-2.4-28L145.9,27z"/>
	<path d="M63.4,74.1l2.5,13.4l16.5-3.1L79.9,71l4-0.8l5.8,30.7l-4,0.8L83,87.5l-16.5,3.1l2.7,14.2l-4,0.8l-5.8-30.7L63.4,74.1z"/>
	<path d="M87.2,69.6l22.6-4.3l0.6,3.1l-18.6,3.5l2,10.4l15.3-2.9l0.6,3.1l-15.3,2.9l2.1,11.1L115,93l0.6,3.1L93,100.3L87.2,69.6z"/>
	<path d="M126.2,61.6c9.7-1.8,13.8,3.3,15.2,8.4l-4,0.8c-1.4-5.1-5.5-7.3-10.7-6.3c-5.9,1.1-9.1,6.3-7.4,15.1
		c1.6,8.7,6.5,12.5,12.4,11.3c5.2-1,8.2-4.5,7.7-9.7l4-0.8c0.5,5.3-1.5,11.5-11.2,13.3c-9.4,1.8-15.4-3.9-17.2-13.4
		C113.3,70.8,116.8,63.3,126.2,61.6z"/>
	<path d="M144.8,74.7c-1.7-9.2,2.2-17,11.8-18.8c9.7-1.8,16.1,4,17.9,13.2c1.7,9.2-2.2,17-11.8,18.8C153,89.7,146.5,83.9,144.8,74.7
		z M162.2,85.1c5.9-1.1,9.8-6.2,8.1-15.2c-1.7-9-7.2-12.3-13.1-11.2c-5.9,1.1-9.8,6.2-8.1,15.2C150.7,82.8,156.3,86.2,162.2,85.1z"
		/>
	<path d="M174.5,53.2l6.1-1.2l14.8,24.1l5-27.8l6.1-1.2l5.8,30.7l-4,0.8l-5-26.4l-5.2,28.3l-3.8,0.7l-15.1-24.5l5,26.4l-4,0.8
		L174.5,53.2z"/>
	<path d="M213.9,45.8l2.5,13.4l16.5-3.1l-2.5-13.4l4-0.8l5.8,30.7l-4,0.8l-2.7-14.2L217,62.3l2.7,14.2l-4,0.8l-5.8-30.7L213.9,45.8z
		"/>
	<path d="M237.7,41.3l22.6-4.3l0.6,3.1l-18.6,3.5l2,10.4l15.3-2.9l0.6,3.1l-15.3,2.9l2.1,11.1l18.6-3.5l0.6,3.1L243.4,72L237.7,41.3
		z"/>
	<path d="M267.2,35.8l2.5,13.4l16.5-3.1l-2.5-13.4l4-0.8l5.8,30.7l-4,0.8l-2.7-14.2l-16.5,3.1l2.7,14.2l-4,0.8l-5.8-30.7L267.2,35.8
		z"/>
	<path d="M295,30.6l2.5,13.4l16.5-3.1l-2.5-13.4l4-0.8l5.8,30.7l-4,0.8L314.6,44l-16.5,3.1l2.7,14.2l-4,0.8L291,31.3L295,30.6z"/>
	<path d="M321.2,41.5c-1.7-9.2,2.2-17,11.8-18.8c9.7-1.8,16.1,4,17.9,13.2c1.7,9.2-2.2,17-11.8,18.8C329.4,56.6,323,50.7,321.2,41.5
		z M338.6,51.9c5.9-1.1,9.8-6.2,8.1-15.2c-1.7-9-7.2-12.3-13.1-11.2c-5.9,1.1-9.8,6.2-8.1,15.2C327.2,49.7,332.7,53,338.6,51.9z"/>
	<path d="M58.9,152.3l23.2-9.1l11.4,29l-3.8,1.5l-10.3-26.1l-15.6,6.2l10.3,26.1l-3.8,1.5L58.9,152.3z"/>
	<path d="M90.5,156.6c-3.4-8.7-1.1-17.1,8.1-20.7s16.6,0.9,20.1,9.6c3.4,8.7,1.1,17.1-8.1,20.7C101.4,169.9,93.9,165.3,90.5,156.6z
		 M109.5,163.6c5.6-2.2,8.5-8,5.1-16.5c-3.3-8.5-9.4-10.7-15-8.5c-5.6,2.2-8.5,8-5.1,16.5C97.9,163.5,103.9,165.8,109.5,163.6z"/>
	<path d="M128.6,166.1l-3.8-9.6l0.9-0.4c3.1-1.2,3.6-7.9-1.8-21.5l-2.7-6.9l18.8-7.4l10.3,26.1l4-1.6l3.8,9.6l-3.8,1.5l-2.6-6.7
		l-21.9,8.6l2.6,6.7L128.6,166.1z M146.4,148l-9.1-23.2l-11.4,4.5l1.8,4.5c4.1,10.4,5,17.4,3.1,20.4L146.4,148z"/>
	<path d="M149.8,116.5l5,12.7l15.6-6.2l-5-12.7l3.8-1.5l11.4,29l-3.8,1.5l-5.3-13.4l-15.6,6.2l5.3,13.4l-3.8,1.5L146,118
		L149.8,116.5z"/>
	<path d="M176.1,106.1l9.5,24.1l6.4-30.4l4-1.6l11.4,29l-3.8,1.5l-9.5-24.1l-6.4,30.4l-4,1.6l-11.4-29L176.1,106.1z"/>
	<path d="M199.1,97.1l5.8-2.3l19.1,20.9l-0.3-28.3l5.8-2.3l11.4,29l-3.8,1.5l-9.9-25l0.3,28.8l-3.6,1.4l-19.5-21.2l9.9,25l-3.8,1.5
		L199.1,97.1z"/>
	<path d="M232.6,83.9l21.4-8.4l1.1,2.9l-17.6,6.9l3.9,9.8l14.5-5.7l1.1,2.9L242.6,98l4.1,10.5l17.6-6.9l1.1,2.9l-21.4,8.4
		L232.6,83.9z"/>
	<path d="M257,77.6l-1.1-2.9l24.3-9.6l1.1,2.9l-10.3,4l10.3,26.1l-3.8,1.5l-10.3-26.1L257,77.6z"/>
	<path d="M272.4,103.6v13.7h16.8v-13.7h4.1v31.2h-4.1v-14.4h-16.8v14.4h-4.1v-31.2H272.4z"/>
	<path d="M307.2,103.6h4.8l12,31.2h-4.3l-3.1-8.4h-13.9l-3.1,8.4h-4.3L307.2,103.6z M315.4,123.2l-5.8-15.6l-5.8,15.6H315.4z"/>
	<path d="M339.9,102.8c9.8,0,13,5.8,13.4,11h-4.1c-0.5-5.3-4.1-8.2-9.4-8.2c-6,0-10.1,4.6-10.1,13.4c0,8.9,4.1,13.4,10.1,13.4
		c5.3,0,8.9-2.9,9.4-8.2h4.1c-0.5,5.3-3.6,11-13.4,11c-9.6,0-14.4-6.7-14.4-16.3C325.5,109.6,330.3,102.8,339.9,102.8z"/>
	<path d="M355.2,106.7v-3.1h26.2v3.1h-11v28.1h-4.1v-28.1H355.2z"/>
	<path d="M383.8,134.8v-31.2h14.2c5.5,0,10.1,2.6,10.1,8.6s-4.6,8.6-10.1,8.6h-10.1v13.9H383.8z M387.9,117.7h9.8c3.4,0,6-1.7,6-5.5
		s-2.6-5.5-6-5.5h-9.8V117.7z"/>
	<path d="M410.2,119.2c0-9.4,5.3-16.3,15.1-16.3s15.1,7,15.1,16.3c0,9.4-5.3,16.3-15.1,16.3S410.2,128.5,410.2,119.2z M425.3,132.6
		c6,0,10.8-4.3,10.8-13.4c0-9.1-4.8-13.4-10.8-13.4c-6,0-10.8,4.3-10.8,13.4C414.5,128.3,419.3,132.6,425.3,132.6z"/>
	<path d="M443.3,103.6h23v3.1h-19v10.6H463v3.1h-15.6v11.3h19v3.1h-23V103.6z"/>
	<path d="M473.3,103.6v13.7h16.8v-13.7h4.1v31.2h-4.1v-14.4h-16.8v14.4h-4.1v-31.2H473.3z"/>
	<path d="M501.6,103.6v25.9l17-25.9h4.3v31.2h-4.1v-25.9l-17,25.9h-4.3v-31.2H501.6z"/>
	<path d="M526.3,103.6h23v3.1h-19v10.6H546v3.1h-15.6v11.3h19v3.1h-23V103.6z"/>
	<path d="M560.7,142v-10.3h1c3.4,0,6.2-6,6.2-20.6v-7.4H588v28.1h4.3V142h-4.1v-7.2h-23.5v7.2H560.7z M583.9,131.6v-25h-12.2v4.8
		c0,11.2-1.7,18-4.6,20.2H583.9z"/>
	<path d="M605.1,103.6h4.8l12,31.2h-4.3l-3.1-8.4h-13.9l-3.1,8.4h-4.3L605.1,103.6z M613.3,123.2l-5.8-15.6l-5.8,15.6H613.3z"/>
	<path d="M622.8,134.8l14.2-16.6l-14.2-14.6h4.8l13,13.9v-13.9h4.1v13.9l13-13.9h4.8l-14.2,14.6l14.2,16.6h-5.3l-12.5-15.4v15.4
		h-4.1v-15.4l-12.5,15.4H622.8z"/>
	<path d="M664.8,103.6h23v3.1h-19v10.6h15.6v3.1h-15.6v11.3h19v3.1h-23V103.6z"/>
	<path d="M284.4,175.3l3.4-31l14.1,1.6c5.7,0.6,9.5,3.2,8.9,9c-0.6,5.7-6,6.3-6,6.3l0,0.2c0,0,6.1,1.9,5.4,8.1
		c-0.7,6.2-5.2,8.1-11.7,7.4L284.4,175.3z M291.6,147.9l-1.2,10.5l10,1.1c3.3,0.4,5.9-1,6.3-4.9c0.4-3.6-1.8-5.3-5.2-5.6
		L291.6,147.9z M298.8,173.8c3.8,0.4,6.6-1,7-4.8c0.4-3.8-2.2-6-5.8-6.4l-10-1.1l-1.2,11.2L298.8,173.8z"/>
	<path d="M375.4,142v13.7h16.8V142h4.1v31.2h-4.1v-14.4h-16.8v14.4h-4.1V142H375.4z"/>
	<path d="M399.6,142h23v3.1h-19v10.6h15.6v3.1h-15.6V170h19v3.1h-23V142z"/>
	<path d="M425.5,142h25v31.2h-4.1v-28.1h-16.8v28.1h-4.1V142z"/>
	<path d="M453.4,157.6c0-9.4,5.3-16.3,15.1-16.3s15.1,7,15.1,16.3c0,9.4-5.3,16.3-15.1,16.3S453.4,166.9,453.4,157.6z M468.5,171
		c6,0,10.8-4.3,10.8-13.4c0-9.1-4.8-13.4-10.8-13.4c-6,0-10.8,4.3-10.8,13.4C457.7,166.7,462.5,171,468.5,171z"/>
	<path d="M486.5,173.2V142h21.6v3.1h-17.5v28.1H486.5z"/>
	<path d="M510,157.6c0-9.4,5.3-16.3,15.1-16.3s15.1,7,15.1,16.3c0,9.4-5.3,16.3-15.1,16.3S510,166.9,510,157.6z M525.1,171
		c6,0,10.8-4.3,10.8-13.4c0-9.1-4.8-13.4-10.8-13.4c-6,0-10.8,4.3-10.8,13.4C514.3,166.7,519.1,171,525.1,171z"/>
	<path d="M542.2,173.2l14.2-16.6L542.2,142h4.8l13,13.9V142h4.1v13.9l13-13.9h4.8l-14.2,14.6l14.2,16.6h-5.3L564,157.8v15.4h-4.1
		v-15.4l-12.5,15.4H542.2z"/>
	<path d="M588.3,142v25.9l17-25.9h4.3v31.2h-4.1v-25.9l-17,25.9h-4.3V142H588.3z"/>
	<path d="M613,173.2V142h4.1v25.9l17-25.9h4.3v31.2h-4.1v-25.9l-17,25.9H613z M621.6,136c0,1.9,1,3.6,4.1,3.6s4.1-1.7,4.1-3.6h3.8
		c0,2.2-1.2,6-7.9,6s-7.9-3.8-7.9-6H621.6z"/>
	<path d="M650.2,180.4V170h1c3.4,0,6.2-6,6.2-20.6V142h20.2V170h4.3v10.3h-4.1v-7.2h-23.5v7.2H650.2z M673.5,170v-25h-12.2v4.8
		c0,11.2-1.7,18-4.6,20.2H673.5z"/>
	<path d="M684,142h23v3.1h-19v10.6h15.6v3.1h-15.6V170h19v3.1h-23V142z"/>
	<path d="M714,142v13.7h16.8V142h4.1v31.2h-4.1v-14.4H714v14.4h-4.1V142H714z"/>
	<path d="M738.3,173.2V142h4.1v13.7h10.3c5.5,0,9.8,2.4,9.8,8.6c0,6.2-4.3,8.9-9.8,8.9H738.3z M752.4,170c3.4,0,5.8-1.9,5.8-5.8
		c0-3.6-2.4-5.5-5.8-5.5h-10.1V170H752.4z"/>
	<path d="M834.2,180.3l-3-31.1l14.1-1.4c5.5-0.5,10.3,1.7,10.9,7.6c0.6,6-3.7,9-9.2,9.6l-10,1l1.3,13.9L834.2,180.3z M836.6,162.9
		l9.8-0.9c3.3-0.3,5.8-2.2,5.4-6.1c-0.4-3.8-3.2-5.2-6.5-4.9l-9.8,0.9L836.6,162.9z"/>
	<path d="M861,146.3l12.4,18.6l7.1-20.5l4.5-0.4l-9.5,26.2c-1.9,5.3-4.4,6.7-7.5,7c-1.4,0.1-2.9,0-2.9,0l-0.3-3.5c0,0,1,0.1,2.4-0.1
		c1.7-0.2,3.3-0.5,4.7-4.3l-15.4-22.6L861,146.3z"/>
	<path d="M890.6,143.5l0.9,8.8c0.5,4.8,2.5,8,8.9,7.3c4.8-0.5,7.4-3.1,7.2-5l-1.2-12.7l4.1-0.4l3,31.1l-4.1,0.4l-1.4-14.6
		c0,0-2.5,3.9-8.5,4.4c-7.6,0.7-11.4-3-12-9.2l-0.9-9.8L890.6,143.5z"/>
	<path d="M916.8,172.3l-3-31.1l4.1-0.4l1.5,16l13.5-17.5l4.6-0.4l-10.8,13.7l14.4,17.3l-4.9,0.5l-11.9-14.8l-4.6,5.8l1,10.5
		L916.8,172.3z"/>
	<path d="M951.1,137.7l4.8-0.5l14.9,29.9l-4.3,0.4l-3.9-8.1l-13.9,1.3l-2.3,8.7l-4.3,0.4L951.1,137.7z M961.1,156.5l-7.3-15
		l-4.3,16.1L961.1,156.5z"/>
	<path d="M982.3,166l-3-31.1l14.1-1.4c5.7-0.6,10,1.2,10.6,6.9c0.6,5.7-4.6,7.4-4.6,7.4l0,0.2c0,0,6.3,0.6,6.9,6.8
		c0.6,6.2-3.5,9-9.9,9.6L982.3,166z M983.6,137.7l1,10.5l10-1c3.3-0.3,5.6-2.2,5.2-6c-0.3-3.6-2.9-4.8-6.2-4.5L983.6,137.7z
		 M996.1,161.6c3.8-0.4,6.3-2.3,5.9-6.1c-0.4-3.8-3.4-5.5-7-5.1l-10,1l1.1,11.2L996.1,161.6z"/>
	<path d="M1010.8,131.9l1.3,13.6l9.1-0.9c5.5-0.5,10,1.4,10.6,7.7c0.6,6.2-3.4,9.3-8.9,9.8l-13.1,1.3l-3-31.1L1010.8,131.9z
		 M1022.3,159c3.3-0.3,5.5-2.5,5.2-6.3c-0.3-3.6-2.9-5.3-6.3-4.9l-8.8,0.9l1.1,11.2L1022.3,159z M1036.6,129.5l3,31.1l-4.1,0.4
		l-3-31.1L1036.6,129.5z"/>
	<path d="M1040,129.1l24.8-2.4l3,31.1l-4.1,0.4l-2.7-28l-16.7,1.6l2.7,28l-4.1,0.4L1040,129.1z"/>
	<path d="M1069.2,142c-0.9-9.3,3.7-16.8,13.5-17.7c9.8-0.9,15.7,5.5,16.6,14.8c0.9,9.3-3.7,16.8-13.5,17.7
		C1076,157.7,1070.1,151.3,1069.2,142z M1085.5,153.9c6-0.6,10.3-5.3,9.5-14.4c-0.9-9.1-6.1-12.9-12-12.3c-6,0.6-10.3,5.3-9.5,14.4
		C1074.3,150.7,1079.5,154.5,1085.5,153.9z"/>
	<path d="M1101.9,151.1c0,0,0.5,0.1,1.2,0c3.3-0.3,5.7-3.1,4.2-18.6l-0.9-9.8l20.3-2l3,31.1l-4.1,0.4l-2.7-28l-12.4,1.2l0.7,7.2
		c1.5,15.8-0.8,21.3-6.8,21.9c-1.2,0.1-2.2,0-2.2,0L1101.9,151.1z"/>
	<path d="M1134.1,120.1l1.3,13.6l16.7-1.6l-1.3-13.6l4.1-0.4l3,31.1l-4.1,0.4l-1.4-14.3l-16.7,1.6l1.4,14.3l-4.1,0.4l-3-31.1
		L1134.1,120.1z"/>
	<path d="M1158.2,117.8l22.9-2.2l0.3,3.1l-18.9,1.8l1,10.5l15.5-1.5l0.3,3.1l-15.5,1.5l1.1,11.2l18.9-1.8l0.3,3.1l-22.9,2.2
		L1158.2,117.8z"/>
	<path d="M1188.1,114.9l1.3,13.6l16.7-1.6l-1.3-13.6l4.1-0.4l3,31.1l-4.1,0.4l-1.4-14.3l-16.7,1.6l1.4,14.3l-4.1,0.4l-3-31.1
		L1188.1,114.9z"/>
	<path d="M1222.7,111.5l4.8-0.5l14.9,29.9l-4.3,0.4l-3.9-8.1l-13.9,1.3l-2.3,8.7l-4.3,0.4L1222.7,111.5z M1232.8,130.4l-7.3-15
		l-4.3,16.1L1232.8,130.4z"/>
	<path d="M1242.5,142.6v25.9l17-25.9h4.3v31.2h-4.1v-25.9l-17,25.9h-4.3v-31.2H1242.5z"/>
	<path d="M1270.4,164.4c0,4.3,2.9,7.2,8.4,7.2c5.8,0,8.4-2.9,8.4-6.5c0-4.6-3.6-5.8-7.9-5.8h-5.3v-3.1h5.3c4.6,0,7.2-2.4,7.2-6
		c0-2.6-1.9-5.5-7.7-5.5c-6.2,0-7.9,3.6-7.9,6.5h-4.1c0-4.3,3.4-9.4,12-9.4s11.8,4.3,11.8,8.4c0,6.2-6,7.2-6,7.2v0.2
		c0,0,7,0.5,7,7.4c0,5.5-5,9.4-12.7,9.4c-7.9,0-12.5-3.8-12.5-10.1H1270.4z"/>
	<path d="M1303.3,158.2c0-9.4,5.3-16.3,15.1-16.3s15.1,7,15.1,16.3c0,9.4-5.3,16.3-15.1,16.3S1303.3,167.5,1303.3,158.2z
		 M1318.4,171.6c6,0,10.8-4.3,10.8-13.4c0-9.1-4.8-13.4-10.8-13.4c-6,0-10.8,4.3-10.8,13.4C1307.6,167.3,1312.4,171.6,1318.4,171.6z
		"/>
	<path d="M1336.4,142.6h23.3v3.1h-19.2v10.6h10.8c5.5,0,9.8,2.4,9.8,8.6c0,6.2-4.3,8.9-9.8,8.9h-14.9V142.6z M1351,170.6
		c3.4,0,5.8-1.9,5.8-5.8c0-3.6-2.4-5.5-5.8-5.5h-10.6v11.3H1351z"/>
	<path d="M1364.2,173.8v-31.2h14.2c5.5,0,10.1,2.6,10.1,8.6s-4.6,8.6-10.1,8.6h-10.1v13.9H1364.2z M1368.3,156.7h9.8
		c3.4,0,6-1.7,6-5.5s-2.6-5.5-6-5.5h-9.8V156.7z"/>
	<path d="M1401.7,142.6h4.8l12,31.2h-4.3l-3.1-8.4h-13.9l-3.1,8.4h-4.3L1401.7,142.6z M1409.9,162.2l-5.8-15.6l-5.8,15.6H1409.9z"/>
	<path d="M1420.4,142.6h23.3v3.1h-19.2v10.6h10.8c5.5,0,9.8,2.4,9.8,8.6c0,6.2-4.3,8.9-9.8,8.9h-14.9V142.6z M1435,170.6
		c3.4,0,5.8-1.9,5.8-5.8c0-3.6-2.4-5.5-5.8-5.5h-10.6v11.3H1435z"/>
	<path d="M1447.7,158.2c0-9.4,5.3-16.3,15.1-16.3s15.1,7,15.1,16.3c0,9.4-5.3,16.3-15.1,16.3S1447.7,167.5,1447.7,158.2z
		 M1462.9,171.6c6,0,10.8-4.3,10.8-13.4c0-9.1-4.8-13.4-10.8-13.4c-6,0-10.8,4.3-10.8,13.4C1452.1,167.3,1456.9,171.6,1462.9,171.6z
		"/>
	<path d="M1479.9,145.7v-3.1h26.2v3.1h-11v28.1h-4.1v-28.1H1479.9z"/>
	<path d="M1519,142.6h4.8l12,31.2h-4.3l-3.1-8.4h-13.9l-3.1,8.4h-4.3L1519,142.6z M1527.2,162.2l-5.8-15.6l-5.8,15.6H1527.2z"/>
	<path d="M1541.8,142.6v13.7h16.8v-13.7h4.1v31.2h-4.1v-14.4h-16.8v14.4h-4.1v-31.2H1541.8z"/>
	<path d="M1570.1,142.6v13.7h16.8v-13.7h4.1v31.2h-4.1v-14.4h-16.8v14.4h-4.1v-31.2H1570.1z"/>
	<path d="M1593.9,158.2c0-9.4,5.3-16.3,15.1-16.3s15.1,7,15.1,16.3c0,9.4-5.3,16.3-15.1,16.3S1593.9,167.5,1593.9,158.2z
		 M1609,171.6c6,0,10.8-4.3,10.8-13.4c0-9.1-4.8-13.4-10.8-13.4c-6,0-10.8,4.3-10.8,13.4C1598.2,167.3,1603,171.6,1609,171.6z"/>
	<path d="M1627,173.8v-31.2h21.6v3.1h-17.5v28.1H1627z"/>
	<path d="M1650.5,158.2c0-9.4,5.3-16.3,15.1-16.3s15.1,7,15.1,16.3c0,9.4-5.3,16.3-15.1,16.3S1650.5,167.5,1650.5,158.2z
		 M1665.7,171.6c6,0,10.8-4.3,10.8-13.4c0-9.1-4.8-13.4-10.8-13.4c-6,0-10.8,4.3-10.8,13.4C1654.9,167.3,1659.7,171.6,1665.7,171.6z
		"/>
	<path d="M1692.1,181v-10.3h1c3.4,0,6.2-6,6.2-20.6v-7.4h20.2v28.1h4.3V181h-4.1v-7.2h-23.5v7.2H1692.1z M1715.3,170.6v-25h-12.2
		v4.8c0,11.2-1.7,18-4.6,20.2H1715.3z"/>
	<path d="M1725.9,142.6h23v3.1h-19v10.6h15.6v3.1H1730v11.3h19v3.1h-23V142.6z"/>
	<path d="M1751.8,173.8v-31.2h14.2c5.5,0,10.1,2.6,10.1,8.6s-4.6,8.6-10.1,8.6h-10.1v13.9H1751.8z M1755.9,156.7h9.8
		c3.4,0,6-1.7,6-5.5s-2.6-5.5-6-5.5h-9.8V156.7z"/>
	<path d="M1778.7,142.6h23v3.1h-19v10.6h15.6v3.1h-15.6v11.3h19v3.1h-23V142.6z"/>
	<path d="M1804.6,173.8v-31.2h14.2c5.8,0,9.8,2.2,9.8,7.9c0,5.8-5.3,7-5.3,7v0.2c0,0,6.2,1.2,6.2,7.4c0,6.2-4.3,8.6-10.8,8.6H1804.6
		z M1808.7,145.7v10.6h10.1c3.4,0,5.8-1.7,5.8-5.5c0-3.6-2.4-5-5.8-5H1808.7z M1818.8,170.6c3.8,0,6.5-1.7,6.5-5.5s-2.9-5.8-6.5-5.8
		h-10.1v11.3H1818.8z"/>
	<path d="M1842.8,142.6h4.8l12,31.2h-4.3l-3.1-8.4h-13.9l-3.1,8.4h-4.3L1842.8,142.6z M1851,162.2l-5.8-15.6l-5.8,15.6H1851z"/>
</g>
<g id="Layer_2">
</g>
</svg>
