<?xml version="1.0" encoding="utf-8"?>
<!-- Generator: Adobe Illustrator 25.0.1, SVG Export Plug-In . SVG Version: 6.00 Build 0)  -->
<svg version="1.1" xmlns="http://www.w3.org/2000/svg" xmlns:xlink="http://www.w3.org/1999/xlink" x="0px" y="0px"
	 viewBox="0 0 1920 192" style="enable-background:new 0 0 1920 192;" xml:space="preserve">
<g id="Layer_1">
	<path d="M227,166.3c0-9.4,5.3-16.3,15.1-16.3s15.1,7,15.1,16.3c0,9.4-5.3,16.3-15.1,16.3S227,175.7,227,166.3z M242.1,179.8
		c6,0,10.8-4.3,10.8-13.4c0-9.1-4.8-13.4-10.8-13.4c-6,0-10.8,4.3-10.8,13.4C231.3,175.4,236.1,179.8,242.1,179.8z"/>
	<path d="M260.1,150.7h23.3v3.1h-19.2v10.6H275c5.5,0,9.8,2.4,9.8,8.6s-4.3,8.9-9.8,8.9h-14.9V150.7z M274.8,178.8
		c3.4,0,5.8-1.9,5.8-5.8c0-3.6-2.4-5.5-5.8-5.5h-10.6v11.3H274.8z"/>
	<path d="M287,153.8v-3.1h26.2v3.1h-11v28.1H298v-28.1H287z"/>
	<path d="M315.6,150.7h23v3.1h-19v10.6h15.6v3.1h-15.6v11.3h19v3.1h-23V150.7z"/>
	<path d="M341.5,181.9v-31.2h4.1v16.1l15.1-16.1h4.7l-12,12.6l12.7,18.6h-4.9L350.6,166l-5.1,5.3v10.6H341.5z"/>
	<path d="M378.9,150.7h4.8l12,31.2h-4.3l-3.1-8.4h-13.9l-3.1,8.4h-4.3L378.9,150.7z M387.1,170.4l-5.8-15.6l-5.8,15.6H387.1z"/>
	<path d="M397.6,150.7h23v3.1h-19v10.6h15.6v3.1h-15.6v11.3h19v3.1h-23V150.7z"/>
	<path d="M423.6,150.7h6.2l10.1,26.4l10.1-26.4h6.2v31.2h-4.1V155l-10.3,26.9H438L427.6,155v26.9h-4.1V150.7z"/>
	<path d="M470.1,150.7h4.8l12,31.2h-4.3l-3.1-8.4h-13.9l-3.1,8.4h-4.3L470.1,150.7z M478.3,170.4l-5.8-15.6l-5.8,15.6H478.3z"/>
	<path d="M487.6,181.9l9-14c-4.7-0.5-8.1-3-8.1-8.5c0-6.2,4.8-8.6,9.8-8.6h14.9v31.2h-4.1V168h-8.3l-8.7,13.9H487.6z M498.7,164.9
		h10.6v-11h-10.6c-3.4,0-5.8,1.7-5.8,5.5C492.9,163.2,495.3,164.9,498.7,164.9z"/>
	<path d="M501.3,142.8v-31.2h14.2c5.8,0,9.8,2.2,9.8,7.9s-5.3,7-5.3,7v0.2c0,0,6.2,1.2,6.2,7.4c0,6.2-4.3,8.6-10.8,8.6H501.3z
		 M505.4,114.7v10.6h10.1c3.4,0,5.8-1.7,5.8-5.5c0-3.6-2.4-5-5.8-5H505.4z M515.5,139.6c3.8,0,6.5-1.7,6.5-5.5
		c0-3.8-2.9-5.8-6.5-5.8h-10.1v11.3H515.5z"/>
	<path d="M539.5,111.6h4.8l12,31.2H552l-3.1-8.4h-13.9l-3.1,8.4h-4.3L539.5,111.6z M547.7,131.2l-5.8-15.6l-5.8,15.6H547.7z"/>
	<path d="M561.3,133.4c0,4.3,2.9,7.2,8.4,7.2c5.8,0,8.4-2.9,8.4-6.5c0-4.6-3.6-5.8-7.9-5.8h-5.3v-3.1h5.3c4.6,0,7.2-2.4,7.2-6
		c0-2.6-1.9-5.5-7.7-5.5c-6.2,0-7.9,3.6-7.9,6.5h-4.1c0-4.3,3.4-9.4,12-9.4s11.8,4.3,11.8,8.4c0,6.2-6,7.2-6,7.2v0.2
		c0,0,7,0.5,7,7.4c0,5.5-5,9.4-12.7,9.4c-7.9,0-12.5-3.8-12.5-10.1H561.3z"/>
	<path d="M595.6,111.6h4.8l12,31.2h-4.3l-3.1-8.4h-13.9l-3.1,8.4h-4.3L595.6,111.6z M603.8,131.2l-5.8-15.6l-5.8,15.6H603.8z"/>
	<path d="M623.9,111.6h25v31.2h-4.1v-28.1H628v28.1h-4.1V111.6z"/>
	<path d="M662.8,111.6h4.8l12,31.2h-4.3l-3.1-8.4h-13.9l-3.1,8.4h-4.3L662.8,111.6z M671,131.2l-5.8-15.6l-5.8,15.6H671z"/>
	<path d="M695.5,110.8c9.8,0,13,5.8,13.4,11h-4.1c-0.5-5.3-4.1-8.2-9.4-8.2c-6,0-10.1,4.6-10.1,13.4s4.1,13.4,10.1,13.4
		c5.3,0,8.9-2.9,9.4-8.2h4.1c-0.5,5.3-3.6,11-13.4,11c-9.6,0-14.4-6.7-14.4-16.3S685.9,110.8,695.5,110.8z"/>
	<path d="M710.8,114.7v-3.1H737v3.1h-11v28.1h-4.1v-28.1H710.8z"/>
	<path d="M739.4,111.6h23v3.1h-19v10.6h15.6v3.1h-15.6v11.3h19v3.1h-23V111.6z"/>
	<path d="M763.9,139.4c0,0,0.5,0.1,1.2,0.1c3.4,0,6-2.5,6-18.1v-9.8h20.4v31.2h-4.1v-28.1h-12.5v7.2c0,15.8-2.9,21.1-8.9,21.1
		c-1.2,0-2.2-0.2-2.2-0.2V139.4z"/>
	<path d="M794.8,142.8v-31.2h4.1v13.7h10.3c5.5,0,9.8,2.4,9.8,8.6c0,6.2-4.3,8.9-9.8,8.9H794.8z M809,139.6c3.4,0,5.8-1.9,5.8-5.8
		c0-3.6-2.4-5.5-5.8-5.5h-10.1v11.3H809z"/>
	<path d="M826.3,111.6v13.7h16.8v-13.7h4.1v31.2h-4.1v-14.4h-16.8v14.4h-4.1v-31.2H826.3z"/>
	<path d="M854.6,111.6v13.7h9.1c5.5,0,9.8,2.4,9.8,8.6c0,6.2-4.3,8.9-9.8,8.9h-13.2v-31.2H854.6z M863.5,139.6
		c3.4,0,5.8-1.9,5.8-5.8c0-3.6-2.4-5.5-5.8-5.5h-8.9v11.3H863.5z M880.5,111.6v31.2h-4.1v-31.2H880.5z"/>
	<path d="M895.1,126.7l-11.7-15.1h5l8.9,12.4l8.9-12.4h5l-11.7,15.1l12.1,16.1h-5l-9.4-13.2l-9.4,13.2h-5L895.1,126.7z"/>
	<path d="M923.7,111.6h4.1v28.1h16.3v-28.1h4.1v28.1h4.3V150h-4.1v-7.2h-24.7V111.6z"/>
	<path d="M954.7,142.8v-31.2h14.2c5.8,0,9.8,2.2,9.8,7.9s-5.3,7-5.3,7v0.2c0,0,6.2,1.2,6.2,7.4c0,6.2-4.3,8.6-10.8,8.6H954.7z
		 M958.7,114.7v10.6h10.1c3.4,0,5.8-1.7,5.8-5.5c0-3.6-2.4-5-5.8-5H958.7z M968.8,139.6c3.8,0,6.5-1.7,6.5-5.5
		c0-3.8-2.9-5.8-6.5-5.8h-10.1v11.3H968.8z"/>
	<path d="M982.3,111.6h23v3.1h-19v10.6h15.6v3.1h-15.6v11.3h19v3.1h-23V111.6z"/>
	<path d="M1007.2,114.7v-3.1h26.2v3.1h-11v28.1h-4.1v-28.1H1007.2z"/>
	<path d="M1035.3,127.2c0-9.4,5.3-16.3,15.1-16.3s15.1,7,15.1,16.3c0,9.4-5.3,16.3-15.1,16.3S1035.3,136.5,1035.3,127.2z
		 M1050.4,140.6c6,0,10.8-4.3,10.8-13.4c0-9.1-4.8-13.4-10.8-13.4c-6,0-10.8,4.3-10.8,13.4C1039.6,136.3,1044.4,140.6,1050.4,140.6z
		"/>
	<path d="M1068.4,142.8v-31.2h14.2c5.8,0,9.8,2.2,9.8,7.9s-5.3,7-5.3,7v0.2c0,0,6.2,1.2,6.2,7.4c0,6.2-4.3,8.6-10.8,8.6H1068.4z
		 M1072.5,114.7v10.6h10.1c3.4,0,5.8-1.7,5.8-5.5c0-3.6-2.4-5-5.8-5H1072.5z M1082.6,139.6c3.8,0,6.5-1.7,6.5-5.5
		c0-3.8-2.9-5.8-6.5-5.8h-10.1v11.3H1082.6z"/>
	<path d="M920,146.6v13.7h16.8v-13.7h4.1v31.2h-4.1v-14.4H920v14.4h-4.1v-31.2H920z"/>
	<path d="M944.2,146.6h23v3.1h-19v10.6h15.6v3.1h-15.6v11.3h19v3.1h-23V146.6z"/>
	<path d="M973.3,168.5c0,4.3,2.9,7.2,8.4,7.2c5.8,0,8.4-2.9,8.4-6.5c0-4.6-3.6-5.8-7.9-5.8h-5.3v-3.1h5.3c4.6,0,7.2-2.4,7.2-6
		c0-2.6-1.9-5.5-7.7-5.5c-6.2,0-7.9,3.6-7.9,6.5h-4.1c0-4.3,3.4-9.4,12-9.4s11.8,4.3,11.8,8.4c0,6.2-6,7.2-6,7.2v0.2
		c0,0,7,0.5,7,7.4c0,5.5-5,9.4-12.7,9.4c-7.9,0-12.5-3.8-12.5-10.1H973.3z"/>
	<path d="M1007.6,146.6h4.8l12,31.2h-4.3l-3.1-8.4H1003l-3.1,8.4h-4.3L1007.6,146.6z M1015.8,166.3l-5.8-15.6l-5.8,15.6H1015.8z"/>
	<path d="M1026.3,146.6h6.2l10.1,26.4l10.1-26.4h6.2v31.2h-4.1V151l-10.3,26.9h-3.8l-10.3-26.9v26.9h-4.1V146.6z"/>
	<path d="M1062.3,146.6h23v3.1h-19v10.6h15.6v3.1h-15.6v11.3h19v3.1h-23V146.6z"/>
	<path d="M1092.3,146.6v13.7h16.8v-13.7h4.1v31.2h-4.1v-14.4h-16.8v14.4h-4.1v-31.2H1092.3z"/>
	<path d="M1120.6,146.6v25.9l17-25.9h4.3v31.2h-4.1v-25.9l-17,25.9h-4.3v-31.2H1120.6z"/>
	<path d="M1145.3,146.6h6.2l10.1,26.4l10.1-26.4h6.2v31.2h-4.1V151l-10.3,26.9h-3.8l-10.3-26.9v26.9h-4.1V146.6z"/>
	<path d="M1191.9,146.6h4.8l12,31.2h-4.3l-3.1-8.4h-13.9l-3.1,8.4h-4.3L1191.9,146.6z M1200.1,166.3l-5.8-15.6l-5.8,15.6H1200.1z"/>
	<path d="M1209.4,177.8l9-14c-4.7-0.5-8.1-3-8.1-8.5c0-6.2,4.8-8.6,9.8-8.6h14.9v31.2h-4.1v-13.9h-8.3l-8.7,13.9H1209.4z
		 M1220.5,160.8h10.6v-11h-10.6c-3.4,0-5.8,1.7-5.8,5.5C1214.7,159.1,1217.1,160.8,1220.5,160.8z"/>
	<path d="M1248.1,177.8v-31.2h14.2c5.8,0,9.8,2.2,9.8,7.9s-5.3,7-5.3,7v0.2c0,0,6.2,1.2,6.2,7.4s-4.3,8.6-10.8,8.6H1248.1z
		 M1252.1,149.8v10.6h10.1c3.4,0,5.8-1.7,5.8-5.5c0-3.6-2.4-5-5.8-5H1252.1z M1262.2,174.7c3.8,0,6.5-1.7,6.5-5.5
		c0-3.8-2.9-5.8-6.5-5.8h-10.1v11.3H1262.2z"/>
	<path d="M1275.7,146.6h23v3.1h-19v10.6h15.6v3.1h-15.6v11.3h19v3.1h-23V146.6z"/>
	<path d="M1301.6,177.8v-31.2h4.1v28.1h11.7v-28.1h4v28.1h11.7v-28.1h4.1v28.1h4.3V185h-4.1v-7.2H1301.6z"/>
	<path d="M1343.6,177.8v-31.2h4.1v13.7h10.3c5.5,0,9.8,2.4,9.8,8.6s-4.3,8.9-9.8,8.9H1343.6z M1357.7,174.7c3.4,0,5.8-1.9,5.8-5.8
		c0-3.6-2.4-5.5-5.8-5.5h-10.1v11.3H1357.7z"/>
	<path d="M1380.5,177.8v-31.2h14.2c5.8,0,9.8,2.2,9.8,7.9s-5.3,7-5.3,7v0.2c0,0,6.2,1.2,6.2,7.4s-4.3,8.6-10.8,8.6H1380.5z
		 M1384.6,149.8v10.6h10.1c3.4,0,5.8-1.7,5.8-5.5c0-3.6-2.4-5-5.8-5H1384.6z M1394.7,174.7c3.8,0,6.5-1.7,6.5-5.5
		c0-3.8-2.9-5.8-6.5-5.8h-10.1v11.3H1394.7z"/>
	<path d="M1393.5,140.3c0,0,0.5,0.2,1.2,0.3c3.3,0.4,6.3-1.7,8.2-17.2l1.2-9.8l20.2,2.6l-3.9,31l-4-0.5l3.5-27.9l-12.4-1.6l-0.9,7.1
		c-2,15.7-5.5,20.6-11.5,19.8c-1.2-0.2-2.1-0.5-2.1-0.5L1393.5,140.3z"/>
	<path d="M1427.7,116.6l4,0.5l-1.7,13.6l5,0.6c1.6-7.9,7-13.6,16.1-12.5c9.8,1.2,13.4,9.2,12.2,18c-1.1,8.8-6.6,15.6-16.3,14.4
		c-9.3-1.2-13-8.5-12.4-16.8l-5-0.6l-1.8,14.3l-4-0.5L1427.7,116.6z M1439.1,133.8c-1.1,8.6,2.4,13.8,8.3,14.6
		c6,0.8,10.6-3.5,11.7-12.1s-2.4-13.8-8.3-14.6C1444.9,121,1440.2,125.2,1439.1,133.8z"/>
	<path d="M1468.2,121.8l23.1,2.9l-0.4,3.1l-19-2.4l-1.3,10.5l10.7,1.4c5.5,0.7,9.5,3.6,8.7,9.8c-0.8,6.2-5.4,8.3-10.9,7.6l-14.8-1.9
		L1468.2,121.8z M1479.2,151.5c3.3,0.4,6-1.2,6.4-5c0.5-3.6-1.7-5.8-5-6.2l-10.5-1.3l-1.4,11.2L1479.2,151.5z"/>
	<path d="M1493.4,140.7c1.2-9.3,7.3-15.5,17.1-14.3s14.1,8.8,12.9,18.1c-1.2,9.3-7.3,15.5-17.1,14.3
		C1496.6,157.5,1492.2,150,1493.4,140.7z M1506.7,155.9c6,0.8,11.3-2.9,12.4-12c1.1-9-3.1-13.9-9-14.7c-6-0.8-11.3,2.9-12.4,12
		C1496.5,150.3,1500.8,155.2,1506.7,155.9z"/>
	<path d="M1528.2,129.4l6.2,0.8l6.7,27.5l13.3-24.9l6.2,0.8l-3.9,31l-4-0.5l3.4-26.7l-13.6,25.4l-3.8-0.5l-6.9-28l-3.4,26.7l-4-0.5
		L1528.2,129.4z"/>
	<path d="M1567.4,173l1.3-10.2l1,0.1c3.3,0.4,6.9-5.2,8.8-19.7l0.9-7.4l20,2.5l-3.5,27.9l4.3,0.5l-1.3,10.2l-4-0.5l0.9-7.1l-23.3-3
		l-0.9,7.1L1567.4,173z M1591.8,165.7l3.1-24.8l-12.1-1.5l-0.6,4.8c-1.4,11.1-3.9,17.6-7.1,19.4L1591.8,165.7z"/>
	<path d="M1603.4,154.6c1.2-9.3,7.3-15.5,17.1-14.3c9.8,1.2,14.1,8.8,12.9,18.1c-1.2,9.3-7.3,15.5-17.1,14.3
		C1606.6,171.5,1602.2,163.9,1603.4,154.6z M1616.7,169.9c6,0.8,11.3-2.9,12.4-12c1.1-9-3.1-13.9-9-14.7c-6-0.8-11.3,2.9-12.4,12
		C1606.5,164.2,1610.8,169.1,1616.7,169.9z"/>
	<path d="M1638.2,143.3l6.2,0.8l6.7,27.5l13.3-24.9l6.2,0.8l-3.9,31l-4-0.5l3.4-26.7l-13.6,25.4l-3.8-0.5l-6.9-28l-3.4,26.7l-4-0.5
		L1638.2,143.3z"/>
	<path d="M1673.9,147.8l22.9,2.9l-0.4,3.1l-18.8-2.4l-1.3,10.5l15.5,2l-0.4,3.1l-15.5-2l-1.4,11.2l18.8,2.4l-0.4,3.1l-22.9-2.9
		L1673.9,147.8z"/>
</g>
<g id="Layer_2">
</g>
</svg>
