<?xml version="1.0" encoding="utf-8"?>
<!-- Generator: Adobe Illustrator 25.0.1, SVG Export Plug-In . SVG Version: 6.00 Build 0)  -->
<svg version="1.1" xmlns="http://www.w3.org/2000/svg" xmlns:xlink="http://www.w3.org/1999/xlink" x="0px" y="0px"
	 viewBox="0 0 1920 192" style="enable-background:new 0 0 1920 192;" xml:space="preserve">
<g id="Layer_1">
	<path d="M928.6,170.3c-3.2-8.8-0.5-17.1,8.7-20.5c9.3-3.3,16.6,1.5,19.7,10.3c3.2,8.8,0.5,17.1-8.7,20.5
		C939.1,183.9,931.8,179.1,928.6,170.3z M947.4,177.9c5.6-2,8.7-7.7,5.6-16.3c-3.1-8.6-9.1-11-14.7-9c-5.6,2-8.7,7.7-5.6,16.3
		C935.8,177.4,941.7,179.9,947.4,177.9z"/>
	<path d="M965.1,173.8l-10.5-29.4l20.3-7.3l1.1,2.9l-16.5,5.9l9.5,26.4L965.1,173.8z"/>
	<path d="M987.7,165.7l-10.5-29.4l13.3-4.8c5.2-1.9,10.4-0.9,12.4,4.7c2,5.6-1.4,9.7-6.6,11.5l-9.5,3.4l4.7,13.1L987.7,165.7z
		 M985.8,148.3l9.3-3.3c3.2-1.1,5.1-3.6,3.8-7.2c-1.3-3.6-4.3-4.3-7.5-3.2l-9.3,3.3L985.8,148.3z"/>
	<path d="M1007.3,142.1c-3.2-8.8-0.5-17.1,8.7-20.5c9.3-3.3,16.6,1.5,19.7,10.3c3.2,8.8,0.5,17.1-8.7,20.5
		C1017.7,155.7,1010.4,151,1007.3,142.1z M1026,149.7c5.6-2,8.7-7.7,5.6-16.3c-3.1-8.6-9.1-11-14.7-9c-5.6,2-8.7,7.7-5.6,16.3
		C1014.4,149.3,1020.4,151.7,1026,149.7z"/>
	<path d="M1033.2,116.3l5.9-2.1l18.4,21.5l0.6-28.3l5.9-2.1l10.5,29.4l-3.8,1.4l-9.1-25.3l-0.6,28.8l-3.6,1.3l-18.8-21.8l9.1,25.3
		l-3.8,1.4L1033.2,116.3z"/>
	<path d="M1070.9,102.8l4.6,12.9l15.8-5.7l-4.6-12.9l3.8-1.4l10.5,29.4l-3.8,1.4l-4.9-13.6l-15.8,5.7l4.9,13.6l-3.8,1.4l-10.5-29.4
		L1070.9,102.8z"/>
	<path d="M1097.6,93.2l4.6,12.9l8.6-3.1c5.2-1.9,10.1-1.1,12.2,4.8c2.1,5.9-1.1,9.8-6.3,11.7l-12.4,4.5l-10.5-29.4L1097.6,93.2z
		 M1115.4,116.6c3.2-1.1,4.8-3.8,3.5-7.4c-1.2-3.4-4.1-4.4-7.3-3.3l-8.4,3l3.8,10.6L1115.4,116.6z M1122,84.5l10.5,29.4l-3.8,1.4
		l-10.5-29.4L1122,84.5z"/>
	<path d="M1125.1,83.3l21.7-7.8l1.1,2.9l-17.8,6.4l3.6,9.9l14.7-5.3l1.1,2.9l-14.7,5.3l3.8,10.6l17.8-6.4l1.1,2.9l-21.7,7.8
		L1125.1,83.3z"/>
	<path d="M1161.9,70.1l3,8.4c1.6,4.5,4.3,7.1,10.4,4.9c4.5-1.6,6.4-4.9,5.8-6.7l-4.3-12l3.8-1.4l10.5,29.4l-3.8,1.4l-4.9-13.8
		c0,0-1.5,4.4-7.1,6.4c-7.2,2.6-11.8-0.1-13.9-6l-3.3-9.3L1161.9,70.1z"/>
	<path d="M1193.8,58.7l4.5-1.6l21.8,25.3l-4.1,1.5l-5.8-6.9l-13.1,4.7l-0.1,9l-4.1,1.5L1193.8,58.7z M1208.2,74.5l-10.7-12.8
		l-0.2,16.7L1208.2,74.5z"/>
	<path d="M1224.3,47c9.3-3.3,14.1,1.1,16.4,5.9l-3.8,1.4c-2.2-4.8-6.6-6.3-11.6-4.5c-5.6,2-8,7.7-5,16.1c3,8.4,8.4,11.3,14,9.3
		c5-1.8,7.4-5.7,6.1-10.8l3.8-1.4c1.3,5.1,0.3,11.6-8.9,14.9c-9,3.2-15.8-1.5-19.1-10.5C1213,58.2,1215.3,50.3,1224.3,47z"/>
	<path d="M1243.7,40.8l4.6,12.9l8.6-3.1c5.2-1.9,10.1-1.1,12.2,4.8c2.1,5.9-1.1,9.8-6.3,11.7l-12.4,4.5l-10.5-29.4L1243.7,40.8z
		 M1261.6,64.3c3.2-1.1,4.8-3.8,3.5-7.4c-1.2-3.4-4.1-4.4-7.3-3.3l-8.4,3l3.8,10.6L1261.6,64.3z M1268.1,32.1l10.5,29.4l-3.8,1.4
		l-10.5-29.4L1268.1,32.1z"/>
	<path d="M1286.4,30.5v25.9l17-25.9h4.3v31.2h-4.1V35.7l-17,25.9h-4.3V30.5H1286.4z"/>
	<path d="M1314.3,52.3c0,4.3,2.9,7.2,8.4,7.2c5.8,0,8.4-2.9,8.4-6.5c0-4.6-3.6-5.8-7.9-5.8h-5.3v-3.1h5.3c4.6,0,7.2-2.4,7.2-6
		c0-2.6-1.9-5.5-7.7-5.5c-6.2,0-7.9,3.6-7.9,6.5h-4.1c0-4.3,3.4-9.4,12-9.4s11.8,4.3,11.8,8.4c0,6.2-6,7.2-6,7.2v0.2
		c0,0,7,0.5,7,7.4c0,5.5-5,9.4-12.7,9.4c-7.9,0-12.5-3.8-12.5-10.1H1314.3z"/>
	<path d="M1347.6,30.5h6.2l10.1,26.4l10.1-26.4h6.2v31.2h-4.1V34.8l-10.3,26.9h-3.8l-10.3-26.9v26.9h-4.1V30.5z"/>
	<path d="M1394.2,30.5h4.8l12,31.2h-4.3l-3.1-8.4h-13.9l-3.1,8.4h-4.3L1394.2,30.5z M1402.4,50.1l-5.8-15.6l-5.8,15.6H1402.4z"/>
	<path d="M1426.8,29.7c9.8,0,13,5.8,13.4,11h-4.1c-0.5-5.3-4.1-8.2-9.4-8.2c-6,0-10.1,4.6-10.1,13.4c0,8.9,4.1,13.4,10.1,13.4
		c5.3,0,8.9-2.9,9.4-8.2h4.1c-0.5,5.3-3.6,11-13.4,11c-9.6,0-14.4-6.7-14.4-16.3C1412.4,36.5,1417.2,29.7,1426.8,29.7z"/>
	<path d="M1457.1,29.7c9.8,0,13,5.8,13.4,11h-4.1c-0.5-5.3-4.1-8.2-9.4-8.2c-6,0-10.1,4.6-10.1,13.4c0,8.9,4.1,13.4,10.1,13.4
		c5.3,0,8.9-2.9,9.4-8.2h4.1c-0.5,5.3-3.6,11-13.4,11c-9.6,0-14.4-6.7-14.4-16.3C1442.7,36.5,1447.5,29.7,1457.1,29.7z"/>
	<path d="M1477.5,30.5v25.9l17-25.9h4.3v31.2h-4.1V35.7l-17,25.9h-4.3V30.5H1477.5z"/>
	<path d="M1502.2,61.7V30.5h14.2c5.8,0,9.8,2.2,9.8,7.9c0,5.8-5.3,7-5.3,7v0.2c0,0,6.2,1.2,6.2,7.4c0,6.2-4.3,8.6-10.8,8.6H1502.2z
		 M1506.3,33.6v10.6h10.1c3.4,0,5.8-1.7,5.8-5.5c0-3.6-2.4-5-5.8-5H1506.3z M1516.3,58.5c3.8,0,6.5-1.7,6.5-5.5s-2.9-5.8-6.5-5.8
		h-10.1v11.3H1516.3z"/>
	<path d="M1540.3,30.5h4.8l12,31.2h-4.3l-3.1-8.4h-13.9l-3.1,8.4h-4.3L1540.3,30.5z M1548.5,50.1l-5.8-15.6l-5.8,15.6H1548.5z"/>
	<path d="M1582.6,29.7c9.8,0,13,5.8,13.4,11h-4.1c-0.5-5.3-4.1-8.2-9.4-8.2c-6,0-10.1,4.6-10.1,13.4c0,8.9,4.1,13.4,10.1,13.4
		c5.3,0,8.9-2.9,9.4-8.2h4.1c-0.5,5.3-3.6,11-13.4,11c-9.6,0-14.4-6.7-14.4-16.3C1568.2,36.5,1573,29.7,1582.6,29.7z"/>
	<path d="M1598.4,46.1c0-9.4,5.3-16.3,15.1-16.3s15.1,7,15.1,16.3c0,9.4-5.3,16.3-15.1,16.3S1598.4,55.4,1598.4,46.1z M1613.5,59.5
		c6,0,10.8-4.3,10.8-13.4c0-9.1-4.8-13.4-10.8-13.4c-6,0-10.8,4.3-10.8,13.4C1602.7,55.2,1607.5,59.5,1613.5,59.5z"/>
	<path d="M1645.5,29.7c9.8,0,13,5.8,13.4,11h-4.1c-0.5-5.3-4.1-8.2-9.4-8.2c-6,0-10.1,4.6-10.1,13.4c0,8.9,4.1,13.4,10.1,13.4
		c5.3,0,8.9-2.9,9.4-8.2h4.1c-0.5,5.3-3.6,11-13.4,11c-9.6,0-14.4-6.7-14.4-16.3C1631.1,36.5,1635.9,29.7,1645.5,29.7z"/>
	<path d="M1665.9,30.5v13.7h16.8V30.5h4.1v31.2h-4.1V47.3h-16.8v14.4h-4.1V30.5H1665.9z"/>
	<path d="M1694.2,30.5v13.7h9.1c5.5,0,9.8,2.4,9.8,8.6c0,6.2-4.3,8.9-9.8,8.9h-13.2V30.5H1694.2z M1703.1,58.5
		c3.4,0,5.8-1.9,5.8-5.8c0-3.6-2.4-5.5-5.8-5.5h-8.9v11.3H1703.1z M1720.1,30.5v31.2h-4.1V30.5H1720.1z"/>
	<path d="M1358.5,85.2c0-9.4,5.3-16.3,15.1-16.3s15.1,7,15.1,16.3c0,9.4-5.3,16.3-15.1,16.3S1358.5,94.5,1358.5,85.2z M1373.7,98.6
		c6,0,10.8-4.3,10.8-13.4c0-9.1-4.8-13.4-10.8-13.4c-6,0-10.8,4.3-10.8,13.4C1362.9,94.3,1367.7,98.6,1373.7,98.6z"/>
	<path d="M1391.7,69.6h23.3v3.1h-19.2v10.6h10.8c5.5,0,9.8,2.4,9.8,8.6c0,6.2-4.3,8.9-9.8,8.9h-14.9V69.6z M1406.3,97.7
		c3.4,0,5.8-1.9,5.8-5.8c0-3.6-2.4-5.5-5.8-5.5h-10.6v11.3H1406.3z"/>
	<path d="M1419,85.2c0-9.4,5.3-16.3,15.1-16.3s15.1,7,15.1,16.3c0,9.4-5.3,16.3-15.1,16.3S1419,94.5,1419,85.2z M1434.1,98.6
		c6,0,10.8-4.3,10.8-13.4c0-9.1-4.8-13.4-10.8-13.4c-6,0-10.8,4.3-10.8,13.4C1423.3,94.3,1428.1,98.6,1434.1,98.6z"/>
	<path d="M1452.1,100.8V69.6h21.6v3.1h-17.5v28.1H1452.1z"/>
	<path d="M1486.7,69.6h4.8l12,31.2h-4.3l-3.1-8.4h-13.9l-3.1,8.4h-4.3L1486.7,69.6z M1494.9,89.3l-5.8-15.6l-5.8,15.6H1494.9z"/>
	<path d="M1504.5,72.7v-3.1h26.2v3.1h-11v28.1h-4.1V72.7H1504.5z"/>
	<path d="M1531.8,100.8l9-14c-4.7-0.5-8.1-3-8.1-8.5c0-6.2,4.8-8.6,9.8-8.6h14.9v31.2h-4.1V86.9h-8.3l-8.7,13.9H1531.8z
		 M1542.9,83.7h10.6v-11h-10.6c-3.4,0-5.8,1.7-5.8,5.5S1539.5,83.7,1542.9,83.7z"/>
	<path d="M1559.9,72.7v-3.1h26.2v3.1h-11v28.1h-4.1V72.7H1559.9z"/>
	<path d="M1282.2,139.2V108h14.2c5.8,0,9.8,2.2,9.8,7.9c0,5.8-5.3,7-5.3,7v0.2c0,0,6.2,1.2,6.2,7.4c0,6.2-4.3,8.6-10.8,8.6H1282.2z
		 M1286.3,111.1v10.6h10.1c3.4,0,5.8-1.7,5.8-5.5c0-3.6-2.4-5-5.8-5H1286.3z M1296.4,136.1c3.8,0,6.5-1.7,6.5-5.5
		c0-3.8-2.9-5.8-6.5-5.8h-10.1v11.3H1296.4z"/>
	<path d="M1320.4,108h4.8l12,31.2h-4.3l-3.1-8.4h-13.9l-3.1,8.4h-4.3L1320.4,108z M1328.6,127.7l-5.8-15.6l-5.8,15.6H1328.6z"/>
	<path d="M1339.1,139.2V108h4.1v28.1h11.7V108h4v28.1h11.7V108h4.1v31.2H1339.1z"/>
	<path d="M1391.7,108v25.9l17-25.9h4.3v31.2h-4.1v-25.9l-17,25.9h-4.3V108H1391.7z"/>
	<path d="M1420.5,108v13.7h16.8V108h4.1v31.2h-4.1v-14.4h-16.8v14.4h-4.1V108H1420.5z"/>
	<path d="M1443.7,111.1V108h26.2v3.1h-11v28.1h-4.1v-28.1H1443.7z"/>
	<path d="M1472.3,108h23v3.1h-19v10.6h15.6v3.1h-15.6v11.3h19v3.1h-23V108z"/>
	<path d="M1498.2,139.2V108h14.2c5.5,0,10.1,2.6,10.1,8.6s-4.6,8.6-10.1,8.6h-10.1v13.9H1498.2z M1502.3,122.2h9.8
		c3.4,0,6-1.7,6-5.5s-2.6-5.5-6-5.5h-9.8V122.2z"/>
	<path d="M1525.1,139.2V108h4.1v13.7h10.3c5.5,0,9.8,2.4,9.8,8.6c0,6.2-4.3,8.9-9.8,8.9H1525.1z M1539.3,136.1
		c3.4,0,5.8-1.9,5.8-5.8c0-3.6-2.4-5.5-5.8-5.5h-10.1v11.3H1539.3z"/>
	<path d="M1552.5,108h23v3.1h-19v10.6h15.6v3.1h-15.6v11.3h19v3.1h-23V108z"/>
	<path d="M1578.4,139.2V108h14.2c5.5,0,10.1,2.6,10.1,8.6s-4.6,8.6-10.1,8.6h-10.1v13.9H1578.4z M1582.5,122.2h9.8
		c3.4,0,6-1.7,6-5.5s-2.6-5.5-6-5.5h-9.8V122.2z"/>
	<path d="M1268.9,146.4v25.9l17-25.9h4.3v31.2h-4.1v-25.9l-17,25.9h-4.3v-31.2H1268.9z"/>
	<path d="M1303.2,146.4h25v31.2h-4.1v-28.1h-16.8v28.1h-4.1V146.4z"/>
	<path d="M1331.1,162c0-9.4,5.3-16.3,15.1-16.3s15.1,7,15.1,16.3c0,9.4-5.3,16.3-15.1,16.3S1331.1,171.4,1331.1,162z M1346.2,175.4
		c6,0,10.8-4.3,10.8-13.4c0-9.1-4.8-13.4-10.8-13.4c-6,0-10.8,4.3-10.8,13.4C1335.4,171.1,1340.2,175.4,1346.2,175.4z"/>
	<path d="M1364.2,177.6v-31.2h14.2c5.5,0,10.1,2.6,10.1,8.6s-4.6,8.6-10.1,8.6h-10.1v13.9H1364.2z M1368.3,160.6h9.8
		c3.4,0,6-1.7,6-5.5s-2.6-5.5-6-5.5h-9.8V160.6z"/>
	<path d="M1401.6,146.4h4.8l12,31.2h-4.3l-3.1-8.4h-13.9l-3.1,8.4h-4.3L1401.6,146.4z M1409.8,166.1l-5.8-15.6l-5.8,15.6H1409.8z"/>
	<path d="M1419.1,184.8v-10.3h1c3.4,0,6.2-6,6.2-20.6v-7.4h20.2v28.1h4.3v10.3h-4.1v-7.2h-23.5v7.2H1419.1z M1442.4,174.5v-25h-12.2
		v4.8c0,11.2-1.7,18-4.6,20.2H1442.4z"/>
	<path d="M1456.1,146.4l10.6,19.7l9.1-19.7h4.6l-12,25.2c-2.4,5.1-5,6.2-8.2,6.2c-1.4,0-2.9-0.2-2.9-0.2v-3.5c0,0,1,0.1,2.4,0.1
		c1.7,0,3.4-0.2,5-3.8l-13.2-24H1456.1z"/>
	<path d="M1482.3,146.4h4.1v13.7h5.1c0.6-8,5.2-14.4,14.4-14.4c9.8,0,14.4,7.4,14.4,16.3c0,8.9-4.6,16.3-14.4,16.3
		c-9.4,0-14-6.8-14.4-15.1h-5v14.4h-4.1V146.4z M1495.7,162c0,8.6,4.1,13.4,10.1,13.4s10.1-4.8,10.1-13.4c0-8.6-4.1-13.4-10.1-13.4
		S1495.7,153.4,1495.7,162z"/>
	<path d="M1522.1,149.5v-3.1h26.2v3.1h-11v28.1h-4.1v-28.1H1522.1z"/>
	<path d="M1560.3,177.6v-31.2h21.6v3.1h-17.5v28.1H1560.3z"/>
	<path d="M1582.8,174.2c0,0,0.5,0.1,1.2,0.1c3.4,0,6-2.5,6-18.1v-9.8h20.4v31.2h-4.1v-28.1h-12.5v7.2c0,15.8-2.9,21.1-8.9,21.1
		c-1.2,0-2.2-0.2-2.2-0.2V174.2z"/>
	<path d="M1624.3,146.4h4.8l12,31.2h-4.3l-3.1-8.4h-13.9l-3.1,8.4h-4.3L1624.3,146.4z M1632.5,166.1l-5.8-15.6l-5.8,15.6H1632.5z"/>
	<path d="M1646.2,168.2c0,4.3,2.9,7.2,8.4,7.2c5.8,0,8.4-2.9,8.4-6.5c0-4.6-3.6-5.8-7.9-5.8h-5.3v-3.1h5.3c4.6,0,7.2-2.4,7.2-6
		c0-2.6-1.9-5.5-7.7-5.5c-6.2,0-7.9,3.6-7.9,6.5h-4.1c0-4.3,3.4-9.4,12-9.4s11.8,4.3,11.8,8.4c0,6.2-6,7.2-6,7.2v0.2
		c0,0,7,0.5,7,7.4c0,5.5-5,9.4-12.7,9.4c-7.9,0-12.5-3.8-12.5-10.1H1646.2z"/>
</g>
<g id="Layer_2">
</g>
</svg>
