<?xml version="1.0" encoding="utf-8"?>
<!-- Generator: Adobe Illustrator 25.0.1, SVG Export Plug-In . SVG Version: 6.00 Build 0)  -->
<svg version="1.1" id="Layer_1" xmlns="http://www.w3.org/2000/svg" xmlns:xlink="http://www.w3.org/1999/xlink" x="0px" y="0px"
	 viewBox="0 0 546 302" style="enable-background:new 0 0 546 302;" xml:space="preserve">
<style type="text/css">
	.st0{fill:#FFFFFF;}
	.st1{fill:none;stroke:#FFFFFF;stroke-miterlimit:10;}
	.st2{fill:none;}
</style>
<path d="M311.2,143.8c0,0,24.8,38.8,34.2,122.1"/>
<path d="M416.8,99.9c0,0,33.7,59.2,30.7,126"/>
<g>
	<path class="st0" d="M500,78.4c-25.2-49.9-182-57.5-182-57.5S212,2.9,132.1,3.8C51.3,4.6,22.3,13,12.2,18c-3.1,1.5-5.4,4.2-6.4,7.5
		l-1.1,3.6c-0.8,2.6,0.9,5.3,3.6,5.6c13.3,1.7,51.8,9.9,111.5,48.5c9.7,6.3,15.7,17,21.4,27.1c7,12.5,18.1,40,68.9,61.2
		c0,0,14.2,5.4,15,34.4s31.2,71.7,31.2,71.7s125.7,8.7,267.3-102.2C523.5,175.5,525.2,128.2,500,78.4z M152,98.4
		c-5.6-10.1-12.7-19.4-21.2-27.2C109,50.9,61.3,35.2,31,27.9c-1-0.2-0.8-1.7,0.2-1.7l100-6.5c27.2-1.8,54.5-0.8,81.5,2.8L438,52.9
		c1.5,0.2,1.8,2.3,0.4,2.9C389.8,75,285.8,123.3,223.1,156.7c-2.9,1.5-6.3,1.6-9.1,0.1C172,135.7,158.3,109.9,152,98.4z
		 M231.7,165.3c-2.4-1.1-4.8-2.1-7.1-3.2l227.2-106l14.7,7.8C397.4,131.6,231.7,165.3,231.7,165.3z"/>
	<g>
		<path class="st1" d="M244.4,289.4c10.4-4.1,11.8-11.8,11.8-11.8s3.2,5.8-3.1,20.3"/>
		<path class="st1" d="M533.7,184.1c-2.3-7.3-10.2-8.6-10.2-8.6s10.7-6.5,18.3,3.7"/>
	</g>
</g>
<g>
	<path d="M-172.9,153.5c-25.2-49.9-182-57.5-182-57.5s-106-18-185.9-17.1c-80.8,0.8-109.8,9.2-119.9,14.2c-3.1,1.5-5.4,4.2-6.4,7.5
		l-1.1,3.6c-0.8,2.6,0.9,5.3,3.6,5.6c13.3,1.7,51.8,9.9,111.5,48.5c9.7,6.3,15.7,17,21.4,27.1c7,12.5,18.1,40,68.9,61.2
		c0,0,14.2,5.4,15,34.4s31.2,71.7,31.2,71.7s125.7,8.7,267.3-102.2C-149.4,250.6-147.7,203.3-172.9,153.5z M-520.9,173.5
		c-5.6-10.1-12.7-19.4-21.2-27.2c-21.8-20.3-69.5-36-99.8-43.3c-1-0.2-0.8-1.7,0.2-1.7l100-6.5c27.2-1.8,54.5-0.8,81.5,2.8
		l225.3,30.4c1.5,0.2,1.8,2.3,0.4,2.9c-48.6,19.2-152.6,67.5-215.3,100.9c-2.9,1.5-6.3,1.6-9.1,0.1
		C-500.9,210.8-514.6,185-520.9,173.5z M-441.2,240.4c-2.4-1.1-4.8-2.1-7.1-3.2l227.2-106l14.7,7.8
		C-275.5,206.7-441.2,240.4-441.2,240.4z"/>
	<g>
		<path class="st2" d="M-428.5,364.5c10.4-4.1,11.8-11.8,11.8-11.8s3.2,5.8-3.1,20.3"/>
		<path class="st2" d="M-139.2,259.2c-2.3-7.3-10.2-8.6-10.2-8.6s10.7-6.5,18.3,3.7"/>
	</g>
</g>
</svg>
