<?xml version="1.0" encoding="utf-8"?>
<!-- Generator: Adobe Illustrator 25.0.1, SVG Export Plug-In . SVG Version: 6.00 Build 0)  -->
<svg version="1.1" id="Layer_1" xmlns="http://www.w3.org/2000/svg" xmlns:xlink="http://www.w3.org/1999/xlink" x="0px" y="0px"
	 viewBox="0 0 759 675" style="enable-background:new 0 0 759 675;" xml:space="preserve">
<style type="text/css">
	.st0{fill:#FFFFFF;}
	.st1{fill:none;stroke:#FFFFFF;stroke-miterlimit:10;}
</style>
<g>
	<path class="st0" d="M277.6,13.5c0,0,176.8,104.5,191.2,263.9c0,0,11,127.4,80.1,204.7s194.4,106.8,194.4,106.8l-267.9,73.5
		c0,0-105.2-35.1-174.3-112.3S221,345.4,221,345.4C206.6,186,16.7,85.1,16.7,85.1L277.6,13.5z"/>
	<g>
		<line class="st1" x1="24.5" y1="83.1" x2="12.8" y2="74.9"/>
		<line class="st1" x1="16.7" y1="85.1" x2="5" y2="78.9"/>
		<line class="st1" x1="34.1" y1="80.4" x2="21.9" y2="71.3"/>
		<line class="st1" x1="42.2" y1="78.1" x2="29.7" y2="69.1"/>
		<line class="st1" x1="50.7" y1="75.8" x2="37.5" y2="67.4"/>
		<line class="st1" x1="58.6" y1="73.6" x2="47.2" y2="65"/>
		<line class="st1" x1="66.5" y1="71.5" x2="55.1" y2="62.5"/>
		<line class="st1" x1="75.3" y1="69.1" x2="64.3" y2="60.1"/>
		<line class="st1" x1="84" y1="66.7" x2="73.4" y2="57.2"/>
		<line class="st1" x1="93.2" y1="64.1" x2="81.8" y2="54.7"/>
		<line class="st1" x1="103.3" y1="61.4" x2="90.6" y2="52.3"/>
		<line class="st1" x1="112.9" y1="58.6" x2="99.3" y2="49.1"/>
		<line class="st1" x1="121.6" y1="56.3" x2="108.8" y2="46.6"/>
		<line class="st1" x1="129.7" y1="54.1" x2="116.6" y2="45"/>
		<line class="st1" x1="136.1" y1="52.4" x2="125" y2="43.4"/>
		<line class="st1" x1="146.3" y1="49.8" x2="134.1" y2="39.8"/>
		<line class="st1" x1="151.5" y1="48.1" x2="140.1" y2="38.7"/>
		<line class="st1" x1="160.4" y1="45.9" x2="148.6" y2="35.7"/>
		<line class="st1" x1="169.8" y1="43.1" x2="157.8" y2="32.4"/>
		<line class="st1" x1="177.3" y1="41.1" x2="166.5" y2="30.5"/>
		<line class="st1" x1="185.5" y1="38.8" x2="174.8" y2="28"/>
		<line class="st1" x1="192" y1="36.7" x2="182" y2="26.5"/>
		<line class="st1" x1="199.1" y1="34.8" x2="189" y2="25.1"/>
		<line class="st1" x1="206.2" y1="32.9" x2="196.7" y2="22.7"/>
		<line class="st1" x1="215.4" y1="30.6" x2="203.7" y2="20.4"/>
		<line class="st1" x1="277.6" y1="13.5" x2="263.7" y2="5.1"/>
		<line class="st1" x1="270.8" y1="15.4" x2="258.5" y2="7.3"/>
		<line class="st1" x1="263.1" y1="17.5" x2="252.3" y2="8.4"/>
		<line class="st1" x1="256.8" y1="19.2" x2="245.5" y2="10.2"/>
		<line class="st1" x1="248.9" y1="21.4" x2="238.4" y2="11.7"/>
		<line class="st1" x1="242.6" y1="23.1" x2="233.4" y2="13.7"/>
		<line class="st1" x1="235.9" y1="25" x2="225.8" y2="15.4"/>
		<line class="st1" x1="229.1" y1="26.8" x2="220.1" y2="15.9"/>
		<line class="st1" x1="222.1" y1="28.5" x2="213.3" y2="17.6"/>
	</g>
	<g>
		<g>
			<line class="st1" x1="728.7" y1="592.9" x2="740.3" y2="601.1"/>
			<line class="st1" x1="736.4" y1="590.9" x2="749.1" y2="595.9"/>
			<line class="st1" x1="719" y1="595.6" x2="731.3" y2="604.7"/>
			<line class="st1" x1="710.9" y1="597.9" x2="723.4" y2="606.9"/>
			<line class="st1" x1="702.4" y1="600.2" x2="715.6" y2="608.6"/>
			<line class="st1" x1="694.5" y1="602.4" x2="705.9" y2="611"/>
			<line class="st1" x1="686.6" y1="604.5" x2="698" y2="613.5"/>
			<line class="st1" x1="677.8" y1="607" x2="688.8" y2="615.9"/>
			<line class="st1" x1="669.2" y1="609.3" x2="679.8" y2="618.8"/>
			<line class="st1" x1="659.9" y1="611.9" x2="671.3" y2="621.3"/>
			<line class="st1" x1="649.9" y1="614.6" x2="662.5" y2="623.7"/>
			<line class="st1" x1="640.2" y1="617.4" x2="653.8" y2="626.9"/>
			<line class="st1" x1="631.5" y1="619.7" x2="644.3" y2="629.4"/>
			<line class="st1" x1="623.5" y1="621.9" x2="636.5" y2="631"/>
			<line class="st1" x1="617.1" y1="623.6" x2="628.1" y2="632.6"/>
			<line class="st1" x1="606.8" y1="626.2" x2="619.1" y2="636.2"/>
			<line class="st1" x1="601.7" y1="627.9" x2="613" y2="637.3"/>
			<line class="st1" x1="592.8" y1="630.1" x2="604.5" y2="640.3"/>
			<line class="st1" x1="583.4" y1="632.9" x2="595.3" y2="643.6"/>
			<line class="st1" x1="575.9" y1="634.9" x2="586.6" y2="645.5"/>
			<line class="st1" x1="567.6" y1="637.2" x2="578.3" y2="648"/>
			<line class="st1" x1="561.1" y1="639.3" x2="571.1" y2="649.5"/>
			<line class="st1" x1="554" y1="641.2" x2="564.1" y2="650.9"/>
			<line class="st1" x1="547" y1="643.1" x2="556.4" y2="653.3"/>
			<line class="st1" x1="537.7" y1="645.4" x2="549.4" y2="655.6"/>
			<line class="st1" x1="475.5" y1="662.5" x2="489.4" y2="670.9"/>
			<line class="st1" x1="482.3" y1="660.6" x2="494.7" y2="668.7"/>
			<line class="st1" x1="490" y1="658.5" x2="500.9" y2="667.6"/>
			<line class="st1" x1="496.4" y1="656.8" x2="507.6" y2="665.8"/>
			<line class="st1" x1="504.2" y1="654.6" x2="514.7" y2="664.3"/>
			<line class="st1" x1="510.5" y1="652.9" x2="519.8" y2="662.3"/>
			<line class="st1" x1="517.3" y1="651" x2="527.4" y2="660.6"/>
			<line class="st1" x1="524" y1="649.2" x2="533" y2="660.1"/>
			<line class="st1" x1="531" y1="647.5" x2="539.8" y2="658.4"/>
		</g>
		<line class="st1" x1="743.3" y1="588.9" x2="755.2" y2="591"/>
	</g>
</g>
</svg>
