<?xml version="1.0" encoding="utf-8"?>
<!-- Generator: Adobe Illustrator 25.0.1, SVG Export Plug-In . SVG Version: 6.00 Build 0)  -->
<svg version="1.1" id="Layer_1" xmlns="http://www.w3.org/2000/svg" xmlns:xlink="http://www.w3.org/1999/xlink" x="0px" y="0px"
	 viewBox="0 0 378 189" style="enable-background:new 0 0 378 189;" xml:space="preserve">
<style type="text/css">
	.st0{fill:#FFFFFF;}
	.st1{fill:#FFFFFF;stroke:#000000;stroke-miterlimit:10;}
	.st2{fill:none;stroke:#000000;stroke-miterlimit:10;}
</style>
<g>
	<g>
		<path class="st0" d="M16.2,6.8c0,0-23.5,149.7,156.7,171.8S368.3,50,368.3,50L16.2,6.8z"/>
		<polyline class="st1" points="20.3,64.4 39,48.8 54.2,68.5 73.1,53 86.3,72.5 105.8,57 119.4,76.5 144,61.2 156.9,80.7 
			171.9,65.1 185.4,84.6 205.9,69.3 220.8,89 243.1,72.9 263,94.2 286.5,78.2 298.6,98.5 321.8,82.6 337.1,103.2 358.2,87 		"/>
	</g>
	<path class="st2" d="M42.1,111.7c0,0,140.8,61.6,274.6,33.7"/>
</g>
</svg>
