<?xml version="1.0" encoding="utf-8"?>
<!-- Generator: Adobe Illustrator 25.0.1, SVG Export Plug-In . SVG Version: 6.00 Build 0)  -->
<svg version="1.1" id="Layer_1" xmlns="http://www.w3.org/2000/svg" xmlns:xlink="http://www.w3.org/1999/xlink" x="0px" y="0px"
	 viewBox="0 0 198 131" style="enable-background:new 0 0 198 131;" xml:space="preserve">
<style type="text/css">
	.st0{fill:#FFFFFF;}
</style>
<g>
	<path class="st0" d="M55.6,37.7c2.9-0.9,5-3.4,5-6.4c0-3.7-3.3-6.7-7.3-6.7s-7.3,3-7.3,6.7c0,3,2.1,5.5,5,6.4L2.3,82.6l51.2,46.8
		l51-47L55.6,37.7z M53.3,121l-42-38.3l41.8-38.5L95,82.5L53.3,121z"/>
	<path class="st0" d="M146.8,14.7c2.9-0.9,5-3.4,5-6.4c0-3.7-3.3-6.7-7.4-6.7c-4.1,0-7.4,3-7.4,6.7c0,3,2.1,5.5,5.1,6.4L93.5,59.6
		l51.2,46.8l51-47L146.8,14.7z M144.5,98.1l-41.9-38.3l41.8-38.5l41.9,38.3L144.5,98.1z"/>
</g>
</svg>
