<?xml version="1.0" encoding="utf-8"?>
<!-- Generator: Adobe Illustrator 25.0.1, SVG Export Plug-In . SVG Version: 6.00 Build 0)  -->
<svg version="1.1" id="Layer_1" xmlns="http://www.w3.org/2000/svg" xmlns:xlink="http://www.w3.org/1999/xlink" x="0px" y="0px"
	 viewBox="0 0 293 405" style="enable-background:new 0 0 293 405;" xml:space="preserve">
<style type="text/css">
	.st0{fill:none;stroke:#FFFFFF;stroke-miterlimit:10;}
	.st1{fill:#FFFFFF;}
	.st2{fill:#FFFFFF;stroke:#000000;stroke-miterlimit:10;}
	.st3{fill:none;stroke:#000000;stroke-miterlimit:10;}
</style>
<g>
	<g>
		<path class="st0" d="M209.1,151.6c0,0-11,71.1,19.4,228.9"/>
		<path class="st1" d="M209.4,247c0,0-3.1-40.2-45.3-38.2C164.2,208.9,162.4,244.4,209.4,247z"/>
		<path class="st1" d="M214.3,291.8c0,0,40.2,7.7,48.1-43.7C262.4,248.1,220.1,246.7,214.3,291.8z"/>
		<path class="st1" d="M266.4,133.3c4.1-4.1-5.3-20.3-21.1-36.1c-2.3-2.3-4.6-4.5-6.9-6.5c3,0.2,6.2,0.3,9.4,0.3
			c22.3,0,40.5-4.8,40.5-10.6c0-5.9-18.1-10.6-40.5-10.6c-3.2,0-6.4,0.1-9.4,0.3c2.3-2,4.6-4.2,6.9-6.5c15.8-15.8,25.3-32,21.1-36.1
			c-4.1-4.1-20.3,5.3-36.1,21.1c-2.3,2.3-4.5,4.6-6.5,6.9c0.2-3,0.3-6.2,0.3-9.4c0-22.4-4.8-40.5-10.6-40.5
			c-5.9,0-10.6,18.1-10.6,40.5c0,3.2,0.1,6.4,0.3,9.4c-2-2.3-4.2-4.6-6.5-6.9c-15.8-15.8-32-25.3-36.1-21.1
			c-4.1,4.1,5.3,20.3,21.1,36.1c2.3,2.3,4.6,4.5,6.9,6.5c-3-0.2-6.2-0.3-9.4-0.3c-22.4,0-40.5,4.8-40.5,10.6
			c0,5.9,18.1,10.6,40.5,10.6c3.2,0,6.4-0.1,9.4-0.3c-2.3,2-4.6,4.2-6.9,6.5c-15.8,15.8-25.3,32-21.1,36.1
			c4.1,4.1,20.3-5.3,36.1-21.1c2.3-2.3,4.5-4.6,6.5-6.9c-0.2,3-0.3,6.2-0.3,9.4c0,22.3,4.8,40.5,10.6,40.5
			c5.9,0,10.6-18.1,10.6-40.5c0-3.2-0.1-6.4-0.3-9.4c2,2.3,4.2,4.6,6.5,6.9C246.1,128,262.3,137.5,266.4,133.3z"/>
		<circle class="st2" cx="213.5" cy="84.7" r="10.4"/>
	</g>
	<g>
		<path class="st0" d="M84,181.6c0,0,5.7,71.7,71.6,218.3"/>
		<path class="st1" d="M114,297.9c0,0-16.6-42.6-61.8-26.5C52.2,271.3,62,310.5,114,297.9z"/>
		<path class="st1" d="M152.1,166.6c1-5.8-16.1-13.4-38.2-17.1c-3.2-0.5-6.3-0.9-9.4-1.3c2.6-1.6,5.2-3.4,7.8-5.2
			c18.2-13,30.2-27.4,26.8-32.2s-20.9,1.9-39.1,14.9c-2.7,1.9-5.2,3.8-7.5,5.7c0.7-3,1.3-6.1,1.8-9.3c3.7-22.1,1.9-40.7-3.8-41.7
			c-5.8-1-13.4,16.1-17.1,38.2c-0.5,3.2-0.9,6.3-1.3,9.4c-1.6-2.6-3.4-5.2-5.2-7.8C53.9,102,39.5,90,34.7,93.4s1.9,20.9,14.9,39.1
			c1.9,2.6,3.8,5.2,5.7,7.5c-3-0.7-6.1-1.3-9.3-1.8c-22-3.7-40.7-1.9-41.7,3.8s16.1,13.4,38.2,17.1c3.2,0.5,6.3,0.9,9.4,1.3
			c-2.6,1.6-5.2,3.4-7.8,5.2C26,178.6,14,193,17.4,197.8s20.9-1.9,39.1-14.9c2.7-1.9,5.2-3.8,7.5-5.7c-0.7,3-1.3,6.1-1.8,9.3
			c-3.7,22.1-2,40.7,3.8,41.7s13.4-16.1,17.1-38.2c0.5-3.2,0.9-6.3,1.3-9.4c1.6,2.6,3.4,5.2,5.2,7.9c13,18.2,27.4,30.2,32.2,26.8
			s-1.9-20.9-14.9-39.1c-1.9-2.6-3.8-5.2-5.7-7.5c3,0.7,6.1,1.3,9.3,1.8C132.4,174.1,151.1,172.3,152.1,166.6z"/>
		<circle class="st3" cx="78.2" cy="154.3" r="10.4"/>
	</g>
</g>
</svg>
