<?xml version="1.0" encoding="utf-8"?>
<!-- Generator: Adobe Illustrator 25.0.1, SVG Export Plug-In . SVG Version: 6.00 Build 0)  -->
<svg version="1.1" id="Layer_1" xmlns="http://www.w3.org/2000/svg" xmlns:xlink="http://www.w3.org/1999/xlink" x="0px" y="0px"
	 viewBox="0 0 475 795" style="enable-background:new 0 0 475 795;" xml:space="preserve">
<style type="text/css">
	.st0{fill:#FFFFFF;}
</style>
<g>
	<path class="st0" d="M227.5,763.2"/>
	<path class="st0" d="M441.5,668.5c51.4-28.1-2.9-50.3-2.9-50.3c46-23.3-2.7-47-2.7-47c48.6-26.5-2.8-48.8-2.8-48.8
		c48.7-25.5-2.6-45.5-2.6-45.5c48.7-25.1-2.7-46.9-2.7-46.9c46.3-27.3-2.6-45.9-2.6-45.9c47.2-25-2.7-46.9-2.7-46.9
		c44.4-22-2.3-40.2-2.3-40.2c48.9-22.7-2.6-45-2.6-45c47.4-22.1-2.4-42.1-2.4-42.1c45.7-25.4-2.6-46-2.6-46
		c47.1-27.4-2.7-46.2-2.7-46.2c51.8-29.4-3-51.5-3-51.5s27.4-83.3-44.4-32.9c0,0-23-47.2-55.3,0.1c0,0-30-42-57.3,3.9
		c0,0-25.7-34.4-55.4,2.5c0,0-30.5-32.8-54.5,4.6c0,0-21.1-34.5-47.8,2.2c0,0-15.7-33.2-38.9,1.8c0,0-54.2-20.1-23.3,35
		c-51.5,29.3,3.3,52.1,3.3,52.1c-51.2,28.4,3.2,50.3,3.2,50.3c-45.9,23.5,2.9,47,2.9,47c-48.5,26.7,3,48.7,3,48.7
		c-48.6,25.8,2.8,45.4,2.8,45.4c-48.6,25.3,2.9,46.9,2.9,46.9C1.9,401.3,51,419.7,51,419.7c-47,25.2,3,46.9,3,46.9
		c-44.3,22.2,2.5,40.2,2.5,40.2c-48.7,22.9,2.8,45,2.8,45c-47.3,22.4,2.6,42.1,2.6,42.1c-45.6,25.6,2.9,46,2.9,46
		c-47,27.6,2.9,46.2,2.9,46.2c-51.7,29.6-0.9,41.6-0.9,41.6c-38.4,64.6,33.1,41.4,33.1,41.4c23.3,29.5,40.7-1.9,40.7-1.9
		c24,27.6,49.8-2.3,49.8-2.3c27.9,31.7,53.6-2.4,53.6-2.4c31.2,34.3,53,0.9,53,0.9c30,32.3,56.7,1.9,56.7,1.9
		c34.6,39.4,61.9-1.4,61.9-1.4c68.9,21.7,28.9-43.3,28.9-43.3C496.1,691.5,441.5,668.5,441.5,668.5z M100,723.4L69.6,89.1
		l300.3-14.9l35.3,642.6L100,723.4z"/>
</g>
</svg>
