<?xml version="1.0" encoding="utf-8"?>
<!-- Generator: Adobe Illustrator 25.0.1, SVG Export Plug-In . SVG Version: 6.00 Build 0)  -->
<svg version="1.1" id="Layer_1" xmlns="http://www.w3.org/2000/svg" xmlns:xlink="http://www.w3.org/1999/xlink" x="0px" y="0px"
	 viewBox="0 0 235 112" style="enable-background:new 0 0 235 112;" xml:space="preserve">
<style type="text/css">
	.st0{fill:#FFFFFF;}
</style>
<g>
	<path class="st0" d="M232.9,7.7l-6-5.7c-1.1-1.1-2.8-1.3-4.2-0.5l-61.9,38.1l-1.5,0.8c-0.3,0.1-0.6,0.2-0.9,0.1
		c-1.4-0.4-2.9-0.7-4.4-0.3L93.4,51.7c-3.6,0.7-6.2,3.7-6.4,7.2l-10.2,1.9c-1.5-3.1-5-5-8.6-4.3l-46,8.7l51.6-31.7
		c1.2-0.8,2.8-0.6,3.9,0.3l2.9,2.4c1.2,1,3,1.1,4.3,0.2c1.8-1.3,1.9-3.8,0.4-5.3L79,25.3c-1.1-1.1-2.8-1.3-4.2-0.5L5.6,68.6
		C2,71,0,74.3,1.3,78.3l9.2,28.5c0.9,3,4,4.8,7,4.2l57.3-10.8c3-0.6,5.1-3.2,5-6.2l-2-27.1l10.5-2l8.2,25.7c0.9,3,4,4.8,7,4.2
		L160.8,84c3-0.6,5.1-3.2,5-6.2l-2.2-30.2c0-0.3,0-0.5,0-0.6c0-0.4,0.1-0.7,0.4-0.9l1.2-0.8l56.4-34.9c1.2-0.8,2.8-0.6,3.9,0.3
		l3,2.4c1.5,1.2,3.6,1,4.9-0.5C234.4,11,234.1,9,232.9,7.7z M72.5,67.5L74,91.3c0,2.4-1.8,4.5-4.3,5l-49,9.3
		c-2.6,0.5-5.2-0.9-5.9-3.2L7.3,79.9c-1.2-3.6,1.3-7.4,5.3-8.2l51.9-9.8C68.5,61.1,72.2,63.7,72.5,67.5z M158.5,51.2l1.6,23.8
		c0,2.4-1.8,4.5-4.3,5l-49,9.3c-2.6,0.5-5.2-0.9-5.9-3.2l-7.5-22.5c-1.2-3.6,1.3-7.4,5.3-8.2l51.9-9.8
		C154.5,44.9,158.2,47.5,158.5,51.2z"/>
	<line class="st0" x1="5.6" y1="68.6" x2="24.4" y2="64.8"/>
</g>
</svg>
