<?xml version="1.0" encoding="utf-8"?>
<!-- Generator: Adobe Illustrator 25.0.1, SVG Export Plug-In . SVG Version: 6.00 Build 0)  -->
<svg version="1.1" id="Layer_1" xmlns="http://www.w3.org/2000/svg" xmlns:xlink="http://www.w3.org/1999/xlink" x="0px" y="0px"
	 viewBox="0 0 144 71" style="enable-background:new 0 0 144 71;" xml:space="preserve">
<style type="text/css">
	.st0{fill:#FFFFFF;}
</style>
<path class="st0" d="M94.8,2.2L34.1,12.4c0,0-41.1,3.8-31.1,57.1l10.1-1.7c-2.6-16.7,0.3-27.3,4.8-34l5.4,32.3l3.8-0.6l-6-35.6
	c1.9-1.9,3.9-3.3,5.8-4.4l6.5,38.9l3.8-0.6l-6.7-40c3.1-1.2,5.3-1.4,5.3-1.4l1.2-0.2l6.8,40.5l3.8-0.6l-6.8-40.5l6.6-1.1L54.2,61
	l3.8-0.6l-6.8-40.5l6.6-1.1l6.8,40.5l3.8-0.6l-6.8-40.5l7-1.2l6.8,40.5l3.8-0.6l-6.8-40.5l6.4-1.1l6.8,40.5l3.8-0.6l-6.8-40.5l7-1.2
	L96.4,54l3.8-0.6l-6.8-40.5l3.1-0.5c0,0,1.6-0.4,4.1-0.4l6.7,40.2l3.8-0.6L104.5,12c2.5,0.3,5.4,1,8.3,2.5l5.9,35.6l3.8-0.6
	l-5.4-32.3c6.4,4.9,12.6,13.9,15.5,30.6l10.1-1.7C134.9-7.5,94.8,2.2,94.8,2.2z"/>
</svg>
