<?xml version="1.0" encoding="utf-8"?>
<!-- Generator: Adobe Illustrator 25.0.1, SVG Export Plug-In . SVG Version: 6.00 Build 0)  -->
<svg version="1.1" id="Layer_1" xmlns="http://www.w3.org/2000/svg" xmlns:xlink="http://www.w3.org/1999/xlink" x="0px" y="0px"
	 viewBox="0 0 72 155" style="enable-background:new 0 0 72 155;" xml:space="preserve">
<style type="text/css">
	.st0{fill:#FFFFFF;}
</style>
<path class="st0" d="M43.4,21.9l-1.8-7.6l-8,1.9l-0.7-3l7.5-1.7l-2.1-9l-13.8,3L24,3.2L15.9,5l0.4,1.6L1.5,10.1L2.6,15L13,25.3
	L5.4,27l3.1,13.3L23,36.9l21,90.8c-8.1,3.1-13.2,9.6-11.8,15.8c1.6,7,11.1,10.8,21.2,8.4s17-9.9,15.4-16.9c-1.4-6.1-8.9-9.8-17.5-9
	L30.9,37.1l14.6-3.4l-1.6-7l-4.4,1.2l-0.8-3.4L43.4,21.9z M62.8,136.4c1.1,4.7-3.5,9.7-10.3,11.3s-13.1-1-14.2-5.6
	c-1.1-4.7,3.5-9.7,10.3-11.3C55.4,129.2,61.7,131.8,62.8,136.4z"/>
</svg>
