<?xml version="1.0" encoding="utf-8"?>
<!-- Generator: Adobe Illustrator 25.0.1, SVG Export Plug-In . SVG Version: 6.00 Build 0)  -->
<svg version="1.1" id="Layer_1" xmlns="http://www.w3.org/2000/svg" xmlns:xlink="http://www.w3.org/1999/xlink" x="0px" y="0px"
	 viewBox="0 0 46.6 86.5" style="enable-background:new 0 0 46.6 86.5;" xml:space="preserve">
<style type="text/css">
	.st0{fill:#FFFFFF;}
	.st1{fill:none;stroke:#000000;stroke-miterlimit:10;}
</style>
<g>
	<path class="st0" d="M45.7,24c0-12.9-10.8-23.2-23.9-22.4C10.5,2.3,1.4,11.6,0.9,22.9C0.7,27.1,1.6,31,3.4,34.4
		C7.7,42.6,9.8,51.8,9.8,61v6.2h27.1v-7.3c0-9,2.4-17.7,6.5-25.8C44.8,31.1,45.7,27.7,45.7,24z"/>
	<path class="st0" d="M35.4,85.1H11.8l-2-17.4c0-0.2,0.1-0.4,0.4-0.4h26.3c0.3,0,0.4-0.2,0.4,0.8L35.4,85.1z"/>
	<line class="st1" x1="10.3" y1="72.2" x2="36.8" y2="69"/>
	<line class="st1" x1="10.7" y1="75.5" x2="36.6" y2="72.2"/>
	<line class="st1" x1="11" y1="78.6" x2="36.2" y2="75.5"/>
	<line class="st1" x1="11.4" y1="81.9" x2="36" y2="78.7"/>
	<line class="st1" x1="11.7" y1="84.8" x2="35.7" y2="81.6"/>
	<polyline class="st1" points="20.6,57.6 14.6,31.8 19.1,34.7 19.1,29.7 27.6,29.7 27.6,34.3 32.6,31.1 25.9,57.6 	"/>
	<rect x="20.5" y="57.2" width="5.5" height="10"/>
</g>
</svg>
