<?xml version="1.0" encoding="utf-8"?>
<!-- Generator: Adobe Illustrator 25.0.1, SVG Export Plug-In . SVG Version: 6.00 Build 0)  -->
<svg version="1.1" id="Layer_1" xmlns="http://www.w3.org/2000/svg" xmlns:xlink="http://www.w3.org/1999/xlink" x="0px" y="0px"
	 viewBox="0 0 150 162" style="enable-background:new 0 0 150 162;" xml:space="preserve">
<style type="text/css">
	.st0{fill:#FFFFFF;}
</style>
<path class="st0" d="M58.9,60.5c3.5,3,7.5,4.9,11.9,5.7c-8.4,4.4-15.9,12.1-15.9,12.1c-56.5,56.9-51.5,74.5-51.5,74.5l82.5-87.3
	c0.2-0.1,0.7,0.3,0.5,0.6L12,160.3c0,0,18.2,2.5,66.4-61.6c0,0,6.4-8.2,9.6-17c1.5,3.8,3.8,7.3,7,10.1c12.1,10.5,31.9,7.4,44.3-6.8
	c12.4-14.3,12.6-34.3,0.5-44.8c-7.5-6.5-18-7.8-27.8-4.4c1.9-10.2-0.8-20.4-8.3-26.9c-12.2-10.5-32-7.4-44.4,6.9S46.8,50,58.9,60.5z
	 M131.7,50.1c7.6,6.6,7.4,19.1-0.3,28s-20.1,10.8-27.7,4.3s-7.4-19.1,0.3-28S124.1,43.6,131.7,50.1z M95.5,18.8
	c7.6,6.6,7.4,19.1-0.3,28s-20.1,10.9-27.7,4.3s-7.4-19.1,0.3-28S88,12.3,95.5,18.8z"/>
</svg>
