<?xml version="1.0" encoding="utf-8"?>
<!-- Generator: Adobe Illustrator 25.0.1, SVG Export Plug-In . SVG Version: 6.00 Build 0)  -->
<svg version="1.1" id="Layer_1" xmlns="http://www.w3.org/2000/svg" xmlns:xlink="http://www.w3.org/1999/xlink" x="0px" y="0px"
	 viewBox="0 0 1039 484" style="enable-background:new 0 0 1039 484;" xml:space="preserve">
<style type="text/css">
	.st0{fill:#FFFFFF;}
	.st1{fill:#FFFFFF;stroke:#000000;stroke-miterlimit:10;}
</style>
<g>
	<path class="st0" d="M980.7,327.5L980.7,327.5l-17.8-60.3l-219.7,1.2c0,0,1.3-76.8-116.4-67.4s-300.2-4.5-340.2-122.7
		C264.8,13.7,263.7,8.9,262.3,9c-7.2,0.4-12.3,1.1-18.9,1.2l-230,6.3l104.1,310.9L165.2,475h48.5l-45.9-147.5h157.7L373.1,475h48.5
		l-45.9-147.5h383.1L806.4,475h48.5L809,327.5h121.4L978,475h48.5L980.7,327.5z"/>
	<path class="st1" d="M188.7,199.2h98c0,0,67.1-11.6,77.6,68.4"/>
</g>
</svg>
