<svg width="385" height="135" viewBox="0 0 385 135" fill="none" xmlns="http://www.w3.org/2000/svg">
<path d="M42.1139 3.04952H54.7939L66.7055 131.13H54.5058L51.72 97.2262H24.4388L13.8721 131.13H1L42.1139 3.04952ZM46.2446 25.6519H46.0524L29.53 80.1847H50.4712L46.2446 25.6519Z" fill="#F6F6F6"/>
<path d="M103.263 119.29C93.9134 119.29 86.8369 115.703 82.0339 108.527C77.2949 101.352 74.9254 91.3066 74.9254 78.3909C74.9254 76.3579 74.9574 74.4444 75.0215 72.6506C75.0855 70.8568 75.2456 68.7639 75.5018 66.3721C77.423 49.51 81.6496 36.5346 88.1818 27.4458C94.7139 18.2374 103.744 13.5136 115.271 13.2744L116.808 0H128.815L127.278 13.2744C136.692 13.2744 143.769 16.9817 148.508 24.3962C153.247 31.6912 155.616 41.6171 155.616 54.174C155.616 57.7617 155.392 61.8277 154.944 66.3721C154.047 75.4609 152.478 83.3539 150.237 90.0509C147.995 96.6283 145.178 102.129 141.784 106.554C138.389 110.859 134.451 114.088 129.968 116.241C125.549 118.274 120.65 119.29 115.271 119.29L113.542 134H101.534L103.263 119.29ZM113.35 30.3159C109.315 30.5551 105.793 31.5118 102.783 33.1861C99.8371 34.7407 97.3075 37.0727 95.1942 40.1821C93.1449 43.1718 91.4798 46.8791 90.199 51.3039C88.9182 55.6091 87.9576 60.6319 87.3172 66.3721C87.1251 68.0464 86.997 69.5413 86.933 70.8568C86.933 72.1722 86.933 73.6073 86.933 75.162C86.933 83.2941 88.3739 89.6921 91.2557 94.3561C94.1375 99.0201 98.7804 101.531 105.184 101.89L113.35 30.3159ZM117.192 101.89C125.069 101.412 131.089 98.3025 135.251 92.5622C139.478 86.7024 142.136 77.9723 143.224 66.3721C143.481 64.4587 143.609 62.7247 143.609 61.17C143.673 59.4958 143.705 58.0009 143.705 56.6854C143.705 48.6729 142.264 42.3945 139.382 37.8501C136.564 33.1861 131.889 30.6747 125.357 30.3159L117.192 101.89Z" fill="#F6F6F6"/>
<path d="M171.812 3.04952H183.82L172.965 101.352L212.542 3.04952H227.912L213.695 131.13H201.687L212.542 32.8273L172.965 131.13H157.595L171.812 3.04952Z" fill="#F6F6F6"/>
<path d="M311.262 131.13H226.92L241.137 3.04952H253.145L241.041 111.756H265.248L277.256 3.04952H289.264L277.16 111.756H301.463L313.471 3.04952H325.478L311.262 131.13Z" fill="#F6F6F6"/>
<path d="M360.409 3.04952H373.089L385 131.13H372.8L370.015 97.2262H342.733L332.167 131.13H319.295L360.409 3.04952ZM364.539 25.6519H364.347L347.825 80.1847H368.766L364.539 25.6519Z" fill="#F6F6F6"/>
</svg>
