<svg width="533" height="135" viewBox="0 0 533 135" fill="none" xmlns="http://www.w3.org/2000/svg">
<g clip-path="url(#clip0_683_17)">
<path d="M13.9983 3.06817H25.8212L19.8624 57.5735L20.0516 57.9345L54.8582 3.06817H71.1265L34.5228 58.8369L58.9253 131.932H44.8324L25.3483 72.734L16.7412 86.0896L11.8229 131.932H0L13.9983 3.06817Z" fill="#F6F6F6"/>
<path d="M80.3328 77.9679C80.3328 90 81.9407 99.4452 85.1565 106.303C88.3724 113.162 92.9439 116.591 98.8711 116.591C102.781 116.591 106.186 114.846 109.086 111.357C112.05 107.868 114.509 103.295 116.464 97.6404C118.481 91.9853 119.963 85.6083 120.909 78.5094C121.918 71.4104 122.422 64.2513 122.422 57.0321C122.422 45 120.877 35.5548 117.788 28.6965C114.761 21.8382 110.284 18.4091 104.357 18.4091C100.321 18.4091 96.7903 20.1537 93.7636 23.643C90.8 27.1323 88.3093 31.7045 86.2915 37.3596C84.3368 43.0147 82.855 49.3917 81.8461 56.4906C80.8372 63.5896 80.3328 70.7487 80.3328 77.9679ZM68.5099 78.6898C68.5099 65.2139 69.5503 53.5428 71.6312 43.6765C73.775 33.6898 76.5495 25.508 79.9545 19.131C83.4225 12.6337 87.3004 7.82085 91.5882 4.69251C95.939 1.56417 100.321 0 104.735 0C109.149 0 113.185 1.38369 116.842 4.15107C120.499 6.91844 123.589 10.8289 126.111 15.8824C128.696 20.8155 130.683 26.7112 132.07 33.5695C133.52 40.4278 134.245 48.008 134.245 56.3102C134.245 69.9064 133.236 81.6377 131.218 91.504C129.201 101.37 126.521 109.552 123.179 116.049C119.837 122.426 116.022 127.179 111.734 130.307C107.447 133.436 103.033 135 98.4928 135C93.6375 135 89.3497 133.556 85.6295 130.668C81.9092 127.781 78.7879 123.81 76.2657 118.757C73.7435 113.703 71.8203 107.747 70.4962 100.889C69.172 94.0307 68.5099 86.631 68.5099 78.6898Z" fill="#F6F6F6"/>
<path d="M150.777 3.06817H162.6L157.02 54.3249H188.61L194.191 3.06817H206.014L192.015 131.932H180.193L186.53 73.8168H154.939L148.602 131.932H136.779L150.777 3.06817Z" fill="#F6F6F6"/>
<path d="M213.077 3.06817H268.692L266.517 22.5602H245.046L233.129 131.932H221.306L233.223 22.5602H210.996L213.077 3.06817Z" fill="#F6F6F6"/>
<path d="M296.478 3.06817H308.963L320.691 131.932H308.679L305.936 97.8208H279.075L268.671 131.932H255.996L296.478 3.06817ZM300.545 25.8088H300.356L284.088 80.6751H304.707L300.545 25.8088Z" fill="#F6F6F6"/>
<path d="M340.513 3.06817H352.336L346.377 57.5735L346.566 57.9345L381.373 3.06817H397.641L361.038 58.8369L385.44 131.932H371.347L351.863 72.734L343.256 86.0896L338.338 131.932H326.515L340.513 3.06817Z" fill="#F6F6F6"/>
<path d="M399.565 3.06817H455.18L453.004 22.5602H431.534L419.616 131.932H407.793L419.711 22.5602H397.484L399.565 3.06817Z" fill="#F6F6F6"/>
<path d="M521.177 3.06817H533L518.907 131.932H507.084L521.177 3.06817ZM504.058 86.4505C504.058 92.7072 503.553 98.6029 502.544 104.138C501.535 109.672 499.959 114.485 497.815 118.576C495.734 122.667 493.054 125.916 489.776 128.322C486.497 130.729 482.587 131.932 478.047 131.932H448.254L462.252 3.06817H474.075L468.684 52.52H482.587C485.74 52.52 488.609 53.1818 491.194 54.5053C493.843 55.7085 496.113 57.6938 498.004 60.4612C499.896 63.1083 501.378 66.5976 502.45 70.9291C503.522 75.2607 504.058 80.4345 504.058 86.4505ZM492.613 88.0749C492.613 82.0588 491.667 77.7273 489.776 75.0802C487.884 72.3128 484.605 70.9291 479.939 70.9291H466.697L462.063 113.342H477.196C481.925 113.342 485.677 111.297 488.451 107.206C491.226 103.115 492.613 96.738 492.613 88.0749Z" fill="#F6F6F6"/>
</g>
<defs>
<clipPath id="clip0_683_17">
<rect width="533" height="135" fill="white"/>
</clipPath>
</defs>
</svg>
