<svg width="591" height="135" viewBox="0 0 591 135" fill="none" xmlns="http://www.w3.org/2000/svg">
<g clip-path="url(#clip0_683_19)">
<path d="M14.2104 3.06817H63.8506L61.6423 22.5602H24.004L20.8355 52.52H38.1183C41.3189 52.52 44.2314 53.1818 46.8558 54.5053C49.5442 55.7085 51.8486 57.6938 53.7689 60.4612C55.6893 63.1083 57.1935 66.5976 58.2817 70.9291C59.3699 75.2607 59.914 80.4345 59.914 86.4505C59.914 92.7072 59.4019 98.6029 58.3777 104.138C57.3535 109.672 55.7533 114.485 53.5769 118.576C51.4646 122.667 48.7441 125.916 45.4156 128.322C42.087 130.729 38.1183 131.932 33.5096 131.932H0L14.2104 3.06817ZM48.296 88.0749C48.296 82.0588 47.3359 77.7273 45.4156 75.0802C43.4952 72.3128 40.1667 70.9291 35.4299 70.9291H18.7231L14.0183 113.342H32.6454C37.4462 113.342 41.2549 111.297 44.0713 107.206C46.8878 103.115 48.296 96.738 48.296 88.0749Z" fill="#F6F6F6"/>
<path d="M101.905 3.06817H114.579L126.485 131.932H114.291L111.507 97.8209H84.2383L73.6765 131.932H60.8104L101.905 3.06817ZM106.034 25.8088H105.842L89.3271 80.6751H110.259L106.034 25.8088Z" fill="#F6F6F6"/>
<path d="M146.895 3.06817H174.452C178.037 3.06817 181.045 3.7901 183.478 5.23395C185.91 6.55748 187.926 8.36229 189.527 10.6484C191.127 12.8142 192.343 15.3409 193.175 18.2286C194.071 20.996 194.711 23.8235 195.095 26.7112C195.48 29.5989 195.704 32.4265 195.768 35.1938C195.832 37.9612 195.864 40.3676 195.864 42.4131C195.864 42.5334 195.8 43.6163 195.672 45.6618C195.608 47.7072 195.319 50.2339 194.807 53.242C194.359 56.1297 193.623 59.3182 192.599 62.8075C191.575 66.1765 190.135 69.365 188.278 72.373C186.422 75.2607 184.054 77.6671 181.173 79.5922C178.357 81.5174 174.868 82.4799 170.707 82.4799H150.16L144.687 131.932H132.685L146.895 3.06817ZM152.176 64.0709H170.323C173.012 64.0709 175.22 63.3489 176.948 61.9051C178.741 60.3409 180.117 58.3556 181.077 55.9492C182.101 53.5428 182.805 50.8957 183.189 48.008C183.638 45 183.862 42.0521 183.862 39.1644C183.862 37.3596 183.702 35.4345 183.382 33.389C183.125 31.3436 182.581 29.4184 181.749 27.6136C180.981 25.8088 179.829 24.365 178.293 23.2821C176.82 22.0789 174.868 21.4773 172.436 21.4773H156.881L152.176 64.0709Z" fill="#F6F6F6"/>
<path d="M231.677 3.06817H244.351L256.257 131.932H244.063L241.278 97.8209H214.01L203.448 131.932H190.582L231.677 3.06817ZM235.805 25.8088H235.613L219.099 80.6751H240.03L235.805 25.8088Z" fill="#F6F6F6"/>
<path d="M287.517 64.2513L271.29 3.06817H284.444L295.678 49.2714L315.265 3.06817H329.38L301.055 66.0561L318.05 131.932H305.184L292.894 81.9385L271.29 131.932H256.984L287.517 64.2513Z" fill="#F6F6F6"/>
<path d="M339.311 77.9679C339.311 90 340.944 99.4452 344.208 106.303C347.473 113.162 352.114 116.591 358.131 116.591C362.099 116.591 365.556 114.846 368.5 111.357C371.509 107.868 374.005 103.295 375.99 97.6404C378.038 91.9853 379.542 85.6083 380.502 78.5094C381.526 71.4104 382.039 64.2513 382.039 57.0321C382.039 45 380.47 35.5548 377.334 28.6965C374.261 21.8382 369.716 18.4091 363.699 18.4091C359.603 18.4091 356.018 20.1537 352.946 23.643C349.937 27.1323 347.409 31.7045 345.36 37.3596C343.376 43.0147 341.872 49.3917 340.848 56.4906C339.823 63.5896 339.311 70.7487 339.311 77.9679ZM327.309 78.6898C327.309 65.2139 328.366 53.5428 330.478 43.6765C332.654 33.6898 335.471 25.508 338.927 19.131C342.448 12.6337 346.385 7.82085 350.737 4.69251C355.154 1.56417 359.603 0 364.084 0C368.564 0 372.661 1.38369 376.374 4.15107C380.086 6.91844 383.223 10.8289 385.783 15.8824C388.408 20.8155 390.424 26.7112 391.832 33.5695C393.304 40.4278 394.041 48.008 394.041 56.3102C394.041 69.9064 393.016 81.6377 390.968 91.504C388.92 101.37 386.199 109.552 382.807 116.049C379.414 122.426 375.541 127.179 371.189 130.307C366.836 133.436 362.355 135 357.746 135C352.818 135 348.465 133.556 344.688 130.668C340.912 127.781 337.743 123.81 335.183 118.757C332.622 113.703 330.67 107.747 329.326 100.889C327.982 94.0307 327.309 86.631 327.309 78.6898Z" fill="#F6F6F6"/>
<path d="M438.572 131.932L450.574 22.5602H428.106L418.6 95.6551C417.64 102.754 416.488 108.83 415.144 113.884C413.8 118.817 412.263 122.848 410.535 125.976C408.807 129.104 406.886 131.39 404.774 132.834C402.662 134.278 400.421 135 398.053 135C395.365 135 392.932 134.098 390.756 132.293L392.868 114.786C394.34 115.989 395.781 116.591 397.189 116.591C398.405 116.591 399.525 116.23 400.549 115.508C401.573 114.666 402.502 113.222 403.334 111.176C404.23 109.131 405.03 106.364 405.734 102.874C406.438 99.385 407.142 94.9332 407.847 89.5187L418.696 3.06817H464.784L450.574 131.932H438.572Z" fill="#F6F6F6"/>
<path d="M478.725 3.06817H490.727L484.678 57.5735L484.87 57.9345L520.204 3.06817H536.719L499.561 58.8369L524.333 131.932H510.026L490.247 72.734L481.51 86.0896L476.517 131.932H464.515L478.725 3.06817Z" fill="#F6F6F6"/>
<path d="M566.42 3.06817H579.094L591 131.932H578.806L576.021 97.8209H548.753L538.191 131.932H525.325L566.42 3.06817ZM570.549 25.8088H570.357L553.842 80.6751H574.773L570.549 25.8088Z" fill="#F6F6F6"/>
</g>
<defs>
<clipPath id="clip0_683_19">
<rect width="591" height="135" fill="white"/>
</clipPath>
</defs>
</svg>
