<svg width="483" height="135" viewBox="0 0 483 135" fill="none" xmlns="http://www.w3.org/2000/svg">
<g clip-path="url(#clip0_683_15)">
<path d="M14.5401 3.06817H31.438L39.1011 101.25H39.2976L69.7532 3.06817H87.1423L72.7005 131.932H60.9112L73.0934 28.6965H72.897L41.1642 131.932H31.5363L22.6943 28.6965H22.4978L11.7893 131.932H0L14.5401 3.06817Z" fill="#F6F6F6"/>
<path d="M123.067 3.06817H136.036L148.218 131.932H135.741L132.892 97.8209H104.99L94.1837 131.932H81.019L123.067 3.06817ZM127.292 25.8088H127.095L110.197 80.6751H131.615L127.292 25.8088Z" fill="#F6F6F6"/>
<path d="M168.807 3.06817H217.045L214.883 22.5602H178.926L166.547 131.932H154.267L168.807 3.06817Z" fill="#F6F6F6"/>
<path d="M245.968 3.06817H258.936L271.119 131.932H258.642L255.793 97.8209H227.891L217.084 131.932H203.92L245.968 3.06817ZM250.193 25.8088H249.996L233.098 80.6751H254.515L250.193 25.8088Z" fill="#F6F6F6"/>
<path d="M338.373 33.75C338.373 37.8409 337.98 41.5107 337.195 44.7594C336.409 47.8877 335.361 50.6551 334.051 53.0615C332.741 55.4679 331.202 57.5134 329.433 59.1979C327.73 60.762 325.962 61.9652 324.128 62.8075V63.3489C327.796 65.1537 330.547 68.4626 332.381 73.2754C334.214 77.9679 335.131 83.7433 335.131 90.6016C335.131 97.7005 334.345 104.017 332.774 109.552C331.202 114.967 329.073 119.599 326.388 123.449C323.702 127.179 320.526 130.007 316.858 131.932C313.256 133.977 309.391 135 305.265 135C296.292 135 289.448 131.39 284.732 124.171C280.082 116.952 277.757 106.424 277.757 92.5869C277.757 92.1056 277.757 91.6845 277.757 91.3235C277.757 90.9626 277.79 90.4813 277.855 89.8797H289.841C289.841 99.5053 291.151 106.484 293.771 110.816C296.391 115.147 300.419 117.313 305.855 117.313C308.344 117.313 310.636 116.771 312.732 115.688C314.828 114.606 316.629 112.981 318.135 110.816C319.642 108.529 320.788 105.702 321.574 102.333C322.425 98.9639 322.851 95.0535 322.851 90.6016C322.851 84.9465 321.77 80.7353 319.609 77.9679C317.513 75.0802 314.664 73.6364 311.062 73.6364H301.041L302.809 56.6711H311.356C316.007 56.6711 319.609 54.6858 322.163 50.7152C324.783 46.6243 326.093 41.3904 326.093 35.0134C326.093 29.7192 325.012 25.5682 322.851 22.5602C320.755 19.4318 317.677 17.8676 313.616 17.8676C309.293 17.8676 305.527 19.6123 302.318 23.1016C299.109 26.4706 296.98 32.246 295.932 40.4278H284.241C284.765 33.3289 285.911 27.2527 287.68 22.1992C289.513 17.0254 291.74 12.8142 294.36 9.5655C297.046 6.31684 300.026 3.91042 303.3 2.34625C306.641 0.782083 310.112 0 313.714 0C321.77 0 327.894 3.06818 332.086 9.20454C336.278 15.3409 338.373 23.5227 338.373 33.75Z" fill="#F6F6F6"/>
<path d="M354.725 3.06817H367.005L355.904 101.972L396.38 3.06817H412.099L397.559 131.932H385.279L396.38 33.0281L355.904 131.932H340.185L354.725 3.06817Z" fill="#F6F6F6"/>
<path d="M425.626 3.06817H437.906L432.11 54.3249H464.923L470.719 3.06817H483L468.46 131.932H456.179L462.762 73.8168H429.948L423.366 131.932H411.085L425.626 3.06817Z" fill="#F6F6F6"/>
</g>
<defs>
<clipPath id="clip0_683_15">
<rect width="483" height="135" fill="white"/>
</clipPath>
</defs>
</svg>
