<svg width="460" height="135" viewBox="0 0 460 135" fill="none" xmlns="http://www.w3.org/2000/svg">
<g clip-path="url(#clip0_683_13)">
<path d="M51.7846 46.0227C51.7846 36.9987 50.442 30.1404 47.7569 25.4479C45.1357 20.7553 41.3317 18.4091 36.3451 18.4091C32.2535 18.4091 28.6733 20.1537 25.6046 23.643C22.5998 27.1323 20.0745 31.7045 18.0287 37.3596C16.0468 43.0147 14.5444 49.3917 13.5215 56.4906C12.4986 63.5896 11.9872 70.7487 11.9872 77.9679C11.9872 90 13.6174 99.4452 16.8779 106.303C20.1384 113.162 24.7735 116.591 30.783 116.591C33.8518 116.591 36.441 115.508 38.5507 113.342C40.6605 111.056 42.3866 108.349 43.7292 105.221C45.1357 101.972 46.1905 98.6631 46.8938 95.2941C47.661 91.9251 48.2044 89.1578 48.524 86.992H60.5112C59.5522 95.1738 58.1138 102.273 56.1958 108.289C54.2779 114.305 51.9764 119.298 49.2912 123.269C46.67 127.239 43.7292 130.187 40.4687 132.112C37.2721 134.037 33.9157 135 30.3995 135C25.4767 135 21.1294 133.556 17.3574 130.668C13.5855 127.781 10.4208 123.81 7.86358 118.757C5.30632 113.703 3.35641 107.747 2.01384 100.889C0.671281 94.0307 0 86.631 0 78.6898C0 65.2139 1.05487 53.5428 3.16461 43.6765C5.33828 33.6898 8.15127 25.508 11.6036 19.131C15.1198 12.6337 19.0516 7.82085 23.399 4.69251C27.8102 1.56417 32.2535 0 36.7287 0C40.7564 0 44.4644 1.02272 47.8528 3.06817C51.2411 5.11363 54.1181 8.06149 56.4835 11.9118C58.9129 15.762 60.7669 20.5749 62.0456 26.3503C63.3242 32.1257 63.8996 38.6832 63.7717 46.0227H51.7846Z" fill="#F6F6F6"/>
<path d="M121.663 131.932H109.676L121.663 22.5602H89.7292L77.6461 131.932H65.659L79.8518 3.06817H135.856L121.663 131.932Z" fill="#F6F6F6"/>
<path d="M149.059 3.06817H161.046L150.21 101.972L189.719 3.06817H205.063L190.87 131.932H178.883L189.719 33.0281L150.21 131.932H134.866L149.059 3.06817Z" fill="#F6F6F6"/>
<path d="M219.225 3.06817H246.748C250.328 3.06817 253.333 3.7901 255.762 5.23395C258.191 6.55748 260.205 8.36229 261.803 10.6484C263.402 12.8142 264.616 15.3409 265.448 18.2286C266.343 20.996 266.982 23.8235 267.365 26.7112C267.749 29.5989 267.973 32.4265 268.037 35.1938C268.101 37.9612 268.133 40.3676 268.133 42.4131C268.133 42.5334 268.069 43.6163 267.941 45.6618C267.877 47.7072 267.589 50.2339 267.078 53.242C266.63 56.1297 265.895 59.3182 264.872 62.8075C263.849 66.1765 262.411 69.365 260.557 72.373C258.703 75.2607 256.337 77.6671 253.46 79.5922C250.647 81.5174 247.163 82.4799 243.008 82.4799H222.486L217.019 131.932H205.032L219.225 3.06817ZM224.499 64.0709H242.624C245.309 64.0709 247.515 63.3489 249.241 61.9051C251.031 60.3409 252.406 58.3556 253.364 55.9492C254.387 53.5428 255.091 50.8957 255.474 48.008C255.922 45 256.146 42.0521 256.146 39.1644C256.146 37.3596 255.986 35.4345 255.666 33.389C255.41 31.3436 254.867 29.4184 254.036 27.6136C253.269 25.8088 252.118 24.365 250.583 23.2821C249.113 22.0789 247.163 21.4773 244.734 21.4773H229.198L224.499 64.0709Z" fill="#F6F6F6"/>
<path d="M303.902 3.06817H316.56L328.451 131.932H316.272L313.491 97.8209H286.257L275.708 131.932H262.858L303.902 3.06817ZM308.025 25.8088H307.833L291.339 80.6751H312.245L308.025 25.8088Z" fill="#F6F6F6"/>
<path d="M375.592 131.932L387.579 22.5602H365.139L355.645 95.6551C354.686 102.754 353.535 108.83 352.193 113.884C350.85 118.817 349.316 122.848 347.59 125.976C345.863 129.104 343.946 131.39 341.836 132.834C339.726 134.278 337.488 135 335.123 135C332.438 135 330.008 134.098 327.835 132.293L329.944 114.786C331.415 115.989 332.853 116.591 334.26 116.591C335.475 116.591 336.593 116.23 337.616 115.508C338.639 114.666 339.566 113.222 340.397 111.176C341.292 109.131 342.091 106.364 342.795 102.874C343.498 99.385 344.201 94.9332 344.904 89.5187L355.741 3.06817H401.772L387.579 131.932H375.592Z" fill="#F6F6F6"/>
<path d="M460 86.4505C460 92.7072 459.489 98.6029 458.466 104.138C457.443 109.672 455.844 114.485 453.671 118.576C451.561 122.667 448.844 125.916 445.52 128.322C442.195 130.729 438.231 131.932 433.628 131.932H401.503L415.695 3.06817H427.683L422.216 52.52H438.231C441.428 52.52 444.337 53.1818 446.958 54.5053C449.643 55.7085 451.945 57.6938 453.863 60.4612C455.781 63.1083 457.283 66.5976 458.37 70.9291C459.457 75.2607 460 80.4345 460 86.4505ZM448.396 88.0749C448.396 82.0588 447.437 77.7273 445.52 75.0802C443.602 72.3128 440.277 70.9291 435.546 70.9291H420.203L415.504 113.342H432.765C437.56 113.342 441.364 111.297 444.177 107.206C446.99 103.115 448.396 96.738 448.396 88.0749Z" fill="#F6F6F6"/>
</g>
<defs>
<clipPath id="clip0_683_13">
<rect width="460" height="135" fill="white"/>
</clipPath>
</defs>
</svg>
